<svg width="188" height="180" viewBox="0 0 188 180" fill="none" xmlns="http://www.w3.org/2000/svg">
<path d="M84.4214 169.782C83.1973 169.782 81.9732 169.462 80.9088 168.824L33.5956 141.575C33.223 141.362 33.0101 140.936 33.0101 140.51C33.0101 140.084 33.223 139.659 33.5956 139.446L118.802 90.2698L118.855 90.323L169.575 119.594C169.947 119.807 170.16 120.233 170.16 120.659C170.16 121.085 169.947 121.51 169.575 121.723L87.934 168.877C86.8695 169.462 85.6455 169.782 84.4214 169.782ZM118.802 90.5359L33.702 139.659C33.3827 139.818 33.223 140.138 33.223 140.51C33.223 140.883 33.3827 141.202 33.702 141.362L80.962 168.664C83.0909 169.888 85.6987 169.888 87.7743 168.664L169.415 121.51C169.734 121.351 169.894 121.031 169.894 120.659C169.894 120.286 169.734 119.967 169.415 119.807L118.802 90.5359Z" fill="#8686F2"/>
<path d="M116.141 68.8218L104.752 1.28467L105.657 0.912121L104.273 0.11381C104.007 -0.0458526 103.634 -0.0458534 103.208 0.16703L12.3606 52.6959C11.6155 53.1217 11.03 54.2393 11.1897 54.9844L22.6322 123.001C22.6854 123.373 22.845 123.586 23.1112 123.692L24.4417 124.491L24.6546 123.213H24.6013L114.97 71.0571C115.715 70.6846 116.301 69.5669 116.141 68.8218Z" fill="url(#paint0_linear)"/>
<path d="M12.8395 54.5588L11.3493 53.9202C11.1897 54.2927 11.0832 54.7185 11.1365 55.0378L22.5789 123.054C22.6322 123.426 22.7918 123.639 23.0579 123.746L24.3884 124.544L24.6013 123.267H24.5481L29.1251 120.606L12.8395 54.5588Z" fill="url(#paint1_linear)"/>
<path d="M116.407 71.9086L25.4528 124.437C24.7609 124.863 24.1755 124.597 24.0158 123.905L12.5734 55.8359C12.4669 55.0376 12.9991 53.9732 13.7442 53.5474L104.645 1.07174C105.337 0.645975 105.923 0.912079 106.082 1.60395L117.525 69.6201C117.684 70.4184 117.152 71.4828 116.407 71.9086Z" fill="#24126A"/>
<g opacity="0.51">
<path opacity="0.51" d="M103.474 5.38257L15.8731 55.9955L26.7301 120.02L114.278 69.4604L103.474 5.38257Z" fill="#453C9E"/>
</g>
<path d="M173.566 104.16L168.617 106.768L118.855 78.0289C118.004 77.5499 116.567 77.6031 115.609 78.1885L29.7638 127.684C28.9654 127.205 25.1868 125.449 25.1868 125.449L26.9963 130.185C27.0495 130.398 27.2092 130.611 27.5285 130.771L79.9509 161C80.8025 161.479 82.2394 161.426 83.1974 160.84L171.012 110.121C171.384 109.908 171.65 109.642 171.757 109.323L173.566 104.16Z" fill="url(#paint2_linear)"/>
<path d="M172.768 104.959L82.7717 156.902C81.7605 157.488 80.2703 157.541 79.4188 157.062L25.7722 126.034C24.9207 125.555 25.0271 124.704 25.9851 124.118L115.981 72.1749C116.993 71.5894 118.483 71.5362 119.334 72.0152L173.034 103.043C173.886 103.522 173.779 104.373 172.768 104.959Z" fill="url(#paint3_linear)"/>
<path opacity="0.5" d="M172.768 104.426L82.7716 156.37C81.7604 156.955 80.2702 157.009 79.4187 156.53L25.7722 125.502C25.5061 125.342 25.3464 125.129 25.24 124.916C25.0803 125.342 25.24 125.715 25.7722 126.034L79.4719 157.062C80.3235 157.541 81.8136 157.488 82.8248 156.902L172.821 104.959C173.513 104.586 173.726 104.054 173.566 103.628C173.46 103.894 173.194 104.16 172.768 104.426Z" fill="white"/>
<path d="M55.629 145.673V144.662C55.629 144.555 55.6823 144.502 55.7355 144.555L59.1948 146.577C59.248 146.631 59.3013 146.737 59.3013 146.844V147.855C59.3013 147.961 59.248 148.014 59.1948 147.961L55.7355 145.939C55.6823 145.886 55.629 145.779 55.629 145.673Z" fill="#2842A2"/>
<path d="M60.8447 148.653V147.642C60.8447 147.535 60.8979 147.482 60.9512 147.535L64.4105 149.558C64.4637 149.611 64.517 149.717 64.517 149.824V150.835C64.517 150.941 64.4637 150.995 64.4105 150.941L60.9512 148.919C60.8979 148.866 60.8447 148.759 60.8447 148.653Z" fill="#2842A2"/>
<path d="M39.7692 123.16L114.544 79.9982C115.023 79.7321 115.662 79.7321 116.141 79.9982L142.751 95.4322C143.124 95.6451 143.124 96.2305 142.751 96.4434L67.9763 139.605C67.4973 139.872 66.8586 139.872 66.3796 139.605L39.716 124.225C39.3435 123.905 39.3435 123.373 39.7692 123.16Z" fill="#ADB1F2"/>
<path d="M39.7692 124.118L40.0353 124.278L114.544 81.2755C115.023 81.0094 115.662 81.0094 116.141 81.2755L142.485 96.5498L142.751 96.3902C143.124 96.1773 143.124 95.5918 142.751 95.379L116.141 79.9449C115.662 79.6788 115.023 79.6788 114.544 79.9449L39.7692 123.107C39.3435 123.373 39.3967 123.905 39.7692 124.118Z" fill="#9198DB"/>
<path d="M118.163 83.8835L53.1809 121.351L50.307 119.701L115.29 82.1804L118.163 83.8835Z" fill="#24126A"/>
<path d="M125.242 87.9284L64.304 123.107L61.4301 121.457L122.368 86.2786L125.242 87.9284Z" fill="#24126A"/>
<path d="M129.872 90.6428L58.1304 132.049L55.2032 130.345L126.945 88.9397L129.872 90.6428Z" fill="#24126A"/>
<path d="M134.449 93.3037L62.7074 134.709L59.8335 133.006L131.575 91.6006L134.449 93.3037Z" fill="#24126A"/>
<path d="M139.079 95.9648L67.3375 137.371L64.4636 135.721L136.205 94.2617L139.079 95.9648Z" fill="#24126A"/>
<path d="M49.2958 123.639L46.3686 125.289L43.4947 123.639L46.3686 121.99L49.2958 123.639Z" fill="#24126A"/>
<path d="M59.461 125.928L53.447 129.387L50.5731 127.737L56.5871 124.278L59.461 125.928Z" fill="#24126A"/>
<path d="M117.418 133.591L137.589 121.936C138.387 121.457 138.387 120.765 137.589 120.286L123.805 112.303C123.007 111.824 121.729 111.824 120.931 112.303L100.76 123.958C99.9619 124.437 99.9619 125.129 100.76 125.608L114.544 133.591C115.343 134.07 116.62 134.07 117.418 133.591Z" fill="url(#paint4_linear)"/>
<path d="M100.76 124.65L120.931 112.995C121.729 112.516 123.006 112.516 123.805 112.995L137.589 120.978C137.855 121.138 138.015 121.297 138.068 121.457C138.281 121.085 138.121 120.606 137.589 120.286L123.805 112.303C123.006 111.824 121.729 111.824 120.931 112.303L100.76 123.958C100.228 124.278 100.068 124.704 100.281 125.129C100.388 124.97 100.547 124.81 100.76 124.65Z" fill="#9198DB"/>
<g opacity="0.11">
<g opacity="0.11">
<path opacity="0.11" d="M25.8253 81.3819L45.996 69.7266C46.7943 69.2476 46.7943 68.5557 45.996 68.0767L32.2118 60.0936C31.4135 59.6146 30.1362 59.6146 29.3379 60.0936L9.16722 71.749C8.3689 72.228 8.3689 72.9198 9.16722 73.3988L22.9514 81.3819C23.7497 81.8077 25.027 81.8077 25.8253 81.3819Z" fill="url(#paint5_linear)"/>
<path opacity="0.11" d="M9.16727 72.4408L29.3379 60.7855C30.1362 60.3065 31.4135 60.3065 32.2119 60.7855L45.996 68.7686C46.2621 68.9283 46.4218 69.0879 46.475 69.2476C46.6879 68.875 46.5282 68.3961 45.996 68.0767L32.2119 60.0936C31.4135 59.6146 30.1362 59.6146 29.3379 60.0936L9.16727 71.749C8.63506 72.0683 8.4754 72.4941 8.68828 72.9198C8.7415 72.7602 8.90116 72.6005 9.16727 72.4408Z" fill="#9198DB"/>
<g opacity="0.11">
<path opacity="0.11" d="M0.279498 99.5833L75.1079 56.368C75.5869 56.1019 76.2255 56.1019 76.7045 56.368L103.315 71.8021C103.687 72.0149 103.687 72.6004 103.315 72.8133L28.5929 115.975C28.114 116.241 27.4753 116.241 26.9963 115.975L0.332719 100.594C-0.0930473 100.328 -0.0930474 99.7962 0.279498 99.5833Z" fill="#ADB1F2"/>
<path opacity="0.11" d="M0.279409 100.541L0.545513 100.701L75.0546 57.6986C75.5336 57.4325 76.1722 57.4325 76.6512 57.6986L102.995 72.9729L103.262 72.8133C103.634 72.6004 103.634 72.0149 103.262 71.8021L76.6512 56.368C76.1722 56.1019 75.5336 56.1019 75.0546 56.368L0.279409 99.5833C-0.0931363 99.7962 -0.0931363 100.328 0.279409 100.541Z" fill="#9198DB"/>
<g opacity="0.11">
<path opacity="0.11" d="M96.3429 70.7373L31.2007 108.364L33.8085 109.855L98.9507 72.2275L96.3429 70.7373Z" fill="#24126A"/>
<path opacity="0.11" d="M89.4774 66.7991L27.5817 102.51L30.1363 104L92.0852 68.2893L89.4774 66.7991Z" fill="#24126A"/>
<path opacity="0.11" d="M22.9515 105.225L17.1504 108.524L19.7582 110.014L25.5061 106.715L22.9515 105.225Z" fill="#24126A"/>
<path opacity="0.11" d="M28.0607 110.174L24.0159 112.516L26.6237 114.006L30.6153 111.664L28.0607 110.174Z" fill="#24126A"/>
<path opacity="0.11" d="M85.2198 64.2976L12.8395 106.076L15.4474 107.566L87.7744 65.7878L85.2198 64.2976Z" fill="#24126A"/>
<path opacity="0.11" d="M80.9089 61.7964L8.58191 103.575L11.1365 105.065L83.4635 63.2866L80.9089 61.7964Z" fill="#24126A"/>
<path opacity="0.11" d="M76.598 59.3484L4.271 101.073L6.82559 102.564L79.1526 60.8386L76.598 59.3484Z" fill="#24126A"/>
</g>
</g>
</g>
</g>
<path opacity="0.42" d="M74.4158 119.275L55.0435 107.354L98.6313 82.1804L119.174 96.0178L74.4158 119.275Z" fill="url(#paint6_radial)"/>
<path opacity="0.42" d="M55.0435 107.354L50.573 79.3065L91.4998 55.8362V86.2785L55.0435 107.354Z" fill="url(#paint7_radial)"/>
<path d="M95.7574 42.2115L91.4465 39.7101C91.3933 39.6569 91.34 39.6569 91.2336 39.7101L37.0016 71.0039C36.842 71.1103 36.6823 71.3764 36.6823 71.6425V81.8609C36.6823 81.9674 36.7355 82.0738 36.7888 82.127L41.1529 84.6284L41.2061 79.6789L91.2336 50.78C91.3933 50.6736 91.5529 50.4075 91.5529 50.1414V46.682L95.7574 42.2115Z" fill="url(#paint8_linear)"/>
<path d="M95.5445 53.3343L41.3125 84.6281C41.1529 84.7346 40.9932 84.6281 40.9932 84.362V74.1437C40.9932 73.9308 41.1529 73.6114 41.3125 73.505L95.5445 42.2112C95.7042 42.1048 95.8638 42.2112 95.8638 42.4773V52.6957C95.8638 52.9618 95.7574 53.2279 95.5445 53.3343Z" fill="url(#paint9_linear)"/>
<path opacity="0.6" d="M88.0936 51.2588L45.8895 76.0597C47.22 77.1773 48.4441 78.4546 49.5618 79.8916L92.0851 55.3568C90.8611 53.8134 89.5306 52.4296 88.0936 51.2588Z" fill="#24126A"/>
<path d="M94.001 50.2476L42.8559 79.7852C42.7494 79.8384 42.643 79.7852 42.643 79.6255V77.0177C42.643 76.858 42.7494 76.6451 42.8559 76.5919L94.001 47.0544C94.1075 47.0012 94.2139 47.0544 94.2139 47.214V49.7686C94.2671 49.9815 94.1607 50.1944 94.001 50.2476Z" fill="#24126A"/>
<path d="M94.001 47.1075L92.9366 47.693V49.0767C92.9366 49.2364 92.8302 49.4493 92.7238 49.5025L42.643 78.4014V79.5722C42.643 79.7319 42.7494 79.7851 42.8559 79.7319L94.001 50.1944C94.1075 50.1411 94.2139 49.9282 94.2139 49.7686V47.214C94.2671 47.1075 94.1607 47.0543 94.001 47.1075Z" fill="#453C9E"/>
<path opacity="0.96" d="M122.74 161L165.264 136.465C159.782 133.272 155.152 126.353 153.715 119.754C153.129 117.093 151.48 114.751 149.138 113.368L116.992 94.7936C108.051 89.6311 102.25 80.3175 101.612 69.9927C101.079 61.2645 94.5333 52.6959 89.4241 49.7688L46.9007 74.3036C51.9567 77.2307 57.4916 85.3203 58.1303 93.8888C58.8754 104.214 64.5168 113.527 73.4579 118.743L106.614 137.902C109.009 139.286 110.659 141.628 111.191 144.289C112.628 150.941 117.259 157.86 122.74 161Z" fill="url(#paint10_linear)"/>
<path opacity="0.8" d="M89.4241 49.7688L46.9007 74.3036C47.22 74.5165 47.5926 74.7293 47.9119 74.9422L90.4353 50.4074C90.116 50.1413 89.7966 49.9285 89.4241 49.7688Z" fill="#453C9E"/>
<path d="M147.807 63.1807H134.236V107.407C134.236 108.418 134.875 109.43 136.205 110.175C138.866 111.718 143.177 111.718 145.785 110.175C147.115 109.43 147.754 108.418 147.754 107.407V63.1807H147.807Z" fill="url(#paint11_linear)"/>
<path d="M147.807 63.1807H134.236V107.407C134.236 108.418 134.875 109.43 136.205 110.175C138.866 111.718 143.177 111.718 145.785 110.175C147.115 109.43 147.754 108.418 147.754 107.407V63.1807H147.807Z" fill="url(#paint12_linear)"/>
<path d="M145.838 65.9481C143.177 67.4915 138.866 67.4915 136.259 65.9481C133.598 64.4047 133.598 61.9566 136.259 60.4132C138.92 58.8698 143.231 58.8698 145.838 60.4132C148.499 61.9033 148.499 64.4047 145.838 65.9481Z" fill="url(#paint13_linear)"/>
<path opacity="0.3" d="M144.135 64.9367C142.432 65.9479 139.665 65.9479 137.962 64.9367C136.259 63.9255 136.259 62.3289 137.962 61.3709C139.665 60.3598 142.432 60.3598 144.135 61.3709C145.838 62.3821 145.838 63.9788 144.135 64.9367Z" fill="url(#paint14_linear)"/>
<path opacity="0.5" d="M145.838 65.6291C143.177 67.1725 138.866 67.1725 136.258 65.6291C134.981 64.884 134.343 63.9792 134.289 63.0212C134.236 64.0857 134.875 65.1501 136.258 65.9484C138.92 67.4918 143.23 67.4918 145.838 65.9484C147.222 65.1501 147.861 64.0857 147.807 63.0212C147.754 63.9792 147.062 64.9372 145.838 65.6291Z" fill="white"/>
<path d="M147.807 56.8477H134.236V59.5087C134.236 60.5199 134.875 61.5311 136.205 62.2762C138.866 63.8196 143.177 63.8196 145.785 62.2762C147.115 61.5311 147.754 60.5199 147.754 59.5087V56.8477H147.807Z" fill="url(#paint15_linear)"/>
<path d="M147.807 56.8477H134.236V59.5087C134.236 60.5199 134.875 61.5311 136.205 62.2762C138.866 63.8196 143.177 63.8196 145.785 62.2762C147.115 61.5311 147.754 60.5199 147.754 59.5087V56.8477H147.807Z" fill="url(#paint16_linear)"/>
<path d="M141.048 60.7861C144.781 60.7861 147.807 59.0228 147.807 56.8478C147.807 54.6727 144.781 52.9094 141.048 52.9094C137.315 52.9094 134.289 54.6727 134.289 56.8478C134.289 59.0228 137.315 60.7861 141.048 60.7861Z" fill="url(#paint17_linear)"/>
<path opacity="0.5" d="M145.838 59.3493C143.177 60.8927 138.866 60.8927 136.258 59.3493C134.981 58.6042 134.343 57.6994 134.289 56.7415C134.236 57.8059 134.875 58.8703 136.258 59.6686C138.92 61.212 143.23 61.212 145.838 59.6686C147.222 58.8703 147.861 57.8059 147.807 56.7415C147.754 57.6994 147.062 58.6042 145.838 59.3493Z" fill="white"/>
<path d="M136.578 94.5808H123.007V113.9C123.007 114.911 123.645 115.922 124.976 116.667C127.637 118.211 131.948 118.211 134.556 116.667C135.886 115.922 136.525 114.911 136.525 113.9V94.5808H136.578Z" fill="url(#paint18_linear)"/>
<path d="M136.578 94.5808H123.007V113.9C123.007 114.911 123.645 115.922 124.976 116.667C127.637 118.211 131.948 118.211 134.556 116.667C135.886 115.922 136.525 114.911 136.525 113.9V94.5808H136.578Z" fill="url(#paint19_linear)"/>
<path d="M129.819 98.5192C133.552 98.5192 136.578 96.756 136.578 94.5809C136.578 92.4058 133.552 90.6426 129.819 90.6426C126.086 90.6426 123.06 92.4058 123.06 94.5809C123.06 96.756 126.086 98.5192 129.819 98.5192Z" fill="url(#paint20_linear)"/>
<path opacity="0.5" d="M134.609 97.0292C131.948 98.5726 127.637 98.5726 125.029 97.0292C123.752 96.2841 123.113 95.3794 123.06 94.4214C123.007 95.4858 123.645 96.5502 125.029 97.3485C127.69 98.8919 132.001 98.8919 134.609 97.3485C135.992 96.5502 136.631 95.4858 136.578 94.4214C136.525 95.3794 135.886 96.3373 134.609 97.0292Z" fill="white"/>
<path d="M125.401 91.1216H111.83V120.34C111.83 121.351 112.469 122.362 113.799 123.107C116.46 124.651 120.771 124.651 123.379 123.107C124.71 122.362 125.348 121.351 125.348 120.34V91.1216H125.401Z" fill="url(#paint21_linear)"/>
<path d="M125.401 91.1216H111.83V120.34C111.83 121.351 112.469 122.362 113.799 123.107C116.46 124.651 120.771 124.651 123.379 123.107C124.71 122.362 125.348 121.351 125.348 120.34V91.1216H125.401Z" fill="url(#paint22_linear)"/>
<path d="M123.379 93.889C120.718 95.4324 116.407 95.4324 113.799 93.889C111.138 92.3456 111.138 89.8975 113.799 88.3541C116.46 86.8107 120.771 86.8107 123.379 88.3541C126.04 89.8975 126.04 92.3989 123.379 93.889Z" fill="url(#paint23_linear)"/>
<path opacity="0.5" d="M123.379 93.623C120.718 95.1664 116.407 95.1664 113.799 93.623C112.522 92.8779 111.883 91.9731 111.83 91.0151C111.777 92.0796 112.415 93.144 113.799 93.9423C116.46 95.4857 120.771 95.4857 123.379 93.9423C124.763 93.144 125.401 92.0796 125.348 91.0151C125.295 91.9199 124.656 92.8779 123.379 93.623Z" fill="white"/>
<path d="M114.172 102.883H100.601V126.833C100.601 127.844 101.239 128.855 102.57 129.6C105.231 131.144 109.542 131.144 112.15 129.6C113.48 128.855 114.119 127.844 114.119 126.833V102.883H114.172Z" fill="url(#paint24_linear)"/>
<path d="M114.172 102.883H100.601V126.833C100.601 127.844 101.239 128.855 102.57 129.6C105.231 131.144 109.542 131.144 112.15 129.6C113.48 128.855 114.119 127.844 114.119 126.833V102.883H114.172Z" fill="url(#paint25_linear)"/>
<path d="M107.36 106.822C111.093 106.822 114.119 105.059 114.119 102.884C114.119 100.709 111.093 98.9453 107.36 98.9453C103.627 98.9453 100.601 100.709 100.601 102.884C100.601 105.059 103.627 106.822 107.36 106.822Z" fill="url(#paint26_linear)"/>
<path opacity="0.5" d="M112.15 105.332C109.488 106.875 105.178 106.875 102.57 105.332C101.292 104.587 100.654 103.682 100.601 102.724C100.547 103.788 101.186 104.853 102.57 105.651C105.231 107.194 109.542 107.194 112.15 105.651C113.533 104.853 114.172 103.788 114.119 102.724C114.065 103.682 113.427 104.64 112.15 105.332Z" fill="white"/>
<path d="M102.942 115.23H89.3711V133.272C89.3711 134.284 90.0097 135.295 91.3403 136.04C94.0013 137.583 98.3122 137.583 100.92 136.04C102.251 135.295 102.889 134.284 102.889 133.272V115.23H102.942Z" fill="url(#paint27_linear)"/>
<path d="M102.942 115.23H89.3711V133.272C89.3711 134.284 90.0097 135.295 91.3403 136.04C94.0013 137.583 98.3122 137.583 100.92 136.04C102.251 135.295 102.889 134.284 102.889 133.272V115.23H102.942Z" fill="url(#paint28_linear)"/>
<path d="M100.973 117.998C98.3122 119.541 94.0013 119.541 91.3935 117.998C88.7324 116.455 88.7324 114.006 91.3935 112.463C94.0545 110.92 98.3654 110.92 100.973 112.463C103.581 114.006 103.581 116.508 100.973 117.998Z" fill="url(#paint29_linear)"/>
<path opacity="0.5" d="M100.973 117.732C98.3122 119.275 94.0013 119.275 91.3935 117.732C90.1162 116.987 89.4776 116.082 89.4243 115.124C89.3711 116.188 90.0098 117.253 91.3935 118.051C94.0545 119.595 98.3654 119.595 100.973 118.051C102.357 117.253 102.996 116.188 102.942 115.124C102.889 116.082 102.197 116.987 100.973 117.732Z" fill="white"/>
<path d="M24.1755 59.1357L22.8982 59.9872L22.7385 58.976L24.0158 58.1777L24.1755 59.1357Z" fill="#42E8E0"/>
<path d="M25.2399 65.6819L23.9094 66.5335L23.0046 60.8388L24.3352 60.0405L25.2399 65.6819Z" fill="#42E8E0"/>
<path d="M25.7189 68.8222L24.4416 69.6205L24.069 67.3852L25.3995 66.5869L25.7189 68.8222Z" fill="#42E8E0"/>
<path d="M26.2511 72.0683L24.9738 72.8666L24.6013 70.6313L25.8786 69.833L26.2511 72.0683Z" fill="#42E8E0"/>
<path d="M26.6236 60.9987L25.3463 61.8502L24.9738 59.615L26.3043 58.7634L26.6236 60.9987Z" fill="#42E8E0"/>
<path d="M27.3155 65.3095L26.0382 66.161L25.506 62.8613L26.7833 62.0098L27.3155 65.3095Z" fill="#42E8E0"/>
<path d="M27.9542 69.3009L26.6769 70.0992L26.1979 67.2785L27.5284 66.427L27.9542 69.3009Z" fill="#42E8E0"/>
<path d="M26.7833 75.3149L25.4528 76.1132L25.1335 73.8779L26.4108 73.0796L26.7833 75.3149Z" fill="#42E8E0"/>
<path d="M26.1447 57.9116L24.8142 58.7099L24.6545 57.7519L25.9851 56.9004L26.1447 57.9116Z" fill="#42E8E0"/>
<path d="M28.2735 77.8161L25.985 79.3063L25.8253 78.3483L28.1138 76.9114L28.2735 77.8161Z" fill="#42E8E0"/>
<path d="M187.244 118.583C187.244 118.956 186.978 119.222 186.605 119.222C186.233 119.222 185.967 118.956 185.967 118.583C185.967 118.211 186.233 117.945 186.605 117.945C186.925 117.945 187.244 118.211 187.244 118.583Z" fill="#8686F2"/>
<path d="M18.747 142.905C18.747 143.278 18.4809 143.544 18.1084 143.544C17.7358 143.544 17.4697 143.278 17.4697 142.905C17.4697 142.533 17.7358 142.267 18.1084 142.267C18.4809 142.213 18.747 142.533 18.747 142.905Z" fill="#8686F2"/>
<path d="M166.169 130.718C166.169 131.09 165.902 131.356 165.53 131.356C165.157 131.356 164.891 131.09 164.891 130.718C164.891 130.345 165.157 130.079 165.53 130.079C165.849 130.079 166.169 130.345 166.169 130.718Z" fill="#8686F2"/>
<path d="M39.8225 155.04C39.8225 155.412 39.5564 155.678 39.1839 155.678C38.8113 155.678 38.5452 155.412 38.5452 155.04C38.5452 154.667 38.8113 154.401 39.1839 154.401C39.5564 154.401 39.8225 154.667 39.8225 155.04Z" fill="#8686F2"/>
<path d="M60.8979 167.174C60.8979 167.546 60.6318 167.812 60.2593 167.812C59.8867 167.812 59.6206 167.546 59.6206 167.174C59.6206 166.801 59.8867 166.535 60.2593 166.535C60.5786 166.535 60.8979 166.854 60.8979 167.174Z" fill="#8686F2"/>
<path d="M102.996 167.174C102.996 167.546 102.729 167.812 102.357 167.812C101.984 167.812 101.718 167.546 101.718 167.174C101.718 166.801 101.984 166.535 102.357 166.535C102.729 166.535 102.996 166.854 102.996 167.174Z" fill="#8686F2"/>
<path d="M81.92 179.362C81.92 179.734 81.6539 180 81.2814 180C80.9088 180 80.6427 179.734 80.6427 179.362C80.6427 178.989 80.9088 178.723 81.2814 178.723C81.6539 178.723 81.92 178.989 81.92 179.362Z" fill="#8686F2"/>
<defs>
<linearGradient id="paint0_linear" x1="11.1357" y1="62.2702" x2="116.166" y2="62.2702" gradientUnits="userSpaceOnUse">
<stop stop-color="#C0BFF6"/>
<stop offset="0.2938" stop-color="#C5C4F7"/>
<stop offset="0.6399" stop-color="#D3D2F9"/>
<stop offset="1" stop-color="#E9E9FD"/>
</linearGradient>
<linearGradient id="paint1_linear" x1="11.1364" y1="89.2058" x2="29.1712" y2="89.2058" gradientUnits="userSpaceOnUse">
<stop stop-color="#5761D7"/>
<stop offset="0.1779" stop-color="#5C66D9"/>
<stop offset="0.3876" stop-color="#6A73DF"/>
<stop offset="0.6134" stop-color="#8289E8"/>
<stop offset="0.849" stop-color="#A3A7F5"/>
<stop offset="1" stop-color="#BCBEFF"/>
</linearGradient>
<linearGradient id="paint2_linear" x1="25.2074" y1="119.484" x2="173.545" y2="119.484" gradientUnits="userSpaceOnUse">
<stop stop-color="#5761D7"/>
<stop offset="0.1779" stop-color="#5C66D9"/>
<stop offset="0.3876" stop-color="#6A73DF"/>
<stop offset="0.6134" stop-color="#8289E8"/>
<stop offset="0.849" stop-color="#A3A7F5"/>
<stop offset="1" stop-color="#BCBEFF"/>
</linearGradient>
<linearGradient id="paint3_linear" x1="75.0492" y1="114.538" x2="223.465" y2="114.538" gradientUnits="userSpaceOnUse">
<stop stop-color="#C0BFF6"/>
<stop offset="0.2938" stop-color="#C5C4F7"/>
<stop offset="0.6399" stop-color="#D3D2F9"/>
<stop offset="1" stop-color="#E9E9FD"/>
</linearGradient>
<linearGradient id="paint4_linear" x1="100.183" y1="122.964" x2="138.174" y2="122.964" gradientUnits="userSpaceOnUse">
<stop stop-color="#C0BFF6"/>
<stop offset="0.2938" stop-color="#C5C4F7"/>
<stop offset="0.6399" stop-color="#D3D2F9"/>
<stop offset="1" stop-color="#E9E9FD"/>
</linearGradient>
<linearGradient id="paint5_linear" x1="8.57732" y1="70.7475" x2="46.5676" y2="70.7475" gradientUnits="userSpaceOnUse">
<stop stop-color="#C0BFF6"/>
<stop offset="0.2938" stop-color="#C5C4F7"/>
<stop offset="0.6399" stop-color="#D3D2F9"/>
<stop offset="1" stop-color="#E9E9FD"/>
</linearGradient>
<radialGradient id="paint6_radial" cx="0" cy="0" r="1" gradientUnits="userSpaceOnUse" gradientTransform="translate(68.4383 100.747) scale(42.5478)">
<stop stop-color="#2B237C"/>
<stop offset="1" stop-color="#180D5B"/>
</radialGradient>
<radialGradient id="paint7_radial" cx="0" cy="0" r="1" gradientUnits="userSpaceOnUse" gradientTransform="translate(59.1327 81.6062) scale(32.5678)">
<stop stop-color="#2B237C"/>
<stop offset="1" stop-color="#180D5B"/>
</radialGradient>
<linearGradient id="paint8_linear" x1="47.4071" y1="91.0079" x2="76.0958" y2="39.35" gradientUnits="userSpaceOnUse">
<stop stop-color="#5761D7"/>
<stop offset="0.0397918" stop-color="#5C66D9"/>
<stop offset="0.086699" stop-color="#6A73DF"/>
<stop offset="0.1372" stop-color="#8289E8"/>
<stop offset="0.1899" stop-color="#A3A7F5"/>
<stop offset="0.2237" stop-color="#BCBEFF"/>
</linearGradient>
<linearGradient id="paint9_linear" x1="82.6509" y1="91.191" x2="63.5557" y2="53.862" gradientUnits="userSpaceOnUse">
<stop stop-color="#C0BFF6"/>
<stop offset="0.2938" stop-color="#C5C4F7"/>
<stop offset="0.6399" stop-color="#D3D2F9"/>
<stop offset="1" stop-color="#E9E9FD"/>
</linearGradient>
<linearGradient id="paint10_linear" x1="134.262" y1="158.292" x2="73.5738" y2="50.7571" gradientUnits="userSpaceOnUse">
<stop stop-color="#C0BFF6"/>
<stop offset="0.0774655" stop-color="#C3C2F6"/>
<stop offset="0.1329" stop-color="#CCCBF8"/>
<stop offset="0.1813" stop-color="#DBDBFB"/>
<stop offset="0.2117" stop-color="#E9E9FD"/>
<stop offset="0.2579" stop-color="#D8D7FA"/>
<stop offset="0.3159" stop-color="#CACAF8"/>
<stop offset="0.3878" stop-color="#C2C1F6"/>
<stop offset="0.5143" stop-color="#C0BFF6"/>
<stop offset="0.6217" stop-color="#D0CFF9"/>
<stop offset="0.755" stop-color="#E9E9FD"/>
<stop offset="1" stop-color="#C0BFF6"/>
</linearGradient>
<linearGradient id="paint11_linear" x1="134.245" y1="87.2473" x2="147.737" y2="87.2473" gradientUnits="userSpaceOnUse">
<stop stop-color="#C0BFF6"/>
<stop offset="0.488" stop-color="#D2D1F9"/>
<stop offset="1" stop-color="#E9E9FD"/>
</linearGradient>
<linearGradient id="paint12_linear" x1="119.124" y1="87.2473" x2="145.198" y2="87.2473" gradientUnits="userSpaceOnUse">
<stop stop-color="#5761D7"/>
<stop offset="0.1779" stop-color="#5C66D9"/>
<stop offset="0.3876" stop-color="#6A73DF"/>
<stop offset="0.6134" stop-color="#8289E8"/>
<stop offset="0.849" stop-color="#A3A7F5"/>
<stop offset="1" stop-color="#BCBEFF"/>
</linearGradient>
<linearGradient id="paint13_linear" x1="136.233" y1="60.3929" x2="141.03" y2="68.7027" gradientUnits="userSpaceOnUse">
<stop stop-color="#C0BFF6"/>
<stop offset="0.2938" stop-color="#C5C4F7"/>
<stop offset="0.6399" stop-color="#D3D2F9"/>
<stop offset="1" stop-color="#E9E9FD"/>
</linearGradient>
<linearGradient id="paint14_linear" x1="137.933" y1="61.3745" x2="141.03" y2="66.7389" gradientUnits="userSpaceOnUse">
<stop stop-color="#5761D7"/>
<stop offset="0.1779" stop-color="#5C66D9"/>
<stop offset="0.3876" stop-color="#6A73DF"/>
<stop offset="0.6134" stop-color="#8289E8"/>
<stop offset="0.849" stop-color="#A3A7F5"/>
<stop offset="1" stop-color="#BCBEFF"/>
</linearGradient>
<linearGradient id="paint15_linear" x1="134.245" y1="60.1482" x2="147.737" y2="60.1482" gradientUnits="userSpaceOnUse">
<stop stop-color="#C0BFF6"/>
<stop offset="0.488" stop-color="#D2D1F9"/>
<stop offset="1" stop-color="#E9E9FD"/>
</linearGradient>
<linearGradient id="paint16_linear" x1="119.124" y1="60.1482" x2="145.198" y2="60.1482" gradientUnits="userSpaceOnUse">
<stop stop-color="#5761D7"/>
<stop offset="0.1779" stop-color="#5C66D9"/>
<stop offset="0.3876" stop-color="#6A73DF"/>
<stop offset="0.6134" stop-color="#8289E8"/>
<stop offset="0.849" stop-color="#A3A7F5"/>
<stop offset="1" stop-color="#BCBEFF"/>
</linearGradient>
<linearGradient id="paint17_linear" x1="136.232" y1="54.0962" x2="141.03" y2="62.4061" gradientUnits="userSpaceOnUse">
<stop stop-color="#C0BFF6"/>
<stop offset="0.2938" stop-color="#C5C4F7"/>
<stop offset="0.6399" stop-color="#D3D2F9"/>
<stop offset="1" stop-color="#E9E9FD"/>
</linearGradient>
<linearGradient id="paint18_linear" x1="123.026" y1="106.182" x2="136.518" y2="106.182" gradientUnits="userSpaceOnUse">
<stop stop-color="#C0BFF6"/>
<stop offset="0.488" stop-color="#D2D1F9"/>
<stop offset="1" stop-color="#E9E9FD"/>
</linearGradient>
<linearGradient id="paint19_linear" x1="107.905" y1="106.182" x2="133.979" y2="106.182" gradientUnits="userSpaceOnUse">
<stop stop-color="#5761D7"/>
<stop offset="0.1779" stop-color="#5C66D9"/>
<stop offset="0.3876" stop-color="#6A73DF"/>
<stop offset="0.6134" stop-color="#8289E8"/>
<stop offset="0.849" stop-color="#A3A7F5"/>
<stop offset="1" stop-color="#BCBEFF"/>
</linearGradient>
<linearGradient id="paint20_linear" x1="125.013" y1="91.7923" x2="129.811" y2="100.102" gradientUnits="userSpaceOnUse">
<stop stop-color="#C0BFF6"/>
<stop offset="0.2938" stop-color="#C5C4F7"/>
<stop offset="0.6399" stop-color="#D3D2F9"/>
<stop offset="1" stop-color="#E9E9FD"/>
</linearGradient>
<linearGradient id="paint21_linear" x1="111.806" y1="107.704" x2="125.299" y2="107.704" gradientUnits="userSpaceOnUse">
<stop stop-color="#C0BFF6"/>
<stop offset="0.488" stop-color="#D2D1F9"/>
<stop offset="1" stop-color="#E9E9FD"/>
</linearGradient>
<linearGradient id="paint22_linear" x1="96.6861" y1="107.704" x2="122.759" y2="107.704" gradientUnits="userSpaceOnUse">
<stop stop-color="#5761D7"/>
<stop offset="0.1779" stop-color="#5C66D9"/>
<stop offset="0.3876" stop-color="#6A73DF"/>
<stop offset="0.6134" stop-color="#8289E8"/>
<stop offset="0.849" stop-color="#A3A7F5"/>
<stop offset="1" stop-color="#BCBEFF"/>
</linearGradient>
<linearGradient id="paint23_linear" x1="113.794" y1="88.3675" x2="118.592" y2="96.6774" gradientUnits="userSpaceOnUse">
<stop stop-color="#C0BFF6"/>
<stop offset="0.2938" stop-color="#C5C4F7"/>
<stop offset="0.6399" stop-color="#D3D2F9"/>
<stop offset="1" stop-color="#E9E9FD"/>
</linearGradient>
<linearGradient id="paint24_linear" x1="100.587" y1="116.808" x2="114.08" y2="116.808" gradientUnits="userSpaceOnUse">
<stop stop-color="#C0BFF6"/>
<stop offset="0.488" stop-color="#D2D1F9"/>
<stop offset="1" stop-color="#E9E9FD"/>
</linearGradient>
<linearGradient id="paint25_linear" x1="85.4671" y1="116.808" x2="111.54" y2="116.808" gradientUnits="userSpaceOnUse">
<stop stop-color="#5761D7"/>
<stop offset="0.1779" stop-color="#5C66D9"/>
<stop offset="0.3876" stop-color="#6A73DF"/>
<stop offset="0.6134" stop-color="#8289E8"/>
<stop offset="0.849" stop-color="#A3A7F5"/>
<stop offset="1" stop-color="#BCBEFF"/>
</linearGradient>
<linearGradient id="paint26_linear" x1="102.575" y1="100.105" x2="107.372" y2="108.415" gradientUnits="userSpaceOnUse">
<stop stop-color="#C0BFF6"/>
<stop offset="0.2938" stop-color="#C5C4F7"/>
<stop offset="0.6399" stop-color="#D3D2F9"/>
<stop offset="1" stop-color="#E9E9FD"/>
</linearGradient>
<linearGradient id="paint27_linear" x1="89.3681" y1="126.23" x2="102.86" y2="126.23" gradientUnits="userSpaceOnUse">
<stop stop-color="#C0BFF6"/>
<stop offset="0.488" stop-color="#D2D1F9"/>
<stop offset="1" stop-color="#E9E9FD"/>
</linearGradient>
<linearGradient id="paint28_linear" x1="74.2475" y1="126.23" x2="100.321" y2="126.23" gradientUnits="userSpaceOnUse">
<stop stop-color="#5761D7"/>
<stop offset="0.1779" stop-color="#5C66D9"/>
<stop offset="0.3876" stop-color="#6A73DF"/>
<stop offset="0.6134" stop-color="#8289E8"/>
<stop offset="0.849" stop-color="#A3A7F5"/>
<stop offset="1" stop-color="#BCBEFF"/>
</linearGradient>
<linearGradient id="paint29_linear" x1="91.3556" y1="112.479" x2="96.1534" y2="120.789" gradientUnits="userSpaceOnUse">
<stop stop-color="#C0BFF6"/>
<stop offset="0.2938" stop-color="#C5C4F7"/>
<stop offset="0.6399" stop-color="#D3D2F9"/>
<stop offset="1" stop-color="#E9E9FD"/>
</linearGradient>
</defs>
</svg>
