<svg width="189" height="181" viewBox="0 0 189 181" fill="none" xmlns="http://www.w3.org/2000/svg">
<path d="M81.5658 95.6922C81.1825 95.6922 80.7354 95.5644 80.2883 95.3089L72.0487 90.5185C71.8571 90.4546 71.8571 90.1991 71.9209 90.0714C71.9848 89.8797 72.2403 89.8797 72.3681 89.9436L80.6077 94.7341C81.1825 95.0535 81.6935 95.1173 82.0767 94.9257C82.46 94.7341 82.6516 94.2231 82.6516 93.5844V91.6043C82.6516 90.7101 82.971 90.0075 83.5458 89.6881C84.1207 89.3688 84.8872 89.4326 85.6536 89.8797L87.3782 90.9017C87.5698 90.9656 87.5698 91.2211 87.5059 91.3488C87.4421 91.5405 87.1866 91.5404 87.0588 91.4766L85.3343 90.4546C84.7594 90.1352 84.2484 90.0714 83.8652 90.263C83.482 90.4546 83.2903 90.9656 83.2903 91.6043V93.5844C83.2903 94.4786 82.971 95.1812 82.3961 95.5006C82.1406 95.6283 81.8851 95.6922 81.5658 95.6922Z" fill="#42E8E0"/>
<path d="M78.3722 97.5445C77.9889 97.5445 77.5418 97.4167 77.0947 97.1612L68.8551 92.3708C68.6635 92.3069 68.6635 92.0514 68.7273 91.9237C68.7912 91.732 69.0467 91.732 69.1745 91.7959L77.4141 96.5864C77.9889 96.9057 78.4999 96.9696 78.8831 96.778C79.2664 96.5864 79.458 96.0754 79.458 95.4367V93.4566C79.458 92.5624 79.7774 91.8598 80.3522 91.5404C80.9271 91.2211 81.6936 91.2849 82.46 91.732L84.1846 92.754C84.3762 92.8179 84.3762 93.0734 84.3123 93.2011C84.2485 93.3927 83.993 93.3927 83.8652 93.3289L82.1407 92.3069C81.5658 91.9875 81.0548 91.9237 80.6716 92.1153C80.2884 92.3069 80.0967 92.8179 80.0967 93.4566V95.4367C80.0967 96.3309 79.7774 97.0335 79.2025 97.3529C78.947 97.4806 78.6277 97.5445 78.3722 97.5445Z" fill="#42E8E0"/>
<path d="M75.1146 99.3968C74.7314 99.3968 74.2842 99.269 73.8371 99.0135L65.5975 94.2231C65.4059 94.1592 65.4059 93.9037 65.4698 93.776C65.5337 93.5843 65.7892 93.5843 65.9169 93.6482L74.1565 98.4387C74.7314 98.758 75.2423 98.8219 75.6256 98.6303C76.0088 98.4387 76.2004 97.9277 76.2004 97.289V95.3089C76.2004 94.4147 76.5198 93.7121 77.0947 93.3927C77.6695 93.0733 78.436 93.1372 79.2025 93.5843L80.927 94.6063C81.1187 94.6702 81.1186 94.9257 81.0548 95.0534C80.9909 95.245 80.7354 95.245 80.6077 95.1812L78.8831 94.1592C78.3082 93.8398 77.7973 93.7759 77.414 93.9676C77.0308 94.1592 76.8392 94.6702 76.8392 95.3089V97.289C76.8392 98.1832 76.5198 98.8858 75.9449 99.2052C75.6894 99.3329 75.434 99.3968 75.1146 99.3968Z" fill="#42E8E0"/>
<path d="M71.9209 101.249C71.5376 101.249 71.0905 101.121 70.6434 100.866L62.4038 96.0754C62.2122 96.0115 62.2122 95.756 62.2761 95.6283C62.3399 95.4366 62.5954 95.4366 62.7232 95.5005L70.9628 100.291C71.5376 100.61 72.0486 100.674 72.4318 100.483C72.8151 100.291 73.0067 99.78 73.0067 99.1413V97.1612C73.0067 96.267 73.3261 95.5644 73.9009 95.245C74.4758 94.9256 75.2423 94.9895 76.0087 95.4366L77.7333 96.4586C77.9249 96.5225 77.9249 96.778 77.861 96.9057C77.7972 97.0973 77.5417 97.0973 77.4139 97.0335L75.6894 96.0115C75.1145 95.6921 74.6035 95.6283 74.2203 95.8199C73.8371 96.0115 73.6454 96.5225 73.6454 97.1612V99.1413C73.6454 100.035 73.3261 100.738 72.7512 101.057C72.4957 101.185 72.1764 101.249 71.9209 101.249Z" fill="#42E8E0"/>
<path d="M68.6634 103.102C68.2801 103.102 67.833 102.974 67.3859 102.718L59.1463 97.9279C58.9547 97.864 58.9547 97.6085 59.0185 97.4808C59.0824 97.2892 59.3379 97.2892 59.4657 97.353L67.7053 102.144C68.2801 102.463 68.7911 102.527 69.1744 102.335C69.5576 102.144 69.7492 101.633 69.7492 100.994V99.0137C69.7492 98.1195 70.0686 97.4169 70.6434 97.0976C71.2183 96.7782 71.9847 96.8421 72.7512 97.2892L74.4758 98.3111C74.6674 98.375 74.6674 98.6305 74.6035 98.7582C74.5397 98.9499 74.2842 98.9499 74.1564 98.886L72.4319 97.864C71.857 97.5447 71.346 97.4808 70.9628 97.6724C70.5795 97.864 70.3879 98.375 70.3879 99.0137V100.994C70.3879 101.888 70.0686 102.591 69.4937 102.91C69.2382 103.038 68.9827 103.102 68.6634 103.102Z" fill="#42E8E0"/>
<path d="M65.4698 104.954C65.0866 104.954 64.6395 104.826 64.1924 104.571L55.9527 99.7801C55.7611 99.7162 55.7611 99.4607 55.825 99.333C55.8889 99.1414 56.1444 99.1414 56.2721 99.2052L64.5117 103.996C65.0866 104.315 65.5976 104.379 65.9808 104.187C66.364 103.996 66.5557 103.485 66.5557 102.846V100.802C66.5557 99.9079 66.875 99.2052 67.4499 98.8859C68.0247 98.5665 68.7912 98.6304 69.5577 99.0775L71.2823 100.099C71.4739 100.163 71.4739 100.419 71.41 100.547C71.3461 100.738 71.0906 100.738 70.9629 100.674L69.2383 99.6524C68.6635 99.333 68.1525 99.2691 67.7692 99.4607C67.386 99.6524 67.1944 100.163 67.1944 100.802V102.782C67.1944 103.676 66.875 104.379 66.3002 104.698C66.0447 104.89 65.7892 104.954 65.4698 104.954Z" fill="#42E8E0"/>
<path d="M62.2761 106.806C61.8929 106.806 61.4458 106.678 60.9987 106.423L52.7591 101.632C52.5675 101.568 52.5675 101.313 52.6313 101.185C52.6952 100.994 52.9507 100.994 53.0784 101.057L61.3181 105.848C61.8929 106.167 62.4039 106.231 62.7871 106.039C63.1704 105.848 63.362 105.337 63.362 104.698V102.718C63.362 101.824 63.6814 101.121 64.2562 100.802C64.8311 100.483 65.5975 100.546 66.364 100.994L68.0886 102.015C68.2802 102.079 68.2802 102.335 68.2163 102.463C68.1525 102.654 67.897 102.654 67.7692 102.59L66.0446 101.568C65.4698 101.249 64.9588 101.185 64.5756 101.377C64.1923 101.568 64.0007 102.079 64.0007 102.718V104.698C64.0007 105.592 63.6814 106.295 63.1065 106.614C62.851 106.742 62.5316 106.806 62.2761 106.806Z" fill="#42E8E0"/>
<path d="M59.0186 108.658C58.6354 108.658 58.1882 108.531 57.7411 108.275L49.5015 103.485C49.3099 103.421 49.3099 103.165 49.3738 103.038C49.4376 102.846 49.6931 102.846 49.8209 102.91L58.0605 107.7C58.6354 108.02 59.1463 108.084 59.5296 107.892C59.9128 107.7 60.1044 107.189 60.1044 106.551V104.571C60.1044 103.676 60.4238 102.974 60.9986 102.654C61.5735 102.335 62.34 102.399 63.1065 102.846L64.831 103.868C65.0226 103.932 65.0226 104.187 64.9588 104.315C64.8949 104.507 64.6394 104.507 64.5117 104.443L62.7871 103.421C62.2122 103.102 61.7012 103.038 61.318 103.229C60.9348 103.421 60.7432 103.932 60.7432 104.571V106.551C60.7432 107.445 60.4238 108.148 59.8489 108.467C59.5934 108.595 59.338 108.658 59.0186 108.658Z" fill="#42E8E0"/>
<path d="M55.825 110.511C55.4417 110.511 54.9946 110.383 54.5475 110.128L46.3079 105.337C46.1163 105.273 46.1163 105.018 46.1802 104.89C46.244 104.698 46.4995 104.698 46.6273 104.762L54.8669 109.553C55.4417 109.872 55.9527 109.936 56.336 109.744C56.7192 109.553 56.9108 109.042 56.9108 108.403V106.423C56.9108 105.529 57.2302 104.826 57.805 104.507C58.3799 104.187 59.1464 104.251 59.9129 104.698L61.6374 105.72C61.829 105.784 61.829 106.04 61.7652 106.167C61.7013 106.359 61.4458 106.359 61.3181 106.295L59.5935 105.273C59.0186 104.954 58.5076 104.89 58.1244 105.082C57.7412 105.273 57.5496 105.784 57.5496 106.423V108.403C57.5496 109.297 57.2302 110 56.6553 110.319C56.3998 110.447 56.1444 110.511 55.825 110.511Z" fill="#42E8E0"/>
<path d="M52.6314 112.363C52.2481 112.363 51.801 112.235 51.3539 111.98L43.1143 107.189C42.9227 107.125 42.9227 106.87 42.9866 106.742C43.0504 106.551 43.3059 106.551 43.4337 106.615L51.6733 111.405C52.2481 111.724 52.7591 111.788 53.1424 111.597C53.5256 111.405 53.7172 110.894 53.7172 110.255V108.275C53.7172 107.381 54.0366 106.678 54.6114 106.359C55.1863 106.04 55.9528 106.104 56.7192 106.551L58.4438 107.573C58.6354 107.636 58.6354 107.892 58.5716 108.02C58.5077 108.211 58.2522 108.211 58.1244 108.147L56.3999 107.125C55.825 106.806 55.314 106.742 54.9308 106.934C54.5476 107.126 54.356 107.636 54.356 108.275V110.255C54.356 111.149 54.0366 111.852 53.4617 112.171C53.2062 112.299 52.8869 112.363 52.6314 112.363Z" fill="#42E8E0"/>
<path d="M49.3738 114.215C48.9906 114.215 48.5435 114.088 48.0963 113.832L39.8567 109.042C39.6651 108.978 39.6651 108.722 39.729 108.595C39.7929 108.403 40.0484 108.403 40.1761 108.467L48.4157 113.257C48.9906 113.577 49.5016 113.641 49.8848 113.449C50.268 113.257 50.4596 112.746 50.4596 112.108V110.128C50.4596 109.233 50.779 108.531 51.3539 108.211C51.9287 107.892 52.6952 107.956 53.4617 108.403L55.1862 109.425C55.3779 109.489 55.3779 109.744 55.314 109.872C55.2501 110.064 54.9946 110.064 54.8669 110L53.1423 108.978C52.5675 108.658 52.0565 108.595 51.6732 108.786C51.29 108.978 51.0984 109.489 51.0984 110.128V112.108C51.0984 113.002 50.779 113.704 50.2042 114.024C49.9487 114.152 49.6932 114.215 49.3738 114.215Z" fill="#42E8E0"/>
<path d="M46.1801 116.068C45.7969 116.068 45.3498 115.94 44.9027 115.684L36.6631 110.894C36.4715 110.83 36.4715 110.575 36.5353 110.447C36.5992 110.255 36.8547 110.255 36.9824 110.319L45.222 115.11C45.7969 115.429 46.3079 115.493 46.6911 115.301C47.0744 115.11 47.266 114.599 47.266 113.96V111.98C47.266 111.086 47.5853 110.383 48.1602 110.064C48.7351 109.744 49.5015 109.808 50.268 110.255L51.9926 111.277C52.1842 111.341 52.1842 111.597 52.1203 111.724C52.0565 111.916 51.801 111.916 51.6732 111.852L49.9486 110.83C49.3738 110.511 48.8628 110.447 48.4796 110.638C48.0963 110.83 47.9047 111.341 47.9047 111.98V113.96C47.9047 114.854 47.5853 115.557 47.0105 115.876C46.755 116.004 46.4995 116.068 46.1801 116.068Z" fill="#42E8E0"/>
<path d="M42.9865 117.92C42.6033 117.92 42.1562 117.792 41.7091 117.536L33.4695 112.746C33.2779 112.682 33.2779 112.427 33.3417 112.299C33.4056 112.107 33.6611 112.107 33.7888 112.171L42.0284 116.962C42.6033 117.281 43.1143 117.345 43.4975 117.153C43.8808 116.962 44.0724 116.451 44.0724 115.812V113.832C44.0724 112.938 44.3917 112.235 44.9666 111.916C45.5415 111.596 46.3079 111.66 47.0744 112.107L48.799 113.129C48.9906 113.193 48.9906 113.449 48.9267 113.576C48.8628 113.768 48.6074 113.768 48.4796 113.704L46.755 112.682C46.1802 112.363 45.6692 112.299 45.286 112.491C44.9027 112.682 44.7111 113.193 44.7111 113.832V115.812C44.7111 116.706 44.3917 117.409 43.8169 117.728C43.5614 117.856 43.242 117.92 42.9865 117.92Z" fill="#42E8E0"/>
<path d="M39.729 119.772C39.3457 119.772 38.8986 119.645 38.4515 119.389L30.2119 114.599C30.0203 114.535 30.0203 114.279 30.0842 114.151C30.148 113.96 30.4035 113.96 30.5313 114.024L38.7709 118.814C39.3457 119.134 39.8567 119.197 40.24 119.006C40.6232 118.814 40.8148 118.303 40.8148 117.664V115.684C40.8148 114.79 41.1342 114.088 41.709 113.768C42.2839 113.449 43.0504 113.513 43.8168 113.96L45.5414 114.982C45.733 115.046 45.733 115.301 45.6692 115.429C45.6053 115.621 45.3498 115.621 45.222 115.557L43.4975 114.535C42.9226 114.215 42.4116 114.151 42.0284 114.343C41.6452 114.535 41.4535 115.046 41.4535 115.684V117.664C41.4535 118.559 41.1342 119.261 40.5593 119.581C40.3038 119.708 40.0483 119.772 39.729 119.772Z" fill="#42E8E0"/>
<path d="M36.5354 121.625C36.1521 121.625 35.705 121.497 35.2579 121.241L27.0183 116.451C26.8267 116.387 26.8267 116.131 26.8906 116.004C26.9544 115.812 27.2099 115.812 27.3377 115.876L35.5773 120.666C36.1521 120.986 36.6631 121.05 37.0464 120.858C37.4296 120.666 37.6212 120.155 37.6212 119.517V117.537C37.6212 116.642 37.9406 115.94 38.5154 115.621C39.0903 115.301 39.8568 115.365 40.6232 115.812L42.3478 116.834C42.5394 116.898 42.5394 117.153 42.4755 117.281C42.4117 117.473 42.1562 117.473 42.0284 117.409L40.3039 116.387C39.729 116.068 39.218 116.004 38.8348 116.195C38.4516 116.387 38.2599 116.898 38.2599 117.537V119.517C38.2599 120.411 37.9406 121.114 37.3657 121.433C37.1102 121.561 36.8547 121.625 36.5354 121.625Z" fill="#42E8E0"/>
<path d="M33.3417 123.477C32.9585 123.477 32.5114 123.349 32.0643 123.094L23.8246 118.303C23.633 118.239 23.633 117.984 23.6969 117.856C23.7608 117.665 24.0163 117.665 24.144 117.728L32.3836 122.519C32.9585 122.838 33.4694 122.902 33.8527 122.711C34.2359 122.519 34.4275 122.008 34.4275 121.369V119.325C34.4275 118.431 34.7469 117.728 35.3218 117.409C35.8966 117.09 36.6631 117.154 37.4296 117.601L39.1541 118.623C39.3458 118.687 39.3458 118.942 39.2819 119.07C39.218 119.261 38.9625 119.261 38.8348 119.198L37.1102 118.176C36.5354 117.856 36.0244 117.792 35.6411 117.984C35.2579 118.176 35.0663 118.687 35.0663 119.325V121.305C35.0663 122.2 34.7469 122.902 34.1721 123.222C33.9166 123.413 33.5972 123.477 33.3417 123.477Z" fill="#42E8E0"/>
<path d="M30.0842 125.329C29.701 125.329 29.2539 125.201 28.8067 124.946L20.5671 120.155C20.3755 120.092 20.3755 119.836 20.4394 119.708C20.5033 119.517 20.7588 119.517 20.8865 119.581L29.1261 124.371C29.701 124.69 30.2119 124.754 30.5952 124.563C30.9784 124.371 31.17 123.86 31.17 123.221V121.241C31.17 120.347 31.4894 119.644 32.0643 119.325C32.6391 119.006 33.4056 119.07 34.1721 119.517L35.8966 120.539C36.0883 120.603 36.0883 120.858 36.0244 120.986C35.9605 121.177 35.705 121.177 35.5773 121.114L33.8527 120.092C33.2778 119.772 32.7669 119.708 32.3836 119.9C32.0004 120.092 31.8088 120.603 31.8088 121.241V123.221C31.8088 124.116 31.4894 124.818 30.9145 125.138C30.6591 125.201 30.4036 125.329 30.0842 125.329Z" fill="#42E8E0"/>
<path d="M26.8905 127.181C26.5072 127.181 26.0601 127.054 25.613 126.798L17.3734 122.008C17.1818 121.944 17.1818 121.688 17.2457 121.561C17.3095 121.369 17.565 121.369 17.6928 121.433L25.9324 126.223C26.5072 126.543 27.0182 126.607 27.4015 126.415C27.7847 126.223 27.9763 125.712 27.9763 125.074V123.094C27.9763 122.199 28.2957 121.497 28.8705 121.177C29.4454 120.858 30.2119 120.922 30.9783 121.369L32.7029 122.391C32.8945 122.455 32.8945 122.71 32.8307 122.838C32.7668 123.03 32.5113 123.03 32.3835 122.966L30.659 121.944C30.0841 121.625 29.5731 121.561 29.1899 121.752C28.8067 121.944 28.615 122.455 28.615 123.094V125.074C28.615 125.968 28.2957 126.67 27.7208 126.99C27.4653 127.054 27.146 127.181 26.8905 127.181Z" fill="#42E8E0"/>
<path d="M23.633 129.034C23.2497 129.034 22.8026 128.906 22.3555 128.651L14.1159 123.86C13.9243 123.796 13.9243 123.541 13.9882 123.413C14.052 123.222 14.3075 123.222 14.4353 123.285L22.6749 128.076C23.2497 128.395 23.7607 128.459 24.1439 128.268C24.5272 128.076 24.7188 127.565 24.7188 126.926V124.946C24.7188 124.052 25.0382 123.349 25.613 123.03C26.1879 122.711 26.9544 122.774 27.7208 123.222L29.4454 124.244C29.637 124.307 29.637 124.563 29.5731 124.691C29.5093 124.882 29.2538 124.882 29.126 124.818L27.4015 123.796C26.8266 123.477 26.3156 123.413 25.9324 123.605C25.5492 123.796 25.3575 124.307 25.3575 124.946V126.926C25.3575 127.82 25.0382 128.523 24.4633 128.842C24.2078 128.906 23.9523 129.034 23.633 129.034Z" fill="#42E8E0"/>
<path d="M20.4394 130.886C20.0561 130.886 19.609 130.759 19.1619 130.503L10.9223 125.713C10.7307 125.649 10.7307 125.393 10.7945 125.265C10.8584 125.074 11.1139 125.074 11.2417 125.138L19.4813 129.928C20.0561 130.248 20.5671 130.311 20.9503 130.12C21.3336 129.928 21.5252 129.417 21.5252 128.778V126.798C21.5252 125.904 21.8446 125.202 22.4194 124.882C22.9943 124.563 23.7608 124.627 24.5272 125.074L26.2518 126.096C26.4434 126.16 26.4434 126.415 26.3795 126.543C26.3157 126.735 26.0602 126.735 25.9324 126.671L24.2079 125.649C23.633 125.329 23.122 125.265 22.7388 125.457C22.3555 125.649 22.1639 126.16 22.1639 126.798V128.778C22.1639 129.673 21.8446 130.375 21.2697 130.695C21.0142 130.759 20.7587 130.886 20.4394 130.886Z" fill="#42E8E0"/>
<path d="M94.7236 95.8199C94.4042 95.8199 94.1487 95.756 93.8932 95.6282C93.3184 95.3089 92.999 94.6063 92.999 93.7121V91.732C92.999 91.0933 92.8074 90.5823 92.4241 90.3907C92.0409 90.199 91.5299 90.2629 90.9551 90.5823L89.2305 91.6043C89.0389 91.6681 88.8472 91.6681 88.7834 91.4765C88.7195 91.2849 88.7195 91.0933 88.9111 91.0294L90.6357 90.0074C91.4022 89.5603 92.1687 89.4964 92.7435 89.8158C93.3184 90.1352 93.6377 90.8378 93.6377 91.732V93.7121C93.6377 94.3508 93.8293 94.8618 94.2126 95.0534C94.5958 95.245 95.1068 95.1811 95.6817 94.8618L103.921 90.0713C104.113 90.0074 104.304 90.0074 104.368 90.199C104.432 90.3907 104.432 90.5823 104.241 90.6462L96.001 95.4366C95.5539 95.6921 95.1707 95.8199 94.7236 95.8199Z" fill="#42E8E0"/>
<path d="M97.9811 97.6719C97.6617 97.6719 97.4062 97.608 97.1507 97.4803C96.5759 97.1609 96.2565 96.4583 96.2565 95.5641V93.5841C96.2565 92.9453 96.0649 92.4343 95.6816 92.2427C95.2984 92.0511 94.7874 92.115 94.2126 92.4343L92.488 93.4563C92.2964 93.5202 92.1048 93.5202 92.0409 93.3285C91.977 93.1369 91.977 92.9453 92.1686 92.8814L93.8932 91.8595C94.6597 91.4124 95.4262 91.3485 96.001 91.6679C96.5759 91.9872 96.8952 92.6898 96.8952 93.5841V95.5641C96.8952 96.2028 97.0868 96.7138 97.4701 96.9054C97.8533 97.0971 98.3643 97.0332 98.9392 96.7138L107.179 91.9234C107.37 91.8595 107.562 91.8595 107.626 92.0511C107.69 92.2427 107.69 92.4343 107.498 92.4982L99.2585 97.2887C98.8114 97.5442 98.3643 97.6719 97.9811 97.6719Z" fill="#42E8E0"/>
<path d="M101.175 99.5245C100.855 99.5245 100.6 99.4606 100.344 99.3328C99.7695 99.0135 99.4502 98.3109 99.4502 97.4167V95.4366C99.4502 94.7979 99.2586 94.2869 98.8753 94.0953C98.4921 93.9036 97.9811 93.9675 97.4062 94.2869L95.6817 95.3088C95.49 95.3727 95.2984 95.3727 95.2345 95.1811C95.1707 94.9895 95.1707 94.7979 95.3623 94.734L97.0869 93.712C97.8533 93.2649 98.6198 93.201 99.1947 93.5204C99.7695 93.8398 100.089 94.5424 100.089 95.4366V97.4167C100.089 98.0554 100.281 98.5664 100.664 98.758C101.047 98.9496 101.558 98.8857 102.133 98.5664L110.372 93.7759C110.564 93.712 110.756 93.712 110.82 93.9036C110.883 94.0953 110.883 94.2869 110.692 94.3507L102.452 99.1412C102.005 99.3967 101.558 99.5245 101.175 99.5245Z" fill="#42E8E0"/>
<path d="M104.368 101.377C104.049 101.377 103.793 101.313 103.538 101.185C102.963 100.866 102.644 100.163 102.644 99.269V97.2889C102.644 96.6502 102.452 96.1392 102.069 95.9476C101.686 95.7559 101.175 95.8198 100.6 96.1392L98.8753 97.1611C98.6837 97.225 98.492 97.225 98.4282 97.0334C98.3643 96.8418 98.3643 96.6502 98.5559 96.5863L100.28 95.5643C101.047 95.1172 101.813 95.0533 102.388 95.3727C102.963 95.6921 103.282 96.3947 103.282 97.2889V99.269C103.282 99.9077 103.474 100.419 103.857 100.61C104.241 100.802 104.752 100.738 105.326 100.419L113.566 95.6282C113.758 95.5643 113.949 95.5643 114.013 95.7559C114.077 95.9476 114.077 96.1392 113.885 96.203L105.646 100.994C105.263 101.249 104.815 101.377 104.368 101.377Z" fill="#42E8E0"/>
<path d="M107.626 103.229C107.307 103.229 107.051 103.165 106.796 103.037C106.221 102.718 105.901 102.015 105.901 101.121V99.1412C105.901 98.5024 105.71 97.9915 105.326 97.7998C104.943 97.6082 104.432 97.6721 103.857 97.9915L102.133 99.0134C101.941 99.0773 101.75 99.0773 101.686 98.8857C101.622 98.6941 101.622 98.5024 101.813 98.4386L103.538 97.4166C104.305 96.9695 105.071 96.9056 105.646 97.225C106.221 97.5444 106.54 98.247 106.54 99.1412V101.121C106.54 101.76 106.732 102.271 107.115 102.463C107.498 102.654 108.009 102.59 108.584 102.271L116.824 97.4805C117.015 97.4166 117.207 97.4166 117.271 97.6082C117.335 97.7998 117.335 97.9915 117.143 98.0553L108.903 102.846C108.456 103.101 108.009 103.229 107.626 103.229Z" fill="#42E8E0"/>
<path d="M110.82 105.081C110.5 105.081 110.245 105.017 109.989 104.89C109.414 104.57 109.095 103.868 109.095 102.974V100.993C109.095 100.355 108.903 99.8438 108.52 99.6522C108.137 99.4605 107.626 99.5244 107.051 99.8438L105.326 100.866C105.135 100.93 104.943 100.93 104.879 100.738C104.815 100.546 104.815 100.355 105.007 100.291L106.732 99.2689C107.498 98.8218 108.265 98.7579 108.839 99.0773C109.414 99.3966 109.734 100.099 109.734 100.993V102.974C109.734 103.612 109.925 104.123 110.309 104.315C110.692 104.506 111.203 104.443 111.778 104.123L120.017 99.3328C120.209 99.2689 120.4 99.2689 120.464 99.4605C120.528 99.6521 120.528 99.8438 120.337 99.9076L112.097 104.698C111.65 104.954 111.203 105.081 110.82 105.081Z" fill="#42E8E0"/>
<path d="M114.013 106.934C113.694 106.934 113.438 106.87 113.183 106.742C112.608 106.423 112.289 105.72 112.289 104.826V102.846C112.289 102.207 112.097 101.696 111.714 101.504C111.331 101.313 110.82 101.377 110.245 101.696L108.52 102.718C108.329 102.782 108.137 102.782 108.073 102.59C108.009 102.399 108.009 102.207 108.201 102.143L109.925 101.121C110.692 100.674 111.458 100.61 112.033 100.93C112.608 101.249 112.927 101.952 112.927 102.846V104.826C112.927 105.465 113.119 105.976 113.502 106.167C113.885 106.359 114.396 106.295 114.971 105.976L123.211 101.185C123.403 101.121 123.594 101.121 123.658 101.313C123.722 101.504 123.722 101.696 123.53 101.76L115.355 106.55C114.907 106.806 114.46 106.934 114.013 106.934Z" fill="#42E8E0"/>
<path d="M117.271 108.786C116.951 108.786 116.696 108.722 116.44 108.595C115.865 108.275 115.546 107.573 115.546 106.678V104.698C115.546 104.06 115.354 103.549 114.971 103.357C114.588 103.165 114.077 103.229 113.502 103.549L111.778 104.571C111.586 104.634 111.394 104.634 111.331 104.443C111.267 104.251 111.267 104.06 111.458 103.996L113.183 102.974C113.949 102.527 114.716 102.463 115.291 102.782C115.865 103.101 116.185 103.804 116.185 104.698V106.678C116.185 107.317 116.376 107.828 116.76 108.02C117.143 108.211 117.654 108.147 118.229 107.828L126.468 103.038C126.66 102.974 126.852 102.974 126.915 103.165C126.979 103.357 126.979 103.549 126.788 103.612L118.548 108.403C118.101 108.658 117.654 108.786 117.271 108.786Z" fill="#42E8E0"/>
<path d="M120.464 110.638C120.145 110.638 119.89 110.575 119.634 110.447C119.059 110.127 118.74 109.425 118.74 108.531V106.551C118.74 105.912 118.548 105.401 118.165 105.209C117.782 105.018 117.271 105.082 116.696 105.401L114.971 106.423C114.78 106.487 114.588 106.487 114.524 106.295C114.46 106.104 114.46 105.912 114.652 105.848L116.377 104.826C117.143 104.379 117.909 104.315 118.484 104.634C119.059 104.954 119.379 105.656 119.379 106.551V108.531C119.379 109.169 119.57 109.68 119.953 109.872C120.337 110.064 120.848 110 121.422 109.68L129.662 104.89C129.854 104.826 130.045 104.826 130.109 105.018C130.173 105.209 130.173 105.401 129.981 105.465L121.742 110.255C121.295 110.511 120.848 110.638 120.464 110.638Z" fill="#42E8E0"/>
<path d="M123.658 112.491C123.339 112.491 123.083 112.427 122.828 112.299C122.253 111.98 121.933 111.277 121.933 110.383V108.403C121.933 107.764 121.742 107.253 121.359 107.062C120.975 106.87 120.464 106.934 119.89 107.253L118.165 108.275C117.973 108.339 117.782 108.339 117.718 108.147C117.654 107.956 117.654 107.764 117.846 107.7L119.57 106.678C120.337 106.231 121.103 106.167 121.678 106.487C122.253 106.806 122.572 107.509 122.572 108.403V110.383C122.572 111.022 122.764 111.533 123.147 111.724C123.53 111.916 124.041 111.852 124.616 111.533L132.856 106.742C133.047 106.678 133.239 106.678 133.303 106.87C133.367 107.062 133.367 107.253 133.175 107.317L124.935 112.108C124.552 112.363 124.105 112.491 123.658 112.491Z" fill="#42E8E0"/>
<path d="M126.916 114.343C126.596 114.343 126.341 114.279 126.085 114.151C125.51 113.832 125.191 113.129 125.191 112.235V110.255C125.191 109.616 124.999 109.105 124.616 108.914C124.233 108.722 123.722 108.786 123.147 109.105L121.422 110.127C121.231 110.191 121.039 110.191 120.975 110C120.911 109.808 120.911 109.616 121.103 109.553L122.828 108.531C123.594 108.084 124.361 108.02 124.935 108.339C125.51 108.658 125.83 109.361 125.83 110.255V112.235C125.83 112.874 126.021 113.385 126.405 113.577C126.788 113.768 127.299 113.704 127.874 113.385L136.113 108.595C136.305 108.531 136.496 108.531 136.56 108.722C136.624 108.914 136.624 109.105 136.433 109.169L128.193 113.96C127.746 114.215 127.299 114.343 126.916 114.343Z" fill="#42E8E0"/>
<path d="M130.109 116.195C129.79 116.195 129.534 116.131 129.279 116.003C128.704 115.684 128.385 114.982 128.385 114.087V112.107C128.385 111.469 128.193 110.958 127.81 110.766C127.427 110.574 126.916 110.638 126.341 110.958L124.616 111.979C124.424 112.043 124.233 112.043 124.169 111.852C124.105 111.66 124.105 111.469 124.297 111.405L126.021 110.383C126.788 109.936 127.554 109.872 128.129 110.191C128.704 110.51 129.023 111.213 129.023 112.107V114.087C129.023 114.726 129.215 115.237 129.598 115.429C129.981 115.62 130.492 115.556 131.067 115.237L139.307 110.447C139.499 110.383 139.69 110.383 139.754 110.574C139.818 110.766 139.818 110.958 139.626 111.021L131.387 115.812C130.94 116.067 130.556 116.195 130.109 116.195Z" fill="#42E8E0"/>
<path d="M133.367 118.048C133.047 118.048 132.792 117.984 132.536 117.856C131.961 117.537 131.642 116.834 131.642 115.94V113.96C131.642 113.321 131.451 112.81 131.067 112.618C130.684 112.427 130.173 112.491 129.598 112.81L127.874 113.832C127.682 113.896 127.49 113.896 127.427 113.704C127.363 113.513 127.363 113.321 127.554 113.257L129.279 112.235C130.045 111.788 130.812 111.724 131.387 112.044C131.961 112.363 132.281 113.066 132.281 113.96V115.94C132.281 116.579 132.472 117.09 132.856 117.281C133.239 117.473 133.75 117.409 134.325 117.09L142.564 112.299C142.756 112.235 142.948 112.235 143.011 112.427C143.075 112.618 143.075 112.81 142.884 112.874L134.644 117.664C134.197 117.92 133.75 118.048 133.367 118.048Z" fill="#42E8E0"/>
<path d="M136.56 119.9C136.241 119.9 135.985 119.836 135.73 119.708C135.155 119.389 134.836 118.686 134.836 117.792V115.812C134.836 115.173 134.644 114.662 134.261 114.471C133.878 114.279 133.367 114.343 132.792 114.662L131.067 115.684C130.876 115.748 130.684 115.748 130.62 115.557C130.556 115.365 130.556 115.173 130.748 115.109L132.472 114.088C133.239 113.64 134.005 113.577 134.58 113.896C135.155 114.215 135.474 114.918 135.474 115.812V117.792C135.474 118.431 135.666 118.942 136.049 119.133C136.433 119.325 136.944 119.261 137.518 118.942L145.758 114.151C145.95 114.088 146.141 114.088 146.205 114.279C146.269 114.471 146.269 114.662 146.077 114.726L137.838 119.517C137.391 119.772 136.944 119.9 136.56 119.9Z" fill="#42E8E0"/>
<path d="M139.754 121.752C139.435 121.752 139.179 121.688 138.924 121.561C138.349 121.241 138.029 120.539 138.029 119.644V117.664C138.029 117.026 137.838 116.515 137.455 116.323C137.071 116.131 136.56 116.195 135.986 116.515L134.261 117.537C134.069 117.601 133.878 117.601 133.814 117.409C133.75 117.217 133.75 117.026 133.942 116.962L135.666 115.94C136.433 115.493 137.199 115.429 137.774 115.748C138.349 116.068 138.668 116.77 138.668 117.664V119.644C138.668 120.283 138.86 120.794 139.243 120.986C139.626 121.177 140.137 121.114 140.712 120.794L148.952 116.004C149.143 115.94 149.335 115.94 149.399 116.131C149.463 116.323 149.463 116.515 149.271 116.579L141.031 121.369C140.584 121.625 140.201 121.752 139.754 121.752Z" fill="#42E8E0"/>
<path d="M143.012 123.604C142.692 123.604 142.437 123.54 142.181 123.413C141.606 123.093 141.287 122.391 141.287 121.496V119.516C141.287 118.878 141.095 118.367 140.712 118.175C140.329 117.983 139.818 118.047 139.243 118.367L137.518 119.389C137.327 119.453 137.135 119.453 137.071 119.261C137.007 119.069 137.007 118.878 137.199 118.814L138.924 117.792C139.69 117.345 140.457 117.281 141.031 117.6C141.606 117.92 141.926 118.622 141.926 119.516V121.496C141.926 122.135 142.117 122.646 142.501 122.838C142.884 123.029 143.395 122.966 143.97 122.646L152.209 117.856C152.401 117.792 152.592 117.792 152.656 117.983C152.72 118.175 152.72 118.367 152.529 118.431L144.289 123.221C143.842 123.477 143.395 123.604 143.012 123.604Z" fill="#42E8E0"/>
<path d="M146.205 125.457C145.886 125.457 145.63 125.393 145.375 125.265C144.8 124.946 144.481 124.243 144.481 123.349V121.369C144.481 120.73 144.289 120.219 143.906 120.028C143.522 119.836 143.011 119.9 142.437 120.219L140.712 121.241C140.52 121.305 140.329 121.305 140.265 121.114C140.201 120.922 140.201 120.73 140.393 120.667L142.117 119.645C142.884 119.198 143.65 119.134 144.225 119.453C144.8 119.772 145.119 120.475 145.119 121.369V123.349C145.119 123.988 145.311 124.499 145.694 124.691C146.077 124.882 146.588 124.818 147.163 124.499L155.403 119.709C155.594 119.645 155.786 119.645 155.85 119.836C155.914 120.028 155.914 120.219 155.722 120.283L147.483 125.074C147.035 125.329 146.588 125.457 146.205 125.457Z" fill="#42E8E0"/>
<path d="M149.399 127.309C149.079 127.309 148.824 127.245 148.568 127.118C147.994 126.798 147.674 126.096 147.674 125.201V123.158C147.674 122.519 147.483 122.008 147.099 121.816C146.716 121.625 146.205 121.688 145.63 122.008L143.906 123.03C143.714 123.094 143.522 123.094 143.459 122.902C143.395 122.71 143.395 122.519 143.586 122.455L145.311 121.433C146.077 120.986 146.844 120.922 147.419 121.241C147.994 121.561 148.313 122.263 148.313 123.158V125.138C148.313 125.776 148.505 126.287 148.888 126.479C149.271 126.671 149.782 126.607 150.357 126.287L158.597 121.497C158.788 121.433 158.98 121.433 159.044 121.625C159.107 121.816 159.107 122.008 158.916 122.072L150.676 126.862C150.293 127.182 149.846 127.309 149.399 127.309Z" fill="#42E8E0"/>
<path d="M152.656 129.161C152.337 129.161 152.081 129.098 151.826 128.97C151.251 128.65 150.932 127.948 150.932 127.054V125.074C150.932 124.435 150.74 123.924 150.357 123.732C149.974 123.541 149.463 123.604 148.888 123.924L147.163 124.946C146.972 125.01 146.78 125.01 146.716 124.818C146.652 124.626 146.652 124.435 146.844 124.371L148.568 123.349C149.335 122.902 150.101 122.838 150.676 123.157C151.251 123.477 151.57 124.179 151.57 125.074V127.054C151.57 127.692 151.762 128.203 152.145 128.395C152.529 128.587 153.04 128.523 153.614 128.203L161.854 123.413C162.046 123.349 162.237 123.349 162.301 123.541C162.365 123.732 162.365 123.924 162.173 123.988L153.934 128.778C153.487 129.034 153.04 129.161 152.656 129.161Z" fill="#42E8E0"/>
<path d="M155.85 131.014C155.531 131.014 155.275 130.95 155.02 130.822C154.445 130.503 154.125 129.8 154.125 128.906V126.926C154.125 126.287 153.934 125.776 153.551 125.585C153.167 125.393 152.656 125.457 152.081 125.776L150.357 126.798C150.165 126.862 149.974 126.862 149.91 126.67C149.846 126.479 149.846 126.287 150.038 126.223L151.762 125.201C152.529 124.754 153.295 124.69 153.87 125.01C154.445 125.329 154.764 126.032 154.764 126.926V128.906C154.764 129.545 154.956 130.056 155.339 130.247C155.722 130.439 156.233 130.375 156.808 130.056L165.048 125.265C165.239 125.201 165.431 125.201 165.495 125.393C165.559 125.585 165.559 125.776 165.367 125.84L157.127 130.63C156.68 130.886 156.233 131.014 155.85 131.014Z" fill="#42E8E0"/>
<path d="M151.698 127.118V134.463L88.2085 171.19L24.6549 134.463V127.118H151.698Z" fill="url(#paint0_linear)"/>
<path d="M88.2085 163.845L24.655 127.118L88.1447 90.4546L151.698 127.118L88.2085 163.845Z" fill="#BCBEFF"/>
<path d="M88.2085 162.95L25.3575 126.734L24.6549 127.118L88.2085 163.845L151.698 127.118L150.996 126.734L88.2085 162.95Z" fill="white"/>
<path d="M88.2086 155.349L39.2819 127.182L88.1447 98.9497L137.071 127.182L88.2086 155.349Z" fill="#0F054C"/>
<path opacity="0.5" d="M88.2086 155.349L39.2819 127.182L88.1447 98.9497L137.071 127.182L88.2086 155.349Z" fill="url(#paint1_linear)"/>
<path opacity="0.5" d="M88.1447 91.7959L137.071 120.028V127.181L88.1447 98.9497V91.7959Z" fill="url(#paint2_linear)"/>
<path opacity="0.5" d="M88.2086 98.9499L39.2819 127.182V120.028L88.1447 91.7961L88.2086 98.9499Z" fill="url(#paint3_linear)"/>
<path opacity="0.5" d="M88.2085 148.26L39.2819 120.028L88.1446 91.7961L137.071 120.028L88.2085 148.26Z" fill="url(#paint4_linear)"/>
<path opacity="0.5" d="M88.1446 131.333L68.6634 120.028L88.1446 108.786L107.69 120.028L88.1446 131.333Z" fill="#42E8E0"/>
<path opacity="0.5" d="M88.1448 109.808L106.796 120.539L107.69 120.028L88.1448 108.786L68.6635 120.028L69.5577 120.539L88.1448 109.808Z" fill="#42E8E0"/>
<path opacity="0.5" d="M88.2085 148.26V155.35L137.071 127.182V120.028L88.2085 148.26Z" fill="url(#paint5_linear)"/>
<path opacity="0.5" d="M39.2819 120.028V127.182L88.2085 155.35V148.26L39.2819 120.028Z" fill="url(#paint6_linear)"/>
<path opacity="0.8" d="M88.2086 147.493L39.9845 119.644L39.2819 120.028L88.2086 148.259L137.071 120.028L136.369 119.644L88.2086 147.493Z" fill="#42E8E0"/>
<path d="M104.113 180.004C104.049 180.004 103.985 180.004 103.921 179.94L95.6817 175.15C94.1487 174.256 92.999 172.212 92.999 170.487V168.507C92.999 167.038 91.977 165.186 90.6357 164.419L88.9111 163.397C88.7195 163.333 88.7195 163.078 88.7834 162.95C88.8472 162.758 89.1027 162.759 89.2305 162.822L90.9551 163.844C92.488 164.739 93.6377 166.783 93.6377 168.507V170.487C93.6377 171.956 94.6597 173.809 96.001 174.575L104.241 179.365C104.432 179.429 104.432 179.685 104.368 179.813C104.368 180.004 104.241 180.004 104.113 180.004Z" fill="#42E8E0"/>
<path d="M107.37 178.152C107.306 178.152 107.243 178.152 107.179 178.088L98.9391 173.297C97.4061 172.403 96.2564 170.359 96.2564 168.635V166.655C96.2564 165.185 95.2345 163.333 93.8931 162.567L92.1686 161.545C91.977 161.481 91.977 161.225 92.0408 161.098C92.1047 160.906 92.3602 160.906 92.4879 160.97L94.2125 161.992C95.7454 162.886 96.8952 164.93 96.8952 166.655V168.635C96.8952 170.104 97.9171 171.956 99.2585 172.722L107.498 177.513C107.69 177.577 107.69 177.832 107.626 177.96C107.562 178.088 107.434 178.152 107.37 178.152Z" fill="#42E8E0"/>
<path d="M110.564 176.3C110.5 176.3 110.436 176.3 110.372 176.236L102.133 171.445C100.6 170.551 99.4502 168.507 99.4502 166.783V164.802C99.4502 163.333 98.4282 161.481 97.0869 160.715L95.3623 159.693C95.1707 159.629 95.1707 159.373 95.2345 159.246C95.2984 159.054 95.5539 159.054 95.6817 159.118L97.4062 160.14C98.9392 161.034 100.089 163.078 100.089 164.802V166.783C100.089 168.252 101.111 170.104 102.452 170.87L110.692 175.661C110.883 175.725 110.883 175.98 110.82 176.108C110.82 176.236 110.692 176.3 110.564 176.3Z" fill="#42E8E0"/>
<path d="M113.758 174.448C113.694 174.448 113.63 174.448 113.566 174.384L105.326 169.593C103.793 168.699 102.644 166.655 102.644 164.93V162.95C102.644 161.481 101.622 159.629 100.28 158.863L98.5558 157.841C98.3642 157.777 98.3642 157.521 98.4281 157.393C98.492 157.202 98.7475 157.202 98.8752 157.266L100.6 158.288C102.133 159.182 103.282 161.226 103.282 162.95V164.93C103.282 166.4 104.304 168.252 105.646 169.018L113.885 173.809C114.077 173.873 114.077 174.128 114.013 174.256C114.013 174.384 113.885 174.448 113.758 174.448Z" fill="#42E8E0"/>
<path d="M117.015 172.595C116.951 172.595 116.887 172.595 116.824 172.531L108.584 167.74C107.051 166.846 105.901 164.802 105.901 163.078V161.098C105.901 159.629 104.879 157.776 103.538 157.01L101.813 155.988C101.622 155.924 101.622 155.668 101.686 155.541C101.75 155.349 102.005 155.349 102.133 155.413L103.857 156.435C105.39 157.329 106.54 159.373 106.54 161.098V163.078C106.54 164.547 107.562 166.399 108.903 167.166L117.143 171.956C117.335 172.02 117.335 172.275 117.271 172.403C117.207 172.531 117.143 172.595 117.015 172.595Z" fill="#42E8E0"/>
<path d="M120.209 170.742C120.145 170.742 120.081 170.742 120.017 170.679L111.778 165.888C110.245 164.994 109.095 162.95 109.095 161.225V159.245C109.095 157.776 108.073 155.924 106.732 155.157L105.007 154.136C104.815 154.072 104.815 153.816 104.879 153.688C104.943 153.497 105.199 153.497 105.326 153.561L107.051 154.583C108.584 155.477 109.734 157.521 109.734 159.245V161.225C109.734 162.694 110.756 164.547 112.097 165.313L120.337 170.104C120.528 170.168 120.528 170.423 120.464 170.551C120.464 170.679 120.337 170.742 120.209 170.742Z" fill="#42E8E0"/>
<path d="M123.402 168.89C123.339 168.89 123.275 168.89 123.211 168.826L114.971 164.036C113.438 163.142 112.289 161.098 112.289 159.373V157.393C112.289 155.924 111.267 154.072 109.925 153.305L108.201 152.283C108.009 152.219 108.009 151.964 108.073 151.836C108.137 151.644 108.392 151.644 108.52 151.708L110.245 152.73C111.778 153.625 112.927 155.668 112.927 157.393V159.373C112.927 160.842 113.949 162.695 115.291 163.461L123.53 168.251C123.722 168.315 123.722 168.571 123.658 168.699C123.658 168.826 123.53 168.89 123.402 168.89Z" fill="#42E8E0"/>
<path d="M126.66 167.038C126.596 167.038 126.532 167.038 126.468 166.974L118.229 162.184C116.696 161.29 115.546 159.246 115.546 157.521V155.541C115.546 154.072 114.524 152.22 113.183 151.453L111.458 150.431C111.267 150.367 111.267 150.112 111.331 149.984C111.394 149.792 111.65 149.792 111.778 149.856L113.502 150.878C115.035 151.773 116.185 153.816 116.185 155.541V157.521C116.185 158.99 117.207 160.842 118.548 161.609L126.788 166.399C126.979 166.463 126.979 166.719 126.915 166.847C126.852 166.974 126.788 167.038 126.66 167.038Z" fill="#42E8E0"/>
<path d="M129.854 165.186C129.79 165.186 129.726 165.186 129.662 165.122L121.422 160.331C119.889 159.437 118.74 157.393 118.74 155.669V153.688C118.74 152.219 117.718 150.367 116.376 149.601L114.652 148.579C114.46 148.515 114.46 148.259 114.524 148.132C114.588 147.94 114.844 147.94 114.971 148.004L116.696 149.026C118.229 149.92 119.378 151.964 119.378 153.688V155.669C119.378 157.138 120.4 158.99 121.742 159.756L129.981 164.547C130.173 164.611 130.173 164.866 130.109 164.994C130.109 165.122 129.981 165.186 129.854 165.186Z" fill="#42E8E0"/>
<path d="M133.111 163.333C133.047 163.333 132.983 163.333 132.92 163.27L124.68 158.479C123.147 157.585 121.997 155.541 121.997 153.816V151.9C121.997 150.431 120.975 148.579 119.634 147.812L117.909 146.79C117.718 146.726 117.718 146.471 117.782 146.343C117.846 146.152 118.101 146.152 118.229 146.215L119.953 147.237C121.486 148.132 122.636 150.176 122.636 151.9V153.88C122.636 155.349 123.658 157.202 124.999 157.968L133.239 162.759C133.431 162.822 133.431 163.078 133.367 163.206C133.303 163.27 133.175 163.333 133.111 163.333Z" fill="#42E8E0"/>
<path d="M136.305 161.481C136.241 161.481 136.177 161.481 136.113 161.417L127.874 156.627C126.341 155.732 125.191 153.689 125.191 151.964V149.984C125.191 148.515 124.169 146.662 122.828 145.896L121.103 144.874C120.911 144.81 120.911 144.555 120.975 144.427C121.039 144.235 121.295 144.235 121.422 144.299L123.147 145.321C124.68 146.215 125.83 148.259 125.83 149.984V151.964C125.83 153.433 126.852 155.285 128.193 156.052L136.433 160.842C136.624 160.906 136.624 161.162 136.56 161.289C136.496 161.417 136.433 161.481 136.305 161.481Z" fill="#42E8E0"/>
<path d="M139.498 159.629C139.435 159.629 139.371 159.629 139.307 159.565L131.067 154.774C129.534 153.88 128.385 151.836 128.385 150.112V148.132C128.385 146.663 127.363 144.81 126.021 144.044L124.297 143.022C124.105 142.958 124.105 142.702 124.169 142.575C124.233 142.383 124.488 142.383 124.616 142.447L126.341 143.469C127.874 144.363 129.023 146.407 129.023 148.132V150.112C129.023 151.581 130.045 153.433 131.387 154.2L139.626 158.99C139.818 159.054 139.818 159.309 139.754 159.437C139.754 159.565 139.626 159.629 139.498 159.629Z" fill="#42E8E0"/>
<path d="M142.756 157.776C142.692 157.776 142.628 157.776 142.564 157.713L134.325 152.922C132.792 152.028 131.642 149.984 131.642 148.259V146.279C131.642 144.81 130.62 142.958 129.279 142.191L127.554 141.169C127.363 141.106 127.363 140.85 127.426 140.722C127.49 140.531 127.746 140.531 127.874 140.595L129.598 141.617C131.131 142.511 132.281 144.555 132.281 146.279V148.259C132.281 149.728 133.303 151.581 134.644 152.347L142.884 157.138C143.075 157.202 143.075 157.457 143.011 157.585C142.948 157.713 142.82 157.776 142.756 157.776Z" fill="#42E8E0"/>
<path d="M145.95 155.924C145.886 155.924 145.822 155.924 145.758 155.86L137.518 151.07C135.985 150.175 134.836 148.131 134.836 146.407V144.427C134.836 142.958 133.814 141.105 132.472 140.339L130.748 139.317C130.556 139.253 130.556 138.998 130.62 138.87C130.684 138.678 130.939 138.678 131.067 138.742L132.792 139.764C134.325 140.658 135.474 142.702 135.474 144.427V146.407C135.474 147.876 136.496 149.728 137.838 150.495L146.077 155.285C146.269 155.349 146.269 155.605 146.205 155.732C146.205 155.86 146.077 155.924 145.95 155.924Z" fill="#42E8E0"/>
<path d="M149.143 154.072C149.079 154.072 149.016 154.072 148.952 154.008L140.712 149.217C139.179 148.323 138.029 146.279 138.029 144.555V142.575C138.029 141.106 137.007 139.253 135.666 138.487L133.942 137.465C133.75 137.401 133.75 137.146 133.814 137.018C133.878 136.826 134.133 136.826 134.261 136.89L135.985 137.912C137.518 138.806 138.668 140.85 138.668 142.575V144.555C138.668 146.024 139.69 147.876 141.031 148.643L149.271 153.433C149.463 153.497 149.463 153.752 149.399 153.88C149.399 154.008 149.271 154.072 149.143 154.072Z" fill="#42E8E0"/>
<path d="M152.401 152.22C152.337 152.22 152.273 152.22 152.209 152.156L143.97 147.365C142.437 146.471 141.287 144.427 141.287 142.702V140.722C141.287 139.253 140.265 137.401 138.924 136.635L137.199 135.613C137.007 135.549 137.007 135.293 137.071 135.165C137.135 134.974 137.391 134.974 137.518 135.038L139.243 136.06C140.776 136.954 141.926 138.998 141.926 140.722V142.702C141.926 144.172 142.948 146.024 144.289 146.79L152.529 151.581C152.72 151.645 152.72 151.9 152.656 152.028C152.592 152.156 152.529 152.22 152.401 152.22Z" fill="#42E8E0"/>
<path d="M155.594 150.367C155.531 150.367 155.467 150.367 155.403 150.303L147.163 145.513C145.63 144.619 144.481 142.575 144.481 140.85V138.87C144.481 137.401 143.459 135.549 142.117 134.782L140.393 133.76C140.201 133.696 140.201 133.441 140.265 133.313C140.329 133.122 140.584 133.122 140.712 133.185L142.437 134.207C143.97 135.102 145.119 137.146 145.119 138.87V140.85C145.119 142.319 146.141 144.172 147.483 144.938L155.722 149.729C155.914 149.792 155.914 150.048 155.85 150.176C155.85 150.303 155.722 150.367 155.594 150.367Z" fill="#42E8E0"/>
<path d="M158.788 148.515C158.724 148.515 158.66 148.515 158.596 148.451L150.357 143.661C148.824 142.766 147.674 140.722 147.674 138.998V137.018C147.674 135.549 146.652 133.696 145.311 132.93L143.586 131.908C143.395 131.844 143.395 131.589 143.459 131.461C143.522 131.269 143.778 131.269 143.906 131.333L145.63 132.355C147.163 133.249 148.313 135.293 148.313 137.018V138.998C148.313 140.467 149.335 142.319 150.676 143.086L158.916 147.876C159.107 147.94 159.107 148.196 159.044 148.323C159.044 148.451 158.916 148.515 158.788 148.515Z" fill="#42E8E0"/>
<path d="M162.046 146.662C161.982 146.662 161.918 146.662 161.854 146.599L153.614 141.808C152.081 140.914 150.932 138.87 150.932 137.145V135.165C150.932 133.696 149.91 131.844 148.568 131.077L146.844 130.055C146.652 129.992 146.652 129.736 146.716 129.608C146.78 129.417 147.035 129.417 147.163 129.481L148.888 130.503C150.421 131.397 151.57 133.441 151.57 135.165V137.145C151.57 138.614 152.592 140.467 153.934 141.233L162.173 146.024C162.365 146.088 162.365 146.343 162.301 146.471C162.237 146.599 162.173 146.662 162.046 146.662Z" fill="#42E8E0"/>
<path d="M165.239 144.81C165.175 144.81 165.112 144.81 165.048 144.746L156.808 139.956C155.275 139.062 154.125 137.018 154.125 135.293V133.377C154.125 131.908 153.103 130.056 151.762 129.289L150.038 128.267C149.846 128.203 149.846 127.948 149.91 127.82C149.974 127.628 150.229 127.628 150.357 127.692L152.081 128.714C153.614 129.608 154.764 131.652 154.764 133.377V135.357C154.764 136.826 155.786 138.678 157.127 139.445L165.367 144.235C165.559 144.299 165.559 144.555 165.495 144.682C165.495 144.746 165.367 144.81 165.239 144.81Z" fill="#42E8E0"/>
<path d="M71.9848 180.004C71.8571 180.004 71.7293 179.94 71.6655 179.813C71.6016 179.621 71.6016 179.429 71.7932 179.365L80.0328 174.575C81.3103 173.809 82.3961 172.02 82.3961 170.487V168.507C82.3961 166.783 83.5458 164.739 85.0788 163.844L86.8033 162.822C86.995 162.759 87.1866 162.758 87.2505 162.95C87.3143 163.142 87.3143 163.333 87.1227 163.397L85.3981 164.419C84.1207 165.186 83.0348 166.974 83.0348 168.507V170.487C83.0348 172.212 81.8851 174.256 80.3522 175.15L72.1126 179.94C72.1126 180.004 72.0487 180.004 71.9848 180.004Z" fill="#42E8E0"/>
<path d="M68.7912 178.152C68.6634 178.152 68.5357 178.088 68.4718 177.961C68.4079 177.769 68.4079 177.577 68.5995 177.513L76.8392 172.723C78.1166 171.956 79.2024 170.168 79.2024 168.635V166.655C79.2024 164.93 80.3522 162.887 81.8851 161.992L83.6097 160.97C83.8013 160.906 83.9929 160.906 84.0568 161.098C84.1207 161.29 84.1207 161.481 83.929 161.545L82.2045 162.567C80.927 163.334 79.8412 165.122 79.8412 166.655V168.635C79.8412 170.36 78.6915 172.404 77.1585 173.298L68.9189 178.088C68.9189 178.152 68.855 178.152 68.7912 178.152Z" fill="#42E8E0"/>
<path d="M65.5336 176.3C65.4059 176.3 65.2782 176.236 65.2143 176.108C65.1504 175.916 65.1504 175.725 65.342 175.661L73.5816 170.87C74.8591 170.104 75.9449 168.315 75.9449 166.783V164.802C75.9449 163.078 77.0947 161.034 78.6276 160.14L80.3522 159.118C80.5438 159.054 80.7354 159.054 80.7993 159.246C80.8631 159.437 80.8632 159.629 80.6715 159.693L78.947 160.715C77.6695 161.481 76.5837 163.27 76.5837 164.802V166.783C76.5837 168.507 75.434 170.551 73.901 171.445L65.6614 176.236C65.6614 176.3 65.5975 176.3 65.5336 176.3Z" fill="#42E8E0"/>
<path d="M62.34 174.448C62.2122 174.448 62.0845 174.384 62.0206 174.256C61.9567 174.064 61.9568 173.873 62.1484 173.809L70.388 169.018C71.6654 168.252 72.7513 166.463 72.7513 164.93V162.95C72.7513 161.226 73.901 159.182 75.4339 158.288L77.1585 157.266C77.3501 157.202 77.5417 157.202 77.6056 157.393C77.6695 157.585 77.6695 157.777 77.4779 157.841L75.7533 158.863C74.4758 159.629 73.39 161.417 73.39 162.95V164.93C73.39 166.655 72.2403 168.699 70.7073 169.593L62.4677 174.384C62.4677 174.448 62.4039 174.448 62.34 174.448Z" fill="#42E8E0"/>
<path d="M59.1463 172.595C59.0186 172.595 58.8908 172.531 58.827 172.403C58.7631 172.212 58.7631 172.02 58.9547 171.956L67.1943 167.166C68.4718 166.399 69.5576 164.611 69.5576 163.078V161.098C69.5576 159.373 70.7073 157.329 72.2403 156.435L73.9649 155.413C74.1565 155.349 74.3481 155.349 74.412 155.541C74.4758 155.732 74.4758 155.924 74.2842 155.988L72.5596 157.01C71.2822 157.776 70.1963 159.565 70.1963 161.098V163.078C70.1963 164.802 69.0466 166.846 67.5137 167.74L59.2741 172.531C59.2741 172.595 59.2102 172.595 59.1463 172.595Z" fill="#42E8E0"/>
<path d="M55.8888 170.743C55.761 170.743 55.6333 170.679 55.5694 170.551C55.5055 170.359 55.5055 170.168 55.6971 170.104L63.9367 165.314C65.2142 164.547 66.3001 162.759 66.3001 161.226V159.246C66.3001 157.521 67.4498 155.477 68.9827 154.583L70.7073 153.561C70.8989 153.497 71.0905 153.497 71.1544 153.689C71.2183 153.88 71.2183 154.072 71.0266 154.136L69.3021 155.158C68.0246 155.924 66.9388 157.713 66.9388 159.246V161.226C66.9388 162.95 65.7891 164.994 64.2561 165.888L56.0165 170.679C56.0165 170.743 55.9526 170.743 55.8888 170.743Z" fill="#42E8E0"/>
<path d="M52.6951 168.89C52.5674 168.89 52.4397 168.827 52.3758 168.699C52.3119 168.507 52.3119 168.316 52.5035 168.252L60.7431 163.461C62.0206 162.695 63.1064 160.906 63.1064 159.373V157.393C63.1064 155.669 64.2561 153.625 65.7891 152.731L67.5137 151.709C67.7053 151.645 67.8969 151.645 67.9608 151.836C68.0246 152.028 68.0247 152.22 67.833 152.283L66.1085 153.305C64.831 154.072 63.7452 155.86 63.7452 157.393V159.373C63.7452 161.098 62.5955 163.142 61.0625 164.036L52.8229 168.827C52.8229 168.89 52.759 168.89 52.6951 168.89Z" fill="#42E8E0"/>
<path d="M49.5015 167.038C49.3738 167.038 49.2461 166.974 49.1822 166.847C49.1183 166.655 49.1183 166.463 49.3099 166.399L57.5495 161.609C58.827 160.842 59.9128 159.054 59.9128 157.521V155.541C59.9128 153.816 61.0625 151.773 62.5955 150.878L64.3201 149.856C64.5117 149.792 64.7033 149.792 64.7672 149.984C64.831 150.176 64.8311 150.367 64.6394 150.431L62.9149 151.453C61.6374 152.22 60.5516 154.008 60.5516 155.541V157.521C60.5516 159.246 59.4019 161.29 57.8689 162.184L49.6293 166.974C49.5654 167.038 49.5654 167.038 49.5015 167.038Z" fill="#42E8E0"/>
<path d="M46.244 165.186C46.1163 165.186 45.9885 165.122 45.9247 164.994C45.8608 164.803 45.8608 164.611 46.0524 164.547L54.292 159.757C55.5695 158.99 56.6553 157.202 56.6553 155.669V153.689C56.6553 151.964 57.805 149.92 59.338 149.026L61.0626 148.004C61.2542 147.94 61.4458 147.94 61.5097 148.132C61.5736 148.323 61.5735 148.515 61.3819 148.579L59.6574 149.601C58.3799 150.367 57.2941 152.156 57.2941 153.689V155.669C57.2941 157.393 56.1443 159.437 54.6114 160.332L46.3718 165.122C46.3718 165.186 46.3079 165.186 46.244 165.186Z" fill="#42E8E0"/>
<path d="M43.0504 163.333C42.9227 163.333 42.7949 163.27 42.7311 163.142C42.6672 162.95 42.6672 162.759 42.8588 162.695L51.0984 157.904C52.3759 157.138 53.4617 155.349 53.4617 153.816V151.9C53.4617 150.176 54.6114 148.132 56.1444 147.237L57.869 146.215C58.0606 146.152 58.2522 146.152 58.3161 146.343C58.3799 146.535 58.3799 146.726 58.1883 146.79L56.4638 147.812C55.1863 148.579 54.1005 150.367 54.1005 151.9V153.88C54.1005 155.605 52.9507 157.649 51.4178 158.543L43.1782 163.333C43.1782 163.333 43.1143 163.333 43.0504 163.333Z" fill="#42E8E0"/>
<path d="M39.8567 161.481C39.729 161.481 39.6012 161.417 39.5373 161.289C39.4735 161.098 39.4735 160.906 39.6651 160.842L47.9047 156.052C49.1822 155.285 50.268 153.497 50.268 151.964V149.984C50.268 148.259 51.4177 146.215 52.9507 145.321L54.6752 144.299C54.8668 144.235 55.0585 144.235 55.1223 144.427C55.1862 144.619 55.1862 144.81 54.9946 144.874L53.27 145.896C51.9926 146.662 50.9067 148.451 50.9067 149.984V151.964C50.9067 153.689 49.757 155.732 48.2241 156.627L39.9845 161.481C39.9206 161.481 39.8567 161.481 39.8567 161.481Z" fill="#42E8E0"/>
<path d="M36.5992 159.629C36.4715 159.629 36.3437 159.565 36.2798 159.437C36.216 159.245 36.216 159.054 36.4076 158.99L44.6472 154.2C45.9247 153.433 47.0105 151.645 47.0105 150.112V148.132C47.0105 146.407 48.1602 144.363 49.6932 143.469L51.4177 142.447C51.6093 142.383 51.801 142.383 51.8648 142.575C51.9287 142.766 51.9287 142.958 51.7371 143.022L50.0125 144.044C48.7351 144.81 47.6492 146.599 47.6492 148.132V150.112C47.6492 151.836 46.4995 153.88 44.9666 154.774L36.7269 159.565C36.7269 159.629 36.6631 159.629 36.5992 159.629Z" fill="#42E8E0"/>
<path d="M33.4055 157.777C33.2778 157.777 33.15 157.713 33.0862 157.585C33.0223 157.393 33.0223 157.202 33.2139 157.138L41.4535 152.347C42.731 151.581 43.8168 149.793 43.8168 148.26V146.28C43.8168 144.555 44.9665 142.511 46.4995 141.617L48.2241 140.595C48.4157 140.531 48.6073 140.531 48.6712 140.723C48.7351 140.914 48.735 141.106 48.5434 141.17L46.8189 142.192C45.5414 142.958 44.4556 144.747 44.4556 146.28V148.26C44.4556 149.984 43.3058 152.028 41.7729 152.922L33.5333 157.713C33.5333 157.777 33.4694 157.777 33.4055 157.777Z" fill="#42E8E0"/>
<path d="M30.1481 155.924C30.0203 155.924 29.8926 155.86 29.8287 155.732C29.7649 155.541 29.7649 155.349 29.9565 155.285L38.1961 150.495C39.4735 149.728 40.5594 147.94 40.5594 146.407V144.427C40.5594 142.702 41.7091 140.658 43.242 139.764L44.9666 138.742C45.1582 138.678 45.3498 138.678 45.4137 138.87C45.4776 139.061 45.4776 139.253 45.286 139.317L43.5614 140.339C42.284 141.105 41.1981 142.894 41.1981 144.427V146.407C41.1981 148.131 40.0484 150.175 38.5154 151.07L30.2758 155.86C30.2758 155.924 30.212 155.924 30.1481 155.924Z" fill="#42E8E0"/>
<path d="M26.9544 154.072C26.8266 154.072 26.6989 154.008 26.635 153.88C26.5711 153.689 26.5711 153.497 26.7627 153.433L35.0024 148.643C36.2798 147.876 37.3656 146.088 37.3656 144.555V142.575C37.3656 140.85 38.5154 138.806 40.0483 137.912L41.7729 136.89C41.9645 136.826 42.1561 136.826 42.22 137.018C42.2839 137.209 42.2839 137.401 42.0923 137.465L40.3677 138.487C39.0902 139.253 38.0044 141.042 38.0044 142.575V144.555C38.0044 146.279 36.8547 148.323 35.3217 149.217L27.0821 154.008C27.0821 154.072 27.0182 154.072 26.9544 154.072Z" fill="#42E8E0"/>
<path d="M23.7608 152.22C23.633 152.22 23.5053 152.156 23.4414 152.028C23.3775 151.837 23.3775 151.645 23.5691 151.581L31.8087 146.791C33.0862 146.024 34.172 144.236 34.172 142.703V140.723C34.172 138.998 35.3218 136.954 36.8547 136.06L38.5793 135.038C38.7709 134.974 38.9625 134.974 39.0264 135.166C39.0903 135.357 39.0903 135.549 38.8986 135.613L37.1741 136.635C35.8966 137.401 34.8108 139.19 34.8108 140.723V142.703C34.8108 144.427 33.6611 146.471 32.1281 147.365L23.8885 152.156C23.8885 152.22 23.8246 152.22 23.7608 152.22Z" fill="#42E8E0"/>
<path d="M20.5033 150.367C20.3755 150.367 20.2478 150.303 20.1839 150.176C20.12 149.984 20.12 149.792 20.3116 149.729L28.5513 144.938C29.8287 144.172 30.9145 142.383 30.9145 140.85V138.87C30.9145 137.146 32.0643 135.102 33.5972 134.207L35.3218 133.185C35.5134 133.122 35.705 133.122 35.7689 133.313C35.8328 133.505 35.8328 133.696 35.6411 133.76L33.9166 134.782C32.6391 135.549 31.5533 137.337 31.5533 138.87V140.85C31.5533 142.575 30.4036 144.619 28.8706 145.513L20.631 150.303C20.631 150.367 20.5671 150.367 20.5033 150.367Z" fill="#42E8E0"/>
<path d="M17.3096 148.515C17.1818 148.515 17.0541 148.451 16.9902 148.323C16.9264 148.132 16.9264 147.94 17.118 147.876L25.3576 143.086C26.635 142.319 27.7209 140.531 27.7209 138.998V137.018C27.7209 135.293 28.8706 133.249 30.4035 132.355L32.1281 131.333C32.3197 131.269 32.5113 131.269 32.5752 131.461C32.6391 131.652 32.6391 131.844 32.4475 131.908L30.7229 132.93C29.4454 133.696 28.3596 135.485 28.3596 137.018V138.998C28.3596 140.722 27.2099 142.766 25.677 143.661L17.4373 148.451C17.4373 148.515 17.3735 148.515 17.3096 148.515Z" fill="#42E8E0"/>
<path d="M14.1159 146.662C13.9881 146.662 13.8604 146.599 13.7965 146.471C13.7326 146.279 13.7326 146.088 13.9242 146.024L22.1639 141.233C23.4413 140.467 24.5272 138.678 24.5272 137.145V135.165C24.5272 133.441 25.6769 131.397 27.2098 130.503L28.9344 129.481C29.126 129.417 29.3176 129.417 29.3815 129.608C29.4454 129.8 29.4454 129.992 29.2537 130.055L27.5292 131.077C26.2517 131.844 25.1659 133.632 25.1659 135.165V137.145C25.1659 138.87 24.0162 140.914 22.4832 141.808L14.2436 146.599C14.1797 146.662 14.1797 146.662 14.1159 146.662Z" fill="#42E8E0"/>
<path d="M10.8584 144.81C10.7307 144.81 10.6029 144.747 10.5391 144.619C10.4752 144.427 10.4752 144.236 10.6668 144.172L18.9064 139.381C20.1839 138.615 21.2697 136.826 21.2697 135.293V133.377C21.2697 131.653 22.4194 129.609 23.9524 128.714L25.6769 127.693C25.8686 127.629 26.0602 127.629 26.1241 127.82C26.1879 128.012 26.1879 128.203 25.9963 128.267L24.2717 129.289C22.9943 130.056 21.9084 131.844 21.9084 133.377V135.357C21.9084 137.082 20.7587 139.126 19.2258 140.02L10.9862 144.81C10.9862 144.81 10.9223 144.81 10.8584 144.81Z" fill="#42E8E0"/>
<g opacity="0.3">
<path opacity="0.3" d="M147.93 25.7514C148.505 29.0089 150.868 37.0569 160.768 42.6777C174.82 49.1927 184.529 57.6878 187.786 67.2049C188.042 67.8436 188.361 68.674 188.617 69.2488C188.936 68.674 188.936 68.674 189 67.2688V51.3005C189 41.9112 188.489 39.8673 187.786 37.2485C184.529 27.7314 174.82 19.1724 160.768 12.7213C149.527 9.08052 146.844 19.6196 147.93 25.7514Z" fill="#42E8E0"/>
<path opacity="0.3" d="M44.9027 6.58946C59.7851 2.2461 77.4141 -0.181068 96.1927 0.0105503C98.6837 0.0105503 101.111 0.0744252 103.538 0.202171C120.017 1.73512 125.894 19.1086 115.929 26.7733C111.394 30.2863 105.838 30.2225 103.538 30.2225C101.111 30.0947 98.6837 30.0308 96.1927 30.0308C77.4141 29.9031 59.7851 32.3303 44.9027 36.6097C29.8926 40.2505 28.9984 24.9849 34.2359 15.6594C35.9605 12.5296 39.2819 8.37791 44.9027 6.58946Z" fill="#42E8E0"/>
<path opacity="0.3" d="M0 74.3585C0.383238 69.6319 0.70261 65.8634 5.55695 59.2845C15.7766 44.2105 13.6688 26.7093 8.04799 27.5397C7.15377 27.6674 6.19568 28.6255 5.55695 29.2643C2.10781 33.7354 0.191619 38.5258 0 43.5079C0 43.7634 0 44.0189 0 44.2744V74.3585Z" fill="#42E8E0"/>
</g>
<path d="M122.526 78.0586L119.269 79.3767L130.485 107.087L133.741 105.769L122.526 78.0586Z" fill="#42E8E0"/>
<path d="M60.8071 76.0193C66.804 76.0193 71.6655 71.1578 71.6655 65.1609C71.6655 59.164 66.804 54.3025 60.8071 54.3025C54.8101 54.3025 49.9487 59.164 49.9487 65.1609C49.9487 71.1578 54.8101 76.0193 60.8071 76.0193Z" fill="url(#paint7_radial)"/>
<path d="M117.015 81.2569C117.015 102.399 104.432 119.517 88.9111 119.517C73.39 119.517 60.807 102.399 60.807 81.2569C60.807 60.1149 73.39 53.7915 88.9111 53.7915C104.432 53.7915 117.015 60.1149 117.015 81.2569Z" fill="url(#paint8_radial)"/>
<path d="M117.015 81.2569C117.015 102.399 104.432 119.517 88.9111 119.517C73.39 119.517 60.807 102.399 60.807 81.2569C60.807 60.1149 73.39 53.7915 88.9111 53.7915C104.432 53.7915 117.015 60.1149 117.015 81.2569Z" fill="url(#paint9_linear)"/>
<path d="M88.9111 76.2106C99.494 76.2106 108.073 71.2634 108.073 65.1606C108.073 59.0579 99.494 54.1106 88.9111 54.1106C78.3283 54.1106 69.7493 59.0579 69.7493 65.1606C69.7493 71.2634 78.3283 76.2106 88.9111 76.2106Z" fill="#393091"/>
<path d="M75.3701 60.2426C82.8432 55.8992 95.0429 55.8992 102.516 60.2426C105.582 62.031 107.434 64.2665 107.945 66.6298C108.712 63.3085 106.923 59.8593 102.516 57.3044C95.0429 52.961 82.8432 52.961 75.3701 57.3044C70.9628 59.8593 69.1744 63.3085 69.9409 66.6298C70.4518 64.3304 72.2403 62.031 75.3701 60.2426Z" fill="#453C9E"/>
<path d="M66.7472 38.8452L70.1963 32.8411C72.2403 30.7333 73.901 27.9229 74.6674 25.1125L78.1805 19.0446L73.1345 16.1703C72.9429 16.0426 72.8151 15.9787 72.6235 15.8509C71.1544 15.1483 69.3021 15.34 67.1943 16.5535C62.7232 19.1085 59.0825 25.4319 59.0825 30.5417C59.0825 33.0966 59.9767 34.9489 61.4458 35.7793L66.7472 38.8452Z" fill="url(#paint10_radial)"/>
<path d="M78.1263 32.2033C81.2835 26.7351 81.2922 20.8294 78.1456 19.0127C74.9991 17.196 69.8888 20.1562 66.7316 25.6244C63.5744 31.0927 63.5658 36.9984 66.7123 38.8151C69.8589 40.6318 74.9691 37.6716 78.1263 32.2033Z" fill="#BCBEFF"/>
<path d="M90.0608 67.3965C105.9 67.3965 118.74 54.5565 118.74 38.7175C118.74 22.8786 105.9 10.0386 90.0608 10.0386C74.2218 10.0386 61.3818 22.8786 61.3818 38.7175C61.3818 54.5565 74.2218 67.3965 90.0608 67.3965Z" fill="url(#paint11_radial)"/>
<path d="M90.0608 67.3965C105.9 67.3965 118.74 54.5565 118.74 38.7175C118.74 22.8786 105.9 10.0386 90.0608 10.0386C74.2218 10.0386 61.3818 22.8786 61.3818 38.7175C61.3818 54.5565 74.2218 67.3965 90.0608 67.3965Z" fill="url(#paint12_linear)"/>
<path d="M106.093 58.1347L109.542 52.1307C111.586 50.0229 113.247 47.2125 114.013 44.4021L117.526 38.3341L112.48 35.4598C112.289 35.3321 112.161 35.2682 111.969 35.1405C110.5 34.4379 108.648 34.6295 106.54 35.8431C102.069 38.398 98.4282 44.7214 98.4282 49.8313C98.4282 52.3862 99.3225 54.2385 100.792 55.0688L106.093 58.1347Z" fill="url(#paint13_radial)"/>
<path d="M117.465 51.456C120.623 45.9878 120.631 40.0821 117.485 38.2654C114.338 36.4487 109.228 39.4088 106.071 44.8771C102.913 50.3454 102.905 56.2511 106.051 58.0678C109.198 59.8845 114.308 56.9243 117.465 51.456Z" fill="#BCBEFF"/>
<path d="M104.049 52.8971C104.049 47.7234 107.69 41.4639 112.161 38.909C113.694 38.0148 115.163 37.6954 116.377 37.8231C115.099 37.5038 113.502 37.8231 111.778 38.8451C107.307 41.4 103.666 47.7234 103.666 52.8333C103.666 56.2185 105.199 58.2625 107.562 58.5818C105.454 58.1347 104.049 56.0908 104.049 52.8971Z" fill="white"/>
<path d="M115.861 50.5292C118.119 46.619 118.116 42.391 115.856 41.0857C113.595 39.7805 109.932 41.8924 107.674 45.8026C105.417 49.7129 105.419 53.9409 107.68 55.2461C109.94 56.5513 113.603 54.4395 115.861 50.5292Z" fill="#393091"/>
<path d="M115.099 40.7615C115.674 41.4641 116.057 42.5499 116.057 43.8912C116.057 47.5959 113.438 52.067 110.245 53.9193C109.031 54.6219 107.881 54.8135 106.923 54.6219C107.945 55.8355 109.734 56.0271 111.778 54.8774C114.971 53.0251 117.59 48.554 117.59 44.8493C117.526 42.5499 116.568 41.1447 115.099 40.7615Z" fill="#453C9E"/>
<path d="M77.784 57.6644C81.4966 56.1189 82.3413 49.6652 79.6707 43.2495C77 36.8338 71.8254 32.8858 68.1127 34.4312C64.4001 35.9767 63.5554 42.4304 66.2261 48.8461C68.8967 55.2618 74.0714 59.2098 77.784 57.6644Z" fill="#393091"/>
<path d="M77.3502 47.4042C77.0947 49.4482 75.5617 50.0869 73.901 48.8733C72.2403 47.5958 71.1545 44.9132 71.41 42.8693C71.6655 40.8253 73.1984 40.1866 74.8591 41.4002C76.5198 42.6776 77.6057 45.3603 77.3502 47.4042Z" fill="#42E8E0"/>
<path d="M73.7733 55.4522C69.2383 52.0031 66.1724 44.6577 66.9389 38.973C67.2582 36.6736 68.1525 35.0129 69.366 34.1187C67.0027 34.3103 65.2143 36.3542 64.7672 39.8033C64.0646 45.4242 67.1305 52.8334 71.6016 56.2826C74.2843 58.3265 76.8392 58.5181 78.6915 57.1768C77.1585 57.3045 75.4978 56.7297 73.7733 55.4522Z" fill="#453C9E"/>
<path d="M71.9848 56.0908C67.4499 52.6417 64.3839 45.2963 65.1504 39.6116C65.4698 36.9928 66.5556 35.2044 68.0886 34.374C66.364 35.0766 65.0865 36.9289 64.7672 39.7393C64.0646 45.3602 67.1305 52.7694 71.6016 56.2186C74.0288 58.0709 76.3921 58.3902 78.1166 57.496C76.3921 58.1986 74.2204 57.8154 71.9848 56.0908Z" fill="#42E8E0"/>
<path d="M120.911 89.5601C126.908 89.5601 131.77 84.6986 131.77 78.7017C131.77 72.7047 126.908 67.8433 120.911 67.8433C114.915 67.8433 110.053 72.7047 110.053 78.7017C110.053 84.6986 114.915 89.5601 120.911 89.5601Z" fill="url(#paint14_radial)"/>
<path d="M120.911 89.5601C126.908 89.5601 131.77 84.6986 131.77 78.7017C131.77 72.7047 126.908 67.8433 120.911 67.8433C114.915 67.8433 110.053 72.7047 110.053 78.7017C110.053 84.6986 114.915 89.5601 120.911 89.5601Z" fill="url(#paint15_linear)"/>
<path d="M138.285 114.79C137.646 119.964 133.111 129.736 128.959 129.289C124.808 128.778 122.7 118.175 123.275 113.002C123.913 107.828 127.746 104.059 131.898 104.506C136.049 105.017 138.924 109.616 138.285 114.79Z" fill="url(#paint16_radial)"/>
<path d="M138.285 114.79C137.646 119.964 133.111 129.736 128.959 129.289C124.808 128.778 122.7 118.175 123.275 113.002C123.913 107.828 127.746 104.059 131.898 104.506C136.049 105.017 138.924 109.616 138.285 114.79Z" fill="url(#paint17_linear)"/>
<path d="M32.0003 81.5125C31.3616 81.5125 30.7867 81.1931 30.4674 80.5544C30.0203 79.724 30.3396 78.6382 31.2338 78.1911L53.7171 66.4384C54.5475 65.9913 55.6333 66.3107 56.0804 67.2049C56.5275 68.0353 56.2082 69.1211 55.3139 69.5682L32.8307 81.3208C32.5752 81.4486 32.2558 81.5125 32.0003 81.5125Z" fill="#42E8E0"/>
<path d="M32.3836 88.0272C27.7848 90.5182 17.1819 92.4983 15.2018 88.8575C13.2217 85.2168 20.5671 77.2965 25.166 74.8055C29.7648 72.3144 35.0663 73.2087 37.0463 76.9133C39.0264 80.554 36.9825 85.5361 32.3836 88.0272Z" fill="url(#paint18_radial)"/>
<path d="M32.3836 88.0272C27.7848 90.5182 17.1819 92.4983 15.2018 88.8575C13.2217 85.2168 20.5671 77.2965 25.166 74.8055C29.7648 72.3144 35.0663 73.2087 37.0463 76.9133C39.0264 80.554 36.9825 85.5361 32.3836 88.0272Z" fill="url(#paint19_linear)"/>
<g opacity="0.5">
<g opacity="0.5">
<path opacity="0.5" d="M10.9862 83.1729C10.2836 88.6659 7.47313 91.9235 4.47111 87.8356C0.638729 82.598 0.255492 77.4243 0 74.3584V44.3381C0 49.0009 1.53295 53.5358 4.47111 57.8153C10.7945 68.3543 11.4971 78.7018 10.9862 83.1729Z" fill="#42E8E0"/>
<path opacity="0.5" d="M100.025 88.6661C97.6617 88.73 95.2984 88.73 92.8712 88.73C74.0287 88.6022 56.5276 85.8557 41.9645 81.2568C27.4015 77.3606 26.5073 92.6262 31.6171 102.016C35.2579 108.722 40.1122 110.575 41.9645 111.277C56.5276 115.876 74.0287 118.623 92.8712 118.75C95.2984 118.75 97.6617 118.75 100.025 118.686C117.143 117.409 121.614 100.994 113.63 93.3288C111.394 91.1571 107.179 88.6022 100.025 88.6661Z" fill="#42E8E0"/>
<path opacity="0.5" d="M189 64.7776C188.936 77.7438 188.17 80.1071 187.212 83.1091C183.188 92.5623 172.776 100.93 158.277 107.189C145.566 110.958 141.989 97.736 147.227 87.8996C150.74 81.1929 156.233 78.3187 158.277 77.2328C172.84 70.9733 183.251 62.6059 187.212 53.1527C187.531 52.514 187.914 51.6836 188.297 51.1088C188.425 51.1088 188.553 51.1088 188.617 51.0449C188.872 51.7475 188.936 52.003 189 55.5799V64.7776Z" fill="#42E8E0"/>
</g>
</g>
<defs>
<linearGradient id="paint0_linear" x1="-6.79516" y1="149.159" x2="156.074" y2="149.159" gradientUnits="userSpaceOnUse">
<stop stop-color="#5761D7"/>
<stop offset="0.1645" stop-color="#5E67DA"/>
<stop offset="0.4051" stop-color="#727AE2"/>
<stop offset="0.6924" stop-color="#9297EE"/>
<stop offset="1" stop-color="#BCBEFF"/>
</linearGradient>
<linearGradient id="paint1_linear" x1="39.2972" y1="127.151" x2="137.055" y2="127.151" gradientUnits="userSpaceOnUse">
<stop stop-color="#42E8E0"/>
<stop offset="0.1507" stop-color="#43E3E0"/>
<stop offset="0.3285" stop-color="#45D5DF"/>
<stop offset="0.5199" stop-color="#49BDDD"/>
<stop offset="0.7209" stop-color="#4E9CDB"/>
<stop offset="0.9274" stop-color="#5472D8"/>
<stop offset="1" stop-color="#5761D7"/>
</linearGradient>
<linearGradient id="paint2_linear" x1="88.1756" y1="109.482" x2="137.055" y2="109.482" gradientUnits="userSpaceOnUse">
<stop stop-color="#42E8E0"/>
<stop offset="0.1507" stop-color="#43E3E0"/>
<stop offset="0.3285" stop-color="#45D5DF"/>
<stop offset="0.5199" stop-color="#49BDDD"/>
<stop offset="0.7209" stop-color="#4E9CDB"/>
<stop offset="0.9274" stop-color="#5472D8"/>
<stop offset="1" stop-color="#5761D7"/>
</linearGradient>
<linearGradient id="paint3_linear" x1="39.2972" y1="109.482" x2="88.177" y2="109.482" gradientUnits="userSpaceOnUse">
<stop stop-color="#42E8E0"/>
<stop offset="0.1507" stop-color="#43E3E0"/>
<stop offset="0.3285" stop-color="#45D5DF"/>
<stop offset="0.5199" stop-color="#49BDDD"/>
<stop offset="0.7209" stop-color="#4E9CDB"/>
<stop offset="0.9274" stop-color="#5472D8"/>
<stop offset="1" stop-color="#5761D7"/>
</linearGradient>
<linearGradient id="paint4_linear" x1="39.2971" y1="120.034" x2="137.055" y2="120.034" gradientUnits="userSpaceOnUse">
<stop stop-color="#42E8E0"/>
<stop offset="0.1507" stop-color="#43E3E0"/>
<stop offset="0.3285" stop-color="#45D5DF"/>
<stop offset="0.5199" stop-color="#49BDDD"/>
<stop offset="0.7209" stop-color="#4E9CDB"/>
<stop offset="0.9274" stop-color="#5472D8"/>
<stop offset="1" stop-color="#5761D7"/>
</linearGradient>
<linearGradient id="paint5_linear" x1="88.1769" y1="137.703" x2="137.055" y2="137.703" gradientUnits="userSpaceOnUse">
<stop stop-color="#42E8E0"/>
<stop offset="0.1507" stop-color="#43E3E0"/>
<stop offset="0.3285" stop-color="#45D5DF"/>
<stop offset="0.5199" stop-color="#49BDDD"/>
<stop offset="0.7209" stop-color="#4E9CDB"/>
<stop offset="0.9274" stop-color="#5472D8"/>
<stop offset="1" stop-color="#5761D7"/>
</linearGradient>
<linearGradient id="paint6_linear" x1="39.2971" y1="137.702" x2="88.177" y2="137.702" gradientUnits="userSpaceOnUse">
<stop stop-color="#42E8E0"/>
<stop offset="0.1507" stop-color="#43E3E0"/>
<stop offset="0.3285" stop-color="#45D5DF"/>
<stop offset="0.5199" stop-color="#49BDDD"/>
<stop offset="0.7209" stop-color="#4E9CDB"/>
<stop offset="0.9274" stop-color="#5472D8"/>
<stop offset="1" stop-color="#5761D7"/>
</linearGradient>
<radialGradient id="paint7_radial" cx="0" cy="0" r="1" gradientUnits="userSpaceOnUse" gradientTransform="translate(112.894 30.3645) rotate(11.1976) scale(62.859)">
<stop stop-color="#C0BFF6"/>
<stop offset="1" stop-color="#393091"/>
</radialGradient>
<radialGradient id="paint8_radial" cx="0" cy="0" r="1" gradientUnits="userSpaceOnUse" gradientTransform="translate(105.514 75.5269) scale(48.318 65.7736)">
<stop stop-color="#C0BFF6"/>
<stop offset="1" stop-color="#393091"/>
</radialGradient>
<linearGradient id="paint9_linear" x1="88.9255" y1="119.536" x2="88.9255" y2="53.7901" gradientUnits="userSpaceOnUse">
<stop stop-color="#42E8E0"/>
<stop offset="0.00467455" stop-color="#42E6DF"/>
<stop offset="0.1358" stop-color="#40B6CB"/>
<stop offset="0.2707" stop-color="#3E8DB9"/>
<stop offset="0.4074" stop-color="#3C6BAA"/>
<stop offset="0.5467" stop-color="#3B519F"/>
<stop offset="0.6893" stop-color="#3A3F97"/>
<stop offset="0.8375" stop-color="#393493"/>
<stop offset="1" stop-color="#393091"/>
</linearGradient>
<radialGradient id="paint10_radial" cx="0" cy="0" r="1" gradientUnits="userSpaceOnUse" gradientTransform="translate(60.6168 -5.79816) scale(34.0259)">
<stop stop-color="#C0BFF6"/>
<stop offset="1" stop-color="#393091"/>
</radialGradient>
<radialGradient id="paint11_radial" cx="0" cy="0" r="1" gradientUnits="userSpaceOnUse" gradientTransform="translate(107.936 34.4643) scale(48.4661)">
<stop stop-color="#C0BFF6"/>
<stop offset="1" stop-color="#393091"/>
</radialGradient>
<linearGradient id="paint12_linear" x1="86.0493" y1="67.1119" x2="94.0319" y2="10.313" gradientUnits="userSpaceOnUse">
<stop stop-color="#42E8E0"/>
<stop offset="0.00467455" stop-color="#42E6DF"/>
<stop offset="0.1358" stop-color="#40B6CB"/>
<stop offset="0.2707" stop-color="#3E8DB9"/>
<stop offset="0.4074" stop-color="#3C6BAA"/>
<stop offset="0.5467" stop-color="#3B519F"/>
<stop offset="0.6893" stop-color="#3A3F97"/>
<stop offset="0.8375" stop-color="#393493"/>
<stop offset="1" stop-color="#393091"/>
</linearGradient>
<radialGradient id="paint13_radial" cx="0" cy="0" r="1" gradientUnits="userSpaceOnUse" gradientTransform="translate(107.548 33.9486) scale(23.0169)">
<stop stop-color="#C0BFF6"/>
<stop offset="1" stop-color="#393091"/>
</radialGradient>
<radialGradient id="paint14_radial" cx="0" cy="0" r="1" gradientUnits="userSpaceOnUse" gradientTransform="translate(127.368 71.6233) rotate(11.1976) scale(22.7187)">
<stop stop-color="#C0BFF6"/>
<stop offset="1" stop-color="#393091"/>
</radialGradient>
<linearGradient id="paint15_linear" x1="112.106" y1="85.1311" x2="129.725" y2="72.3293" gradientUnits="userSpaceOnUse">
<stop stop-color="#42E8E0"/>
<stop offset="0.00467455" stop-color="#42E6DF"/>
<stop offset="0.1358" stop-color="#40B6CB"/>
<stop offset="0.2707" stop-color="#3E8DB9"/>
<stop offset="0.4074" stop-color="#3C6BAA"/>
<stop offset="0.5467" stop-color="#3B519F"/>
<stop offset="0.6893" stop-color="#3A3F97"/>
<stop offset="0.8375" stop-color="#393493"/>
<stop offset="1" stop-color="#393091"/>
</linearGradient>
<radialGradient id="paint16_radial" cx="0" cy="0" r="1" gradientUnits="userSpaceOnUse" gradientTransform="translate(141.116 106.203) rotate(6.80285) scale(19.3135 31.8148)">
<stop stop-color="#C0BFF6"/>
<stop offset="1" stop-color="#393091"/>
</radialGradient>
<linearGradient id="paint17_linear" x1="122.947" y1="116.026" x2="137.925" y2="117.813" gradientUnits="userSpaceOnUse">
<stop stop-color="#42E8E0"/>
<stop offset="0.00467455" stop-color="#42E6DF"/>
<stop offset="0.1358" stop-color="#40B6CB"/>
<stop offset="0.2707" stop-color="#3E8DB9"/>
<stop offset="0.4074" stop-color="#3C6BAA"/>
<stop offset="0.5467" stop-color="#3B519F"/>
<stop offset="0.6893" stop-color="#3A3F97"/>
<stop offset="0.8375" stop-color="#393493"/>
<stop offset="1" stop-color="#393091"/>
</linearGradient>
<radialGradient id="paint18_radial" cx="0" cy="0" r="1" gradientUnits="userSpaceOnUse" gradientTransform="translate(45.8409 75.1231) rotate(61.2704) scale(19.3136 31.8154)">
<stop stop-color="#C0BFF6"/>
<stop offset="1" stop-color="#393091"/>
</radialGradient>
<linearGradient id="paint19_linear" x1="36.8776" y1="82.5827" x2="20.2127" y2="78.304" gradientUnits="userSpaceOnUse">
<stop stop-color="#42E8E0"/>
<stop offset="0.00467455" stop-color="#42E6DF"/>
<stop offset="0.1358" stop-color="#40B6CB"/>
<stop offset="0.2707" stop-color="#3E8DB9"/>
<stop offset="0.4074" stop-color="#3C6BAA"/>
<stop offset="0.5467" stop-color="#3B519F"/>
<stop offset="0.6893" stop-color="#3A3F97"/>
<stop offset="0.8375" stop-color="#393493"/>
<stop offset="1" stop-color="#393091"/>
</linearGradient>
</defs>
</svg>
