<svg width="187" height="128" viewBox="0 0 187 128" fill="none" xmlns="http://www.w3.org/2000/svg">
<path d="M28.5754 68.6412C27.859 68.6412 27.1426 68.4365 26.4774 68.0783L2.5803 54.262C2.2221 54.0573 1.96625 53.6479 1.96625 53.2386C1.96625 52.8292 2.17093 52.4198 2.5803 52.2151L45.8202 27.2435C45.8714 27.1923 45.9737 27.1923 46.0761 27.2435L46.2807 27.3458L71.9176 42.1343C72.2758 42.339 72.5317 42.7484 72.5317 43.1578C72.5317 43.5672 72.327 43.9765 71.9176 44.1812L30.6223 68.0271C30.0082 68.4877 29.2918 68.6412 28.5754 68.6412ZM45.9737 27.7552L2.83616 52.6245C2.63148 52.778 2.47796 52.9827 2.47796 53.2386C2.47796 53.4944 2.63148 53.7503 2.83616 53.8526L26.7332 67.6689C27.859 68.3341 29.2918 68.3341 30.4176 67.6689L71.713 43.823C71.9176 43.6695 72.0712 43.4648 72.0712 43.209C72.0712 42.9531 71.9176 42.6972 71.713 42.5949L45.9737 27.7552Z" fill="#42E8E0"/>
<path d="M75.0391 35.4818L72.5317 36.8122L47.3553 22.2795C46.946 22.0237 46.1784 22.0749 45.7179 22.3307L2.37562 47.4047C1.96625 47.1489 0.0729065 46.279 0.0729065 46.279L0.993995 48.684C1.04517 48.7864 1.09634 48.8887 1.24985 48.9911L27.7567 64.2913C28.166 64.5472 28.9336 64.496 29.3942 64.2401L73.811 38.6032C74.0157 38.5009 74.118 38.3474 74.1692 38.1939L75.0391 35.4818Z" fill="url(#paint0_linear)"/>
<path d="M74.6297 35.8914L29.1383 62.1423C28.6266 62.4494 27.9102 62.4494 27.4496 62.1935L0.277583 46.535C-0.131789 46.2792 -0.0806191 45.8698 0.379924 45.5628L45.8714 19.3118C46.3831 19.0048 47.0995 19.0048 47.56 19.2606L74.7321 34.9191C75.1926 35.175 75.1414 35.5843 74.6297 35.8914Z" fill="url(#paint1_linear)"/>
<path d="M74.6297 35.6354L29.1383 61.8864C28.6266 62.1934 27.9102 62.1934 27.4496 61.9376L0.277595 46.2791C0.124081 46.1768 0.0729094 46.0744 0.0217379 45.9721C-0.0294335 46.1768 0.0217379 46.3815 0.277595 46.535L27.4496 62.1934C27.859 62.4493 28.6266 62.3981 29.1383 62.1423L74.6297 35.8913C74.9879 35.6866 75.0903 35.4308 75.0391 35.2261C74.9879 35.3796 74.8856 35.5331 74.6297 35.6354Z" fill="white"/>
<path d="M15.4243 56.4623V55.9506C15.4243 55.8994 15.4755 55.8994 15.4755 55.8994L17.2153 56.9228C17.2665 56.9228 17.2665 56.974 17.2665 57.0252V57.5369C17.2665 57.5881 17.2153 57.5881 17.2153 57.5881L15.4755 56.5646C15.4755 56.5646 15.4243 56.5135 15.4243 56.4623Z" fill="#2842A2"/>
<path d="M18.0853 57.9975V57.4857C18.0853 57.4346 18.1364 57.4346 18.1364 57.4346L19.8763 58.458C19.9274 58.458 19.9274 58.5092 19.9274 58.5603V59.0721C19.9274 59.1232 19.8763 59.1232 19.8763 59.1232L18.1364 58.0998C18.0853 58.0998 18.0853 58.0486 18.0853 57.9975Z" fill="#2842A2"/>
<path d="M15.629 50.1167L53.4447 28.2665C53.7006 28.113 54.0076 28.113 54.2635 28.2665L67.7216 36.0446C67.9263 36.1469 67.9263 36.4539 67.7216 36.5563L29.9058 58.3553C29.65 58.5088 29.343 58.5088 29.0871 58.3553L15.629 50.6284C15.4243 50.5261 15.4243 50.2191 15.629 50.1167Z" fill="#ADB1F2"/>
<path d="M15.629 50.6285L15.7825 50.7309L53.4447 28.983C53.7006 28.8295 54.0076 28.8295 54.2634 28.983L67.568 36.7099L67.7215 36.6075C67.9262 36.5052 67.9262 36.1982 67.7215 36.0958L54.2634 28.3178C54.0076 28.1643 53.7006 28.1643 53.4447 28.3178L15.629 50.1168C15.4243 50.2192 15.4243 50.5262 15.629 50.6285Z" fill="#9198DB"/>
<path d="M55.2869 30.2626L20.4391 50.373L18.6993 49.7078L53.8029 29.4438L55.2869 30.2626Z" fill="#24126A"/>
<path d="M58.8689 32.3095L28.0637 50.1171L26.5797 49.2984L57.3849 31.4907L58.8689 32.3095Z" fill="#24126A"/>
<path d="M61.1716 33.6912L24.891 54.6203L23.4582 53.7504L59.7388 32.8213L61.1716 33.6912Z" fill="#24126A"/>
<path d="M63.5255 35.0214L27.2449 55.9505L25.7609 55.1318L62.0415 34.2026L63.5255 35.0214Z" fill="#24126A"/>
<path d="M65.8282 36.3519L29.5988 57.3322L28.1148 56.4623L64.3954 35.5332L65.8282 36.3519Z" fill="#24126A"/>
<path d="M20.4391 50.3729L19.0063 51.1917L17.5223 50.3729L19.0063 49.5542L20.4391 50.3729Z" fill="#24126A"/>
<path d="M29.8035 49.0935L22.5371 53.2896L21.1043 52.4197L28.4219 48.2236L29.8035 49.0935Z" fill="#24126A"/>
<path d="M29.0871 40.3429L39.2702 34.4582C39.6796 34.2535 39.6796 33.8441 39.2702 33.6394L32.3109 29.5969C31.9016 29.3922 31.2875 29.3922 30.8781 29.5969L20.695 35.4816C20.2856 35.6863 20.2856 36.0957 20.695 36.3003L27.6543 40.3429C28.0637 40.5476 28.6778 40.5476 29.0871 40.3429Z" fill="url(#paint2_linear)"/>
<path d="M20.695 35.8399L30.8781 29.9552C31.2875 29.7505 31.9015 29.7505 32.3109 29.9552L39.2702 33.9977C39.3726 34.0489 39.4749 34.1512 39.5261 34.2536C39.6284 34.0489 39.5261 33.8442 39.2702 33.6907L32.3109 29.6481C31.9015 29.4435 31.2875 29.4435 30.8781 29.6481L20.695 35.5329C20.4391 35.6864 20.3368 35.9422 20.4391 36.0957C20.4903 35.9934 20.5415 35.8911 20.695 35.8399Z" fill="#9198DB"/>
<path d="M74.9879 34.8168L69.2567 0.685383L69.7172 0.4807L69.0008 0.0713271C68.8473 -0.0310159 68.6938 -0.0310167 68.4891 0.122498L22.5371 26.6805C22.1789 26.8852 21.8719 27.4481 21.9231 27.8574L27.7055 62.2447C27.7566 62.4493 27.8078 62.5517 27.9613 62.6029L28.6265 63.0122L28.7289 62.3982H28.6777L74.3738 36.0449C74.732 35.7378 75.0391 35.175 74.9879 34.8168Z" fill="url(#paint3_linear)"/>
<path d="M22.7418 27.6014L21.9742 27.2432C21.8719 27.4478 21.8719 27.6525 21.8719 27.806L27.6543 62.1933C27.7054 62.398 27.7566 62.5003 27.9101 62.5515L28.5754 62.9608L28.6777 62.3468H28.6265L30.9292 61.0163L22.7418 27.6014Z" fill="url(#paint4_linear)"/>
<path d="M75.0902 36.4029L29.1383 62.9609C28.7801 63.1655 28.473 63.0632 28.4219 62.705L22.6395 28.3178C22.5883 27.9084 22.8442 27.3455 23.2535 27.1408L69.2055 0.582837C69.5637 0.378152 69.8708 0.480495 69.9219 0.838695L75.7043 35.2259C75.7555 35.6353 75.4484 36.147 75.0902 36.4029Z" fill="#453C9E"/>
<path d="M158.244 68.6412C157.528 68.6412 156.811 68.4365 156.146 68.0783L114.85 44.2324C114.492 44.0277 114.236 43.6183 114.236 43.209C114.236 42.7996 114.441 42.3902 114.85 42.1855L140.692 27.2435C140.743 27.1923 140.846 27.1923 140.948 27.2435L184.188 52.2151C184.546 52.4198 184.802 52.8292 184.802 53.2386C184.802 53.6479 184.597 54.0573 184.188 54.262L160.291 68.0783C159.677 68.4877 158.96 68.6412 158.244 68.6412ZM156.402 67.6689C157.528 68.3341 158.96 68.3341 160.086 67.6689L183.983 53.8526C184.188 53.6991 184.341 53.4944 184.341 53.2386C184.341 52.9827 184.188 52.7268 183.983 52.6245L140.846 27.704L140.743 27.7552L115.106 42.5437C114.902 42.6972 114.748 42.9019 114.748 43.1578C114.748 43.4136 114.902 43.6695 115.106 43.7718L156.402 67.6689Z" fill="#42E8E0"/>
<path d="M111.78 35.4818L114.288 36.8122L139.464 22.2795C139.873 22.0237 140.641 22.0749 141.101 22.3307L184.495 47.3536C184.904 47.0977 186.798 46.2278 186.798 46.2278L185.876 48.6328C185.825 48.7352 185.774 48.8375 185.621 48.9399L159.114 64.2401C158.704 64.496 157.937 64.4448 157.476 64.189L113.059 38.5521C112.855 38.4497 112.752 38.2962 112.701 38.1427L111.78 35.4818Z" fill="url(#paint5_linear)"/>
<path d="M112.138 35.8914L157.63 62.1423C158.142 62.4494 158.858 62.4494 159.318 62.1935L186.491 46.535C186.9 46.2792 186.849 45.8698 186.388 45.5628L140.897 19.3118C140.385 19.0048 139.669 19.0048 139.208 19.2606L112.036 34.9191C111.627 35.175 111.678 35.5843 112.138 35.8914Z" fill="url(#paint6_linear)"/>
<path d="M112.19 35.6355L157.681 61.8865C158.193 62.1935 158.909 62.1935 159.37 61.9377L186.542 46.2792C186.695 46.1769 186.746 46.0745 186.798 45.9722C186.849 46.1769 186.798 46.3816 186.542 46.5351L159.37 62.2447C158.96 62.5006 158.193 62.4494 157.681 62.1935L112.19 35.9426C111.831 35.7379 111.729 35.482 111.78 35.2773C111.831 35.3797 111.934 35.5332 112.19 35.6355Z" fill="white"/>
<path d="M171.395 56.4623V55.9506C171.395 55.8994 171.344 55.8994 171.344 55.8994L169.604 56.9228C169.553 56.9228 169.553 56.974 169.553 57.0252V57.5369C169.553 57.5881 169.604 57.5881 169.604 57.5881L171.344 56.5646C171.344 56.5646 171.395 56.5135 171.395 56.4623Z" fill="#2842A2"/>
<path d="M168.734 57.9975V57.4857C168.734 57.4346 168.683 57.4346 168.683 57.4346L166.943 58.458C166.892 58.458 166.892 58.5092 166.892 58.5603V59.0721C166.892 59.1232 166.943 59.1232 166.943 59.1232L168.683 58.0998C168.734 58.0998 168.734 58.0486 168.734 57.9975Z" fill="#2842A2"/>
<path d="M171.19 50.1167L133.375 28.2665C133.119 28.113 132.812 28.113 132.556 28.2665L119.098 36.0446C118.893 36.1469 118.893 36.4539 119.098 36.5563L156.913 58.3553C157.169 58.5088 157.476 58.5088 157.732 58.3553L171.19 50.5773C171.395 50.5261 171.395 50.2191 171.19 50.1167Z" fill="#ADB1F2"/>
<path d="M171.19 50.6285L171.037 50.7309L133.375 28.983C133.119 28.8295 132.812 28.8295 132.556 28.983L119.251 36.7099L119.098 36.6075C118.893 36.5052 118.893 36.1982 119.098 36.0958L132.556 28.3178C132.812 28.1643 133.119 28.1643 133.375 28.3178L171.19 50.168C171.395 50.2192 171.395 50.5262 171.19 50.6285Z" fill="#9198DB"/>
<path d="M131.532 30.2626L166.38 50.373L168.12 49.7078L133.016 29.4438L131.532 30.2626Z" fill="#24126A"/>
<path d="M127.95 32.3095L158.756 50.1171L160.24 49.2984L129.434 31.4907L127.95 32.3095Z" fill="#24126A"/>
<path d="M125.648 33.6912L161.928 54.6203L163.361 53.7504L127.08 32.8213L125.648 33.6912Z" fill="#24126A"/>
<path d="M123.294 35.0214L159.574 55.9505L161.058 55.1318L124.778 34.2026L123.294 35.0214Z" fill="#24126A"/>
<path d="M120.991 36.3519L157.22 57.3322L158.704 56.4623L122.424 35.5332L120.991 36.3519Z" fill="#24126A"/>
<path d="M166.38 50.3729L167.813 51.1917L169.297 50.3729L167.813 49.5542L166.38 50.3729Z" fill="#24126A"/>
<path d="M157.016 49.0935L164.282 53.2896L165.715 52.4197L158.397 48.2236L157.016 49.0935Z" fill="#24126A"/>
<path d="M157.732 40.3429L147.549 34.4582C147.14 34.2535 147.14 33.8441 147.549 33.6394L154.508 29.5969C154.918 29.3922 155.532 29.3922 155.941 29.5969L166.124 35.4816C166.534 35.6863 166.534 36.0957 166.124 36.3003L159.165 40.3429C158.756 40.5476 158.142 40.5476 157.732 40.3429Z" fill="url(#paint7_linear)"/>
<path d="M166.124 35.8399L155.941 29.9552C155.532 29.7505 154.918 29.7505 154.508 29.9552L147.549 33.9977C147.447 34.0489 147.344 34.1512 147.293 34.2536C147.191 34.0489 147.293 33.8442 147.549 33.6907L154.508 29.6481C154.918 29.4435 155.532 29.4435 155.941 29.6481L166.124 35.5329C166.38 35.6864 166.482 35.9422 166.38 36.0957C166.329 35.9934 166.278 35.8911 166.124 35.8399Z" fill="#9198DB"/>
<path d="M111.831 34.8168L117.563 0.685383L117.102 0.4807L117.818 0.0713271C117.972 -0.0310159 118.126 -0.0310167 118.33 0.122498L164.282 26.6805C164.64 26.8852 164.947 27.4481 164.896 27.8574L159.114 62.2447C159.063 62.4493 159.011 62.5517 158.858 62.6029L158.193 63.0122L158.09 62.3982H158.142L112.445 36.0449C112.087 35.7378 111.78 35.175 111.831 34.8168Z" fill="url(#paint8_linear)"/>
<path d="M164.077 27.6014L164.845 27.2432C164.947 27.4478 164.947 27.6525 164.947 27.806L159.114 62.2444C159.063 62.4491 159.011 62.5515 158.858 62.6026L158.193 63.012L158.09 62.398H158.142L155.839 61.0675L164.077 27.6014Z" fill="url(#paint9_linear)"/>
<path d="M111.729 36.4029L157.681 62.9609C158.039 63.1655 158.346 63.0632 158.397 62.705L164.18 28.3178C164.231 27.9084 163.975 27.3455 163.566 27.1408L117.614 0.582837C117.256 0.378152 116.949 0.480495 116.897 0.838695L111.115 35.2259C111.064 35.6353 111.371 36.147 111.729 36.4029Z" fill="#453C9E"/>
<path d="M93.4097 76.8794L50.6303 52.1636L93.4097 27.4478L136.189 52.1636L93.4097 76.8794Z" fill="#BCBEFF"/>
<path d="M93.4096 70.125L62.2974 52.1638L93.4096 34.2026L124.522 52.1638L93.4096 70.125Z" fill="#453C9E"/>
<path d="M93.4096 35.4308L123.447 52.7779L124.522 52.1638L93.4096 34.2026L62.2974 52.1638L63.372 52.7779L93.4096 35.4308Z" fill="white"/>
<path d="M136.189 52.1636V66.1846L93.4097 90.9004V76.8794L136.189 52.1636Z" fill="url(#paint10_linear)"/>
<path d="M50.6303 52.1636V66.1846L93.4097 90.9004V76.8794L50.6303 52.1636Z" fill="#24126A"/>
<g opacity="0.51">
<path opacity="0.51" d="M53.4959 58.458V62.8587L90.4929 84.2484V79.8477L53.4959 58.458Z" fill="#453C9E"/>
</g>
<path d="M93.4096 76.0608L51.2955 51.7544L50.6303 52.1638L93.4096 76.8796L136.189 52.1638L135.524 51.7544L93.4096 76.0608Z" fill="white"/>
<path d="M129.793 61.9888V64.4962L99.8061 81.7921V79.2847L129.793 61.9888Z" fill="#453C9E"/>
<path opacity="0.51" d="M50.6303 52.1636V66.1846L93.4097 90.9004V76.8794L50.6303 52.1636Z" fill="#453C9E"/>
<path d="M80.9238 76.1632L73.1458 71.6602V72.5812L80.9238 77.0843V76.1632Z" fill="#42E8E0"/>
<path d="M72.0711 71.046L69.9731 69.8179L69.9219 70.739L72.0711 71.9671V71.046Z" fill="#42E8E0"/>
<path d="M62.195 65.3663L57.8966 62.8589V63.78L62.195 66.2874V65.3663Z" fill="#42E8E0"/>
<path d="M66.1352 67.6177L63.0138 65.8267V66.7477L66.1352 68.5387V67.6177Z" fill="#42E8E0"/>
<path d="M69.052 69.3062L66.954 68.0781V68.9992L69.052 70.2273V69.3062Z" fill="#42E8E0"/>
<path d="M93.4608 40.3944L92.0792 39.5757L93.4608 38.8081L94.7913 39.5757L93.4608 40.3944Z" fill="#42E8E0"/>
<path opacity="0.1" d="M96.1729 41.9297L94.7913 41.1621L96.1729 40.3945L97.5545 41.1621L96.1729 41.9297Z" fill="#42E8E0"/>
<path opacity="0.4" d="M98.885 43.516L97.5546 42.7484L98.885 41.9297L100.267 42.7484L98.885 43.516Z" fill="#42E8E0"/>
<path d="M101.597 45.1024L100.267 44.2837L101.597 43.5161L102.979 44.2837L101.597 45.1024Z" fill="#42E8E0"/>
<path opacity="0.4" d="M104.309 46.6372L102.979 45.8696L104.309 45.1021L105.691 45.8696L104.309 46.6372Z" fill="#42E8E0"/>
<path d="M107.021 48.224L105.691 47.4564L107.021 46.6377L108.403 47.4564L107.021 48.224Z" fill="#42E8E0"/>
<path d="M109.785 49.8099L108.403 48.9912L109.785 48.2236L111.115 48.9912L109.785 49.8099Z" fill="#42E8E0"/>
<path d="M112.497 51.3452L111.115 50.5776L112.497 49.8101L113.827 50.5776L112.497 51.3452Z" fill="#42E8E0"/>
<path opacity="0.1" d="M115.209 52.9315L113.827 52.164L115.209 51.3452L116.539 52.164L115.209 52.9315Z" fill="#42E8E0"/>
<path d="M90.7487 41.9297L89.3671 41.1621L90.7487 40.3945L92.0792 41.1621L90.7487 41.9297Z" fill="#42E8E0"/>
<path d="M93.4608 43.516L92.0792 42.7484L93.4608 41.9297L94.7913 42.7484L93.4608 43.516Z" fill="#42E8E0"/>
<path d="M96.1729 45.1024L94.7913 44.2837L96.1729 43.5161L97.5033 44.2837L96.1729 45.1024Z" fill="#42E8E0"/>
<path d="M98.885 46.6377L97.5034 45.8701L98.885 45.1025L100.215 45.8701L98.885 46.6377Z" fill="#42E8E0"/>
<path d="M101.597 48.224L100.215 47.4564L101.597 46.6377L102.979 47.4564L101.597 48.224Z" fill="#42E8E0"/>
<path d="M104.309 49.8099L102.979 48.9912L104.309 48.2236L105.691 48.9912L104.309 49.8099Z" fill="#42E8E0"/>
<path d="M107.021 51.3452L105.691 50.5776L107.021 49.8101L108.403 50.5776L107.021 51.3452Z" fill="#42E8E0"/>
<path d="M109.733 52.9315L108.403 52.164L109.733 51.3452L111.115 52.164L109.733 52.9315Z" fill="#42E8E0"/>
<path d="M112.445 54.518L111.115 53.6992L112.445 52.9316L113.827 53.6992L112.445 54.518Z" fill="#42E8E0"/>
<path d="M87.9855 43.5161L86.655 42.7485L87.9855 41.981L89.3671 42.7485L87.9855 43.5161Z" fill="#42E8E0"/>
<path d="M90.6976 45.1024L89.3671 44.3349L90.6976 43.5161L92.0792 44.3349L90.6976 45.1024Z" fill="#42E8E0"/>
<path d="M93.4097 46.6889L92.0792 45.8701L93.4097 45.1025L94.7913 45.8701L93.4097 46.6889Z" fill="#42E8E0"/>
<path opacity="0.1" d="M96.1729 48.2236L94.7913 47.456L96.1729 46.6885L97.5034 47.456L96.1729 48.2236Z" fill="#42E8E0"/>
<path opacity="0.4" d="M98.885 49.8104L97.5034 49.0429L98.885 48.2241L100.215 49.0429L98.885 49.8104Z" fill="#42E8E0"/>
<path opacity="0.4" d="M101.597 51.3964L100.215 50.5776L101.597 49.8101L102.928 50.5776L101.597 51.3964Z" fill="#42E8E0"/>
<path d="M104.309 52.9316L102.928 52.1641L104.309 51.3965L105.64 52.1641L104.309 52.9316Z" fill="#42E8E0"/>
<path d="M107.021 54.518L105.64 53.7504L107.021 52.9316L108.403 53.7504L107.021 54.518Z" fill="#42E8E0"/>
<path d="M109.733 56.1044L108.403 55.2856L109.733 54.5181L111.115 55.2856L109.733 56.1044Z" fill="#42E8E0"/>
<path opacity="0.4" d="M85.2734 45.1024L83.8918 44.3349L85.2734 43.5161L86.6039 44.3349L85.2734 45.1024Z" fill="#42E8E0"/>
<path opacity="0.4" d="M87.9854 46.6889L86.6038 45.8701L87.9854 45.1025L89.3671 45.8701L87.9854 46.6889Z" fill="#42E8E0"/>
<path opacity="0.1" d="M90.6976 48.2236L89.3671 47.456L90.6976 46.6885L92.0792 47.456L90.6976 48.2236Z" fill="#42E8E0"/>
<path d="M93.4096 49.8104L92.0792 49.0429L93.4096 48.2241L94.7913 49.0429L93.4096 49.8104Z" fill="#42E8E0"/>
<path d="M96.1217 51.3964L94.7913 50.5776L96.1217 49.8101L97.5033 50.5776L96.1217 51.3964Z" fill="#42E8E0"/>
<path d="M98.8338 52.9316L97.5034 52.1641L98.8338 51.3965L100.215 52.1641L98.8338 52.9316Z" fill="#42E8E0"/>
<path opacity="0.4" d="M101.597 54.518L100.215 53.7504L101.597 52.9316L102.927 53.7504L101.597 54.518Z" fill="#42E8E0"/>
<path d="M104.309 56.1044L102.928 55.2856L104.309 54.5181L105.64 55.2856L104.309 56.1044Z" fill="#42E8E0"/>
<path d="M107.021 57.6391L105.64 56.8716L107.021 56.104L108.352 56.8716L107.021 57.6391Z" fill="#42E8E0"/>
<path d="M82.5613 46.6889L81.1797 45.9213L82.5613 45.1025L83.8918 45.9213L82.5613 46.6889Z" fill="#42E8E0"/>
<path d="M85.2734 48.2748L83.8917 47.456L85.2734 46.6885L86.6038 47.456L85.2734 48.2748Z" fill="#42E8E0"/>
<path d="M87.9854 49.81L86.6038 49.0425L87.9854 48.2749L89.3159 49.0425L87.9854 49.81Z" fill="#42E8E0"/>
<path d="M90.6976 51.3964L89.3159 50.6288L90.6976 49.8101L92.028 50.6288L90.6976 51.3964Z" fill="#42E8E0"/>
<path d="M93.4097 52.9828L92.028 52.1641L93.4097 51.3965L94.7913 52.1641L93.4097 52.9828Z" fill="#42E8E0"/>
<path d="M96.1217 54.5176L94.7913 53.75L96.1217 52.9824L97.5033 53.75L96.1217 54.5176Z" fill="#42E8E0"/>
<path d="M98.8338 56.1044L97.5034 55.3368L98.8338 54.5181L100.215 55.3368L98.8338 56.1044Z" fill="#42E8E0"/>
<path d="M101.546 57.6903L100.215 56.8716L101.546 56.104L102.928 56.8716L101.546 57.6903Z" fill="#42E8E0"/>
<path d="M104.258 59.2256L102.928 58.458L104.258 57.6904L105.64 58.458L104.258 59.2256Z" fill="#42E8E0"/>
<path d="M79.7981 48.2748L78.4676 47.456L79.7981 46.6885L81.1797 47.456L79.7981 48.2748Z" fill="#42E8E0"/>
<path d="M82.5101 49.81L81.1797 49.0425L82.5101 48.2749L83.8918 49.0425L82.5101 49.81Z" fill="#42E8E0"/>
<path opacity="0.4" d="M85.2222 51.3964L83.8918 50.6288L85.2222 49.8101L86.6039 50.6288L85.2222 51.3964Z" fill="#42E8E0"/>
<path d="M87.9855 52.9828L86.6039 52.1641L87.9855 51.3965L89.316 52.1641L87.9855 52.9828Z" fill="#42E8E0"/>
<path opacity="0.1" d="M90.6976 54.5176L89.316 53.75L90.6976 52.9824L92.0281 53.75L90.6976 54.5176Z" fill="#42E8E0"/>
<path d="M93.4097 56.1039L92.028 55.3363L93.4097 54.5176L94.7401 55.3363L93.4097 56.1039Z" fill="#42E8E0"/>
<path d="M96.1217 57.6903L94.7401 56.8716L96.1217 56.104L97.4522 56.8716L96.1217 57.6903Z" fill="#42E8E0"/>
<path d="M98.8338 59.2256L97.4522 58.458L98.8338 57.6904L100.215 58.458L98.8338 59.2256Z" fill="#42E8E0"/>
<path d="M101.546 60.8119L100.215 60.0443L101.546 59.2256L102.928 60.0443L101.546 60.8119Z" fill="#42E8E0"/>
<path d="M77.086 49.81L75.7043 49.0425L77.086 48.2749L78.4164 49.0425L77.086 49.81Z" fill="#42E8E0"/>
<path d="M79.798 51.3964L78.4164 50.6288L79.798 49.8101L81.1796 50.6288L79.798 51.3964Z" fill="#42E8E0"/>
<path opacity="0.4" d="M82.5101 52.9828L81.1796 52.1641L82.5101 51.3965L83.8917 52.1641L82.5101 52.9828Z" fill="#42E8E0"/>
<path d="M85.2222 54.5181L83.8917 53.7505L85.2222 52.9829L86.6038 53.7505L85.2222 54.5181Z" fill="#42E8E0"/>
<path d="M87.9343 56.1044L86.6038 55.3368L87.9343 54.5181L89.3159 55.3368L87.9343 56.1044Z" fill="#42E8E0"/>
<path opacity="0.1" d="M90.6464 57.6903L89.3159 56.8716L90.6464 56.104L92.028 56.8716L90.6464 57.6903Z" fill="#42E8E0"/>
<path opacity="0.4" d="M93.4096 59.2256L92.028 58.458L93.4096 57.6904L94.7401 58.458L93.4096 59.2256Z" fill="#42E8E0"/>
<path d="M96.1217 60.8119L94.7401 60.0443L96.1217 59.2256L97.4522 60.0443L96.1217 60.8119Z" fill="#42E8E0"/>
<path opacity="0.1" d="M98.8338 62.3983L97.4521 61.5796L98.8338 60.812L100.164 61.5796L98.8338 62.3983Z" fill="#42E8E0"/>
<path d="M74.3739 51.3965L72.9922 50.6289L74.3739 49.8613L75.7043 50.6289L74.3739 51.3965Z" fill="#42E8E0"/>
<path opacity="0.4" d="M77.086 52.9828L75.7043 52.2152L77.086 51.3965L78.4164 52.2152L77.086 52.9828Z" fill="#42E8E0"/>
<path d="M79.798 54.5692L78.4164 53.7505L79.798 52.9829L81.1285 53.7505L79.798 54.5692Z" fill="#42E8E0"/>
<path d="M82.5102 56.104L81.1285 55.3364L82.5102 54.5688L83.8406 55.3364L82.5102 56.104Z" fill="#42E8E0"/>
<path d="M85.2222 57.6908L83.8406 56.9232L85.2222 56.1045L86.6038 56.9232L85.2222 57.6908Z" fill="#42E8E0"/>
<path d="M87.9343 59.2767L86.6038 58.458L87.9343 57.6904L89.3159 58.458L87.9343 59.2767Z" fill="#42E8E0"/>
<path d="M90.6464 60.812L89.316 60.0444L90.6464 59.2769L92.0281 60.0444L90.6464 60.812Z" fill="#42E8E0"/>
<path opacity="0.4" d="M93.3585 62.3983L92.028 61.6308L93.3585 60.812L94.7401 61.6308L93.3585 62.3983Z" fill="#42E8E0"/>
<path d="M96.0706 63.9847L94.7401 63.166L96.0706 62.3984L97.4522 63.166L96.0706 63.9847Z" fill="#42E8E0"/>
<path d="M71.6106 52.9828L70.2802 52.2152L71.6106 51.3965L72.9922 52.2152L71.6106 52.9828Z" fill="#42E8E0"/>
<path opacity="0.1" d="M74.3227 54.5692L72.9922 53.7505L74.3227 52.9829L75.7043 53.7505L74.3227 54.5692Z" fill="#42E8E0"/>
<path d="M77.0348 56.104L75.7043 55.3364L77.0348 54.5688L78.4164 55.3364L77.0348 56.104Z" fill="#42E8E0"/>
<path d="M79.7981 57.6908L78.4164 56.9232L79.7981 56.1045L81.1285 56.9232L79.7981 57.6908Z" fill="#42E8E0"/>
<path d="M82.5102 59.2767L81.1285 58.458L82.5102 57.6904L83.8406 58.458L82.5102 59.2767Z" fill="#42E8E0"/>
<path d="M85.2222 60.812L83.8406 60.0444L85.2222 59.2769L86.5527 60.0444L85.2222 60.812Z" fill="#42E8E0"/>
<path opacity="0.4" d="M87.9343 62.3983L86.5527 61.6308L87.9343 60.812L89.2648 61.6308L87.9343 62.3983Z" fill="#42E8E0"/>
<path d="M90.6464 63.9847L89.2648 63.166L90.6464 62.3984L92.028 63.166L90.6464 63.9847Z" fill="#42E8E0"/>
<path d="M93.3585 65.5195L92.028 64.7519L93.3585 63.9844L94.7401 64.7519L93.3585 65.5195Z" fill="#42E8E0"/>
<path d="M93.4097 52.6245L50.6303 27.9087L93.4097 3.19287L136.189 27.9087L93.4097 52.6245Z" fill="#BCBEFF"/>
<path d="M93.4096 45.8696L62.2974 27.9084L93.4096 9.94727L124.522 27.9084L93.4096 45.8696Z" fill="#453C9E"/>
<path d="M93.4096 11.1754L123.447 28.5225L124.522 27.9084L93.4096 9.94727L62.2974 27.9084L63.372 28.5225L93.4096 11.1754Z" fill="white"/>
<path d="M136.189 27.9082V41.9292L93.4097 66.645V52.624L136.189 27.9082Z" fill="url(#paint11_linear)"/>
<path d="M50.6303 27.9082V41.9292L93.4097 66.645V52.624L50.6303 27.9082Z" fill="#24126A"/>
<g opacity="0.51">
<path opacity="0.51" d="M53.4959 34.2026V38.6034L90.4929 59.9931V55.5923L53.4959 34.2026Z" fill="#453C9E"/>
</g>
<path d="M93.4096 51.8055L51.2955 27.499L50.6303 27.9084L93.4096 52.6242L136.189 27.9084L135.524 27.499L93.4096 51.8055Z" fill="white"/>
<path d="M129.793 37.7334V40.2408L99.8061 57.5368V55.0293L129.793 37.7334Z" fill="#453C9E"/>
<path opacity="0.51" d="M50.6303 27.9082V41.9292L93.4097 66.645V52.624L50.6303 27.9082Z" fill="#453C9E"/>
<path d="M80.9238 51.9079L73.1458 47.4048V48.3259L80.9238 52.829V51.9079Z" fill="#42E8E0"/>
<path d="M72.0711 46.7906L69.9731 45.5625L69.9219 46.4836L72.0711 47.7117V46.7906Z" fill="#42E8E0"/>
<path d="M62.195 41.1109L57.8966 38.6035V39.5246L62.195 42.032V41.1109Z" fill="#42E8E0"/>
<path d="M66.1352 43.3623L63.0138 41.5713V42.4924L66.1352 44.2834V43.3623Z" fill="#42E8E0"/>
<path d="M69.052 45.0509L66.954 43.8228V44.7438L69.052 45.972V45.0509Z" fill="#42E8E0"/>
<path d="M93.4608 16.139L92.0792 15.3203L93.4608 14.5527L94.7913 15.3203L93.4608 16.139Z" fill="#42E8E0"/>
<path opacity="0.1" d="M96.1729 17.6748L94.7913 16.9072L96.1729 16.1396L97.5545 16.9072L96.1729 17.6748Z" fill="#42E8E0"/>
<path opacity="0.4" d="M98.885 19.2606L97.5546 18.4931L98.885 17.6743L100.267 18.4931L98.885 19.2606Z" fill="#42E8E0"/>
<path d="M101.597 20.8471L100.267 20.0283L101.597 19.2607L102.979 20.0283L101.597 20.8471Z" fill="#42E8E0"/>
<path opacity="0.4" d="M104.309 22.3823L102.979 21.6147L104.309 20.8472L105.691 21.6147L104.309 22.3823Z" fill="#42E8E0"/>
<path d="M107.021 23.9686L105.691 23.2011L107.021 22.3823L108.403 23.2011L107.021 23.9686Z" fill="#42E8E0"/>
<path d="M109.785 25.5551L108.403 24.7363L109.785 23.9688L111.115 24.7363L109.785 25.5551Z" fill="#42E8E0"/>
<path d="M112.497 27.0903L111.115 26.3227L112.497 25.5552L113.827 26.3227L112.497 27.0903Z" fill="#42E8E0"/>
<path opacity="0.1" d="M115.209 28.6762L113.827 27.9086L115.209 27.0898L116.539 27.9086L115.209 28.6762Z" fill="#42E8E0"/>
<path d="M90.7487 17.7255L89.3671 16.9067L90.7487 16.1392L92.0792 16.9067L90.7487 17.7255Z" fill="#42E8E0"/>
<path d="M93.4608 19.2612L92.0792 18.4936L93.4608 17.7261L94.7913 18.4936L93.4608 19.2612Z" fill="#42E8E0"/>
<path d="M96.1729 20.8471L94.7913 20.0795L96.1729 19.2607L97.5033 20.0795L96.1729 20.8471Z" fill="#42E8E0"/>
<path d="M98.885 22.4335L97.5034 21.6147L98.885 20.8472L100.215 21.6147L98.885 22.4335Z" fill="#42E8E0"/>
<path d="M101.597 23.9687L100.215 23.2012L101.597 22.4336L102.979 23.2012L101.597 23.9687Z" fill="#42E8E0"/>
<path d="M104.309 25.5546L102.979 24.787L104.309 23.9683L105.691 24.787L104.309 25.5546Z" fill="#42E8E0"/>
<path d="M107.021 27.141L105.691 26.3223L107.021 25.5547L108.403 26.3223L107.021 27.141Z" fill="#42E8E0"/>
<path d="M109.733 28.6767L108.403 27.9092L109.733 27.1416L111.115 27.9092L109.733 28.6767Z" fill="#42E8E0"/>
<path d="M112.445 30.2626L111.115 29.495L112.445 28.6763L113.827 29.495L112.445 30.2626Z" fill="#42E8E0"/>
<path d="M87.9855 19.2612L86.655 18.4936L87.9855 17.7261L89.3671 18.4936L87.9855 19.2612Z" fill="#42E8E0"/>
<path d="M90.6976 20.8471L89.3671 20.0795L90.6976 19.2607L92.0792 20.0795L90.6976 20.8471Z" fill="#42E8E0"/>
<path d="M93.4097 22.4335L92.0792 21.6147L93.4097 20.8472L94.7913 21.6147L93.4097 22.4335Z" fill="#42E8E0"/>
<path opacity="0.1" d="M96.1729 23.9692L94.7913 23.2017L96.1729 22.4341L97.5034 23.2017L96.1729 23.9692Z" fill="#42E8E0"/>
<path opacity="0.4" d="M98.885 25.5551L97.5034 24.7875L98.885 23.9688L100.215 24.7875L98.885 25.5551Z" fill="#42E8E0"/>
<path opacity="0.4" d="M101.597 27.141L100.215 26.3223L101.597 25.5547L102.928 26.3223L101.597 27.141Z" fill="#42E8E0"/>
<path d="M104.309 28.6767L102.928 27.9092L104.309 27.1416L105.64 27.9092L104.309 28.6767Z" fill="#42E8E0"/>
<path d="M107.021 30.2626L105.64 29.495L107.021 28.6763L108.403 29.495L107.021 30.2626Z" fill="#42E8E0"/>
<path d="M109.733 31.849L108.403 31.0303L109.733 30.2627L111.115 31.0303L109.733 31.849Z" fill="#42E8E0"/>
<path opacity="0.4" d="M85.2734 20.8471L83.8918 20.0795L85.2734 19.2607L86.6039 20.0795L85.2734 20.8471Z" fill="#42E8E0"/>
<path opacity="0.4" d="M87.9854 22.4335L86.6038 21.6147L87.9854 20.8472L89.3671 21.6147L87.9854 22.4335Z" fill="#42E8E0"/>
<path opacity="0.1" d="M90.6975 23.9692L89.3671 23.2017L90.6975 22.4341L92.0791 23.2017L90.6975 23.9692Z" fill="#42E8E0"/>
<path d="M93.4096 25.5551L92.0792 24.7875L93.4096 23.9688L94.7913 24.7875L93.4096 25.5551Z" fill="#42E8E0"/>
<path d="M96.1217 27.141L94.7913 26.3223L96.1217 25.5547L97.5033 26.3223L96.1217 27.141Z" fill="#42E8E0"/>
<path d="M98.8338 28.6767L97.5033 27.9092L98.8338 27.1416L100.215 27.9092L98.8338 28.6767Z" fill="#42E8E0"/>
<path opacity="0.4" d="M101.597 30.2626L100.215 29.495L101.597 28.6763L102.927 29.495L101.597 30.2626Z" fill="#42E8E0"/>
<path d="M104.309 31.849L102.928 31.0303L104.309 30.2627L105.64 31.0303L104.309 31.849Z" fill="#42E8E0"/>
<path d="M107.021 33.3848L105.64 32.6172L107.021 31.8496L108.352 32.6172L107.021 33.3848Z" fill="#42E8E0"/>
<path d="M82.5613 22.433L81.1797 21.6654L82.5613 20.8467L83.8918 21.6654L82.5613 22.433Z" fill="#42E8E0"/>
<path d="M85.2734 24.0199L83.8917 23.2012L85.2734 22.4336L86.6038 23.2012L85.2734 24.0199Z" fill="#42E8E0"/>
<path d="M87.9854 25.5552L86.6038 24.7876L87.9854 24.02L89.3159 24.7876L87.9854 25.5552Z" fill="#42E8E0"/>
<path d="M90.6976 27.1415L89.3159 26.3739L90.6976 25.5552L92.028 26.3739L90.6976 27.1415Z" fill="#42E8E0"/>
<path d="M93.4097 28.7274L92.028 27.9087L93.4097 27.1411L94.7913 27.9087L93.4097 28.7274Z" fill="#42E8E0"/>
<path d="M96.1217 30.2627L94.7913 29.4951L96.1217 28.7275L97.5033 29.4951L96.1217 30.2627Z" fill="#42E8E0"/>
<path d="M98.8338 31.849L97.5034 31.0814L98.8338 30.2627L100.215 31.0814L98.8338 31.849Z" fill="#42E8E0"/>
<path d="M101.546 33.4354L100.215 32.6167L101.546 31.8491L102.928 32.6167L101.546 33.4354Z" fill="#42E8E0"/>
<path d="M104.258 34.9707L102.928 34.2031L104.258 33.4355L105.64 34.2031L104.258 34.9707Z" fill="#42E8E0"/>
<path d="M79.7981 24.0194L78.4676 23.2007L79.7981 22.4331L81.1797 23.2007L79.7981 24.0194Z" fill="#42E8E0"/>
<path d="M82.5101 25.5552L81.1797 24.7876L82.5101 24.02L83.8918 24.7876L82.5101 25.5552Z" fill="#42E8E0"/>
<path opacity="0.4" d="M85.2222 27.141L83.8918 26.3734L85.2222 25.5547L86.6039 26.3734L85.2222 27.141Z" fill="#42E8E0"/>
<path d="M87.9855 28.7274L86.6039 27.9087L87.9855 27.1411L89.316 27.9087L87.9855 28.7274Z" fill="#42E8E0"/>
<path opacity="0.1" d="M90.6976 30.2627L89.316 29.4951L90.6976 28.7275L92.0281 29.4951L90.6976 30.2627Z" fill="#42E8E0"/>
<path d="M93.4097 31.849L92.028 31.0814L93.4097 30.2627L94.7401 31.0814L93.4097 31.849Z" fill="#42E8E0"/>
<path d="M96.1217 33.4354L94.7401 32.6167L96.1217 31.8491L97.4522 32.6167L96.1217 33.4354Z" fill="#42E8E0"/>
<path d="M98.8338 34.9707L97.4522 34.2031L98.8338 33.4355L100.215 34.2031L98.8338 34.9707Z" fill="#42E8E0"/>
<path d="M101.546 36.5565L100.215 35.789L101.546 34.9702L102.928 35.789L101.546 36.5565Z" fill="#42E8E0"/>
<path d="M77.086 25.5552L75.7043 24.7876L77.086 24.02L78.4164 24.7876L77.086 25.5552Z" fill="#42E8E0"/>
<path d="M79.798 27.141L78.4164 26.3734L79.798 25.5547L81.1796 26.3734L79.798 27.141Z" fill="#42E8E0"/>
<path opacity="0.4" d="M82.5101 28.7274L81.1796 27.9087L82.5101 27.1411L83.8917 27.9087L82.5101 28.7274Z" fill="#42E8E0"/>
<path d="M85.2222 30.2632L83.8917 29.4956L85.2222 28.728L86.6038 29.4956L85.2222 30.2632Z" fill="#42E8E0"/>
<path d="M87.9343 31.849L86.6038 31.0814L87.9343 30.2627L89.3159 31.0814L87.9343 31.849Z" fill="#42E8E0"/>
<path opacity="0.1" d="M90.6464 33.4349L89.3159 32.6162L90.6464 31.8486L92.028 32.6162L90.6464 33.4349Z" fill="#42E8E0"/>
<path opacity="0.4" d="M93.4096 34.9707L92.028 34.2031L93.4096 33.4355L94.7401 34.2031L93.4096 34.9707Z" fill="#42E8E0"/>
<path d="M96.1217 36.5565L94.7401 35.789L96.1217 34.9702L97.4522 35.789L96.1217 36.5565Z" fill="#42E8E0"/>
<path opacity="0.1" d="M98.8338 38.143L97.4521 37.3242L98.8338 36.5566L100.164 37.3242L98.8338 38.143Z" fill="#42E8E0"/>
<path d="M74.3738 27.1416L72.9922 26.374L74.3738 25.6064L75.7043 26.374L74.3738 27.1416Z" fill="#42E8E0"/>
<path opacity="0.4" d="M77.086 28.7274L75.7043 27.9599L77.086 27.1411L78.4164 27.9599L77.086 28.7274Z" fill="#42E8E0"/>
<path d="M79.798 30.3139L78.4164 29.4951L79.798 28.7275L81.1285 29.4951L79.798 30.3139Z" fill="#42E8E0"/>
<path d="M82.5101 31.8496L81.1285 31.082L82.5101 30.3145L83.8406 31.082L82.5101 31.8496Z" fill="#42E8E0"/>
<path d="M85.2222 33.4354L83.8406 32.6679L85.2222 31.8491L86.6038 32.6679L85.2222 33.4354Z" fill="#42E8E0"/>
<path d="M87.9343 35.0214L86.6038 34.2026L87.9343 33.4351L89.3159 34.2026L87.9343 35.0214Z" fill="#42E8E0"/>
<path d="M90.6464 36.5571L89.3159 35.7895L90.6464 35.022L92.028 35.7895L90.6464 36.5571Z" fill="#42E8E0"/>
<path opacity="0.4" d="M93.3585 38.143L92.028 37.3754L93.3585 36.5566L94.7401 37.3754L93.3585 38.143Z" fill="#42E8E0"/>
<path d="M96.0706 39.7294L94.7401 38.9106L96.0706 38.1431L97.4522 38.9106L96.0706 39.7294Z" fill="#42E8E0"/>
<path d="M71.6106 28.7274L70.2802 27.9599L71.6106 27.1411L72.9922 27.9599L71.6106 28.7274Z" fill="#42E8E0"/>
<path opacity="0.1" d="M74.3227 30.3139L72.9922 29.4951L74.3227 28.7275L75.7043 29.4951L74.3227 30.3139Z" fill="#42E8E0"/>
<path d="M77.0348 31.8496L75.7043 31.082L77.0348 30.3145L78.4164 31.082L77.0348 31.8496Z" fill="#42E8E0"/>
<path d="M79.7981 33.4354L78.4164 32.6679L79.7981 31.8491L81.1285 32.6679L79.7981 33.4354Z" fill="#42E8E0"/>
<path d="M82.5102 35.0214L81.1285 34.2026L82.5102 33.4351L83.8406 34.2026L82.5102 35.0214Z" fill="#42E8E0"/>
<path d="M85.2222 36.5571L83.8406 35.7895L85.2222 35.022L86.5527 35.7895L85.2222 36.5571Z" fill="#42E8E0"/>
<path opacity="0.4" d="M87.9343 38.143L86.5527 37.3754L87.9343 36.5566L89.2648 37.3754L87.9343 38.143Z" fill="#42E8E0"/>
<path d="M90.6464 39.7294L89.2648 38.9106L90.6464 38.1431L92.028 38.9106L90.6464 39.7294Z" fill="#42E8E0"/>
<path d="M93.3585 41.2651L92.028 40.4976L93.3585 39.73L94.7401 40.4976L93.3585 41.2651Z" fill="#42E8E0"/>
<path d="M139.464 128C138.696 128 137.98 127.795 137.366 127.437L113.059 113.416C112.701 113.212 112.445 112.802 112.445 112.342C112.445 111.881 112.65 111.523 113.059 111.267L157.067 85.886C157.118 85.8349 157.22 85.8349 157.323 85.886L183.625 101.084C183.983 101.289 184.239 101.698 184.239 102.159C184.239 102.619 184.034 102.977 183.625 103.233L141.613 127.488C140.948 127.847 140.231 128 139.464 128ZM157.169 86.3977L113.264 111.728C113.008 111.881 112.906 112.086 112.906 112.342C112.906 112.598 113.059 112.853 113.264 112.956L137.571 126.977C138.696 127.642 140.18 127.642 141.306 126.977L183.318 102.721C183.574 102.568 183.676 102.363 183.676 102.107C183.676 101.852 183.523 101.596 183.318 101.493L157.169 86.3977Z" fill="#42E8E0"/>
<path d="M157.22 76.1125L151.387 41.367L151.847 41.1623L151.131 40.753C150.978 40.6506 150.824 40.6506 150.568 40.8041L103.797 67.8227C103.388 68.0274 103.132 68.5902 103.183 68.9996L109.068 104.001C109.119 104.206 109.17 104.308 109.324 104.359L110.04 104.768L110.143 104.103H110.092L156.606 77.2382C157.016 77.0335 157.323 76.4707 157.22 76.1125Z" fill="url(#paint12_linear)"/>
<path d="M104.104 68.7439L103.337 68.3857C103.235 68.5904 103.183 68.7951 103.235 68.9486L109.119 103.95C109.17 104.155 109.222 104.257 109.375 104.308L110.092 104.717L110.194 104.052H110.143L112.497 102.671L104.104 68.7439Z" fill="url(#paint13_linear)"/>
<path d="M157.374 77.6989L110.603 104.717C110.245 104.922 109.938 104.82 109.887 104.41L103.951 69.4092C103.9 68.9998 104.156 68.4369 104.565 68.2322L151.336 41.2137C151.694 41.009 152.001 41.1113 152.052 41.5207L157.937 76.522C158.039 76.9314 157.732 77.4942 157.374 77.6989Z" fill="#24126A"/>
<g opacity="0.51">
<path opacity="0.51" d="M150.722 43.4653L105.64 69.5116L111.217 102.466L156.299 76.4198L150.722 43.4653Z" fill="#453C9E"/>
</g>
<path d="M186.746 94.2782L184.188 95.6086L158.602 80.8201C158.193 80.5642 157.425 80.6154 156.913 80.8712L112.752 106.355C112.343 106.099 110.399 105.178 110.399 105.178L111.32 107.634C111.371 107.736 111.422 107.839 111.575 107.941L138.543 123.497C138.952 123.753 139.72 123.702 140.232 123.446L185.416 97.3485C185.621 97.2461 185.723 97.0926 185.774 96.9391L186.746 94.2782Z" fill="url(#paint14_linear)"/>
<path d="M186.388 94.6877L140.078 121.399C139.566 121.706 138.799 121.706 138.389 121.45L110.757 105.485C110.296 105.229 110.347 104.768 110.859 104.513L157.169 77.8011C157.681 77.494 158.449 77.494 158.858 77.7499L186.491 93.7154C186.951 93.9713 186.9 94.3806 186.388 94.6877Z" fill="url(#paint15_linear)"/>
<path d="M186.388 94.4318L140.078 121.143C139.566 121.45 138.799 121.45 138.389 121.195L110.757 105.229C110.603 105.127 110.552 105.024 110.501 104.922C110.45 105.127 110.501 105.331 110.757 105.485L138.389 121.45C138.85 121.706 139.618 121.655 140.078 121.399L186.388 94.6877C186.746 94.483 186.849 94.2271 186.798 94.0225C186.695 94.1248 186.593 94.2783 186.388 94.4318Z" fill="white"/>
<path d="M126.108 115.617V115.105C126.108 115.054 126.159 115.054 126.159 115.054L127.95 116.077C128.002 116.077 128.002 116.179 128.002 116.179V116.691C128.002 116.742 127.95 116.742 127.95 116.742L126.159 115.719C126.108 115.719 126.108 115.668 126.108 115.617Z" fill="#2842A2"/>
<path d="M128.769 117.203V116.691C128.769 116.64 128.82 116.64 128.82 116.64L130.611 117.664C130.663 117.664 130.663 117.715 130.663 117.766V118.278C130.663 118.329 130.611 118.329 130.611 118.329L128.82 117.305C128.82 117.305 128.769 117.254 128.769 117.203Z" fill="#2842A2"/>
<path d="M117.921 104.052L156.402 81.8437C156.658 81.6901 156.965 81.6901 157.22 81.8437L170.934 89.7752C171.139 89.8776 171.139 90.1846 170.934 90.2869L132.453 112.495C132.198 112.649 131.891 112.649 131.635 112.495L117.921 104.564C117.716 104.461 117.716 104.154 117.921 104.052Z" fill="#ADB1F2"/>
<path d="M117.921 104.564L118.074 104.666L156.402 82.5088C156.658 82.3553 156.965 82.3553 157.22 82.5088L170.781 90.338L170.934 90.2357C171.139 90.1333 171.139 89.8263 170.934 89.724L157.22 81.7924C156.965 81.6389 156.658 81.6389 156.402 81.7924L117.921 104.001C117.716 104.154 117.716 104.461 117.921 104.564Z" fill="#9198DB"/>
<path d="M158.244 83.8396L124.829 103.131L123.345 102.261L156.76 82.9697L158.244 83.8396Z" fill="#24126A"/>
<path d="M161.928 85.9373L130.56 104.052L129.076 103.182L160.444 85.0674L161.928 85.9373Z" fill="#24126A"/>
<path d="M164.282 87.3186L127.387 108.606L125.904 107.787L162.798 86.4487L164.282 87.3186Z" fill="#24126A"/>
<path d="M166.636 88.7005L129.741 109.988L128.257 109.118L165.152 87.8306L166.636 88.7005Z" fill="#24126A"/>
<path d="M169.041 90.0311L132.095 111.37L130.611 110.5L167.557 89.2124L169.041 90.0311Z" fill="#24126A"/>
<path d="M122.833 104.308L121.349 105.178L119.865 104.308L121.349 103.438L122.833 104.308Z" fill="#24126A"/>
<path d="M128.053 105.485L124.982 107.276L123.498 106.406L126.569 104.615L128.053 105.485Z" fill="#24126A"/>
<path d="M157.886 109.425L168.274 103.438C168.683 103.182 168.683 102.824 168.274 102.568L161.161 98.4741C160.751 98.2183 160.086 98.2183 159.677 98.4741L149.289 104.461C148.88 104.717 148.88 105.075 149.289 105.331L156.402 109.425C156.811 109.681 157.476 109.681 157.886 109.425Z" fill="url(#paint16_linear)"/>
<path d="M149.34 104.819L159.728 98.8323C160.137 98.5765 160.802 98.5765 161.212 98.8323L168.325 102.926C168.427 102.977 168.529 103.08 168.58 103.182C168.683 102.977 168.58 102.721 168.325 102.568L161.212 98.4741C160.802 98.2183 160.137 98.2183 159.728 98.4741L149.34 104.461C149.084 104.615 148.982 104.871 149.084 105.075C149.135 104.973 149.186 104.922 149.34 104.819Z" fill="#9198DB"/>
<g opacity="0.11">
<g opacity="0.11">
<path opacity="0.11" d="M157.169 77.7502L110.859 104.462C110.347 104.769 109.58 104.769 109.17 104.513L81.5378 88.5473C81.0773 88.2915 81.1284 87.8309 81.6401 87.5751L127.95 60.8636C128.462 60.5565 129.23 60.5565 129.639 60.8124L157.272 76.7779C157.732 77.0338 157.681 77.4943 157.169 77.7502Z" fill="url(#paint17_linear)"/>
<path opacity="0.11" d="M110.757 82.5601L121.145 76.573C121.554 76.3171 121.554 75.9589 121.145 75.7031L114.032 71.6094C113.622 71.3535 112.957 71.3535 112.548 71.6094L102.211 77.5964C101.802 77.8523 101.802 78.2105 102.211 78.4663L109.324 82.5601C109.682 82.7648 110.347 82.7648 110.757 82.5601Z" fill="url(#paint18_linear)"/>
<path opacity="0.11" d="M102.211 77.9546L112.599 71.9676C113.008 71.7117 113.673 71.7117 114.083 71.9676L121.196 76.0613C121.298 76.1125 121.4 76.2148 121.452 76.3171C121.554 76.1125 121.452 75.8566 121.196 75.7031L114.083 71.6094C113.673 71.3535 113.008 71.3535 112.599 71.6094L102.211 77.5964C101.955 77.7499 101.853 78.0058 101.955 78.2105C102.006 78.1081 102.058 78.0058 102.211 77.9546Z" fill="#9198DB"/>
<g opacity="0.11">
<path opacity="0.11" d="M97.6056 91.9246L136.087 69.7162C136.342 69.5627 136.649 69.5627 136.905 69.7162L150.619 77.6478C150.824 77.7501 150.824 78.0572 150.619 78.1595L112.138 100.368C111.882 100.521 111.575 100.521 111.32 100.368L97.6056 92.4363C97.4521 92.334 97.4521 92.027 97.6056 91.9246Z" fill="#ADB1F2"/>
<path opacity="0.11" d="M97.6057 92.4362L97.7592 92.5386L136.087 70.3813C136.342 70.2278 136.649 70.2278 136.905 70.3813L150.466 78.2106L150.619 78.1082C150.824 78.0059 150.824 77.6989 150.619 77.5965L136.905 69.6649C136.649 69.5114 136.342 69.5114 136.087 69.6649L97.6057 91.9245C97.4522 92.0269 97.4522 92.3339 97.6057 92.4362Z" fill="#9198DB"/>
<g opacity="0.11">
<path opacity="0.11" d="M147.037 77.085L113.52 96.4278L114.85 97.1953L148.368 77.8525L147.037 77.085Z" fill="#24126A"/>
<path opacity="0.11" d="M143.506 75.0381L111.678 93.4598L113.008 94.2274L144.837 75.8057L143.506 75.0381Z" fill="#24126A"/>
<path opacity="0.11" d="M109.273 94.8418L106.305 96.5304L107.635 97.298L110.603 95.6094L109.273 94.8418Z" fill="#24126A"/>
<path opacity="0.11" d="M111.882 97.4004L109.836 98.5773L111.166 99.3449L113.213 98.168L111.882 97.4004Z" fill="#24126A"/>
<path opacity="0.11" d="M141.306 73.7588L104.104 95.2508L105.435 96.0184L142.636 74.5264L141.306 73.7588Z" fill="#24126A"/>
<path opacity="0.11" d="M139.106 72.4795L101.853 93.9715L103.183 94.7391L140.436 73.2471L139.106 72.4795Z" fill="#24126A"/>
<path opacity="0.11" d="M136.905 71.2002L99.6525 92.6922L100.983 93.4598L138.185 71.9678L136.905 71.2002Z" fill="#24126A"/>
</g>
</g>
</g>
</g>
<path d="M122.628 89.8773L126.262 87.7793L126.364 88.3934L122.731 90.5426L122.628 89.8773Z" fill="#42E8E0"/>
<path d="M126.825 87.4212L128.82 86.2954L128.923 86.9095L126.927 88.0864L126.825 87.4212Z" fill="#42E8E0"/>
<path d="M131.942 84.5043L133.374 83.6855L133.477 84.2996L132.044 85.1183L131.942 84.5043Z" fill="#42E8E0"/>
<path d="M130.867 85.1185L131.379 84.8115L131.481 85.4767L130.969 85.7326L130.867 85.1185Z" fill="#42E8E0"/>
<path d="M129.434 85.937L130.304 85.4253L130.407 86.0905L129.537 86.6022L129.434 85.937Z" fill="#42E8E0"/>
<path d="M125.494 85.016L126.927 84.1973L127.029 84.8625L125.596 85.6812L125.494 85.016Z" fill="#42E8E0"/>
<path d="M122.117 87.012L124.931 85.3745L125.033 85.9886L122.219 87.6261L122.117 87.012Z" fill="#42E8E0"/>
<path d="M126.159 76.7259L128.974 75.0884L129.076 75.7024L126.262 77.3399L126.159 76.7259Z" fill="#42E8E0"/>
<path d="M124.727 77.5449L125.596 77.0332L125.699 77.6984L124.829 78.2101L124.727 77.5449Z" fill="#42E8E0"/>
<path d="M126.62 79.6433L129.434 78.0059L129.537 78.6199L126.722 80.2574L126.62 79.6433Z" fill="#42E8E0"/>
<path d="M125.187 80.4619L126.057 79.9502L126.159 80.5643L125.289 81.076L125.187 80.4619Z" fill="#42E8E0"/>
<path d="M124.061 64.2404L118.791 67.2595L118.688 66.6455L123.959 63.5752L124.061 64.2404Z" fill="#42E8E0"/>
<path d="M125.955 63.115L124.624 63.8826L124.522 63.2685L125.852 62.501L125.955 63.115Z" fill="#42E8E0"/>
<path d="M135.268 62.5008L129.946 65.5711L129.844 64.957L135.165 61.8867L135.268 62.5008Z" fill="#42E8E0"/>
<path d="M137.161 61.4261L135.831 62.1936L135.728 61.5796L137.059 60.812L137.161 61.4261Z" fill="#42E8E0"/>
<path d="M120.428 67.925L118.995 68.7437L118.893 68.0785L120.326 67.2598L120.428 67.925Z" fill="#42E8E0"/>
<path d="M129.178 66.0314L127.746 66.8502L127.643 66.2361L129.076 65.3662L129.178 66.0314Z" fill="#42E8E0"/>
<path d="M123.805 65.9295L120.991 67.567L120.889 66.9529L123.703 65.3154L123.805 65.9295Z" fill="#42E8E0"/>
<path d="M125.289 65.1106L124.368 65.6224L124.266 65.0083L125.187 64.4966L125.289 65.1106Z" fill="#42E8E0"/>
<path d="M128.667 63.1662L125.852 64.7525L125.75 64.1385L128.564 62.501L128.667 63.1662Z" fill="#42E8E0"/>
<path d="M130.151 62.2962L129.23 62.8079L129.127 62.1938L129.997 61.6821L130.151 62.2962Z" fill="#42E8E0"/>
<path d="M128.974 64.5988L127.541 65.4176L127.439 64.7523L128.871 63.9336L128.974 64.5988Z" fill="#42E8E0"/>
<path d="M132.351 62.6033L129.537 64.2408L129.434 63.6267L132.249 61.9893L132.351 62.6033Z" fill="#42E8E0"/>
<path d="M133.784 61.7845L132.914 62.2962L132.76 61.6821L133.681 61.1704L133.784 61.7845Z" fill="#42E8E0"/>
<path d="M122.219 68.488L119.251 70.1766L119.149 69.5626L122.117 67.8228L122.219 68.488Z" fill="#42E8E0"/>
<path d="M124.88 66.9017L122.782 68.1809L122.628 67.5157L124.778 66.2876L124.88 66.9017Z" fill="#42E8E0"/>
<path d="M126.876 65.7757L125.443 66.5944L125.341 65.9804L126.773 65.1616L126.876 65.7757Z" fill="#42E8E0"/>
<path d="M140.845 59.3283L137.878 61.017L137.775 60.4029L140.743 58.6631L140.845 59.3283Z" fill="#42E8E0"/>
<path d="M143.506 57.742L141.408 58.9701L141.306 58.356L143.404 57.1279L143.506 57.742Z" fill="#42E8E0"/>
<path d="M145.502 56.616L144.069 57.4348L143.967 56.8207L145.4 56.002L145.502 56.616Z" fill="#42E8E0"/>
<path d="M139.669 78.4152L142.637 76.7266L142.739 77.3918L139.771 79.0804L139.669 78.4152Z" fill="#42E8E0"/>
<path d="M137.008 80.0015L139.106 78.7734L139.208 79.3875L137.11 80.6156L137.008 80.0015Z" fill="#42E8E0"/>
<path d="M135.012 81.1273L136.445 80.3086L136.547 80.9226L135.114 81.7926L135.012 81.1273Z" fill="#42E8E0"/>
<path d="M138.696 80.6153L141.664 78.8755L141.767 79.5407L138.799 81.2294L138.696 80.6153Z" fill="#42E8E0"/>
<path d="M136.035 82.1505L138.133 80.9224L138.236 81.5364L136.138 82.7645L136.035 82.1505Z" fill="#42E8E0"/>
<path d="M134.04 83.2763L135.472 82.4575L135.575 83.1228L134.142 83.9415L134.04 83.2763Z" fill="#42E8E0"/>
<path d="M126.825 77.9032L127.797 77.3403L127.899 77.9544L126.927 78.5684L126.825 77.9032Z" fill="#42E8E0"/>
<path d="M124.931 78.9781L126.262 78.2617L126.364 78.8758L125.085 79.6433L124.931 78.9781Z" fill="#42E8E0"/>
<path d="M122.475 69.9207L119.507 71.6094L119.405 70.9953L122.373 69.3066L122.475 69.9207Z" fill="#42E8E0"/>
<path d="M125.136 68.3854L123.038 69.6136L122.935 68.9483L125.034 67.7202L125.136 68.3854Z" fill="#42E8E0"/>
<path d="M127.132 67.2088L125.699 68.0275L125.596 67.4135L127.029 66.5947L127.132 67.2088Z" fill="#42E8E0"/>
<path d="M120.786 72.4793L119.763 73.0422L119.661 72.4281L120.633 71.8652L120.786 72.4793Z" fill="#42E8E0"/>
<path d="M122.628 71.4046L121.298 72.1722L121.196 71.5581L122.526 70.7905L122.628 71.4046Z" fill="#42E8E0"/>
<path d="M125.289 69.8693L123.191 71.0974L123.089 70.4322L125.187 69.2041L125.289 69.8693Z" fill="#42E8E0"/>
<path d="M128.155 81.8949L129.178 81.332L129.281 81.9461L128.257 82.5601L128.155 81.8949Z" fill="#42E8E0"/>
<path d="M126.313 82.9693L127.643 82.2529L127.746 82.867L126.415 83.6346L126.313 82.9693Z" fill="#42E8E0"/>
<path d="M123.652 84.5558L125.75 83.3276L125.852 83.9417L123.754 85.1698L123.652 84.5558Z" fill="#42E8E0"/>
<path d="M129.69 79.5406L131.788 78.3125L131.891 78.9777L129.792 80.2059L129.69 79.5406Z" fill="#42E8E0"/>
<path d="M126.21 81.4344L129.076 79.7969L129.178 80.4109L126.313 82.0996L126.21 81.4344Z" fill="#42E8E0"/>
<path d="M124.778 82.3042L125.648 81.7925L125.801 82.4065L124.88 82.9183L124.778 82.3042Z" fill="#42E8E0"/>
<path d="M123.396 83.0718L124.266 82.5601L124.368 83.2253L123.498 83.737L123.396 83.0718Z" fill="#42E8E0"/>
<path d="M123.601 74.9353L126.415 73.2979L126.517 73.9119L123.703 75.5494L123.601 74.9353Z" fill="#42E8E0"/>
<path d="M122.117 75.7544L123.038 75.2427L123.14 75.8567L122.219 76.3685L122.117 75.7544Z" fill="#42E8E0"/>
<path d="M123.754 73.1957L124.778 72.6328L124.88 73.2469L123.857 73.8609L123.754 73.1957Z" fill="#42E8E0"/>
<path d="M127.285 74.3725L128.257 73.8096L128.36 74.4236L127.387 74.9865L127.285 74.3725Z" fill="#42E8E0"/>
<path d="M128.718 73.554L131.072 72.1724L131.174 72.7864L128.82 74.1681L128.718 73.554Z" fill="#42E8E0"/>
<path d="M131.481 71.9164L132.914 71.0977L133.016 71.7629L131.635 72.5816L131.481 71.9164Z" fill="#42E8E0"/>
<path d="M121.912 74.2701L123.191 73.5537L123.345 74.1678L122.014 74.9353L121.912 74.2701Z" fill="#42E8E0"/>
<path d="M121.759 72.7865L122.782 72.2236L122.884 72.8889L121.861 73.4517L121.759 72.7865Z" fill="#42E8E0"/>
<path d="M119.916 73.9121L121.196 73.1445L121.349 73.7586L120.019 74.5262L119.916 73.9121Z" fill="#42E8E0"/>
<path d="M125.852 75.1914L126.722 74.6797L126.825 75.3449L125.955 75.8566L125.852 75.1914Z" fill="#42E8E0"/>
<path d="M124.471 76.0102L125.341 75.4985L125.443 76.1126L124.573 76.6243L124.471 76.0102Z" fill="#42E8E0"/>
<path d="M131.328 83.2765L134.347 81.5366L134.449 82.1507L131.43 83.8905L131.328 83.2765Z" fill="#42E8E0"/>
<path d="M127.899 85.2722L130.765 83.5835L130.867 84.2487L128.001 85.8862L127.899 85.2722Z" fill="#42E8E0"/>
<path d="M126.466 86.0908L127.336 85.5791L127.439 86.1932L126.569 86.7049L126.466 86.0908Z" fill="#42E8E0"/>
<path d="M125.034 86.9097L125.955 86.3979L126.057 87.012L125.136 87.5237L125.034 86.9097Z" fill="#42E8E0"/>
<path d="M124.266 87.3188L122.373 88.4446L122.475 89.0587L124.419 87.9841L124.266 87.3188Z" fill="#42E8E0"/>
<path d="M47.3553 128C46.6389 128 45.8714 127.795 45.2573 127.437L3.19435 103.182C2.83615 102.977 2.58029 102.568 2.58029 102.107C2.58029 101.647 2.78498 101.289 3.19435 101.033L29.4965 85.8348C29.5477 85.7836 29.65 85.7836 29.7523 85.8348L73.7598 111.216C74.118 111.421 74.3739 111.83 74.3739 112.29C74.3739 112.751 74.1692 113.109 73.7598 113.365L49.4534 127.386C48.7881 127.847 48.0717 128 47.3553 128ZM45.462 127.028C46.5878 127.693 48.0717 127.693 49.1975 127.028L73.504 113.007C73.7598 112.853 73.8621 112.649 73.8621 112.393C73.8621 112.137 73.7086 111.881 73.504 111.779L29.5988 86.4488L29.4965 86.5L3.39903 101.596C3.14318 101.749 3.04084 101.954 3.04084 102.21C3.04084 102.465 3.19435 102.721 3.39903 102.824L45.462 127.028Z" fill="#42E8E0"/>
<path d="M29.5988 76.1125L35.4324 41.367L34.9718 41.1623L35.6882 40.753C35.8417 40.6506 35.9952 40.6506 36.2511 40.8041L83.0218 67.8227C83.4312 68.0274 83.6871 68.5902 83.6359 68.9996L77.7512 104.001C77.7 104.206 77.6488 104.308 77.4953 104.359L76.7789 104.768L76.6766 104.103H76.7277L30.2129 77.2382C29.8035 77.0335 29.4965 76.4707 29.5988 76.1125Z" fill="url(#paint19_linear)"/>
<path d="M82.7148 68.7435L83.4824 68.3853C83.5847 68.5899 83.6359 68.7946 83.5847 68.9481L77.7 103.949C77.6488 104.154 77.5977 104.256 77.4441 104.308L76.7277 104.717L76.6254 104.052H76.6766L74.3227 102.67L82.7148 68.7435Z" fill="url(#paint20_linear)"/>
<path d="M29.4453 77.6989L76.216 104.717C76.5742 104.922 76.8813 104.82 76.9324 104.41L82.8171 69.4092C82.8683 68.9998 82.6125 68.4369 82.2031 68.2322L35.4324 41.2137C35.0742 41.009 34.7671 41.1113 34.716 41.5207L28.8313 76.522C28.7801 76.9314 29.0871 77.4942 29.4453 77.6989Z" fill="#24126A"/>
<g opacity="0.51">
<path opacity="0.51" d="M36.0976 43.4653L81.1797 69.5116L75.602 102.466L30.5199 76.4198L36.0976 43.4653Z" fill="#453C9E"/>
</g>
<path d="M0.0728455 94.2782L2.63142 95.6086L28.2172 80.8201C28.6265 80.5642 29.3941 80.6154 29.9058 80.8712L74.0668 106.355C74.4762 106.099 76.4207 105.178 76.4207 105.178L75.4996 107.634C75.4484 107.736 75.3972 107.839 75.2437 107.941L48.2764 123.497C47.867 123.753 47.0994 123.702 46.5877 123.446L1.4033 97.3485C1.19862 97.2461 1.09628 97.0926 1.0451 96.9391L0.0728455 94.2782Z" fill="url(#paint21_linear)"/>
<path d="M0.431039 94.6872L46.7412 121.399C47.2529 121.706 48.0205 121.706 48.4299 121.45L76.0625 105.484C76.523 105.228 76.4718 104.768 75.9601 104.512L29.6499 77.8006C29.1382 77.4936 28.3707 77.4936 27.9613 77.7494L0.328694 93.7149C-0.131849 93.9708 -0.0806754 94.3801 0.431039 94.6872Z" fill="url(#paint22_linear)"/>
<path d="M0.431036 94.4318L46.7412 121.143C47.2529 121.45 48.0205 121.45 48.4299 121.195L76.0625 105.229C76.216 105.127 76.2672 105.024 76.3183 104.922C76.3695 105.127 76.3183 105.331 76.0625 105.485L48.4299 121.45C47.9693 121.706 47.2018 121.655 46.7412 121.399L0.431036 94.6877C0.0728355 94.483 -0.0295091 94.2271 0.0216624 94.0225C0.124005 94.1248 0.22635 94.2783 0.431036 94.4318Z" fill="white"/>
<path d="M60.711 115.617V115.105C60.711 115.054 60.6599 115.054 60.6599 115.054L58.8689 116.077C58.8177 116.077 58.8177 116.179 58.8177 116.179V116.691C58.8177 116.742 58.8689 116.742 58.8689 116.742L60.6599 115.719C60.711 115.719 60.711 115.668 60.711 115.617Z" fill="#2842A2"/>
<path d="M58.0501 117.203V116.691C58.0501 116.64 57.9989 116.64 57.9989 116.64L56.2079 117.664C56.1568 117.664 56.1568 117.715 56.1568 117.766V118.278C56.1568 118.329 56.2079 118.329 56.2079 118.329L57.9989 117.305C57.9989 117.305 58.0501 117.254 58.0501 117.203Z" fill="#2842A2"/>
<path d="M68.8985 104.052L30.4175 81.8432C30.1616 81.6896 29.8546 81.6896 29.5988 81.8432L15.8848 89.7747C15.6801 89.8771 15.6801 90.1841 15.8848 90.2865L54.3658 112.495C54.6216 112.648 54.9286 112.648 55.1845 112.495L68.8985 104.563C69.1031 104.461 69.1031 104.154 68.8985 104.052Z" fill="#ADB1F2"/>
<path d="M68.8985 104.563L68.7449 104.666L30.4175 82.5083C30.1616 82.3548 29.8546 82.3548 29.5988 82.5083L16.0383 90.3375L15.8848 90.2352C15.6801 90.1328 15.6801 89.8258 15.8848 89.7235L29.5988 81.7919C29.8546 81.6384 30.1616 81.6384 30.4175 81.7919L68.8985 104C69.1031 104.154 69.1031 104.461 68.8985 104.563Z" fill="#9198DB"/>
<path d="M31.748 85.6811L64.3442 104.512L65.7258 103.591L33.2831 84.8623L31.748 85.6811Z" fill="#24126A"/>
<path d="M29.65 88.7005L59.2271 105.741L60.2505 104.615L31.1339 87.8306L29.65 88.7005Z" fill="#24126A"/>
<path d="M22.5371 87.3186L59.4317 108.606L60.9157 107.787L24.0211 86.4487L22.5371 87.3186Z" fill="#24126A"/>
<path d="M20.1832 88.7L57.0779 109.987L58.5618 109.117L21.6672 87.8301L20.1832 88.7Z" fill="#24126A"/>
<path d="M17.7782 90.0307L54.724 111.369L56.2079 110.499L19.2621 89.2119L17.7782 90.0307Z" fill="#24126A"/>
<path d="M63.986 104.307L65.47 105.177L66.9539 104.307L65.47 103.438L63.986 104.307Z" fill="#24126A"/>
<path d="M58.7665 105.485L61.8368 107.276L63.3208 106.406L60.2505 104.615L58.7665 105.485Z" fill="#24126A"/>
<path d="M28.9335 109.424L18.5457 103.437C18.1364 103.181 18.1364 102.823 18.5457 102.567L25.6586 98.4736C26.0679 98.2178 26.7332 98.2178 27.1425 98.4736L37.5304 104.461C37.9397 104.717 37.9397 105.075 37.5304 105.331L30.4175 109.424C30.0081 109.68 29.3429 109.68 28.9335 109.424Z" fill="url(#paint23_linear)"/>
<path d="M37.4792 104.819L27.0914 98.8318C26.682 98.576 26.0168 98.576 25.6074 98.8318L18.4946 102.926C18.3922 102.977 18.2899 103.079 18.2387 103.181C18.1364 102.977 18.2387 102.721 18.4946 102.567L25.6074 98.4736C26.0168 98.2178 26.682 98.2178 27.0914 98.4736L37.4792 104.461C37.735 104.614 37.8374 104.87 37.735 105.075C37.6839 104.972 37.6327 104.921 37.4792 104.819Z" fill="#9198DB"/>
<g opacity="0.11">
<g opacity="0.11">
<path opacity="0.11" d="M29.65 77.7497L75.9602 104.461C76.4719 104.768 77.2394 104.768 77.6488 104.512L105.281 88.5468C105.742 88.291 105.691 87.8304 105.179 87.5746L58.8689 60.8631C58.3572 60.5561 57.5896 60.5561 57.1802 60.8119L29.5476 76.7774C29.0871 77.0333 29.1383 77.4938 29.65 77.7497Z" fill="url(#paint24_linear)"/>
<path opacity="0.11" d="M76.0625 82.5601L65.6747 76.573C65.2653 76.3171 65.2653 75.9589 65.6747 75.7031L72.7875 71.6094C73.1969 71.3535 73.8621 71.3535 74.2715 71.6094L84.6593 77.5964C85.0687 77.8523 85.0687 78.2105 84.6593 78.4663L77.5465 82.5601C77.1371 82.7648 76.4719 82.7648 76.0625 82.5601Z" fill="url(#paint25_linear)"/>
<path opacity="0.11" d="M84.6082 77.9541L74.2715 71.9671C73.8622 71.7112 73.1969 71.7112 72.7876 71.9671L65.6747 76.0608C65.5724 76.112 65.47 76.2143 65.4189 76.3167C65.3165 76.112 65.4189 75.8561 65.6747 75.7026L72.7876 71.6089C73.1969 71.353 73.8622 71.353 74.2715 71.6089L84.6593 77.5959C84.9152 77.7495 85.0175 78.0053 84.9152 78.21C84.8128 78.1077 84.7617 78.0053 84.6082 77.9541Z" fill="#9198DB"/>
<g opacity="0.11">
<path opacity="0.11" d="M89.2136 91.9246L50.7326 69.7162C50.4768 69.5627 50.1697 69.5627 49.9139 69.7162L36.1999 77.6478C35.9952 77.7501 35.9952 78.0572 36.1999 78.1595L74.6809 100.368C74.9367 100.521 75.2438 100.521 75.4996 100.368L89.2136 92.4363C89.3671 92.334 89.3671 92.027 89.2136 91.9246Z" fill="#ADB1F2"/>
<path opacity="0.11" d="M89.2136 92.4358L89.0601 92.5381L50.7327 70.3808C50.4768 70.2273 50.1698 70.2273 49.9139 70.3808L36.3535 78.2101L36.2 78.1077C35.9953 78.0054 35.9953 77.6984 36.2 77.596L49.9139 69.6645C50.1698 69.5109 50.4768 69.5109 50.7327 69.6645L89.2136 91.8729C89.3671 92.0264 89.3671 92.3334 89.2136 92.4358Z" fill="#9198DB"/>
<g opacity="0.11">
<path opacity="0.11" d="M39.782 77.0845L73.2993 96.4273L71.9688 97.1949L38.4515 77.852L39.782 77.0845Z" fill="#24126A"/>
<path opacity="0.11" d="M43.3128 75.0381L75.1414 93.4598L73.811 94.2274L41.9823 75.8057L43.3128 75.0381Z" fill="#24126A"/>
<path opacity="0.11" d="M77.5465 94.8413L80.5144 96.53L79.184 97.2975L76.216 95.6089L77.5465 94.8413Z" fill="#24126A"/>
<path opacity="0.11" d="M74.9367 97.3999L76.9836 98.5768L75.6531 99.3444L73.6063 98.1675L74.9367 97.3999Z" fill="#24126A"/>
<path opacity="0.11" d="M45.5132 73.7588L82.7148 95.2508L81.3844 96.0184L44.1827 74.5264L45.5132 73.7588Z" fill="#24126A"/>
<path opacity="0.11" d="M47.7135 72.4795L84.9663 93.9715L83.6359 94.7391L46.3831 73.2471L47.7135 72.4795Z" fill="#24126A"/>
<path opacity="0.11" d="M49.9139 71.2002L87.1667 92.6922L85.8363 93.4598L48.6346 71.9678L49.9139 71.2002Z" fill="#24126A"/>
</g>
</g>
</g>
</g>
<path d="M46.1784 55.6945L49.8627 57.7926L49.9651 57.1273L46.2807 55.0293L46.1784 55.6945Z" fill="#42E8E0"/>
<path d="M50.4256 58.0994L52.4213 59.2764L52.5236 58.6111L50.5279 57.4854L50.4256 58.0994Z" fill="#42E8E0"/>
<path d="M55.4916 61.0676L56.9244 61.8863L57.0779 61.2723L55.5939 60.4023L55.4916 61.0676Z" fill="#42E8E0"/>
<path d="M54.4681 60.4538L54.9287 60.7097L55.0822 60.0956L54.5705 59.7886L54.4681 60.4538Z" fill="#42E8E0"/>
<path d="M53.0353 59.5838L53.9052 60.1467L54.0076 59.4814L53.1377 58.9697L53.0353 59.5838Z" fill="#42E8E0"/>
<path d="M49.0952 60.5047L50.528 61.3234L50.6303 60.7094L49.1975 59.8906L49.0952 60.5047Z" fill="#42E8E0"/>
<path d="M45.7178 58.5603L48.5322 60.1978L48.6346 59.5838L45.8201 57.9463L45.7178 58.5603Z" fill="#42E8E0"/>
<path d="M49.7603 68.8459L52.5748 70.4834L52.6771 69.8181L49.8627 68.1807L49.7603 68.8459Z" fill="#42E8E0"/>
<path d="M48.2764 67.9759L49.1975 68.4876L49.2998 67.8735L48.3787 67.3618L48.2764 67.9759Z" fill="#42E8E0"/>
<path d="M50.2209 65.929L53.0353 67.5665L53.1377 66.9524L50.3232 65.3149L50.2209 65.929Z" fill="#42E8E0"/>
<path d="M48.7881 65.1101L49.658 65.6218L49.7603 64.9565L48.8904 64.4448L48.7881 65.1101Z" fill="#42E8E0"/>
<path d="M47.6623 81.3315L42.3405 78.2612L42.2382 78.9265L47.56 81.9967L47.6623 81.3315Z" fill="#42E8E0"/>
<path d="M49.5557 82.4062L48.2252 81.6387L48.1229 82.3039L49.4533 83.0715L49.5557 82.4062Z" fill="#42E8E0"/>
<path d="M58.8689 83.0205L53.5471 79.9502L53.4447 80.6154L58.7666 83.6857L58.8689 83.0205Z" fill="#42E8E0"/>
<path d="M60.7111 84.0948L59.4318 83.3784L59.3294 83.9925L60.6087 84.76L60.7111 84.0948Z" fill="#42E8E0"/>
<path d="M44.0292 77.6474L42.5964 76.8286L42.494 77.4427L43.9268 78.3126L44.0292 77.6474Z" fill="#42E8E0"/>
<path d="M52.7795 79.5404L51.3467 78.7217L51.2443 79.3357L52.6771 80.1545L52.7795 79.5404Z" fill="#42E8E0"/>
<path d="M47.4065 79.5916L44.5921 77.9541L44.4897 78.6193L47.3041 80.2568L47.4065 79.5916Z" fill="#42E8E0"/>
<path d="M48.8393 80.4619L47.9693 79.9502L47.867 80.5643L48.7369 81.076L48.8393 80.4619Z" fill="#42E8E0"/>
<path d="M52.2678 82.406L49.4534 80.7686L49.351 81.4338L52.1654 83.0201L52.2678 82.406Z" fill="#42E8E0"/>
<path d="M53.7006 83.2251L52.8306 82.7134L52.7283 83.3786L53.5982 83.8903L53.7006 83.2251Z" fill="#42E8E0"/>
<path d="M52.5236 80.973L51.0908 80.1543L50.9885 80.7684L52.4213 81.6383L52.5236 80.973Z" fill="#42E8E0"/>
<path d="M55.9009 82.9178L53.0865 81.2803L52.9842 81.9455L55.7986 83.583L55.9009 82.9178Z" fill="#42E8E0"/>
<path d="M57.3849 83.7881L56.4638 83.2764L56.3615 83.8904L57.2826 84.4021L57.3849 83.7881Z" fill="#42E8E0"/>
<path d="M45.769 77.0842L42.8522 75.3955L42.7499 76.0096L45.6667 77.6982L45.769 77.0842Z" fill="#42E8E0"/>
<path d="M48.4811 78.6197L46.3319 77.3916L46.2295 78.0568L48.3787 79.2849L48.4811 78.6197Z" fill="#42E8E0"/>
<path d="M50.4767 79.7963L49.0439 78.9775L48.9416 79.5916L50.3744 80.4103L50.4767 79.7963Z" fill="#42E8E0"/>
<path d="M64.3954 86.2438L61.4787 84.5552L61.3763 85.1692L64.2931 86.8579L64.3954 86.2438Z" fill="#42E8E0"/>
<path d="M67.1075 87.7794L64.9583 86.5513L64.856 87.2165L67.0052 88.4446L67.1075 87.7794Z" fill="#42E8E0"/>
<path d="M69.1032 88.9564L67.6704 88.1377L67.568 88.7518L69.0008 89.5705L69.1032 88.9564Z" fill="#42E8E0"/>
<path d="M63.2696 67.1058L66.1864 68.7944L66.3399 68.1804L63.372 66.4917L63.2696 67.1058Z" fill="#42E8E0"/>
<path d="M60.6087 65.5706L62.7068 66.7987L62.8091 66.1847L60.7111 64.9565L60.6087 65.5706Z" fill="#42E8E0"/>
<path d="M58.613 64.3938L60.0458 65.2638L60.1482 64.5985L58.7154 63.7798L58.613 64.3938Z" fill="#42E8E0"/>
<path d="M62.2974 64.9568L65.2142 66.6455L65.3165 66.0314L62.3997 64.3428L62.2974 64.9568Z" fill="#42E8E0"/>
<path d="M59.5853 63.4216L61.7345 64.6497L61.8368 63.9845L59.7388 62.7563L59.5853 63.4216Z" fill="#42E8E0"/>
<path d="M57.5896 62.2444L59.0736 63.0632L59.1759 62.4491L57.7431 61.6304L57.5896 62.2444Z" fill="#42E8E0"/>
<path d="M50.4256 67.6175L51.3979 68.2315L51.5002 67.5663L50.5279 67.0034L50.4256 67.6175Z" fill="#42E8E0"/>
<path d="M48.5322 66.5428L49.8627 67.3103L49.965 66.6963L48.6346 65.9287L48.5322 66.5428Z" fill="#42E8E0"/>
<path d="M46.076 75.6516L43.1081 73.9629L43.0057 74.577L45.9225 76.2656L46.076 75.6516Z" fill="#42E8E0"/>
<path d="M48.7369 77.1866L46.5877 75.9585L46.4854 76.5726L48.6346 77.8007L48.7369 77.1866Z" fill="#42E8E0"/>
<path d="M50.7326 78.3636L49.2998 77.4937L49.1975 78.1589L50.6303 78.9776L50.7326 78.3636Z" fill="#42E8E0"/>
<path d="M44.3362 73.0419L43.3639 72.479L43.2616 73.1442L44.2339 73.7071L44.3362 73.0419Z" fill="#42E8E0"/>
<path d="M46.2295 74.1675L44.8991 73.3999L44.7967 74.014L46.1272 74.7815L46.2295 74.1675Z" fill="#42E8E0"/>
<path d="M48.8904 75.7027L46.7924 74.4746L46.6901 75.0887L48.7881 76.3168L48.8904 75.7027Z" fill="#42E8E0"/>
<path d="M51.756 63.6263L52.7795 64.2403L52.8818 63.5751L51.8584 63.0122L51.756 63.6263Z" fill="#42E8E0"/>
<path d="M49.9139 62.5516L51.1932 63.3191L51.2955 62.7051L50.0162 61.9375L49.9139 62.5516Z" fill="#42E8E0"/>
<path d="M47.2018 61.0164L49.351 62.2445L49.4533 61.6305L47.3041 60.4023L47.2018 61.0164Z" fill="#42E8E0"/>
<path d="M53.2912 65.9803L55.3892 67.2084L55.4915 66.5943L53.3935 65.3662L53.2912 65.9803Z" fill="#42E8E0"/>
<path d="M49.8115 64.0867L52.6771 65.7754L52.7795 65.1101L49.9139 63.4727L49.8115 64.0867Z" fill="#42E8E0"/>
<path d="M48.3787 63.2679L49.2486 63.7796L49.351 63.1655L48.4811 62.6538L48.3787 63.2679Z" fill="#42E8E0"/>
<path d="M46.9971 62.4495L47.867 62.9612L47.9694 62.3472L47.0994 61.8354L46.9971 62.4495Z" fill="#42E8E0"/>
<path d="M47.1506 70.637L49.9651 72.2745L50.0674 71.6604L47.253 70.0229L47.1506 70.637Z" fill="#42E8E0"/>
<path d="M45.7178 69.8181L46.5877 70.3298L46.6901 69.6645L45.8202 69.1528L45.7178 69.8181Z" fill="#42E8E0"/>
<path d="M47.3553 72.3255L48.3276 72.9395L48.4811 72.2743L47.4577 71.7114L47.3553 72.3255Z" fill="#42E8E0"/>
<path d="M50.8862 71.1999L51.8585 71.7628L51.9608 71.1487L50.9885 70.5347L50.8862 71.1999Z" fill="#42E8E0"/>
<path d="M52.2678 72.0187L54.6728 73.4004L54.7752 72.7351L52.3701 71.3535L52.2678 72.0187Z" fill="#42E8E0"/>
<path d="M55.0822 73.6048L56.515 74.4235L56.6174 73.8095L55.1846 72.9907L55.0822 73.6048Z" fill="#42E8E0"/>
<path d="M45.462 71.2508L46.7924 72.0184L46.8948 71.4043L45.6155 70.6367L45.462 71.2508Z" fill="#42E8E0"/>
<path d="M45.3597 72.7351L46.3319 73.3492L46.4855 72.684L45.462 72.1211L45.3597 72.7351Z" fill="#42E8E0"/>
<path d="M43.5175 71.6604L44.7968 72.428L44.8991 71.814L43.6198 71.0464L43.5175 71.6604Z" fill="#42E8E0"/>
<path d="M49.4022 70.3299L50.3233 70.8928L50.4256 70.2275L49.5557 69.7158L49.4022 70.3299Z" fill="#42E8E0"/>
<path d="M48.0206 69.5622L48.9417 70.0739L49.044 69.4087L48.1229 68.897L48.0206 69.5622Z" fill="#42E8E0"/>
<path d="M54.8775 62.2956L57.9478 64.0354L58.0501 63.4214L54.9798 61.6304L54.8775 62.2956Z" fill="#42E8E0"/>
<path d="M51.5002 60.3001L54.3146 61.9376L54.417 61.3235L51.6025 59.686L51.5002 60.3001Z" fill="#42E8E0"/>
<path d="M50.0162 59.4811L50.9373 59.9929L51.0397 59.3276L50.1186 58.8159L50.0162 59.4811Z" fill="#42E8E0"/>
<path d="M48.6346 58.6624L49.5557 59.1741L49.658 58.5601L48.7369 58.0483L48.6346 58.6624Z" fill="#42E8E0"/>
<path d="M47.867 58.2017L45.9737 57.1271L46.076 56.4619L47.9693 57.5877L47.867 58.2017Z" fill="#42E8E0"/>
<path d="M28.5754 83.8387L30.0594 84.7086L31.5434 83.8387L30.0594 82.9688L28.5754 83.8387Z" fill="#24126A"/>
<path d="M24.8911 85.9368L28.0125 87.7278L29.4965 86.8579L26.375 85.0669L24.8911 85.9368Z" fill="#24126A"/>
<defs>
<linearGradient id="paint0_linear" x1="0.0457344" y1="43.24" x2="75.043" y2="43.24" gradientUnits="userSpaceOnUse">
<stop stop-color="#5761D7"/>
<stop offset="0.1779" stop-color="#5C66D9"/>
<stop offset="0.3876" stop-color="#6A73DF"/>
<stop offset="0.6134" stop-color="#8289E8"/>
<stop offset="0.849" stop-color="#A3A7F5"/>
<stop offset="1" stop-color="#BCBEFF"/>
</linearGradient>
<linearGradient id="paint1_linear" x1="25.2451" y1="40.7396" x2="100.282" y2="40.7396" gradientUnits="userSpaceOnUse">
<stop stop-color="#C0BFF6"/>
<stop offset="0.2938" stop-color="#C5C4F7"/>
<stop offset="0.6399" stop-color="#D3D2F9"/>
<stop offset="1" stop-color="#E9E9FD"/>
</linearGradient>
<linearGradient id="paint2_linear" x1="20.3765" y1="34.9652" x2="39.5839" y2="34.9652" gradientUnits="userSpaceOnUse">
<stop stop-color="#C0BFF6"/>
<stop offset="0.2938" stop-color="#C5C4F7"/>
<stop offset="0.6399" stop-color="#D3D2F9"/>
<stop offset="1" stop-color="#E9E9FD"/>
</linearGradient>
<linearGradient id="paint3_linear" x1="21.8783" y1="31.5042" x2="74.9802" y2="31.5042" gradientUnits="userSpaceOnUse">
<stop stop-color="#C0BFF6"/>
<stop offset="0.2938" stop-color="#C5C4F7"/>
<stop offset="0.6399" stop-color="#D3D2F9"/>
<stop offset="1" stop-color="#E9E9FD"/>
</linearGradient>
<linearGradient id="paint4_linear" x1="21.8786" y1="45.1222" x2="30.9968" y2="45.1222" gradientUnits="userSpaceOnUse">
<stop stop-color="#5761D7"/>
<stop offset="0.1779" stop-color="#5C66D9"/>
<stop offset="0.3876" stop-color="#6A73DF"/>
<stop offset="0.6134" stop-color="#8289E8"/>
<stop offset="0.849" stop-color="#A3A7F5"/>
<stop offset="1" stop-color="#BCBEFF"/>
</linearGradient>
<linearGradient id="paint5_linear" x1="186.773" y1="43.24" x2="111.776" y2="43.24" gradientUnits="userSpaceOnUse">
<stop stop-color="#5761D7"/>
<stop offset="0.1779" stop-color="#5C66D9"/>
<stop offset="0.3876" stop-color="#6A73DF"/>
<stop offset="0.6134" stop-color="#8289E8"/>
<stop offset="0.849" stop-color="#A3A7F5"/>
<stop offset="1" stop-color="#BCBEFF"/>
</linearGradient>
<linearGradient id="paint6_linear" x1="161.574" y1="40.7396" x2="86.5369" y2="40.7396" gradientUnits="userSpaceOnUse">
<stop stop-color="#C0BFF6"/>
<stop offset="0.2938" stop-color="#C5C4F7"/>
<stop offset="0.6399" stop-color="#D3D2F9"/>
<stop offset="1" stop-color="#E9E9FD"/>
</linearGradient>
<linearGradient id="paint7_linear" x1="166.443" y1="34.9652" x2="147.235" y2="34.9652" gradientUnits="userSpaceOnUse">
<stop stop-color="#C0BFF6"/>
<stop offset="0.2938" stop-color="#C5C4F7"/>
<stop offset="0.6399" stop-color="#D3D2F9"/>
<stop offset="1" stop-color="#E9E9FD"/>
</linearGradient>
<linearGradient id="paint8_linear" x1="164.941" y1="31.5042" x2="111.839" y2="31.5042" gradientUnits="userSpaceOnUse">
<stop stop-color="#C0BFF6"/>
<stop offset="0.2938" stop-color="#C5C4F7"/>
<stop offset="0.6399" stop-color="#D3D2F9"/>
<stop offset="1" stop-color="#E9E9FD"/>
</linearGradient>
<linearGradient id="paint9_linear" x1="164.941" y1="45.1222" x2="155.822" y2="45.1222" gradientUnits="userSpaceOnUse">
<stop stop-color="#5761D7"/>
<stop offset="0.1779" stop-color="#5C66D9"/>
<stop offset="0.3876" stop-color="#6A73DF"/>
<stop offset="0.6134" stop-color="#8289E8"/>
<stop offset="0.849" stop-color="#A3A7F5"/>
<stop offset="1" stop-color="#BCBEFF"/>
</linearGradient>
<linearGradient id="paint10_linear" x1="114.81" y1="82.2427" x2="114.81" y2="52.9942" gradientUnits="userSpaceOnUse">
<stop stop-color="#C0BFF6"/>
<stop offset="0.2938" stop-color="#C5C4F7"/>
<stop offset="0.6399" stop-color="#D3D2F9"/>
<stop offset="1" stop-color="#E9E9FD"/>
</linearGradient>
<linearGradient id="paint11_linear" x1="114.81" y1="57.9901" x2="114.81" y2="28.7416" gradientUnits="userSpaceOnUse">
<stop stop-color="#C0BFF6"/>
<stop offset="0.2938" stop-color="#C5C4F7"/>
<stop offset="0.6399" stop-color="#D3D2F9"/>
<stop offset="1" stop-color="#E9E9FD"/>
</linearGradient>
<linearGradient id="paint12_linear" x1="103.201" y1="72.7262" x2="157.242" y2="72.7262" gradientUnits="userSpaceOnUse">
<stop stop-color="#C0BFF6"/>
<stop offset="0.2938" stop-color="#C5C4F7"/>
<stop offset="0.6399" stop-color="#D3D2F9"/>
<stop offset="1" stop-color="#E9E9FD"/>
</linearGradient>
<linearGradient id="paint13_linear" x1="103.202" y1="86.5854" x2="112.481" y2="86.5854" gradientUnits="userSpaceOnUse">
<stop stop-color="#5761D7"/>
<stop offset="0.1779" stop-color="#5C66D9"/>
<stop offset="0.3876" stop-color="#6A73DF"/>
<stop offset="0.6134" stop-color="#8289E8"/>
<stop offset="0.849" stop-color="#A3A7F5"/>
<stop offset="1" stop-color="#BCBEFF"/>
</linearGradient>
<linearGradient id="paint14_linear" x1="110.441" y1="102.164" x2="186.765" y2="102.164" gradientUnits="userSpaceOnUse">
<stop stop-color="#5761D7"/>
<stop offset="0.1779" stop-color="#5C66D9"/>
<stop offset="0.3876" stop-color="#6A73DF"/>
<stop offset="0.6134" stop-color="#8289E8"/>
<stop offset="0.849" stop-color="#A3A7F5"/>
<stop offset="1" stop-color="#BCBEFF"/>
</linearGradient>
<linearGradient id="paint15_linear" x1="136.086" y1="99.6194" x2="212.45" y2="99.6194" gradientUnits="userSpaceOnUse">
<stop stop-color="#C0BFF6"/>
<stop offset="0.2938" stop-color="#C5C4F7"/>
<stop offset="0.6399" stop-color="#D3D2F9"/>
<stop offset="1" stop-color="#E9E9FD"/>
</linearGradient>
<linearGradient id="paint16_linear" x1="149.019" y1="103.954" x2="168.565" y2="103.954" gradientUnits="userSpaceOnUse">
<stop stop-color="#C0BFF6"/>
<stop offset="0.2938" stop-color="#C5C4F7"/>
<stop offset="0.6399" stop-color="#D3D2F9"/>
<stop offset="1" stop-color="#E9E9FD"/>
</linearGradient>
<linearGradient id="paint17_linear" x1="106.911" y1="82.6938" x2="183.275" y2="82.6938" gradientUnits="userSpaceOnUse">
<stop stop-color="#C0BFF6"/>
<stop offset="0.2938" stop-color="#C5C4F7"/>
<stop offset="0.6399" stop-color="#D3D2F9"/>
<stop offset="1" stop-color="#E9E9FD"/>
</linearGradient>
<linearGradient id="paint18_linear" x1="101.885" y1="77.088" x2="121.432" y2="77.088" gradientUnits="userSpaceOnUse">
<stop stop-color="#C0BFF6"/>
<stop offset="0.2938" stop-color="#C5C4F7"/>
<stop offset="0.6399" stop-color="#D3D2F9"/>
<stop offset="1" stop-color="#E9E9FD"/>
</linearGradient>
<linearGradient id="paint19_linear" x1="83.6181" y1="72.7262" x2="29.5772" y2="72.7262" gradientUnits="userSpaceOnUse">
<stop stop-color="#C0BFF6"/>
<stop offset="0.2938" stop-color="#C5C4F7"/>
<stop offset="0.6399" stop-color="#D3D2F9"/>
<stop offset="1" stop-color="#E9E9FD"/>
</linearGradient>
<linearGradient id="paint20_linear" x1="83.6177" y1="86.5849" x2="74.3384" y2="86.5849" gradientUnits="userSpaceOnUse">
<stop stop-color="#5761D7"/>
<stop offset="0.1779" stop-color="#5C66D9"/>
<stop offset="0.3876" stop-color="#6A73DF"/>
<stop offset="0.6134" stop-color="#8289E8"/>
<stop offset="0.849" stop-color="#A3A7F5"/>
<stop offset="1" stop-color="#BCBEFF"/>
</linearGradient>
<linearGradient id="paint21_linear" x1="76.3778" y1="102.164" x2="0.0545257" y2="102.164" gradientUnits="userSpaceOnUse">
<stop stop-color="#5761D7"/>
<stop offset="0.1779" stop-color="#5C66D9"/>
<stop offset="0.3876" stop-color="#6A73DF"/>
<stop offset="0.6134" stop-color="#8289E8"/>
<stop offset="0.849" stop-color="#A3A7F5"/>
<stop offset="1" stop-color="#BCBEFF"/>
</linearGradient>
<linearGradient id="paint22_linear" x1="50.7329" y1="99.6189" x2="-25.6311" y2="99.6189" gradientUnits="userSpaceOnUse">
<stop stop-color="#C0BFF6"/>
<stop offset="0.2938" stop-color="#C5C4F7"/>
<stop offset="0.6399" stop-color="#D3D2F9"/>
<stop offset="1" stop-color="#E9E9FD"/>
</linearGradient>
<linearGradient id="paint23_linear" x1="37.8007" y1="103.954" x2="18.2538" y2="103.954" gradientUnits="userSpaceOnUse">
<stop stop-color="#C0BFF6"/>
<stop offset="0.2938" stop-color="#C5C4F7"/>
<stop offset="0.6399" stop-color="#D3D2F9"/>
<stop offset="1" stop-color="#E9E9FD"/>
</linearGradient>
<linearGradient id="paint24_linear" x1="79.9083" y1="82.6933" x2="3.54438" y2="82.6933" gradientUnits="userSpaceOnUse">
<stop stop-color="#C0BFF6"/>
<stop offset="0.2938" stop-color="#C5C4F7"/>
<stop offset="0.6399" stop-color="#D3D2F9"/>
<stop offset="1" stop-color="#E9E9FD"/>
</linearGradient>
<linearGradient id="paint25_linear" x1="84.9344" y1="77.088" x2="65.3874" y2="77.088" gradientUnits="userSpaceOnUse">
<stop stop-color="#C0BFF6"/>
<stop offset="0.2938" stop-color="#C5C4F7"/>
<stop offset="0.6399" stop-color="#D3D2F9"/>
<stop offset="1" stop-color="#E9E9FD"/>
</linearGradient>
</defs>
</svg>
