<svg width="200" height="137" viewBox="0 0 200 137" fill="none" xmlns="http://www.w3.org/2000/svg">
<path d="M87.2276 98.0149C85.6861 98.0149 84.0451 97.6171 82.802 96.9209L76.1884 93.1417C74.9452 92.3958 74.1993 91.451 74.1993 90.4565C74.1993 89.6111 74.6966 88.8652 75.6414 88.3182L103.239 72.4059C105.278 71.2622 108.809 71.3616 111.096 72.7042L117.71 76.4834C118.953 77.2293 119.699 78.1741 119.699 79.1686C119.699 80.014 119.202 80.7599 118.257 81.3069L90.6587 97.2193C89.7637 97.7662 88.5205 98.0149 87.2276 98.0149ZM106.621 72.008C105.427 72.008 104.284 72.2567 103.389 72.7539L75.7906 88.6663C74.995 89.1139 74.5971 89.7106 74.5971 90.4068C74.5971 91.2024 75.2436 92.0477 76.3376 92.6942L82.9512 96.4734C85.1391 97.7662 88.4708 97.8657 90.3604 96.7717L117.958 80.8593C118.754 80.4118 119.152 79.8151 119.152 79.1189C119.152 78.3233 118.505 77.4779 117.411 76.8315L110.798 73.0523C109.654 72.3561 108.113 72.008 106.621 72.008Z" fill="url(#paint0_linear)"/>
<path d="M120.103 30.9339H106.428L91.2121 22.1324C89.2728 20.9887 85.8416 21.1379 83.5542 22.4308L88.7258 19.3975H75.051V58.9795C75.0013 59.7254 75.3991 60.4713 76.3439 61.0183L103.942 76.9307C105.881 78.0744 109.312 77.9252 111.6 76.6324L118.213 72.8532C119.407 72.157 120.004 71.3117 120.053 70.4663V30.9339H120.103Z" fill="url(#paint1_linear)"/>
<path d="M119.705 30.9341V70.9637C119.655 71.3615 119.506 71.7593 119.208 72.1571C119.755 71.6599 120.053 71.0632 120.103 70.5162V30.9341H119.705Z" fill="#6EE8FC"/>
<path d="M103.942 37.3983L76.3439 21.4859C74.4046 20.3422 74.6035 18.3531 76.8909 17.0602L83.5045 13.281C85.7919 11.9882 89.1732 11.839 91.1623 12.9827L118.76 28.8951C120.7 30.0388 120.501 32.0278 118.213 33.3207L111.6 37.0999C109.362 38.3928 105.931 38.542 103.942 37.3983Z" fill="url(#paint2_linear)"/>
<path d="M104.489 37.3985L76.8909 21.4861C74.9516 20.3424 75.1505 18.3533 77.4379 17.0604L84.0515 13.2812C85.1952 12.6348 86.687 12.237 88.0793 12.1873C86.4881 12.1375 84.7974 12.4856 83.5045 13.2812L76.8909 17.0604C74.6035 18.3533 74.3549 20.3424 76.344 21.4861L103.942 37.3985C104.887 37.9455 106.18 38.1941 107.572 38.1444C106.428 38.1444 105.334 37.8957 104.489 37.3985Z" fill="#F88B93"/>
<path d="M118.76 28.8955L91.1624 12.9831C90.2176 12.4361 88.875 12.1874 87.5323 12.2372C88.676 12.2869 89.77 12.5355 90.5657 12.9831L118.164 28.8955C120.103 30.0392 119.904 32.0282 117.617 33.3211L111.003 37.1003C109.859 37.7467 108.368 38.1446 106.975 38.1943C108.567 38.244 110.257 37.8959 111.55 37.1003L118.164 33.3211C120.501 31.9785 120.749 29.9894 118.76 28.8955Z" fill="#6EE8FC"/>
<path d="M104.837 32.8241L84.3002 20.9892C82.8581 20.1439 83.0073 18.6521 84.698 17.7073L84.5488 17.8068C86.2395 16.8122 88.7755 16.7128 90.2673 17.5581L110.804 29.393C112.246 30.2383 112.097 31.7301 110.406 32.6749L110.556 32.5755C108.865 33.57 106.329 33.6694 104.837 32.8241Z" fill="url(#paint3_linear)"/>
<path d="M120.103 24.3705H106.428L91.2121 15.5689C89.2728 14.4252 85.8416 14.5744 83.5542 15.8673L88.7258 12.834H75.051V15.6684C75.0013 16.4143 75.3991 17.1602 76.3439 17.7071L103.942 33.6195C105.881 34.7633 109.312 34.6141 111.6 33.3212L118.213 29.542C119.407 28.8458 120.004 28.0005 120.053 27.1551V24.3705H120.103Z" fill="url(#paint4_linear)"/>
<path d="M119.705 24.3701V27.652C119.655 28.0499 119.506 28.4477 119.208 28.8455C119.755 28.3482 120.053 27.7515 120.103 27.2045V24.3701H119.705Z" fill="#6EE8FC"/>
<path d="M103.942 30.8348L76.3439 14.9224C74.4046 13.7787 74.6035 11.7896 76.8909 10.4968L83.5045 6.71756C85.7919 5.42468 89.1732 5.2755 91.1623 6.4192L118.76 22.3316C120.7 23.4753 120.501 25.4644 118.213 26.7572L111.6 30.5364C109.362 31.8293 105.931 31.9785 103.942 30.8348Z" fill="url(#paint5_linear)"/>
<path d="M104.489 30.8345L76.8909 14.9221C74.9516 13.7784 75.1505 11.7894 77.4379 10.4965L84.0515 6.71728C85.1952 6.07084 86.687 5.67303 88.0793 5.6233C86.4881 5.57358 84.7974 5.92166 83.5045 6.71728L76.8909 10.4965C74.6035 11.7894 74.3549 13.7784 76.344 14.9221L103.942 30.8345C104.887 31.3815 106.18 31.6301 107.572 31.5804C106.428 31.5804 105.334 31.3318 104.489 30.8345Z" fill="#F88B93"/>
<path d="M118.76 22.2817L91.1624 6.3693C90.2176 5.82231 88.875 5.57368 87.5323 5.6234C88.676 5.67313 89.77 5.92176 90.5657 6.3693L118.164 22.2817C120.103 23.4254 119.904 25.4144 117.617 26.7073L111.003 30.4865C109.859 31.133 108.368 31.5308 106.975 31.5805C108.567 31.6302 110.257 31.2821 111.55 30.4865L118.164 26.7073C120.501 25.4144 120.749 23.4254 118.76 22.2817Z" fill="#6EE8FC"/>
<path d="M104.837 26.2601L84.3002 14.4253C82.8581 13.5799 83.0073 12.0881 84.698 11.1433L84.5488 11.2428C86.2395 10.2483 88.7755 10.1488 90.2673 10.9942L110.804 22.829C112.246 23.6744 112.097 25.1662 110.406 26.1109L110.556 26.0115C108.865 27.006 106.329 27.1055 104.837 26.2601Z" fill="url(#paint6_linear)"/>
<path d="M105.583 22.5803L90.7148 13.9777C89.6705 13.381 89.77 12.287 91.0131 11.5908L85.4438 14.823C86.6869 14.1269 88.5268 14.0274 89.5711 14.6738L104.439 23.2268C105.483 23.8235 105.384 24.9175 104.141 25.6136L109.71 22.3814C108.517 23.0776 106.627 23.177 105.583 22.5803Z" fill="#6DE0F6"/>
<path d="M91.0132 12.7344L85.4438 15.9666C86.687 15.2705 88.5269 15.171 89.5711 15.8175L104.439 24.4201C104.688 24.5693 104.837 24.7185 104.937 24.8677C105.285 24.2709 105.135 23.6742 104.439 23.2267L89.5711 14.624C88.5269 14.0273 86.687 14.0771 85.4438 14.7732L91.0132 11.541C90.0684 12.088 89.77 12.8339 90.2176 13.4803C90.3667 13.2317 90.6154 12.9831 91.0132 12.7344Z" fill="#267FE5"/>
<path d="M91.0132 14.1271L85.4439 17.3593C86.687 16.6632 88.5269 16.5637 89.5711 17.2101L104.439 25.8128C104.638 25.9122 104.738 26.0614 104.887 26.1609C105.384 25.5642 105.235 24.868 104.439 24.3707L89.5711 15.7681C88.5269 15.1714 86.687 15.2211 85.4439 15.9173L91.0132 12.6851C90.0187 13.2818 89.77 14.0774 90.2673 14.7238C90.4165 14.5249 90.6651 14.326 91.0132 14.1271Z" fill="#25BFEC"/>
<path d="M120.103 18.7513H106.428L91.2121 9.94979C89.2728 8.80608 85.8416 8.95526 83.5542 10.2481L88.7258 7.21484H75.051V10.0492C75.0013 10.7951 75.3991 11.541 76.3439 12.088L103.942 28.0004C105.881 29.1441 109.312 28.9949 111.6 27.7021L118.213 23.9229C119.407 23.2267 120.004 22.3813 120.053 21.536V18.7513H120.103Z" fill="url(#paint7_linear)"/>
<path d="M119.705 18.7515V22.0334C119.655 22.4312 119.506 22.829 119.208 23.2268C119.755 22.7296 120.053 22.1328 120.103 21.5859V18.7515H119.705Z" fill="#6EE8FC"/>
<path d="M103.942 25.2157L76.344 9.30325C74.4046 8.15955 74.6035 6.1705 76.891 4.87762L83.5543 1.09842C85.8417 -0.19446 89.2231 -0.343638 91.2121 0.800065L118.81 16.7125C120.749 17.8562 120.551 19.8452 118.263 21.1381L111.65 24.9173C109.362 26.2102 105.931 26.3594 103.942 25.2157Z" fill="url(#paint8_linear)"/>
<path d="M105.135 22.4806L80.9188 8.50758C79.7254 7.81141 79.8746 6.6677 81.2669 5.87208L85.245 3.58468C86.5876 2.78906 88.6761 2.73933 89.8198 3.38577L114.036 17.3588C115.23 18.055 115.081 19.1987 113.688 19.9943L109.71 22.2817C108.368 23.0774 106.329 23.1768 105.135 22.4806Z" fill="#6EE8FC"/>
<path d="M81.2669 6.27008L85.245 3.98268C86.5876 3.18706 88.6761 3.13733 89.8198 3.78377L114.037 17.7568C114.484 18.0055 114.733 18.3536 114.782 18.7016C114.882 18.2044 114.633 17.7071 114.037 17.359L89.8198 3.38596C88.6264 2.68979 86.5876 2.78925 85.245 3.58487L81.2669 5.87227C80.4216 6.36953 80.0238 7.01598 80.173 7.56296C80.2227 7.11543 80.6205 6.66789 81.2669 6.27008Z" fill="#267FE5"/>
<path d="M104.489 25.2159L76.891 9.30346C74.9517 8.15975 75.1506 6.1707 77.438 4.87782L84.0516 1.09863C85.1953 0.452184 86.6871 0.054376 88.0794 0.00464978C86.4882 -0.0450765 84.7975 0.303006 83.5046 1.09863L76.891 4.87782C74.6036 6.1707 74.355 8.15975 76.344 9.30346L103.942 25.2159C104.887 25.7628 106.18 26.0115 107.572 25.9617C106.428 25.9617 105.334 25.7131 104.489 25.2159Z" fill="#F88B93"/>
<path d="M118.76 16.7124L91.1624 0.799961C90.2176 0.252972 88.875 0.0043411 87.5323 0.0540673C88.676 0.103794 89.77 0.352425 90.5657 0.799961L118.164 16.7124C120.103 17.8561 119.904 19.8451 117.617 21.138L111.003 24.9172C109.859 25.5636 108.368 25.9614 106.975 26.0112C108.567 26.0609 110.257 25.7128 111.55 24.9172L118.164 21.138C120.501 19.7954 120.749 17.8561 118.76 16.7124Z" fill="#6EE8FC"/>
<path d="M101.953 71.0138L79.5265 58.085C78.9298 57.7369 78.4325 56.7921 78.4325 55.9965V28.4979C78.4325 27.7023 78.9298 27.3045 79.5265 27.6525L101.953 40.5814C102.55 40.9294 103.047 41.8742 103.047 42.6699V70.2182C103.047 71.0138 102.55 71.3619 101.953 71.0138Z" fill="#6DE0F6"/>
<path opacity="0.2" d="M79 27.5C79 27.5 100 39 103 41.5C103 45 102.5 71 102.5 71L0.00012207 98L0.000123144 8L79 27.5Z" fill="url(#paint9_linear)"/>
<path d="M102.351 70.8643L79.9243 57.9355C79.3276 57.5874 78.8303 56.6426 78.8303 55.847V28.3484C78.8303 28.0003 78.9297 27.7019 79.0789 27.5527C78.6811 27.5527 78.4325 27.9008 78.4325 28.4975V55.9961C78.4325 56.7918 78.9297 57.7366 79.5264 58.0847L101.953 71.0135C102.301 71.2124 102.599 71.1626 102.798 70.9637C102.649 71.0135 102.5 70.9637 102.351 70.8643Z" fill="#267FE5"/>
<path d="M152.966 136.999C152.518 136.999 152.021 136.9 151.623 136.651L92.1008 102.291C91.703 102.042 91.4543 101.694 91.4543 101.396C91.4543 101.097 91.6533 100.849 91.9516 100.65L127.456 80.1624C128.103 79.8143 129.147 79.8143 129.893 80.2619L189.415 114.623C189.813 114.871 190.061 115.219 190.061 115.518C190.061 115.816 189.863 116.065 189.564 116.264L154.06 136.751C153.712 136.9 153.364 136.999 152.966 136.999ZM92.2997 101.893L151.822 136.254C152.419 136.602 153.314 136.651 153.811 136.353L189.316 115.866C189.415 115.816 189.564 115.667 189.564 115.518C189.564 115.369 189.415 115.17 189.117 114.971L129.594 80.6099C128.998 80.2619 128.103 80.2121 127.605 80.5105L92.1008 100.998C92.0013 101.047 91.8522 101.197 91.8522 101.346C91.8522 101.545 92.0511 101.744 92.2997 101.893Z" fill="url(#paint10_linear)"/>
<path d="M129.644 67.6808L137.153 23.0266L136.556 22.778L137.451 22.2807C137.65 22.1813 137.899 22.1813 138.147 22.3305L198.266 57.0394C198.763 57.3377 199.112 58.0339 199.062 58.5809L191.503 103.583C191.454 103.832 191.354 103.981 191.205 104.031L190.31 104.528L190.161 103.683H190.211L130.44 69.1726C129.942 68.924 129.545 68.2278 129.644 67.6808Z" fill="url(#paint11_linear)"/>
<path d="M197.968 58.2825L198.962 57.835C199.062 58.0836 199.112 58.3322 199.112 58.5809L191.503 103.583C191.454 103.832 191.354 103.981 191.205 104.031L190.31 104.528L190.161 103.683H190.211L187.177 101.942L197.968 58.2825Z" fill="#3A9BD5"/>
<path d="M129.495 69.7694L189.614 104.478C190.061 104.727 190.459 104.578 190.559 104.13L198.167 59.128C198.266 58.6308 197.868 57.8849 197.371 57.5865L137.252 22.8776C136.805 22.629 136.407 22.7781 136.307 23.2257L128.699 68.2279C128.6 68.7252 128.998 69.4711 129.495 69.7694Z" fill="url(#paint12_linear)"/>
<path d="M129.495 69.7694L189.614 104.478C190.061 104.727 190.459 104.578 190.559 104.13L198.167 59.128C198.266 58.6308 197.868 57.8849 197.371 57.5865L137.252 22.8776C136.805 22.629 136.407 22.7781 136.307 23.2257L128.699 68.2279C128.6 68.7252 128.998 69.4711 129.495 69.7694Z" fill="url(#paint13_linear)"/>
<path d="M137.352 25.3638L196.725 59.6252L189.564 102.042L130.191 67.7305L137.352 25.3638Z" fill="url(#paint14_linear)"/>
<path d="M91.7029 91.0526L94.9848 92.7433L127.904 73.7478C128.451 73.4495 129.395 73.4495 130.042 73.8473L186.779 106.617C187.326 106.319 189.813 105.125 189.813 105.125L188.619 108.258C188.57 108.407 188.47 108.506 188.271 108.606L153.612 128.596C153.065 128.894 152.12 128.894 151.474 128.496L93.3936 94.9809C93.145 94.8318 92.9958 94.6329 92.8963 94.4837L91.7029 91.0526Z" fill="url(#paint15_linear)"/>
<path d="M92.2002 91.5992L151.723 125.96C152.369 126.358 153.363 126.358 153.91 126.06L189.415 105.572C189.962 105.224 189.912 104.677 189.266 104.279L129.744 69.9186C129.097 69.5208 128.103 69.5208 127.556 69.8191L92.051 90.3561C91.4543 90.6544 91.5538 91.2511 92.2002 91.5992Z" fill="url(#paint16_radial)"/>
<path d="M92.2001 91.0023L151.722 125.363C152.369 125.761 153.363 125.761 153.91 125.463L189.415 104.975C189.564 104.876 189.664 104.826 189.713 104.727C189.912 105.025 189.813 105.373 189.415 105.572L153.91 126.059C153.363 126.407 152.369 126.358 151.722 125.96L92.2001 91.599C91.7029 91.3007 91.5537 90.9028 91.7526 90.6045C91.8023 90.7537 91.9515 90.9029 92.2001 91.0023Z" fill="url(#paint17_linear)"/>
<path d="M142.225 37.9946L146.153 40.282L146.302 39.5858L142.374 37.3481L142.225 37.9946Z" fill="#9FF3FC"/>
<path d="M146.8 40.6303L148.938 41.8735L149.037 41.1773L146.899 39.9839L146.8 40.6303Z" fill="#9FF3FC"/>
<path d="M152.27 43.8124L153.811 44.7075L153.91 44.0113L152.369 43.1162L152.27 43.8124Z" fill="#9FF3FC"/>
<path d="M151.126 43.1659L151.673 43.4643L151.772 42.7681L151.275 42.4697L151.126 43.1659Z" fill="#9FF3FC"/>
<path d="M149.584 42.2709L150.529 42.8179L150.629 42.1217L149.684 41.5747L149.584 42.2709Z" fill="#9FF3FC"/>
<path d="M145.358 43.2158L146.899 44.1108L146.999 43.4644L145.457 42.5693L145.358 43.2158Z" fill="#9FF3FC"/>
<path d="M141.728 41.1273L144.761 42.8677L144.86 42.2213L141.827 40.4312L141.728 41.1273Z" fill="#9FF3FC"/>
<path d="M146.054 52.1664L149.087 53.9068L149.236 53.2604L146.203 51.4702L146.054 52.1664Z" fill="#9FF3FC"/>
<path d="M144.512 51.2714L145.457 51.8184L145.556 51.1719L144.612 50.5752L144.512 51.2714Z" fill="#9FF3FC"/>
<path d="M146.551 49.0336L149.584 50.8238L149.734 50.1276L146.7 48.3872L146.551 49.0336Z" fill="#9FF3FC"/>
<path d="M145.01 48.1386L145.954 48.7353L146.104 48.0392L145.109 47.4922L145.01 48.1386Z" fill="#9FF3FC"/>
<path d="M143.816 65.6422L138.098 62.3105L137.998 63.0067L143.717 66.3384L143.816 65.6422Z" fill="#9FF3FC"/>
<path d="M145.855 66.7859L144.413 65.9902L144.313 66.6864L145.706 67.482L145.855 66.7859Z" fill="#9FF3FC"/>
<path d="M155.9 67.482L150.181 64.1504L150.032 64.8466L155.75 68.1285L155.9 67.482Z" fill="#9FF3FC"/>
<path d="M157.889 68.6257L156.496 67.8301L156.347 68.4765L157.789 69.3219L157.889 68.6257Z" fill="#9FF3FC"/>
<path d="M139.937 61.6641L138.396 60.769L138.247 61.4652L139.788 62.3603L139.937 61.6641Z" fill="#9FF3FC"/>
<path d="M149.336 63.7032L147.794 62.8081L147.695 63.4545L149.236 64.3496L149.336 63.7032Z" fill="#9FF3FC"/>
<path d="M143.567 63.7526L140.534 62.0122L140.435 62.7084L143.468 64.4488L143.567 63.7526Z" fill="#9FF3FC"/>
<path d="M145.109 64.6973L144.164 64.1006L144.065 64.7968L145.009 65.3437L145.109 64.6973Z" fill="#9FF3FC"/>
<path d="M148.789 66.7863L145.755 65.0459L145.656 65.6923L148.689 67.4825L148.789 66.7863Z" fill="#9FF3FC"/>
<path d="M150.33 67.6813L149.385 67.1343L149.286 67.8304L150.231 68.3774L150.33 67.6813Z" fill="#9FF3FC"/>
<path d="M149.087 65.2442L147.546 64.3491L147.396 65.0453L148.988 65.9404L149.087 65.2442Z" fill="#9FF3FC"/>
<path d="M152.717 67.3327L149.684 65.5923L149.584 66.2884L152.618 68.0289L152.717 67.3327Z" fill="#9FF3FC"/>
<path d="M154.259 68.2281L153.314 67.6812L153.214 68.3773L154.159 68.9243L154.259 68.2281Z" fill="#9FF3FC"/>
<path d="M141.827 61.0674L138.645 59.2275L138.545 59.9237L141.678 61.7139L141.827 61.0674Z" fill="#9FF3FC"/>
<path d="M144.711 62.7084L142.424 61.4155L142.275 62.062L144.562 63.4046L144.711 62.7084Z" fill="#9FF3FC"/>
<path d="M146.849 63.9517L145.308 63.0566L145.159 63.7528L146.75 64.6479L146.849 63.9517Z" fill="#9FF3FC"/>
<path d="M161.867 70.9136L158.684 69.0737L158.585 69.7699L161.767 71.6098L161.867 70.9136Z" fill="#9FF3FC"/>
<path d="M164.751 72.5546L162.463 71.2617L162.364 71.9579L164.651 73.2508L164.751 72.5546Z" fill="#9FF3FC"/>
<path d="M166.889 73.7974L165.347 72.9023L165.248 73.5985L166.79 74.4936L166.889 73.7974Z" fill="#9FF3FC"/>
<path d="M160.624 50.3265L163.806 52.1664L163.905 51.4702L160.723 49.6304L160.624 50.3265Z" fill="#9FF3FC"/>
<path d="M157.74 48.6362L160.027 49.9788L160.126 49.2826L157.839 47.9897L157.74 48.6362Z" fill="#9FF3FC"/>
<path d="M155.601 47.4423L157.143 48.3373L157.242 47.6412L155.701 46.7461L155.601 47.4423Z" fill="#9FF3FC"/>
<path d="M159.579 47.9897L162.712 49.8296L162.861 49.1334L159.679 47.3433L159.579 47.9897Z" fill="#9FF3FC"/>
<path d="M156.695 46.349L158.983 47.6419L159.082 46.9954L156.795 45.6528L156.695 46.349Z" fill="#9FF3FC"/>
<path d="M154.507 45.1058L156.098 46.0009L156.198 45.3047L154.656 44.4097L154.507 45.1058Z" fill="#9FF3FC"/>
<path d="M146.8 50.874L147.844 51.5204L147.943 50.8243L146.899 50.2275L146.8 50.874Z" fill="#9FF3FC"/>
<path d="M144.761 49.7299L146.203 50.5255L146.302 49.879L144.86 49.0337L144.761 49.7299Z" fill="#9FF3FC"/>
<path d="M142.076 59.5259L138.943 57.686L138.794 58.3325L141.976 60.1723L142.076 59.5259Z" fill="#9FF3FC"/>
<path d="M144.96 61.1673L142.672 59.8247L142.573 60.5209L144.86 61.8635L144.96 61.1673Z" fill="#9FF3FC"/>
<path d="M147.148 62.4102L145.556 61.5151L145.457 62.2113L146.999 63.1064L147.148 62.4102Z" fill="#9FF3FC"/>
<path d="M140.236 56.7417L139.192 56.0952L139.092 56.7914L140.136 57.4378L140.236 56.7417Z" fill="#9FF3FC"/>
<path d="M142.275 57.885L140.832 57.0894L140.733 57.7855L142.175 58.5811L142.275 57.885Z" fill="#9FF3FC"/>
<path d="M145.159 59.576L142.871 58.2334L142.772 58.9296L145.01 60.2224L145.159 59.576Z" fill="#9FF3FC"/>
<path d="M148.242 46.597L149.286 47.1938L149.435 46.5473L148.341 45.9009L148.242 46.597Z" fill="#9FF3FC"/>
<path d="M146.203 45.4535L147.645 46.2491L147.744 45.5529L146.352 44.7573L146.203 45.4535Z" fill="#9FF3FC"/>
<path d="M143.319 43.7631L145.606 45.1057L145.755 44.4095L143.468 43.0669L143.319 43.7631Z" fill="#9FF3FC"/>
<path d="M149.883 49.1332L152.12 50.4261L152.27 49.7796L149.982 48.437L149.883 49.1332Z" fill="#9FF3FC"/>
<path d="M146.153 47.0946L149.187 48.8847L149.336 48.1886L146.253 46.3984L146.153 47.0946Z" fill="#9FF3FC"/>
<path d="M144.562 46.1991L145.557 46.7461L145.656 46.0499L144.711 45.5029L144.562 46.1991Z" fill="#9FF3FC"/>
<path d="M143.07 45.3042L144.065 45.9009L144.164 45.2047L143.219 44.6577L143.07 45.3042Z" fill="#9FF3FC"/>
<path d="M143.269 54.1054L146.302 55.8956L146.452 55.1994L143.418 53.459L143.269 54.1054Z" fill="#9FF3FC"/>
<path d="M141.728 53.2104L142.672 53.7574L142.822 53.111L141.827 52.564L141.728 53.2104Z" fill="#9FF3FC"/>
<path d="M143.518 55.9453L144.562 56.5917L144.662 55.8955L143.617 55.2988L143.518 55.9453Z" fill="#9FF3FC"/>
<path d="M147.297 54.7025L148.341 55.349L148.441 54.6528L147.396 54.0063L147.297 54.7025Z" fill="#9FF3FC"/>
<path d="M148.789 55.597L151.375 57.0888L151.474 56.3927L148.888 54.9009L148.789 55.597Z" fill="#9FF3FC"/>
<path d="M151.822 57.3378L153.364 58.2328L153.463 57.5367L151.922 56.6416L151.822 57.3378Z" fill="#9FF3FC"/>
<path d="M141.479 54.8016L142.921 55.5973L143.021 54.9508L141.579 54.1055L141.479 54.8016Z" fill="#9FF3FC"/>
<path d="M141.33 56.3929L142.424 56.9897L142.523 56.3432L141.479 55.6968L141.33 56.3929Z" fill="#9FF3FC"/>
<path d="M139.341 55.2494L140.733 56.045L140.882 55.3488L139.44 54.5532L139.341 55.2494Z" fill="#9FF3FC"/>
<path d="M145.706 53.8075L146.7 54.3545L146.8 53.708L145.855 53.1113L145.706 53.8075Z" fill="#9FF3FC"/>
<path d="M144.214 52.9618L145.159 53.5088L145.308 52.8126L144.313 52.2656L144.214 52.9618Z" fill="#9FF3FC"/>
<path d="M151.623 45.1054L154.855 46.995L155.004 46.3486L151.723 44.459L151.623 45.1054Z" fill="#9FF3FC"/>
<path d="M147.943 43.017L150.977 44.7574L151.126 44.1109L148.043 42.3208L147.943 43.017Z" fill="#9FF3FC"/>
<path d="M146.352 42.1219L147.347 42.6689L147.446 41.9728L146.501 41.4258L146.352 42.1219Z" fill="#9FF3FC"/>
<path d="M144.86 41.2264L145.855 41.7734L145.954 41.127L145.01 40.5303L144.86 41.2264Z" fill="#9FF3FC"/>
<path d="M144.065 40.7792L141.976 39.5858L142.076 38.8896L144.164 40.0831L144.065 40.7792Z" fill="#9FF3FC"/>
<path d="M128.699 77.8751L170.768 102.191C171.066 102.39 171.464 102.39 171.762 102.191L172.806 101.594C172.956 101.495 172.956 101.246 172.806 101.147L130.738 76.8308C130.44 76.6319 130.042 76.6319 129.744 76.8308L128.699 77.4275C128.55 77.527 128.55 77.7756 128.699 77.8751Z" fill="#6DE0F6"/>
<path d="M124.025 80.6099L163.458 103.385C163.756 103.583 164.154 103.583 164.452 103.385L165.497 102.788C165.646 102.688 165.646 102.44 165.497 102.34L126.064 79.5657C125.765 79.3668 125.368 79.3668 125.069 79.5657L124.025 80.1624C123.826 80.2618 123.826 80.5105 124.025 80.6099Z" fill="#6DE0F6"/>
<path d="M120.992 82.3507L167.535 109.253C167.834 109.451 168.232 109.451 168.53 109.253L169.574 108.656C169.723 108.556 169.723 108.308 169.574 108.208L123.03 81.3064C122.732 81.1075 122.334 81.1075 122.036 81.3064L120.992 81.9031C120.793 82.0026 120.793 82.2512 120.992 82.3507Z" fill="#6DE0F6"/>
<path d="M117.909 84.0909L164.452 110.993C164.751 111.192 165.149 111.192 165.447 110.993L166.491 110.396C166.64 110.297 166.64 110.048 166.491 109.949L119.947 83.0466C119.649 82.8477 119.251 82.8477 118.953 83.0466L117.909 83.6433C117.759 83.7428 117.759 83.9914 117.909 84.0909Z" fill="#6DE0F6"/>
<path d="M114.875 85.8814L161.419 112.783C161.717 112.982 162.115 112.982 162.414 112.783L163.458 112.187C163.607 112.087 163.607 111.839 163.458 111.739L116.914 84.8372C116.616 84.6383 116.218 84.6383 115.92 84.8372L114.875 85.4339C114.676 85.5333 114.676 85.782 114.875 85.8814Z" fill="#6DE0F6"/>
<path d="M174.248 104.18L175.293 104.777C175.591 104.976 175.989 104.976 176.287 104.777L177.332 104.18C177.481 104.081 177.481 103.832 177.332 103.733L176.287 103.136C175.989 102.937 175.591 102.937 175.293 103.136L174.248 103.733C174.099 103.832 174.099 104.081 174.248 104.18Z" fill="#6DE0F6"/>
<path d="M167.535 105.722L170.618 107.512C170.917 107.711 171.315 107.711 171.613 107.512L172.657 106.915C172.806 106.816 172.806 106.567 172.657 106.468L169.574 104.677C169.276 104.479 168.878 104.479 168.58 104.677L167.535 105.274C167.337 105.374 167.337 105.622 167.535 105.722Z" fill="#6DE0F6"/>
<path d="M86.5305 40.6852L83 38.5967V38L86.5305 40.0885V40.6852Z" fill="#31C7DB"/>
<path d="M89.4147 42.326L87.6245 41.2818V40.6851L89.4147 41.7293V42.326Z" fill="#31C7DB"/>
<path d="M92.0999 43.9173L90.3097 42.8731V42.2764L92.0999 43.2709V43.9173Z" fill="#31C7DB"/>
<path d="M94.8348 45.4588L93.0447 44.4146V43.8179L94.8348 44.8621V45.4588Z" fill="#0EB9C6"/>
<path d="M86.5305 42.1272L83 40.0884V39.4917L86.5305 41.5305V42.1272Z" fill="#31C7DB"/>
<path d="M89.4147 43.7679L87.6245 42.7237V42.127L89.4147 43.1712V43.7679Z" fill="#31C7DB"/>
<path d="M92.0999 45.3592L90.3097 44.315V43.7183L92.0999 44.7625V45.3592Z" fill="#31C7DB"/>
<path d="M94.8348 46.951L93.0447 45.9068V45.3101L94.8348 46.3046V46.951Z" fill="#31C7DB"/>
<path d="M86.5305 43.6188L83 41.5303V40.9336L86.5305 42.9724V43.6188Z" fill="#31C7DB"/>
<path d="M90.7572 45.4093L90.3097 45.1607L87.6245 43.6191V44.2159L90.3097 45.7574L90.7572 46.006L92.0999 46.8016V46.2049L90.7572 45.4093Z" fill="#0EB9C6"/>
<path d="M94.8348 48.3929L93.0447 47.3487V46.752L94.8348 47.7962V48.3929Z" fill="#31C7DB"/>
<path d="M95.7796 45.4092V46.8512V47.448V48.2933V48.4922V48.9397L97.5697 49.9343V49.5365V49.3375V48.4922V47.8955V46.4534L95.7796 45.4092Z" fill="#31C7DB"/>
<path d="M86.5305 45.0612L83 42.9727V42.376L86.5305 44.4645V45.0612Z" fill="#0EB9C6"/>
<path d="M89.4147 46.702L87.6245 45.6578V45.061L89.4147 46.1053V46.702Z" fill="#31C7DB"/>
<path d="M92.0999 47.6469L91.6524 47.3982L90.3097 46.6523V47.2491L91.6524 47.995L92.0999 48.2933L94.8348 49.8348V49.2381L92.0999 47.6469Z" fill="#31C7DB"/>
<path d="M97.5697 51.4261L95.7796 50.3819V49.7852L97.5697 50.8294V51.4261Z" fill="#31C7DB"/>
<path d="M86.5305 49.4372L83 47.3487V46.752L86.5305 48.8405V49.4372Z" fill="#31C7DB"/>
<path d="M89.4147 51.078L87.6245 50.0337V49.437L89.4147 50.4813V51.078Z" fill="#31C7DB"/>
<path d="M92.0999 52.0228L91.6524 51.7742L90.3097 51.0283V51.625L91.6524 52.3709L92.0999 52.6693L94.8348 54.2108V53.6141L92.0999 52.0228Z" fill="#31C7DB"/>
<path d="M97.5697 55.8021L95.7796 54.7578V54.1611L97.5697 55.2054V55.8021Z" fill="#31C7DB"/>
<path d="M86.5305 50.8791L83 48.8403V48.1938L86.5305 50.2823V50.8791Z" fill="#31C7DB"/>
<path d="M89.4147 52.5199L87.6245 51.4756V50.8789L89.4147 51.9232V52.5199Z" fill="#31C7DB"/>
<path d="M97.5697 57.244L95.7796 56.1997V55.603L97.5697 56.6473V57.244Z" fill="#31C7DB"/>
<path d="M86.5305 52.3708L83 50.2823V49.6855L86.5305 51.7243V52.3708Z" fill="#31C7DB"/>
<path d="M89.4147 54.0116L87.6245 52.9673V52.3706L89.4147 53.3651V54.0116Z" fill="#31C7DB"/>
<path d="M92.0998 53.5145L91.6522 53.2161L90.3096 52.4702V52.868V53.0669V54.509L91.6522 55.3046L92.0998 55.5532L94.8347 57.1445V55.6527V55.5035V55.056L92.0998 53.5145Z" fill="#0EB9C6"/>
<path d="M97.5697 58.6859L95.7796 57.6914V57.0449L97.5697 58.0892V58.6859Z" fill="#31C7DB"/>
<path d="M86.5305 46.5031L83 44.4643V43.8179L86.5305 45.9064V46.5031Z" fill="#31C7DB"/>
<path d="M89.4147 48.1444L87.6245 47.1001V46.5034L89.4147 47.5477V48.1444Z" fill="#0EB9C6"/>
<path d="M94.8348 51.2767L93.0447 50.2822V49.6357L94.8348 50.68V51.2767Z" fill="#31C7DB"/>
<path d="M97.5697 52.868L95.7796 51.8238V51.2271L97.5697 52.2713V52.868Z" fill="#31C7DB"/>
<path d="M86.5305 47.9953L83 45.9068V45.3101L86.5305 47.3488V47.9953Z" fill="#31C7DB"/>
<path d="M89.4147 49.6361L87.6245 48.5918V47.9951L89.4147 48.9896V49.6361Z" fill="#31C7DB"/>
<path d="M90.3097 48.0942V48.3926V48.691V50.133L92.0999 51.1773V49.7352V49.4368V49.1385L90.3097 48.0942Z" fill="#31C7DB"/>
<path d="M94.8348 52.7684L93.0447 51.7242V51.1274L94.8348 52.1717V52.7684Z" fill="#31C7DB"/>
<path d="M97.5697 54.3104L95.7796 53.3159V52.6694L97.5697 53.7137V54.3104Z" fill="#31C7DB"/>
<path d="M112.837 123.474C112.29 123.474 111.792 123.325 111.295 123.076L73.006 100.948C72.5087 100.65 72.2103 100.103 72.2103 99.556C72.2103 98.9592 72.5087 98.462 73.006 98.1636L79.3212 94.4839L79.5698 94.8817L73.2546 98.5614C72.9065 98.7603 72.6579 99.1581 72.6579 99.6057C72.6579 100.053 72.8568 100.401 73.2546 100.65L111.544 122.778C112.339 123.226 113.334 123.226 114.13 122.778L121.141 118.701L121.39 119.098L114.378 123.176C113.881 123.325 113.334 123.474 112.837 123.474Z" fill="url(#paint18_linear)"/>
<defs>
<linearGradient id="paint0_linear" x1="74.1758" y1="84.7912" x2="119.691" y2="84.7912" gradientUnits="userSpaceOnUse">
<stop stop-color="#6EE8FC"/>
<stop offset="1" stop-color="#6EE8FC"/>
</linearGradient>
<linearGradient id="paint1_linear" x1="70.7768" y1="48.5986" x2="125.676" y2="48.5986" gradientUnits="userSpaceOnUse">
<stop stop-color="#A31FA9"/>
<stop offset="0.0667915" stop-color="#8B17A0"/>
<stop offset="0.1494" stop-color="#740F98"/>
<stop offset="0.2393" stop-color="#640A92"/>
<stop offset="0.3408" stop-color="#5B078F"/>
<stop offset="0.4785" stop-color="#58068E"/>
<stop offset="0.6264" stop-color="#4D22A3"/>
<stop offset="0.9436" stop-color="#3168DA"/>
<stop offset="1" stop-color="#2C75E4"/>
</linearGradient>
<linearGradient id="paint2_linear" x1="73.2167" y1="25.1773" x2="118.162" y2="36.2986" gradientUnits="userSpaceOnUse">
<stop stop-color="#8D139B"/>
<stop offset="0.1651" stop-color="#851BA1"/>
<stop offset="0.4284" stop-color="#6E33B2"/>
<stop offset="0.7551" stop-color="#4958CD"/>
<stop offset="1" stop-color="#2979E4"/>
</linearGradient>
<linearGradient id="paint3_linear" x1="81.6474" y1="25.1777" x2="111.032" y2="32.4487" gradientUnits="userSpaceOnUse">
<stop stop-color="#630692"/>
<stop offset="0.2262" stop-color="#5B0E94"/>
<stop offset="0.587" stop-color="#432399"/>
<stop offset="1" stop-color="#2142A1"/>
</linearGradient>
<linearGradient id="paint4_linear" x1="70.7768" y1="23.6432" x2="125.676" y2="23.6432" gradientUnits="userSpaceOnUse">
<stop stop-color="#A31FA9"/>
<stop offset="0.0667915" stop-color="#8B17A0"/>
<stop offset="0.1494" stop-color="#740F98"/>
<stop offset="0.2393" stop-color="#640A92"/>
<stop offset="0.3408" stop-color="#5B078F"/>
<stop offset="0.4785" stop-color="#58068E"/>
<stop offset="0.6264" stop-color="#4D22A3"/>
<stop offset="0.9436" stop-color="#3168DA"/>
<stop offset="1" stop-color="#2C75E4"/>
</linearGradient>
<linearGradient id="paint5_linear" x1="73.2167" y1="18.6046" x2="118.162" y2="29.726" gradientUnits="userSpaceOnUse">
<stop stop-color="#8D139B"/>
<stop offset="0.1651" stop-color="#851BA1"/>
<stop offset="0.4284" stop-color="#6E33B2"/>
<stop offset="0.7551" stop-color="#4958CD"/>
<stop offset="1" stop-color="#2979E4"/>
</linearGradient>
<linearGradient id="paint6_linear" x1="81.6474" y1="18.6045" x2="111.032" y2="25.8756" gradientUnits="userSpaceOnUse">
<stop stop-color="#630692"/>
<stop offset="0.2262" stop-color="#5B0E94"/>
<stop offset="0.587" stop-color="#432399"/>
<stop offset="1" stop-color="#2142A1"/>
</linearGradient>
<linearGradient id="paint7_linear" x1="70.7768" y1="18.0435" x2="125.676" y2="18.0435" gradientUnits="userSpaceOnUse">
<stop stop-color="#A31FA9"/>
<stop offset="0.0667915" stop-color="#8B17A0"/>
<stop offset="0.1494" stop-color="#740F98"/>
<stop offset="0.2393" stop-color="#640A92"/>
<stop offset="0.3408" stop-color="#5B078F"/>
<stop offset="0.4785" stop-color="#58068E"/>
<stop offset="0.6264" stop-color="#4D22A3"/>
<stop offset="0.9436" stop-color="#3168DA"/>
<stop offset="1" stop-color="#2C75E4"/>
</linearGradient>
<linearGradient id="paint8_linear" x1="73.2168" y1="13.005" x2="118.162" y2="24.1263" gradientUnits="userSpaceOnUse">
<stop stop-color="#8D139B"/>
<stop offset="0.1651" stop-color="#851BA1"/>
<stop offset="0.4284" stop-color="#6E33B2"/>
<stop offset="0.7551" stop-color="#4958CD"/>
<stop offset="1" stop-color="#2979E4"/>
</linearGradient>
<linearGradient id="paint9_linear" x1="-22.98" y1="63.6193" x2="133.35" y2="63.6193" gradientUnits="userSpaceOnUse">
<stop stop-color="#42E8E0"/>
<stop offset="0.7947" stop-color="#213B77"/>
<stop offset="1" stop-color="#180D5B"/>
</linearGradient>
<linearGradient id="paint10_linear" x1="91.4251" y1="108.442" x2="190.038" y2="108.442" gradientUnits="userSpaceOnUse">
<stop stop-color="#6EE8FC"/>
<stop offset="1" stop-color="#6EE8FC"/>
</linearGradient>
<linearGradient id="paint11_linear" x1="199.098" y1="63.3741" x2="129.632" y2="63.3741" gradientUnits="userSpaceOnUse">
<stop stop-color="#7BDAFF"/>
<stop offset="1" stop-color="#59BDEF"/>
</linearGradient>
<linearGradient id="paint12_linear" x1="198.155" y1="63.6774" x2="128.689" y2="63.6774" gradientUnits="userSpaceOnUse">
<stop stop-color="#2573BA"/>
<stop offset="1" stop-color="#0063AD"/>
</linearGradient>
<linearGradient id="paint13_linear" x1="198.155" y1="63.6774" x2="128.689" y2="63.6774" gradientUnits="userSpaceOnUse">
<stop stop-color="#2C75E4"/>
<stop offset="0.0448236" stop-color="#3461D5"/>
<stop offset="0.1323" stop-color="#4140BB"/>
<stop offset="0.2225" stop-color="#4B27A7"/>
<stop offset="0.3154" stop-color="#521499"/>
<stop offset="0.4127" stop-color="#570A91"/>
<stop offset="0.5215" stop-color="#58068E"/>
<stop offset="0.6592" stop-color="#5B078F"/>
<stop offset="0.7607" stop-color="#640A92"/>
<stop offset="0.8506" stop-color="#740F98"/>
<stop offset="0.9332" stop-color="#8B17A0"/>
<stop offset="1" stop-color="#A31FA9"/>
</linearGradient>
<linearGradient id="paint14_linear" x1="196.728" y1="63.6857" x2="130.184" y2="63.6857" gradientUnits="userSpaceOnUse">
<stop stop-color="#59BDEF"/>
<stop offset="1" stop-color="#7BDAFF"/>
</linearGradient>
<linearGradient id="paint15_linear" x1="189.791" y1="101.216" x2="91.6824" y2="101.216" gradientUnits="userSpaceOnUse">
<stop stop-color="#2C75E4"/>
<stop offset="0.0448236" stop-color="#3461D5"/>
<stop offset="0.1323" stop-color="#4140BB"/>
<stop offset="0.2225" stop-color="#4B27A7"/>
<stop offset="0.3154" stop-color="#521499"/>
<stop offset="0.4127" stop-color="#570A91"/>
<stop offset="0.5215" stop-color="#58068E"/>
<stop offset="0.6592" stop-color="#5B078F"/>
<stop offset="0.7607" stop-color="#640A92"/>
<stop offset="0.8506" stop-color="#740F98"/>
<stop offset="0.9332" stop-color="#8B17A0"/>
<stop offset="1" stop-color="#A31FA9"/>
</linearGradient>
<radialGradient id="paint16_radial" cx="0" cy="0" r="1" gradientUnits="userSpaceOnUse" gradientTransform="translate(192.797 105.889) rotate(180) scale(104.162)">
<stop stop-color="#2979E4"/>
<stop offset="0.2449" stop-color="#4958CD"/>
<stop offset="0.5716" stop-color="#6E33B2"/>
<stop offset="0.8349" stop-color="#851BA1"/>
<stop offset="1" stop-color="#8D139B"/>
</radialGradient>
<linearGradient id="paint17_linear" x1="91.6516" y1="108.441" x2="189.811" y2="108.441" gradientUnits="userSpaceOnUse">
<stop stop-color="#D4088C"/>
<stop offset="0.1002" stop-color="#D30E8F"/>
<stop offset="0.2311" stop-color="#CF1E97"/>
<stop offset="0.379" stop-color="#C939A3"/>
<stop offset="0.5395" stop-color="#C05FB5"/>
<stop offset="0.7101" stop-color="#B58FCC"/>
<stop offset="0.8864" stop-color="#A8C9E8"/>
<stop offset="1" stop-color="#9FF3FC"/>
</linearGradient>
<linearGradient id="paint18_linear" x1="72.181" y1="108.96" x2="121.37" y2="108.96" gradientUnits="userSpaceOnUse">
<stop stop-color="#6EE8FC"/>
<stop offset="1" stop-color="#6EE8FC"/>
</linearGradient>
</defs>
</svg>
