<svg width="36" height="36" viewBox="0 0 36 36" fill="none" xmlns="http://www.w3.org/2000/svg">
<circle cx="18" cy="18" r="18" fill="#02084D"/>
<path d="M22.3652 9.00375L20.0311 9C17.4087 9 15.714 10.7387 15.714 13.4298V15.4723H13.367C13.1642 15.4723 13 15.6367 13 15.8395V18.7988C13 19.0016 13.1644 19.1658 13.367 19.1658H15.714V26.633C15.714 26.8358 15.8782 27 16.081 27H19.1431C19.3459 27 19.5101 26.8356 19.5101 26.633V19.1658H22.2542C22.457 19.1658 22.6212 19.0016 22.6212 18.7988L22.6224 15.8395C22.6224 15.7421 22.5836 15.6489 22.5149 15.5799C22.4461 15.511 22.3525 15.4723 22.2551 15.4723H19.5101V13.7409C19.5101 12.9087 19.7084 12.4862 20.7925 12.4862L22.3649 12.4857C22.5675 12.4857 22.7317 12.3212 22.7317 12.1186V9.37077C22.7317 9.16835 22.5677 9.00412 22.3652 9.00375Z" fill="white"/>
</svg>
