<svg width="36" height="36" viewBox="0 0 36 36" fill="none" xmlns="http://www.w3.org/2000/svg">
<circle cx="18" cy="18" r="18" fill="#02084D"/>
<path d="M21.6377 9H14.3623C11.4055 9 9 11.4055 9 14.3623V21.6377C9 24.5945 11.4055 27 14.3623 27H21.6377C24.5945 27 27 24.5945 27 21.6377V14.3623C27 11.4055 24.5945 9 21.6377 9ZM25.1892 21.6377C25.1892 23.5991 23.5991 25.1892 21.6377 25.1892H14.3623C12.4009 25.1892 10.8108 23.5991 10.8108 21.6377V14.3623C10.8108 12.4008 12.4009 10.8108 14.3623 10.8108H21.6377C23.5991 10.8108 25.1892 12.4008 25.1892 14.3623V21.6377Z" fill="url(#paint0_linear)"/>
<path d="M21.6377 9H14.3623C11.4055 9 9 11.4055 9 14.3623V21.6377C9 24.5945 11.4055 27 14.3623 27H21.6377C24.5945 27 27 24.5945 27 21.6377V14.3623C27 11.4055 24.5945 9 21.6377 9ZM25.1892 21.6377C25.1892 23.5991 23.5991 25.1892 21.6377 25.1892H14.3623C12.4009 25.1892 10.8108 23.5991 10.8108 21.6377V14.3623C10.8108 12.4008 12.4009 10.8108 14.3623 10.8108H21.6377C23.5991 10.8108 25.1892 12.4008 25.1892 14.3623V21.6377Z" fill="url(#paint1_linear)"/>
<path d="M18.0002 13.3447C15.4332 13.3447 13.3447 15.4332 13.3447 18.0001C13.3447 20.5671 15.4332 22.6556 18.0002 22.6556C20.5672 22.6556 22.6556 20.5671 22.6556 18.0001C22.6556 15.4331 20.5672 13.3447 18.0002 13.3447ZM18.0002 20.8448C16.4291 20.8448 15.1555 19.5712 15.1555 18.0002C15.1555 16.4291 16.4291 15.1555 18.0002 15.1555C19.5712 15.1555 20.8448 16.4291 20.8448 18.0002C20.8448 19.5712 19.5712 20.8448 18.0002 20.8448Z" fill="url(#paint2_linear)"/>
<path d="M18.0002 13.3447C15.4332 13.3447 13.3447 15.4332 13.3447 18.0001C13.3447 20.5671 15.4332 22.6556 18.0002 22.6556C20.5672 22.6556 22.6556 20.5671 22.6556 18.0001C22.6556 15.4331 20.5672 13.3447 18.0002 13.3447ZM18.0002 20.8448C16.4291 20.8448 15.1555 19.5712 15.1555 18.0002C15.1555 16.4291 16.4291 15.1555 18.0002 15.1555C19.5712 15.1555 20.8448 16.4291 20.8448 18.0002C20.8448 19.5712 19.5712 20.8448 18.0002 20.8448Z" fill="url(#paint3_linear)"/>
<path d="M22.6641 14.4948C23.2802 14.4948 23.7797 13.9953 23.7797 13.3792C23.7797 12.7631 23.2802 12.2637 22.6641 12.2637C22.048 12.2637 21.5486 12.7631 21.5486 13.3792C21.5486 13.9953 22.048 14.4948 22.6641 14.4948Z" fill="url(#paint4_linear)"/>
<path d="M22.6641 14.4948C23.2802 14.4948 23.7797 13.9953 23.7797 13.3792C23.7797 12.7631 23.2802 12.2637 22.6641 12.2637C22.048 12.2637 21.5486 12.7631 21.5486 13.3792C21.5486 13.9953 22.048 14.4948 22.6641 14.4948Z" fill="url(#paint5_linear)"/>
<defs>
<linearGradient id="paint0_linear" x1="18" y1="127.465" x2="18" y2="-16.2053" gradientUnits="userSpaceOnUse">
<stop stop-color="#E09B3D"/>
<stop offset="0.3" stop-color="#C74C4D"/>
<stop offset="0.6" stop-color="#C21975"/>
<stop offset="1" stop-color="#7024C4"/>
</linearGradient>
<linearGradient id="paint1_linear" x1="18" y1="9" x2="18" y2="27" gradientUnits="userSpaceOnUse">
<stop stop-color="white"/>
<stop offset="1" stop-color="white"/>
</linearGradient>
<linearGradient id="paint2_linear" x1="18.0002" y1="74.6232" x2="18.0002" y2="0.306815" gradientUnits="userSpaceOnUse">
<stop stop-color="#E09B3D"/>
<stop offset="0.3" stop-color="#C74C4D"/>
<stop offset="0.6" stop-color="#C21975"/>
<stop offset="1" stop-color="#7024C4"/>
</linearGradient>
<linearGradient id="paint3_linear" x1="18.0002" y1="13.3447" x2="18.0002" y2="22.6556" gradientUnits="userSpaceOnUse">
<stop stop-color="white"/>
<stop offset="1" stop-color="white"/>
</linearGradient>
<linearGradient id="paint4_linear" x1="22.6641" y1="26.9473" x2="22.6641" y2="9.13951" gradientUnits="userSpaceOnUse">
<stop stop-color="#E09B3D"/>
<stop offset="0.3" stop-color="#C74C4D"/>
<stop offset="0.6" stop-color="#C21975"/>
<stop offset="1" stop-color="#7024C4"/>
</linearGradient>
<linearGradient id="paint5_linear" x1="22.6641" y1="12.2637" x2="22.6641" y2="14.4948" gradientUnits="userSpaceOnUse">
<stop stop-color="white"/>
<stop offset="1" stop-color="white"/>
</linearGradient>
</defs>
</svg>
