<svg width="68" height="55" viewBox="0 0 68 55" fill="none" xmlns="http://www.w3.org/2000/svg">
<path d="M3.6067 46.1672V39.8105H5.85932C8.11786 39.8105 9.24712 40.8434 9.24712 42.9091C9.24712 43.8991 8.9382 44.6896 8.32036 45.2806C7.70547 45.8717 6.88512 46.1672 5.85932 46.1672H3.6067ZM5.03898 40.9764V45.0058H5.74847C6.36927 45.0058 6.85556 44.8196 7.20735 44.4473C7.56209 44.0749 7.73946 43.5681 7.73946 42.9268C7.73946 42.321 7.56357 41.8452 7.21178 41.4994C6.86295 41.1507 6.37222 40.9764 5.7396 40.9764H5.03898Z" fill="white"/>
<path d="M15.7522 46.1672H14.1914L13.7391 44.7531H11.4776L11.0297 46.1672H9.47771L11.7924 39.8105H13.4907L15.7522 46.1672ZM13.4109 43.6538L12.728 41.5172C12.6778 41.3576 12.6423 41.167 12.6216 40.9453H12.5861C12.5714 41.1315 12.5344 41.3162 12.4753 41.4994L11.7835 43.6538H13.4109Z" fill="white"/>
<path d="M20.3728 40.9764H18.5591V46.1672H17.1224V40.9764H15.3177V39.8105H20.3728V40.9764Z" fill="white"/>
<path d="M26.1817 46.1672H24.6208L24.1685 44.7531H21.907L21.4592 46.1672H19.9072L22.2219 39.8105H23.9202L26.1817 46.1672ZM23.8404 43.6538L23.1575 41.5172C23.1072 41.3576 23.0718 41.167 23.0511 40.9453H23.0156C23.0008 41.1315 22.9639 41.3162 22.9047 41.4994L22.213 43.6538H23.8404Z" fill="white"/>
<path d="M29.1926 45.9234V44.5049C29.4498 44.7206 29.7291 44.8832 30.0307 44.9925C30.3322 45.0989 30.6367 45.1521 30.9441 45.1521C31.1245 45.1521 31.2811 45.1358 31.4142 45.1033C31.5501 45.0708 31.6625 45.0265 31.7512 44.9703C31.8428 44.9112 31.9108 44.8433 31.9551 44.7664C31.9995 44.6866 32.0217 44.6009 32.0217 44.5093C32.0217 44.3852 31.9862 44.2744 31.9152 44.1769C31.8443 44.0793 31.7467 43.9892 31.6226 43.9065C31.5014 43.8237 31.3565 43.7439 31.188 43.6671C31.0195 43.5902 30.8377 43.5119 30.6426 43.4321C30.146 43.2253 29.7749 42.9726 29.5296 42.6741C29.2872 42.3757 29.166 42.0151 29.166 41.5925C29.166 41.2615 29.2325 40.9778 29.3655 40.7414C29.4985 40.502 29.6789 40.3055 29.9065 40.1518C30.1371 39.9982 30.4031 39.8859 30.7047 39.815C31.0062 39.7411 31.3255 39.7041 31.6625 39.7041C31.9936 39.7041 32.2862 39.7248 32.5405 39.7662C32.7977 39.8046 33.0342 39.8652 33.25 39.9479V41.2734C33.1435 41.1995 33.0268 41.1345 32.8996 41.0783C32.7755 41.0222 32.6469 40.9764 32.5139 40.9409C32.3808 40.9025 32.2478 40.8744 32.1148 40.8567C31.9847 40.8389 31.8605 40.8301 31.7423 40.8301C31.5797 40.8301 31.4319 40.8463 31.2989 40.8788C31.1658 40.9084 31.0535 40.9512 30.9619 41.0074C30.8702 41.0635 30.7993 41.1315 30.749 41.2113C30.6988 41.2881 30.6736 41.3753 30.6736 41.4728C30.6736 41.5792 30.7017 41.6753 30.7579 41.761C30.8141 41.8437 30.8939 41.9235 30.9973 42.0003C31.1008 42.0742 31.2264 42.1481 31.3742 42.222C31.5221 42.2929 31.6891 42.3668 31.8753 42.4436C32.1296 42.55 32.3572 42.6638 32.5582 42.785C32.7622 42.9032 32.9366 43.0376 33.0815 43.1883C33.2263 43.3391 33.3372 43.5119 33.414 43.707C33.4909 43.8991 33.5293 44.1237 33.5293 44.3808C33.5293 44.7354 33.4613 45.0339 33.3253 45.2762C33.1923 45.5156 33.0105 45.7106 32.7799 45.8613C32.5493 46.0091 32.2803 46.1155 31.9729 46.1805C31.6684 46.2455 31.3462 46.278 31.0062 46.278C30.6574 46.278 30.3248 46.2485 30.0085 46.1894C29.6951 46.1303 29.4232 46.0416 29.1926 45.9234Z" fill="white"/>
<path d="M39.1343 45.9411C38.6701 46.1657 38.0641 46.278 37.3162 46.278C36.3407 46.278 35.5735 45.9914 35.0148 45.4181C34.4561 44.8447 34.1767 44.0808 34.1767 43.1263C34.1767 42.1097 34.4901 41.2852 35.1168 40.6528C35.7465 40.0203 36.5624 39.7041 37.5645 39.7041C38.1853 39.7041 38.7086 39.7824 39.1343 39.9391V41.3177C38.7086 41.0635 38.2238 40.9365 37.6798 40.9365C37.0827 40.9365 36.6008 41.1241 36.2342 41.4994C35.8677 41.8747 35.6844 42.383 35.6844 43.0243C35.6844 43.639 35.8573 44.1296 36.2032 44.496C36.5491 44.8595 37.0147 45.0413 37.6 45.0413C38.1587 45.0413 38.6701 44.9053 39.1343 44.6334V45.9411Z" fill="white"/>
<path d="M41.6751 46.1672H40.2428V39.8105H41.6751V46.1672Z" fill="white"/>
<path d="M46.9386 46.1672H43.1251V39.8105H46.7923V40.9764H44.5574V42.3904H46.6371V43.5518H44.5574V45.0058H46.9386V46.1672Z" fill="white"/>
<path d="M53.6787 46.1672H52.2332L49.6125 42.1732C49.4588 41.9398 49.3524 41.7639 49.2932 41.6457H49.2755C49.2991 41.8703 49.311 42.2131 49.311 42.6741V46.1672H47.9585V39.8105H49.5016L52.0248 43.6804C52.14 43.8547 52.2465 44.0276 52.344 44.199H52.3618C52.3381 44.0513 52.3263 43.7602 52.3263 43.3258V39.8105H53.6787V46.1672Z" fill="white"/>
<path d="M59.6916 45.9411C59.2275 46.1657 58.6215 46.278 57.8736 46.278C56.898 46.278 56.1309 45.9914 55.5722 45.4181C55.0135 44.8447 54.7341 44.0808 54.7341 43.1263C54.7341 42.1097 55.0475 41.2852 55.6742 40.6528C56.3038 40.0203 57.1198 39.7041 58.1219 39.7041C58.7427 39.7041 59.266 39.7824 59.6916 39.9391V41.3177C59.266 41.0635 58.7811 40.9365 58.2372 40.9365C57.64 40.9365 57.1582 41.1241 56.7916 41.4994C56.4251 41.8747 56.2418 42.383 56.2418 43.0243C56.2418 43.639 56.4147 44.1296 56.7606 44.496C57.1065 44.8595 57.5721 45.0413 58.1574 45.0413C58.7161 45.0413 59.2275 44.9053 59.6916 44.6334V45.9411Z" fill="white"/>
<path d="M64.6137 46.1672H60.8002V39.8105H64.4674V40.9764H62.2325V42.3904H64.3122V43.5518H62.2325V45.0058H64.6137V46.1672Z" fill="white"/>
<path d="M0 52.4778C0 52.2332 0.198336 52.035 0.442997 52.035H14.3974C14.6421 52.035 14.8404 52.2332 14.8404 52.4778C14.8404 52.7224 14.6421 52.9207 14.3974 52.9207H0.442996C0.198336 52.9207 0 52.7224 0 52.4778Z" fill="white"/>
<path d="M53.1596 52.4778C53.1596 52.2332 53.3579 52.035 53.6026 52.035H67.557C67.8017 52.035 68 52.2332 68 52.4778C68 52.7224 67.8017 52.9207 67.557 52.9207H53.6026C53.3579 52.9207 53.1596 52.7224 53.1596 52.4778Z" fill="white"/>
<path d="M21.9872 54.9135H20.7689L20.4159 53.8098H18.6509L18.3013 54.9135H17.09L18.8966 49.9522H20.2221L21.9872 54.9135ZM20.1598 52.9518L19.6268 51.2842C19.5876 51.1597 19.5599 51.0109 19.5438 50.8379H19.5161C19.5045 50.9832 19.4757 51.1274 19.4296 51.2704L18.8897 52.9518H20.1598Z" fill="white"/>
<path d="M26.0537 54.7371C25.6915 54.9124 25.2185 55 24.6348 55C23.8734 55 23.2746 54.7763 22.8386 54.3288C22.4025 53.8813 22.1844 53.2851 22.1844 52.5401C22.1844 51.7467 22.429 51.1031 22.9182 50.6096C23.4096 50.116 24.0464 49.8692 24.8286 49.8692C25.3131 49.8692 25.7215 49.9303 26.0537 50.0525V51.1285C25.7215 50.9302 25.3431 50.831 24.9186 50.831C24.4525 50.831 24.0764 50.9774 23.7903 51.2704C23.5042 51.5633 23.3612 51.96 23.3612 52.4605C23.3612 52.9403 23.4961 53.3232 23.7661 53.6092C24.036 53.8929 24.3994 54.0347 24.8563 54.0347C25.2923 54.0347 25.6915 53.9286 26.0537 53.7164V54.7371Z" fill="white"/>
<path d="M31.2832 54.9135H30.0649L29.7119 53.8098H27.9469L27.5973 54.9135H26.386L28.1926 49.9522H29.5181L31.2832 54.9135ZM29.4558 52.9518L28.9228 51.2842C28.8836 51.1597 28.8559 51.0109 28.8398 50.8379H28.8121C28.8006 50.9832 28.7717 51.1274 28.7256 51.2704L28.1857 52.9518H29.4558Z" fill="white"/>
<path d="M31.9027 54.9135V49.9522H33.6608C35.4236 49.9522 36.305 50.7583 36.305 52.3706C36.305 53.1433 36.0639 53.7603 35.5816 54.2216C35.1017 54.6829 34.4615 54.9135 33.6608 54.9135H31.9027ZM33.0206 50.8621V54.007H33.5743C34.0588 54.007 34.4384 53.8617 34.7129 53.5711C34.9898 53.2805 35.1283 52.8849 35.1283 52.3844C35.1283 51.9116 34.991 51.5402 34.7164 51.2704C34.4441 50.9982 34.0611 50.8621 33.5674 50.8621H33.0206Z" fill="white"/>
<path d="M40.105 54.9135H37.1287V49.9522H39.9908V50.8621H38.2465V51.9658H39.8697V52.8722H38.2465V54.007H40.105V54.9135Z" fill="white"/>
<path d="M46.5562 54.9135H45.4522V51.945C45.4522 51.6244 45.466 51.2704 45.4937 50.8829H45.466C45.4083 51.1873 45.3564 51.4065 45.3103 51.5402L44.1474 54.9135H43.2337L42.0501 51.5748C42.0178 51.4849 41.9659 51.2542 41.8943 50.8829H41.8632C41.8932 51.3719 41.9082 51.8009 41.9082 52.1699V54.9135H40.9011V49.9522H42.5381L43.5521 52.893C43.6329 53.1283 43.6917 53.3647 43.7286 53.6023H43.7494C43.8117 53.3278 43.8774 53.0891 43.9467 52.8861L44.9607 49.9522H46.5562V54.9135Z" fill="white"/>
<path d="M51.4257 49.9522L49.8094 53.149V54.9135H48.6916V53.1698L47.1169 49.9522H48.3939L49.1934 51.8032C49.2072 51.8378 49.2453 51.9727 49.3076 52.208H49.3215C49.3515 52.0419 49.3872 51.9116 49.4287 51.817L50.2421 49.9522H51.4257Z" fill="white"/>
<path fill-rule="evenodd" clip-rule="evenodd" d="M34.6645 35.5388L31.2313 20.4819L32.3111 20.2358L35.7443 35.2927L34.6645 35.5388Z" fill="white"/>
<path fill-rule="evenodd" clip-rule="evenodd" d="M34.7746 35.7648L15.8503 12.472L16.71 11.7741L35.6342 35.0668L34.7746 35.7648Z" fill="white"/>
<path fill-rule="evenodd" clip-rule="evenodd" d="M34.7152 35.1564L40.8756 23.5439L41.854 24.0626L35.6936 35.6751L34.7152 35.1564Z" fill="white"/>
<path fill-rule="evenodd" clip-rule="evenodd" d="M34.6605 35.3118L39.3812 10.6352L40.469 10.8431L35.7483 35.5197L34.6605 35.3118Z" fill="white"/>
<path fill-rule="evenodd" clip-rule="evenodd" d="M25.3882 29.5566L34.4143 1.54631L35.4684 1.88578L26.4424 29.8961L25.3882 29.5566Z" fill="white"/>
<path fill-rule="evenodd" clip-rule="evenodd" d="M25.4849 30.0747L18.8953 21.9373L19.7561 21.2407L26.3457 29.3781L25.4849 30.0747Z" fill="white"/>
<path fill-rule="evenodd" clip-rule="evenodd" d="M31.8365 20.9777L19.3772 22.1401L19.2743 21.0378L31.7336 19.8753L31.8365 20.9777Z" fill="white"/>
<path fill-rule="evenodd" clip-rule="evenodd" d="M40.0135 11.5075L19.5803 22.0806L19.0712 21.0974L39.5044 10.5243L40.0135 11.5075Z" fill="white"/>
<path fill-rule="evenodd" clip-rule="evenodd" d="M27.4933 9.48103L19.7963 21.8808L18.8552 21.2971L26.5523 8.89728L27.4933 9.48103Z" fill="white"/>
<path fill-rule="evenodd" clip-rule="evenodd" d="M31.637 20.8605L16.1321 12.6678L16.6497 11.689L32.1545 19.8817L31.637 20.8605Z" fill="white"/>
<path fill-rule="evenodd" clip-rule="evenodd" d="M32.0902 19.8529L41.3931 23.3403L41.0043 24.3769L31.7013 20.8895L32.0902 19.8529Z" fill="white"/>
<path fill-rule="evenodd" clip-rule="evenodd" d="M50.6479 26.7215L41.0681 24.3965L41.3293 23.3206L50.9091 25.6456L50.6479 26.7215Z" fill="white"/>
<path fill-rule="evenodd" clip-rule="evenodd" d="M50.4559 26.6335L26.811 9.69447L27.4561 8.79456L51.1011 25.7336L50.4559 26.6335Z" fill="white"/>
<path fill-rule="evenodd" clip-rule="evenodd" d="M46.5734 15.3722L39.6516 11.4419L40.1986 10.4792L47.1204 14.4095L46.5734 15.3722Z" fill="white"/>
<path fill-rule="evenodd" clip-rule="evenodd" d="M35.5439 1.2955L40.4168 10.7061L39.4333 11.215L34.5604 1.80446L35.5439 1.2955Z" fill="white"/>
<path fill-rule="evenodd" clip-rule="evenodd" d="M35.4337 1.55777L32.6096 20.5632L31.5142 20.4005L34.3383 1.39509L35.4337 1.55777Z" fill="white"/>
<path d="M36.7687 1.7714C36.7687 2.74972 35.9754 3.54281 34.9967 3.54281C34.0181 3.54281 33.2248 2.74972 33.2248 1.7714C33.2248 0.793084 34.0181 0 34.9967 0C35.9754 0 36.7687 0.793084 36.7687 1.7714Z" fill="white"/>
<path d="M48.5081 14.7248C48.5081 15.642 47.7644 16.3855 46.8469 16.3855C45.9294 16.3855 45.1857 15.642 45.1857 14.7248C45.1857 13.8076 45.9294 13.0641 46.8469 13.0641C47.7644 13.0641 48.5081 13.8076 48.5081 14.7248Z" fill="white"/>
<path d="M18.0521 12.1784C18.0521 13.0956 17.3084 13.8391 16.3909 13.8391C15.4734 13.8391 14.7296 13.0956 14.7296 12.1784C14.7296 11.2612 15.4734 10.5177 16.3909 10.5177C17.3084 10.5177 18.0521 11.2612 18.0521 12.1784Z" fill="white"/>
<path d="M33.557 20.4819C33.557 21.399 32.8132 22.1425 31.8958 22.1425C30.9783 22.1425 30.2345 21.399 30.2345 20.4819C30.2345 19.5647 30.9783 18.8212 31.8958 18.8212C32.8132 18.8212 33.557 19.5647 33.557 20.4819Z" fill="white"/>
<path d="M21.8176 21.589C21.8176 22.9342 20.7267 24.0247 19.3811 24.0247C18.0355 24.0247 16.9446 22.9342 16.9446 21.589C16.9446 20.2438 18.0355 19.1533 19.3811 19.1533C20.7267 19.1533 21.8176 20.2438 21.8176 21.589Z" fill="white"/>
<path d="M28.241 29.4496C28.241 30.7948 27.1502 31.8853 25.8046 31.8853C24.4589 31.8853 23.3681 30.7948 23.3681 29.4496C23.3681 28.1044 24.4589 27.0139 25.8046 27.0139C27.1502 27.0139 28.241 28.1044 28.241 29.4496Z" fill="white"/>
<path d="M53.2704 26.0175C53.2704 27.3627 52.1795 28.4532 50.8339 28.4532C49.4882 28.4532 48.3974 27.3627 48.3974 26.0175C48.3974 24.6723 49.4882 23.5818 50.8339 23.5818C52.1795 23.5818 53.2704 24.6723 53.2704 26.0175Z" fill="white"/>
<path d="M29.4593 9.29987C29.4593 10.6451 28.3684 11.7355 27.0228 11.7355C25.6772 11.7355 24.5863 10.6451 24.5863 9.29987C24.5863 7.95468 25.6772 6.86419 27.0228 6.86419C28.3684 6.86419 29.4593 7.95468 29.4593 9.29987Z" fill="white"/>
<path d="M42.3062 10.9606C42.3062 12.3057 41.2153 13.3962 39.8697 13.3962C38.5241 13.3962 37.4332 12.3057 37.4332 10.9606C37.4332 9.61537 38.5241 8.52488 39.8697 8.52488C41.2153 8.52488 42.3062 9.61537 42.3062 10.9606Z" fill="white"/>
<path d="M43.7459 23.7479C43.7459 25.0625 42.6799 26.1282 41.3648 26.1282C40.0498 26.1282 38.9837 25.0625 38.9837 23.7479C38.9837 22.4333 40.0498 21.3676 41.3648 21.3676C42.6799 21.3676 43.7459 22.4333 43.7459 23.7479Z" fill="white"/>
<path d="M36.9902 35.5388C36.9902 36.456 36.2465 37.1995 35.329 37.1995C34.4115 37.1995 33.6678 36.456 33.6678 35.5388C33.6678 34.6216 34.4115 33.8781 35.329 33.8781C36.2465 33.8781 36.9902 34.6216 36.9902 35.5388Z" fill="white"/>
</svg>
