<svg width="361" height="371" viewBox="0 0 361 371" fill="none" xmlns="http://www.w3.org/2000/svg">
<ellipse cx="180.5" cy="261" rx="180.5" ry="110" fill="url(#paint0_linear)"/>
<path d="M207.295 284.215L271.674 247.057C272.621 246.53 273.146 245.793 273.146 244.951C273.146 244.215 272.726 243.583 271.989 243.162L164.901 181.267C163.534 180.53 161.325 180.53 159.852 181.478L95.4727 218.636C94.526 219.162 94 219.899 94 220.741C94 221.478 94.4208 222.109 95.1572 222.53L202.245 284.32C202.876 284.636 203.613 284.846 204.454 284.846C205.506 284.846 206.453 284.636 207.295 284.215ZM95.8935 221.057C95.6831 220.951 95.5779 220.846 95.5779 220.741C95.5779 220.636 95.6831 220.32 96.2091 220.109L160.588 182.951C161.535 182.425 163.218 182.32 163.954 182.741L271.148 244.53C271.358 244.636 271.463 244.741 271.463 244.846C271.463 244.951 271.358 245.267 270.832 245.478L206.453 282.636C205.506 283.162 203.823 283.267 203.087 282.846L95.8935 221.057Z" fill="url(#paint1_linear)"/>
<path d="M200.983 80.3193H211.292C209.714 76.8456 208.767 74.6351 208.767 74.6351L105.466 34.3192V206.951C105.466 206.951 105.466 206.951 105.466 207.056V207.267C105.466 207.583 105.677 207.899 106.097 208.109L200.247 262.53C200.457 262.636 200.667 262.741 200.878 262.741V80.3193H200.983Z" fill="#24126A"/>
<path d="M261.575 55.6877L202.14 89.5826V193.478V262.846C202.771 262.846 203.508 262.636 204.034 262.32L260.734 229.688C261.365 229.372 261.575 228.951 261.68 228.53L261.575 55.6877Z" fill="url(#paint2_linear)"/>
<path d="M197.932 37.6876V191.056V235.793V261.057L200.352 262.53C200.772 262.846 201.404 262.951 202.14 262.951C202.876 262.951 202.876 262.53 203.402 262.215L203.928 262.004L203.402 235.478V193.899L204.665 37.6876H197.932Z" fill="#393091"/>
<path d="M204.559 235.793V194.951V88.2141L202.14 89.5825V193.477V262.846C202.245 262.846 202.456 262.846 202.561 262.846H202.666C202.982 262.846 203.297 262.741 203.613 262.636C203.613 262.636 203.613 262.636 203.718 262.636C203.823 262.53 204.034 262.53 204.139 262.425L204.665 262.109V235.793H204.559Z" fill="#CAD0F9"/>
<g opacity="0.51">
<path opacity="0.51" d="M110.2 43.8982L193.199 91.793V253.372L110.2 205.478V43.8982Z" fill="#453C9E"/>
</g>
<g opacity="0.51">
<path opacity="0.51" d="M105.466 182.109L197.932 120.214V88.3193L105.466 34.4244V182.109Z" fill="#453C9E"/>
</g>
<path d="M200.352 89.793L106.203 35.3718C105.256 34.8455 105.361 33.8982 106.518 33.2666L163.113 0.529652C164.165 -0.101929 165.848 -0.207191 166.795 0.42439L260.944 54.8456C261.891 55.3719 261.786 56.3193 260.628 56.9508L204.034 89.6878C202.982 90.2141 201.299 90.3193 200.352 89.793Z" fill="#BCBEFF"/>
<path d="M165.848 2.74017H159.115L106.413 33.1613C105.361 33.7929 105.151 34.7403 106.097 35.2666L108.622 36.7403L190.464 84.0035L201.193 83.8983L165.848 2.74017Z" fill="url(#paint3_linear)"/>
<path opacity="0.78" d="M165.848 2.74017H159.115L106.413 33.1613C105.361 33.7929 105.151 34.7403 106.097 35.2666L108.622 36.7403L190.464 84.0035L201.193 83.8983L165.848 2.74017Z" fill="url(#paint4_linear)"/>
<path d="M165.848 6.10858L120.614 32.3192L116.196 31.4771V34.8455L201.299 84.0035L244.428 54.635L165.848 6.10858Z" fill="url(#paint5_linear)"/>
<path d="M250.951 51.8982V55.2666L201.299 84.0035V80.6351L250.951 51.8982Z" fill="url(#paint6_linear)"/>
<path d="M201.299 80.6351L116.196 31.4771L165.848 2.74017L250.95 51.8982L201.299 80.6351Z" fill="url(#paint7_linear)"/>
<path d="M147.965 27.8977L146.597 27.0556L146.703 26.424L159.326 19.1608L161.009 20.0029L160.694 20.5293L147.965 27.8977Z" fill="#3F21D3"/>
<path d="M159.326 19.6876L160.693 20.5297L161.535 20.0034L159.326 18.7402L145.756 26.5297L146.597 27.056L159.326 19.6876Z" fill="url(#paint8_linear)"/>
<path d="M152.068 30.2135L150.7 29.4767L150.805 28.8451L163.429 21.4767L165.112 22.3188L164.796 22.8451L152.068 30.2135Z" fill="#3F21D3"/>
<path d="M163.429 22.1087L164.796 22.8455L165.743 22.3192L163.429 21.056L149.858 28.9508L150.7 29.4771L163.429 22.1087Z" fill="url(#paint9_linear)"/>
<path d="M156.17 32.6345L154.803 31.7924L154.908 31.1608L167.531 23.8976L169.214 24.7398L168.899 25.2661L156.17 32.6345Z" fill="#3F21D3"/>
<path d="M167.531 24.4244L168.899 25.2665L169.845 24.7402L167.531 23.4771L153.961 31.3718L154.802 31.7929L167.531 24.4244Z" fill="url(#paint10_linear)"/>
<path d="M160.273 34.9504L158.905 34.2135L159.01 33.5819L171.634 26.2135L173.422 27.0556L173.001 27.5819L160.273 34.9504Z" fill="#3F21D3"/>
<path d="M171.739 26.8455L173.001 27.5824L173.948 27.0561L171.739 25.7929L158.064 33.6877L158.905 34.214L171.739 26.8455Z" fill="url(#paint11_linear)"/>
<path d="M172.37 42.003L171.003 41.1609L171.108 40.5293L183.626 33.2661L185.414 34.1082L185.099 34.6345L172.37 42.003Z" fill="#3F21D3"/>
<path d="M183.731 33.7928L185.099 34.6349L185.94 34.1086L183.731 32.8455L170.056 40.7402L171.003 41.1613L183.731 33.7928Z" fill="url(#paint12_linear)"/>
<path d="M176.473 44.3188L175.105 43.582L175.21 42.9504L187.834 35.582L189.517 36.4241L189.201 36.9504L176.473 44.3188Z" fill="#3F21D3"/>
<path d="M187.834 36.214L189.201 36.9509L190.043 36.4245L187.834 35.1614L174.264 43.0561L175.105 43.5824L187.834 36.214Z" fill="url(#paint13_linear)"/>
<path d="M180.575 46.7399L179.208 45.8977L179.313 45.2662L191.936 38.003L193.619 38.8451L193.304 39.3714L180.575 46.7399Z" fill="#3F21D3"/>
<path d="M191.936 38.5298L193.304 39.3719L194.145 38.8456L191.936 37.5824L178.366 45.4772L179.208 45.8982L191.936 38.5298Z" fill="url(#paint14_linear)"/>
<path d="M184.678 49.0556L183.31 48.3188L183.416 47.6872L196.039 40.3187L197.722 41.1608L197.406 41.6872L184.678 49.0556Z" fill="#3F21D3"/>
<path d="M196.039 40.9509L197.406 41.6877L198.353 41.2667L196.039 39.8983L182.469 47.793L183.31 48.3193L196.039 40.9509Z" fill="url(#paint15_linear)"/>
<path d="M196.67 56.1082L195.408 55.2661L195.513 54.6345L208.031 47.3713L209.819 48.2134L209.504 48.7398L196.67 56.1082Z" fill="#3F21D3"/>
<path d="M208.136 47.8982L209.504 48.7403L210.345 48.214L208.136 46.9508L194.461 54.8456L195.408 55.2666L208.136 47.8982Z" fill="url(#paint16_linear)"/>
<path d="M200.878 58.424L199.51 57.6872L199.615 57.0556L212.134 49.6872L213.922 50.5293L213.606 51.0556L200.878 58.424Z" fill="#3F21D3"/>
<path d="M212.239 50.3192L213.606 51.056L214.448 50.635L212.239 49.2665L198.563 57.1613L199.51 57.6876L212.239 50.3192Z" fill="url(#paint17_linear)"/>
<path d="M204.98 60.8451L203.613 60.003L203.718 59.3714L216.236 52.1082L218.025 52.9503L217.709 53.4766L204.98 60.8451Z" fill="#3F21D3"/>
<path d="M216.341 52.635L217.709 53.4771L218.551 52.9508L216.341 51.6876L202.771 59.5824L203.613 60.0034L216.341 52.635Z" fill="url(#paint18_linear)"/>
<path d="M209.083 63.1609L207.716 62.4241L207.821 61.7925L220.444 54.4241L222.127 55.2662L221.812 55.7925L209.083 63.1609Z" fill="#3F21D3"/>
<path d="M220.444 55.0561L221.812 55.7929L222.653 55.3718L220.444 54.0034L206.874 61.8982L207.715 62.4245L220.444 55.0561Z" fill="url(#paint19_linear)"/>
<path d="M252.739 172.32L210.976 196.425V139.267L252.739 115.056V172.32Z" fill="#BCBEFF"/>
<path d="M250.424 116.425V171.162L210.976 194.004V196.425L252.739 172.32V115.056L250.424 116.425Z" fill="url(#paint20_linear)"/>
<path d="M277.985 187.056L275.776 188.214L253.265 175.267C252.844 175.056 252.213 175.056 251.792 175.372L212.975 197.793C212.554 197.583 210.871 196.741 210.871 196.741L211.713 198.846C211.713 198.951 211.818 199.056 211.923 199.056L235.592 212.741C236.013 212.951 236.644 212.951 237.065 212.635L276.723 189.688C276.934 189.583 277.039 189.477 277.039 189.372L277.985 187.056Z" fill="url(#paint21_linear)"/>
<path d="M277.67 187.372L237.065 210.846C236.644 211.056 235.908 211.162 235.592 210.951L211.292 196.951C210.871 196.741 210.976 196.32 211.397 196.109L252.002 172.635C252.423 172.425 253.159 172.32 253.475 172.53L277.775 186.53C278.091 186.741 278.091 187.162 277.67 187.372Z" fill="url(#paint22_linear)"/>
<path d="M224.757 205.793V205.372C224.757 205.372 224.757 205.267 224.862 205.372L226.44 206.32L226.545 206.425V206.846C226.545 206.846 226.545 206.951 226.44 206.846L224.862 205.899C224.757 205.899 224.757 205.899 224.757 205.793Z" fill="#2842A2"/>
<path d="M227.071 207.162V206.741C227.071 206.741 227.071 206.635 227.176 206.741L228.754 207.688L228.859 207.793V208.215C228.859 208.215 228.859 208.32 228.754 208.215L227.176 207.267C227.071 207.267 227.071 207.162 227.071 207.162Z" fill="#2842A2"/>
<path d="M217.499 195.583L251.266 176.109C251.476 176.004 251.792 176.004 252.002 176.109L263.995 183.056C264.205 183.162 264.205 183.372 263.995 183.477L230.227 202.951C230.017 203.056 229.701 203.056 229.491 202.951L217.393 196.004C217.393 196.004 217.393 195.688 217.499 195.583Z" fill="#ADB1F2"/>
<path d="M217.499 196.109L217.604 196.214L251.266 176.741C251.476 176.635 251.792 176.635 252.002 176.741L263.889 183.688L263.995 183.583C264.205 183.477 264.205 183.267 263.995 183.162L252.002 176.214C251.792 176.109 251.476 176.109 251.266 176.214L217.499 195.688C217.393 195.688 217.393 196.004 217.499 196.109Z" fill="#9198DB"/>
<path d="M252.949 177.899L223.6 194.846L222.338 194.109L251.687 177.162L252.949 177.899Z" fill="#24126A"/>
<path d="M256.105 179.687L228.649 195.582L227.282 194.845L254.843 178.95L256.105 179.687Z" fill="#24126A"/>
<path d="M258.209 180.951L225.809 199.688L224.547 198.846L256.947 180.214L258.209 180.951Z" fill="#24126A"/>
<path d="M260.313 182.109L227.913 200.846L226.65 200.109L259.05 181.372L260.313 182.109Z" fill="#24126A"/>
<path d="M262.417 183.372L230.017 202.004L228.649 201.267L261.049 182.53L262.417 183.372Z" fill="#24126A"/>
<path d="M221.812 195.899L220.549 196.636L219.182 195.899L220.549 195.056L221.812 195.899Z" fill="#24126A"/>
<path d="M226.44 196.846L223.705 198.425L222.443 197.688L225.178 196.109L226.44 196.846Z" fill="#24126A"/>
<path d="M252.633 200.32L261.785 195.056C262.101 194.846 262.101 194.53 261.785 194.32L255.579 190.741C255.263 190.53 254.632 190.53 254.317 190.741L245.165 196.004C244.849 196.214 244.849 196.53 245.165 196.741L251.371 200.32C251.687 200.53 252.213 200.53 252.633 200.32Z" fill="url(#paint23_linear)"/>
<path d="M245.06 196.32L254.212 191.056C254.527 190.846 255.158 190.846 255.474 191.056L261.68 194.635C261.786 194.741 261.891 194.741 261.891 194.846C261.996 194.635 261.891 194.425 261.68 194.32L255.474 190.741C255.158 190.53 254.527 190.53 254.212 190.741L245.06 196.004C244.849 196.109 244.744 196.32 244.849 196.53C244.954 196.425 244.954 196.32 245.06 196.32Z" fill="#9198DB"/>
<path d="M250.424 116.425L210.976 139.267V194.004L250.424 171.162V116.425Z" fill="#24126A"/>
<path d="M250.424 116.425L210.976 139.267V194.004L250.424 171.162V116.425Z" fill="#24126A"/>
<g opacity="0.51">
<path opacity="0.51" d="M248.215 172.425V120.214L210.976 141.688V194.004L248.215 172.425Z" fill="#453C9E"/>
</g>
<g opacity="0.11">
<path opacity="0.11" d="M252.108 172.53L211.608 195.899C211.187 196.109 210.451 196.214 210.135 196.004L185.94 182.004C185.519 181.793 185.625 181.372 186.045 181.162L226.545 157.793C226.966 157.583 227.702 157.477 228.018 157.688L252.213 171.688C252.528 171.899 252.528 172.214 252.108 172.53Z" fill="url(#paint24_linear)"/>
<path opacity="0.11" d="M211.502 176.741L220.549 171.477C220.865 171.267 220.865 170.951 220.549 170.741L214.343 167.162C214.027 166.951 213.396 166.951 213.08 167.162L204.034 172.425C203.718 172.635 203.718 172.951 204.034 173.162L210.24 176.741C210.556 176.951 211.187 176.951 211.502 176.741Z" fill="url(#paint25_linear)"/>
<path opacity="0.11" d="M204.034 172.635L213.08 167.372C213.396 167.162 214.027 167.162 214.343 167.372L220.549 170.951C220.654 171.056 220.76 171.056 220.76 171.162C220.865 170.951 220.76 170.741 220.549 170.635L214.343 167.056C214.027 166.846 213.396 166.846 213.08 167.056L204.034 172.32C203.823 172.425 203.718 172.635 203.823 172.846C203.823 172.846 203.928 172.741 204.034 172.635Z" fill="#9198DB"/>
</g>
<g opacity="0.11">
<path opacity="0.11" d="M200.036 184.846L233.698 165.372C233.909 165.267 234.224 165.267 234.435 165.372L246.427 172.32C246.637 172.425 246.637 172.635 246.427 172.741L212.87 192.109C212.66 192.214 212.344 192.214 212.134 192.109L200.141 185.162C199.826 185.267 199.826 184.951 200.036 184.846Z" fill="#ADB1F2"/>
<path opacity="0.11" d="M200.035 185.373L200.14 185.478L233.592 166.11C233.803 166.004 234.118 166.004 234.329 166.11L246.216 172.952L246.321 172.846C246.531 172.741 246.531 172.531 246.321 172.425L234.329 165.478C234.118 165.373 233.803 165.373 233.592 165.478L199.93 184.952C199.825 184.952 199.825 185.267 200.035 185.373Z" fill="#9198DB"/>
</g>
<g opacity="0.11">
<path opacity="0.11" d="M243.166 171.898L213.922 188.846L215.079 189.477L244.323 172.635L243.166 171.898Z" fill="#24126A"/>
<path opacity="0.11" d="M240.115 170.109L212.239 186.214L213.396 186.846L241.272 170.846L240.115 170.109Z" fill="#24126A"/>
<path opacity="0.11" d="M210.24 187.372L207.61 188.951L208.767 189.583L211.397 188.109L210.24 187.372Z" fill="#24126A"/>
<path opacity="0.11" d="M212.449 189.688L210.661 190.74L211.818 191.371L213.712 190.319L212.449 189.688Z" fill="#24126A"/>
<path opacity="0.11" d="M238.222 169.056L205.717 187.793L206.874 188.425L239.379 169.688L238.222 169.056Z" fill="#24126A"/>
<path opacity="0.11" d="M236.223 167.898L203.718 186.635L204.875 187.372L237.38 168.529L236.223 167.898Z" fill="#24126A"/>
<path opacity="0.11" d="M234.33 166.741L201.824 185.584L202.982 186.215L235.487 167.478L234.33 166.741Z" fill="#24126A"/>
</g>
<path d="M221.706 146.004L219.392 147.372V145.793L221.706 144.425V146.004Z" fill="#42E8E0"/>
<path d="M221.706 156.741L219.392 158.109V148.846L221.706 147.477V156.741Z" fill="#42E8E0"/>
<path d="M221.706 161.899L219.392 163.267V159.583L221.706 158.214V161.899Z" fill="#42E8E0"/>
<path d="M221.706 167.162L219.392 168.53V164.846L221.706 163.477V167.162Z" fill="#42E8E0"/>
<path d="M225.283 149.162L222.863 150.425V146.846L225.283 145.477V149.162Z" fill="#42E8E0"/>
<path d="M225.283 156.109L222.863 157.477V152.109L225.283 150.74V156.109Z" fill="#42E8E0"/>
<path d="M225.283 162.635L222.863 164.004V159.372L225.283 158.004V162.635Z" fill="#42E8E0"/>
<path d="M221.706 172.425L219.392 173.793V170.109L221.706 168.846V172.425Z" fill="#42E8E0"/>
<path d="M223.495 176.635L219.392 178.951V177.478L223.495 175.056V176.635Z" fill="#42E8E0"/>
<path d="M195.513 92.4246C195.513 91.3719 194.776 90.0035 193.83 89.4772C193.409 89.1614 192.988 89.1614 192.673 89.3719L191.515 90.1088H192.252C192.252 90.2141 192.252 90.3193 192.252 90.4246C192.252 91.4772 192.988 92.8456 193.935 93.372C194.04 93.4772 194.145 93.4772 194.25 93.5825L193.935 94.2141L195.092 93.5825C195.302 93.372 195.513 92.9509 195.513 92.4246Z" fill="url(#paint26_linear)"/>
<path d="M194.251 93.1616C194.251 94.2142 193.514 94.6353 192.567 94.1089C191.621 93.5826 190.884 92.3195 190.884 91.1616C190.884 90.1089 191.621 89.6879 192.567 90.2142C193.514 90.7405 194.251 92.1089 194.251 93.1616Z" fill="url(#paint27_linear)"/>
<path d="M193.514 92.7407C193.514 93.3723 193.093 93.5829 192.567 93.2671C192.041 92.9513 191.621 92.2144 191.621 91.5828C191.621 90.9513 192.041 90.7407 192.567 91.0565C193.093 91.3723 193.514 92.1092 193.514 92.7407Z" fill="#3F21D3"/>
<path d="M112.409 44.7404C112.409 43.6877 111.673 42.3193 110.726 41.793C110.305 41.4772 109.884 41.4772 109.569 41.6877L108.412 42.4246H109.148C109.148 42.5298 109.148 42.6351 109.148 42.7404C109.148 43.793 109.884 45.1614 110.831 45.6878C110.936 45.793 111.042 45.793 111.147 45.8983L110.831 46.5299L111.988 45.8983C112.304 45.6878 112.409 45.2667 112.409 44.7404Z" fill="url(#paint28_linear)"/>
<path d="M111.252 45.4773C111.252 46.5299 110.516 46.951 109.569 46.4247C108.622 45.8984 107.886 44.6352 107.886 43.4773C107.886 42.4247 108.622 42.0036 109.569 42.5299C110.516 43.0562 111.252 44.3194 111.252 45.4773Z" fill="url(#paint29_linear)"/>
<path d="M110.516 45.0553C110.516 45.6869 110.095 45.8974 109.569 45.5816C109.043 45.2658 108.622 44.529 108.622 43.8974C108.622 43.2658 109.043 43.0553 109.569 43.3711C110.095 43.6869 110.516 44.4237 110.516 45.0553Z" fill="#3F21D3"/>
<path d="M195.513 254.004C195.513 252.951 194.776 251.583 193.83 251.057C193.409 250.741 192.988 250.741 192.673 250.951L191.515 251.688C191.831 251.478 192.252 251.583 192.673 251.793C193.619 252.32 194.356 253.583 194.356 254.741C194.356 255.267 194.145 255.583 193.935 255.793L195.092 255.162C195.302 254.846 195.513 254.53 195.513 254.004Z" fill="url(#paint30_linear)"/>
<path d="M193.83 254.951C193.725 254.846 193.619 254.846 193.514 254.741C193.304 255.057 192.988 255.057 192.673 254.846C192.147 254.53 191.726 253.793 191.726 253.162C191.726 252.741 191.936 252.53 192.252 252.53C192.252 252.425 192.252 252.214 192.252 252.109C192.252 252.004 192.252 251.899 192.252 251.793H191.515C191.2 252.004 190.989 252.32 190.989 252.846C190.989 253.899 191.726 255.267 192.673 255.793C193.199 256.109 193.619 256.109 193.935 255.899L194.25 255.267C194.04 255.057 193.935 254.951 193.83 254.951Z" fill="url(#paint31_linear)"/>
<path d="M194.25 254.636C194.25 253.583 193.514 252.215 192.567 251.688C192.147 251.372 191.726 251.372 191.41 251.583H192.147C192.147 251.688 192.147 251.794 192.147 251.899C192.147 252.004 192.147 252.215 192.147 252.32C192.252 252.32 192.462 252.32 192.567 252.425C193.093 252.741 193.514 253.478 193.514 254.109C193.514 254.32 193.514 254.425 193.409 254.53C193.514 254.636 193.619 254.741 193.725 254.741C193.83 254.846 193.935 254.846 194.04 254.951L193.725 255.583C194.145 255.583 194.25 255.162 194.25 254.636Z" fill="url(#paint32_linear)"/>
<path d="M194.25 254.636C194.25 253.583 193.514 252.215 192.567 251.688C192.147 251.372 191.726 251.372 191.41 251.583H192.147C192.147 251.688 192.147 251.794 192.147 251.899C192.147 252.004 192.147 252.215 192.147 252.32C192.252 252.32 192.462 252.32 192.567 252.425C193.093 252.741 193.514 253.478 193.514 254.109C193.514 254.32 193.514 254.425 193.409 254.53C193.514 254.636 193.619 254.741 193.725 254.741C193.83 254.846 193.935 254.846 194.04 254.951L193.725 255.583C194.145 255.583 194.25 255.162 194.25 254.636Z" fill="url(#paint33_linear)"/>
<path d="M191.621 253.162C191.621 253.793 192.041 254.53 192.567 254.846C192.988 255.057 193.304 254.951 193.409 254.741C192.778 254.215 192.252 253.372 192.147 252.53C191.831 252.425 191.621 252.741 191.621 253.162Z" fill="#3F21D3"/>
<path d="M193.409 254.741C193.514 254.636 193.514 254.53 193.514 254.32C193.514 253.688 193.093 252.951 192.567 252.636C192.357 252.53 192.252 252.53 192.147 252.53C192.252 253.267 192.778 254.109 193.409 254.741Z" fill="#3F21D3"/>
<path d="M110.726 203.372C110.305 203.057 109.884 203.057 109.569 203.267L108.412 204.004C108.727 203.793 109.148 203.899 109.569 204.109C110.516 204.635 111.252 205.899 111.252 207.057C111.252 207.583 111.042 207.899 110.831 208.109L111.988 207.478C112.304 207.267 112.514 206.951 112.514 206.425C112.409 205.162 111.673 203.899 110.726 203.372Z" fill="url(#paint34_linear)"/>
<path d="M110.726 207.267C110.621 207.162 110.516 207.162 110.41 207.057C110.2 207.372 109.885 207.372 109.569 207.162C109.043 206.846 108.622 206.109 108.622 205.478C108.622 205.057 108.833 204.846 109.148 204.846C109.148 204.741 109.148 204.53 109.148 204.425C109.148 204.32 109.148 204.215 109.148 204.109H108.412C108.096 204.32 107.886 204.636 107.886 205.162C107.886 206.215 108.622 207.583 109.569 208.109C110.095 208.425 110.516 208.425 110.831 208.215L111.147 207.583C111.042 207.372 110.936 207.267 110.726 207.267Z" fill="url(#paint35_linear)"/>
<path d="M111.252 206.951C111.252 205.899 110.516 204.53 109.569 204.004C109.148 203.688 108.727 203.688 108.412 203.899H109.148C109.148 204.004 109.148 204.109 109.148 204.215C109.148 204.32 109.148 204.53 109.148 204.636C109.253 204.636 109.464 204.636 109.569 204.741C110.095 205.057 110.516 205.793 110.516 206.425C110.516 206.636 110.516 206.741 110.41 206.846C110.516 206.951 110.621 207.057 110.726 207.057C110.831 207.162 110.936 207.162 111.042 207.267L110.726 207.899C111.042 207.793 111.252 207.478 111.252 206.951Z" fill="url(#paint36_linear)"/>
<path d="M111.252 206.951C111.252 205.899 110.516 204.53 109.569 204.004C109.148 203.688 108.727 203.688 108.412 203.899H109.148C109.148 204.004 109.148 204.109 109.148 204.215C109.148 204.32 109.148 204.53 109.148 204.636C109.253 204.636 109.464 204.636 109.569 204.741C110.095 205.057 110.516 205.793 110.516 206.425C110.516 206.636 110.516 206.741 110.41 206.846C110.516 206.951 110.621 207.057 110.726 207.057C110.831 207.162 110.936 207.162 111.042 207.267L110.726 207.899C111.042 207.793 111.252 207.478 111.252 206.951Z" fill="url(#paint37_linear)"/>
<path d="M108.622 205.477C108.622 206.108 109.043 206.845 109.569 207.161C109.99 207.371 110.305 207.266 110.41 207.056C109.779 206.529 109.253 205.687 109.148 204.845C108.832 204.74 108.622 205.056 108.622 205.477Z" fill="#3F21D3"/>
<path d="M110.41 206.952C110.516 206.846 110.516 206.741 110.516 206.53C110.516 205.899 110.095 205.162 109.569 204.846C109.358 204.741 109.253 204.741 109.148 204.741C109.253 205.583 109.779 206.425 110.41 206.952Z" fill="#3F21D3"/>
<g opacity="0.2">
<g opacity="0.2">
<path opacity="0.2" d="M159.536 197.267C157.222 195.899 157.222 193.688 159.536 192.32C161.851 190.951 165.638 190.951 168.057 192.32C170.371 193.688 170.371 195.899 168.057 197.267C165.638 198.635 161.851 198.635 159.536 197.267Z" fill="url(#paint38_linear)"/>
<path opacity="0.2" d="M159.536 196.951C161.85 198.32 165.637 198.32 168.057 196.951C169.214 196.32 169.74 195.478 169.845 194.635C169.95 195.583 169.319 196.53 168.057 197.267C165.743 198.635 161.956 198.635 159.536 197.267C158.274 196.53 157.748 195.583 157.748 194.635C157.853 195.478 158.379 196.32 159.536 196.951Z" fill="white"/>
<path opacity="0.2" d="M159.536 208.951C157.222 207.583 157.222 205.372 159.536 204.004C161.851 202.635 165.638 202.635 168.057 204.004C170.371 205.372 170.371 207.583 168.057 208.951C165.638 210.32 161.851 210.32 159.536 208.951Z" fill="url(#paint39_linear)"/>
<path opacity="0.2" d="M159.536 220.846C157.222 219.478 157.222 217.267 159.536 215.899C161.851 214.53 165.638 214.53 168.057 215.899C170.371 217.267 170.371 219.478 168.057 220.846C165.638 222.214 161.851 222.214 159.536 220.846Z" fill="url(#paint40_linear)"/>
<path opacity="0.2" d="M169.739 194.846V188.741C169.739 189.583 169.107 190.53 167.95 191.162C165.636 192.53 161.849 192.53 159.43 191.162C158.272 190.53 157.746 189.688 157.641 188.741V163.056H169.633V238.636C169.633 241.899 166.898 244.636 163.637 244.636C160.376 244.636 157.641 241.899 157.641 238.636V218.109C157.641 219.057 158.167 219.899 159.43 220.635C161.744 222.004 165.531 222.004 167.95 220.635C169.107 220.004 169.739 219.057 169.739 218.214V212.109C169.739 212.951 169.107 213.899 167.95 214.53C165.636 215.899 161.849 215.899 159.43 214.53C158.272 213.899 157.746 213.057 157.641 212.109V206.425C157.641 207.372 158.167 208.214 159.43 208.951C161.744 210.32 165.531 210.32 167.95 208.951C169.107 208.32 169.739 207.372 169.739 206.53V200.425C169.739 201.267 169.107 202.214 167.95 202.846C165.636 204.214 161.849 204.214 159.43 202.846C158.272 202.214 157.746 201.372 157.641 200.425V194.635C157.641 195.583 158.167 196.425 159.43 197.162C161.744 198.53 165.531 198.53 167.95 197.162C169.213 196.635 169.739 195.688 169.739 194.846Z" fill="url(#paint41_linear)"/>
<path opacity="0.2" d="M159.536 208.635C161.85 210.004 165.637 210.004 168.057 208.635C169.214 208.004 169.74 207.162 169.845 206.32C169.95 207.267 169.319 208.214 168.057 208.951C165.743 210.32 161.956 210.32 159.536 208.951C158.274 208.214 157.748 207.267 157.748 206.32C157.853 207.162 158.379 208.004 159.536 208.635Z" fill="white"/>
<path opacity="0.2" d="M159.536 220.53C161.85 221.899 165.637 221.899 168.057 220.53C169.214 219.899 169.74 219.056 169.845 218.214C169.95 219.162 169.319 220.109 168.057 220.846C165.743 222.214 161.956 222.214 159.536 220.846C158.274 220.109 157.748 219.162 157.748 218.214C157.853 219.056 158.379 219.899 159.536 220.53Z" fill="white"/>
<path opacity="0.48" d="M159.536 191.267C161.851 192.635 165.638 192.635 168.057 191.267C169.214 190.635 169.845 189.688 169.845 188.846V194.951C169.845 195.793 169.214 196.741 168.057 197.372C165.743 198.741 161.956 198.741 159.536 197.372C158.379 196.635 157.748 195.793 157.748 194.846V188.951C157.748 189.688 158.379 190.53 159.536 191.267Z" fill="url(#paint42_linear)"/>
<path opacity="0.48" d="M159.536 202.846C161.851 204.214 165.638 204.214 168.057 202.846C169.214 202.214 169.845 201.267 169.845 200.425V206.53C169.845 207.372 169.214 208.32 168.057 208.951C165.743 210.32 161.956 210.32 159.536 208.951C158.379 208.214 157.748 207.372 157.748 206.425V200.53C157.748 201.372 158.379 202.214 159.536 202.846Z" fill="url(#paint43_linear)"/>
<path opacity="0.48" d="M159.536 214.741C161.851 216.109 165.638 216.109 168.057 214.741C169.214 214.109 169.845 213.162 169.845 212.32V218.425C169.845 219.267 169.214 220.214 168.057 220.846C165.743 222.214 161.956 222.214 159.536 220.846C158.379 220.109 157.748 219.267 157.748 218.32V212.425C157.748 213.267 158.379 214.109 159.536 214.741Z" fill="url(#paint44_linear)"/>
</g>
</g>
<g opacity="0.2">
<path opacity="0.2" d="M185.414 153.793C185.73 153.688 185.94 153.477 186.256 153.267L189.201 136.635L185.519 114.53L175.315 103.372L164.796 93.1615L148.07 86.2141L147.649 86.0036C146.808 86.4246 146.071 86.8457 145.44 87.4773C141.232 86.9509 137.025 86.4246 132.817 85.8983C133.553 84.2141 134.395 82.6351 135.341 81.1614L133.343 80.4246L140.812 76.1088C140.917 76.1088 141.022 76.0035 141.127 76.0035L141.443 75.793C147.86 72.3193 156.696 72.9509 166.374 78.5299C186.15 90.0036 202.245 117.793 202.245 140.741C202.245 152.109 198.248 160.109 191.831 163.898C191.726 163.898 191.726 164.004 191.621 164.004L183.626 168.53L183.941 166.425C182.995 166.53 181.943 166.53 180.891 166.425C183.1 162.53 186.045 158.214 185.414 153.793Z" fill="url(#paint45_linear)"/>
<path opacity="0.2" d="M130.397 100.319C130.397 100.004 130.397 99.6877 130.397 99.3719C130.397 94.214 131.239 89.6877 132.712 86.0035C136.919 86.5298 141.127 87.0561 145.335 87.5824C141.338 90.7403 138.813 96.5298 138.813 104.214C138.813 121.688 151.121 142.951 166.269 151.793C173.737 156.109 180.47 156.53 185.414 153.793C186.045 158.214 183.1 162.53 180.891 166.425C177.525 166.214 173.948 165.267 170.161 163.583L171.318 164.951C171.318 164.951 156.38 159.793 156.065 159.477C155.749 159.162 138.392 141.583 138.392 141.583L127.031 117.056L130.397 100.319Z" fill="url(#paint46_linear)"/>
<path opacity="0.5" d="M133.974 107.898C133.974 90.4246 146.282 83.2667 161.43 92.0036C176.578 100.74 188.885 122.004 188.885 139.583C188.885 157.056 176.578 164.214 161.43 155.477C146.176 146.741 133.974 125.372 133.974 107.898Z" fill="url(#paint47_linear)"/>
<path opacity="0.48" d="M136.288 106.635C136.288 89.1614 148.596 82.0035 163.744 90.7404C178.892 99.4772 191.2 120.74 191.2 138.319C191.2 155.898 178.892 162.951 163.744 154.214C148.596 145.372 136.288 124.109 136.288 106.635Z" fill="url(#paint48_linear)"/>
<path opacity="0.2" d="M158.379 83.1614C178.156 94.6351 194.25 122.425 194.25 145.372C194.25 168.32 178.156 177.583 158.379 166.109C138.603 154.635 122.508 126.846 122.508 103.898C122.508 80.9509 138.603 71.793 158.379 83.1614ZM158.379 156.319C173.527 165.056 185.835 158.004 185.835 140.425C185.835 122.951 173.527 101.688 158.379 92.8457C143.231 84.1088 130.923 91.1614 130.923 108.74C130.923 126.319 143.231 147.583 158.379 156.319Z" fill="#BCBEFF"/>
<path opacity="0.2" d="M158.379 83.1614C178.156 94.6351 194.25 122.425 194.25 145.372C194.25 168.32 178.156 177.583 158.379 166.109C138.603 154.635 122.508 126.846 122.508 103.898C122.508 80.9509 138.603 71.793 158.379 83.1614ZM158.379 156.319C173.527 165.056 185.835 158.004 185.835 140.425C185.835 122.951 173.527 101.688 158.379 92.8457C143.231 84.1088 130.923 91.1614 130.923 108.74C130.923 126.319 143.231 147.583 158.379 156.319Z" fill="#BCBEFF"/>
<g opacity="0.2">
<path opacity="0.2" d="M193.725 146.004C193.725 123.056 177.63 95.2667 157.853 83.793C145.651 76.7404 134.921 77.5825 128.399 84.5298C134.816 76.9509 145.861 75.8982 158.379 83.1614C178.156 94.6351 194.25 122.425 194.25 145.372C194.25 154.214 191.831 160.951 187.834 165.372C191.515 160.951 193.725 154.425 193.725 146.004Z" fill="white"/>
<path opacity="0.2" d="M157.853 156.951C142.705 148.214 130.397 126.951 130.397 109.372C130.397 102.635 132.291 97.372 135.341 94.0035C132.501 97.372 130.923 102.319 130.923 108.74C130.923 126.214 143.231 147.477 158.379 156.319C167.636 161.688 175.841 161.056 180.786 155.793C175.947 161.688 167.426 162.53 157.853 156.951Z" fill="white"/>
</g>
</g>
<path d="M136.288 215.056C133.974 213.688 133.974 211.477 136.288 210.109C138.603 208.741 142.39 208.741 144.809 210.109C147.123 211.477 147.123 213.688 144.809 215.056C142.495 216.425 138.603 216.425 136.288 215.056Z" fill="url(#paint49_linear)"/>
<path d="M136.288 214.741C138.603 216.109 142.39 216.109 144.809 214.741C145.966 214.109 146.492 213.267 146.597 212.425C146.703 213.372 146.071 214.32 144.809 215.056C142.495 216.425 138.708 216.425 136.288 215.056C135.026 214.32 134.5 213.372 134.5 212.425C134.605 213.267 135.236 214.109 136.288 214.741Z" fill="white"/>
<path d="M136.288 226.741C133.974 225.372 133.974 223.162 136.288 221.793C138.603 220.425 142.39 220.425 144.809 221.793C147.123 223.162 147.123 225.372 144.809 226.741C142.495 228.109 138.603 228.109 136.288 226.741Z" fill="url(#paint50_linear)"/>
<path d="M136.288 238.53C133.974 237.162 133.974 234.951 136.288 233.583C138.603 232.214 142.39 232.214 144.809 233.583C147.123 234.951 147.123 237.162 144.809 238.53C142.495 239.899 138.603 239.899 136.288 238.53Z" fill="url(#paint51_linear)"/>
<path d="M146.597 212.635V206.53C146.597 207.372 145.965 208.32 144.808 208.951C142.494 210.32 138.707 210.32 136.287 208.951C135.13 208.32 134.604 207.478 134.499 206.53V180.846H146.491V256.425C146.491 259.688 143.756 262.425 140.495 262.425C137.234 262.425 134.499 259.688 134.499 256.425V235.899C134.499 236.846 135.025 237.688 136.287 238.425C138.602 239.793 142.389 239.793 144.808 238.425C145.965 237.793 146.597 236.846 146.597 236.004V229.899C146.597 230.741 145.965 231.688 144.808 232.32C142.494 233.688 138.707 233.688 136.287 232.32C135.13 231.688 134.604 230.846 134.499 229.899V223.899C134.499 224.846 135.025 225.688 136.287 226.425C138.602 227.793 142.389 227.793 144.808 226.425C145.965 225.793 146.597 224.846 146.597 224.004V217.899C146.597 218.741 145.965 219.688 144.808 220.32C142.494 221.688 138.707 221.688 136.287 220.32C135.13 219.688 134.604 218.846 134.499 217.899V212.109C134.499 213.057 135.025 213.899 136.287 214.635C138.602 216.004 142.389 216.004 144.808 214.635C145.965 214.32 146.597 213.478 146.597 212.635Z" fill="url(#paint52_linear)"/>
<path d="M136.288 226.425C138.603 227.793 142.39 227.793 144.809 226.425C145.966 225.793 146.492 224.951 146.597 224.109C146.703 225.057 146.071 226.004 144.809 226.741C142.495 228.109 138.708 228.109 136.288 226.741C135.026 226.004 134.5 225.057 134.5 224.109C134.605 224.951 135.236 225.793 136.288 226.425Z" fill="white"/>
<path d="M136.288 238.32C138.603 239.688 142.39 239.688 144.809 238.32C145.966 237.688 146.492 236.846 146.597 236.004C146.703 236.951 146.071 237.899 144.809 238.635C142.495 240.004 138.708 240.004 136.288 238.635C135.026 237.899 134.5 236.951 134.5 236.004C134.605 236.846 135.236 237.688 136.288 238.32Z" fill="white"/>
<path opacity="0.48" d="M136.288 208.951C138.603 210.32 142.39 210.32 144.809 208.951C145.966 208.32 146.597 207.372 146.597 206.53V212.635C146.597 213.478 145.966 214.425 144.809 215.057C142.495 216.425 138.708 216.425 136.288 215.057C135.131 214.32 134.5 213.478 134.5 212.53V206.635C134.605 207.478 135.131 208.32 136.288 208.951Z" fill="url(#paint53_linear)"/>
<path opacity="0.48" d="M136.288 220.635C138.603 222.004 142.39 222.004 144.809 220.635C145.966 220.004 146.597 219.056 146.597 218.214V224.32C146.597 225.162 145.966 226.109 144.809 226.741C142.495 228.109 138.708 228.109 136.288 226.741C135.131 226.004 134.5 225.162 134.5 224.214V218.32C134.605 219.162 135.131 220.004 136.288 220.635Z" fill="url(#paint54_linear)"/>
<path opacity="0.48" d="M136.288 232.53C138.603 233.898 142.39 233.898 144.809 232.53C145.966 231.898 146.597 230.951 146.597 230.109V236.214C146.597 237.056 145.966 238.004 144.809 238.635C142.495 240.004 138.708 240.004 136.288 238.635C135.131 237.899 134.5 237.056 134.5 236.109V230.214C134.605 230.951 135.131 231.898 136.288 232.53Z" fill="url(#paint55_linear)"/>
<path d="M162.271 171.583C162.587 171.477 162.797 171.267 163.113 171.056L166.058 154.425L162.376 132.319L152.173 121.162L141.653 110.951L124.927 104.004L124.506 103.793C123.665 104.214 122.928 104.635 122.297 105.267C118.09 104.74 113.882 104.214 109.674 103.688C110.41 102.004 111.252 100.425 112.199 98.9509L110.2 98.2141L117.669 93.8983C117.774 93.793 117.879 93.793 117.984 93.793L118.3 93.5825C124.717 90.1088 133.553 90.7404 143.231 96.3193C163.008 107.793 179.102 135.583 179.102 158.53C179.102 169.898 175.105 177.898 168.688 181.688C168.583 181.688 168.583 181.793 168.478 181.793L160.483 186.32L160.904 184.004C159.957 184.109 158.905 184.109 157.853 184.004C159.852 180.32 162.902 176.004 162.271 171.583Z" fill="url(#paint56_linear)"/>
<path d="M107.149 118.109C107.149 117.793 107.149 117.477 107.149 117.162C107.149 112.004 107.991 107.477 109.464 103.793C113.671 104.319 117.879 104.846 122.087 105.372C118.09 108.53 115.565 114.319 115.565 122.004C115.565 139.477 127.873 160.741 143.021 169.583C150.49 173.899 157.222 174.32 162.166 171.583C162.797 176.004 159.852 180.32 157.643 184.214C154.277 184.004 150.7 183.056 146.913 181.372L148.07 182.741C148.07 182.741 133.132 177.583 132.817 177.267C132.501 176.951 115.144 159.372 115.144 159.372L103.783 134.846L107.149 118.109Z" fill="url(#paint57_linear)"/>
<path opacity="0.5" d="M110.726 125.688C110.726 108.214 123.034 101.056 138.182 109.793C153.33 118.53 165.637 139.793 165.637 157.372C165.637 174.846 153.33 182.004 138.182 173.267C123.034 164.425 110.726 143.162 110.726 125.688Z" fill="url(#paint58_linear)"/>
<path opacity="0.48" d="M113.145 124.425C113.145 106.951 125.453 99.7929 140.601 108.53C155.749 117.267 168.057 138.53 168.057 156.109C168.057 173.583 155.749 180.741 140.601 172.004C125.348 163.162 113.145 141.898 113.145 124.425Z" fill="url(#paint59_linear)"/>
<path opacity="0.48" d="M129.977 134.109C129.977 127.372 134.71 124.635 140.601 128.004C146.492 131.372 151.226 139.583 151.226 146.425C151.226 153.161 146.492 155.898 140.601 152.53C134.71 149.056 129.977 140.846 129.977 134.109Z" fill="url(#paint60_linear)"/>
<path d="M135.131 100.951C154.908 112.425 171.002 140.214 171.002 163.162C171.002 186.109 154.908 195.372 135.131 183.899C115.354 172.425 99.2597 144.635 99.2597 121.688C99.2597 98.8458 115.354 89.4773 135.131 100.951ZM135.131 174.109C150.279 182.846 162.587 175.793 162.587 158.214C162.587 140.741 150.279 119.477 135.131 110.635C119.983 101.898 107.675 108.951 107.675 126.53C107.78 144.109 119.983 165.372 135.131 174.109Z" fill="#BCBEFF"/>
<path d="M135.131 100.951C154.908 112.425 171.002 140.214 171.002 163.162C171.002 186.109 154.908 195.372 135.131 183.899C115.354 172.425 99.2597 144.635 99.2597 121.688C99.2597 98.8458 115.354 89.4773 135.131 100.951ZM135.131 174.109C150.279 182.846 162.587 175.793 162.587 158.214C162.587 140.741 150.279 119.477 135.131 110.635C119.983 101.898 107.675 108.951 107.675 126.53C107.78 144.109 119.983 165.372 135.131 174.109Z" fill="#BCBEFF"/>
<path d="M170.476 163.793C170.476 140.846 154.382 113.056 134.605 101.583C122.403 94.5299 111.673 95.372 105.151 102.319C111.567 94.7404 122.613 93.6878 135.131 100.951C154.908 112.425 171.002 140.214 171.002 163.162C171.002 172.004 168.583 178.741 164.586 183.162C168.373 178.741 170.476 172.214 170.476 163.793Z" fill="white"/>
<path d="M134.605 174.741C119.457 166.004 107.149 144.741 107.149 127.162C107.149 120.425 109.043 115.162 112.093 111.793C109.253 115.162 107.675 120.109 107.675 126.53C107.675 144.004 119.983 165.267 135.131 174.109C144.388 179.478 152.593 178.846 157.537 173.583C152.699 179.478 144.283 180.32 134.605 174.741Z" fill="white"/>
<path opacity="0.2" d="M217.919 309.688C234.435 309.688 244.639 300.636 236.434 293.372C232.647 290.004 225.493 288.004 217.919 288.004C201.404 288.004 191.2 297.057 199.405 304.32C203.192 307.688 210.24 309.688 217.919 309.688Z" fill="#18187A"/>
<path d="M207.295 284.109C207.295 284.109 206.558 284.846 205.822 285.688C205.086 286.53 202.982 287.793 202.14 288.32C201.299 288.846 197.301 291.899 196.46 294.846C195.618 297.793 198.458 298.214 201.404 297.688C204.349 297.162 207.084 294.53 207.821 293.478C208.662 292.53 211.397 290.32 214.974 288.425C218.551 286.53 216.341 284.109 216.341 284.109H207.295Z" fill="#160A5B"/>
<path d="M233.909 292.952C233.909 292.952 234.54 294.32 234.645 296.004C234.856 297.689 235.066 301.478 235.171 302.531C235.276 303.583 235.276 306.32 233.383 308.846C231.489 311.373 230.437 312.425 227.913 311.373C225.388 310.32 225.388 306.11 225.914 303.899C226.335 301.689 226.756 296.741 226.756 296.215C226.756 295.688 226.861 295.373 226.861 295.373L233.909 292.952Z" fill="#160A5B"/>
<path d="M198.458 233.478C198.458 233.478 198.984 253.162 203.613 263.583C203.613 263.583 206.874 272.741 207.295 283.688C207.295 283.688 206.558 285.583 207.61 287.057C208.662 288.636 215.395 290.004 216.552 284.951C217.709 279.899 217.288 270.53 216.026 266.636C214.764 262.741 216.447 251.899 216.447 251.899C216.447 251.899 218.235 253.057 220.654 260.846C223.074 268.636 224.862 271.583 225.704 273.688C226.545 275.794 227.282 289.057 226.756 295.478C226.756 295.478 232.226 296.215 233.804 293.688C235.382 291.057 235.908 277.583 235.487 273.267C235.066 268.951 233.278 255.162 233.488 250.951C233.699 246.741 234.645 243.267 233.699 238.951C232.752 234.741 204.034 225.267 204.034 225.267L198.458 233.478Z" fill="#24126A"/>
<path d="M233.593 250.951C233.804 246.741 234.75 243.267 233.804 238.951C233.488 237.372 229.175 235.057 223.915 232.741C215.079 231.899 203.928 231.057 203.192 231.162C202.456 231.267 200.667 232.004 199.195 232.53L198.564 233.478C198.564 233.478 198.564 234.635 198.669 236.635C200.773 237.267 204.665 236.635 204.665 236.635C205.191 238.004 208.662 242.951 212.87 245.057C217.183 247.162 229.596 246.425 230.332 247.267C231.069 248.109 231.174 258.846 231.069 260.214C230.963 261.583 232.226 270.214 233.383 277.793C234.54 285.267 232.752 294.425 232.752 294.741C233.173 294.53 233.488 294.215 233.804 293.793C235.382 291.162 235.908 277.688 235.487 273.372C235.066 268.951 233.278 255.267 233.593 250.951Z" fill="#160A5B"/>
<path d="M208.136 169.162C208.136 169.162 201.719 170.635 199.615 171.162C199.3 171.267 198.984 171.477 198.879 171.793C198.248 173.372 196.67 178.214 197.827 185.372C199.3 194.109 198.774 200.004 198.774 200.004L195.828 215.372C195.828 215.372 192.147 230.004 192.462 230.425C192.778 230.846 200.983 237.056 203.613 236.214C206.137 235.372 205.296 233.899 205.296 233.899C205.296 233.899 207.4 244.53 216.552 244.425C225.809 244.32 233.278 244.32 234.856 240.635C236.434 236.951 234.435 221.267 232.857 215.056C231.279 208.846 227.387 196.53 227.387 196.53L240.852 181.583L229.28 172.741C229.28 172.741 226.545 167.583 225.388 166.951C224.231 166.319 223.705 166.846 223.705 166.846L208.136 169.162Z" fill="#453C9E"/>
<path d="M203.718 232.741C203.718 233.267 203.403 234.109 201.719 234.636C199.931 235.267 195.513 232.636 192.673 230.53C194.145 231.688 201.193 236.846 203.508 236.109C204.034 235.899 204.349 235.688 204.665 235.583C204.244 234.32 203.929 233.372 203.718 232.741Z" fill="url(#paint61_linear)"/>
<path d="M234.856 239.267C233.173 243.162 225.283 243.162 215.5 243.267C213.08 243.267 211.082 242.635 209.504 241.478C211.187 243.057 213.501 244.32 216.657 244.214C225.914 244.109 233.383 244.109 234.961 240.425C235.487 239.162 235.592 236.741 235.487 233.688C235.382 236.214 235.277 238.214 234.856 239.267Z" fill="url(#paint62_linear)"/>
<path d="M225.178 166.741C225.178 166.741 227.492 169.583 224.126 173.477C222.022 175.899 218.445 180.951 215.395 186.214C213.501 189.478 211.713 191.267 210.766 194.109C210.766 194.109 210.661 190.741 210.451 185.478C210.345 180.53 210.24 175.477 210.451 174.109C210.977 171.477 222.548 165.372 225.178 166.741Z" fill="#F0F6FF"/>
<path d="M216.341 175.267C216.341 175.267 215.184 176.004 214.764 176.004C214.343 175.898 212.975 174.635 212.975 174.635C212.975 174.635 209.609 174.53 209.293 173.162C208.978 171.793 208.662 170.32 208.347 169.583C208.031 168.846 206.558 165.267 206.558 163.793C206.558 162.32 206.558 159.793 205.927 158.425C205.296 157.056 204.454 143.372 217.709 143.688C230.964 144.109 226.861 157.793 226.861 157.793C226.861 157.793 227.808 158.214 227.282 160.004C226.651 161.793 226.545 162.004 226.23 162.846C225.914 163.688 225.809 164.32 224.967 164.951L224.757 166.635C224.757 166.635 225.388 169.162 223.705 171.583C222.022 173.898 216.341 175.267 216.341 175.267Z" fill="#FCD1C5"/>
<path d="M199.195 171.267C199.195 171.267 197.827 171.477 193.199 183.056C190.674 189.478 186.677 196.109 185.835 200.951C184.993 205.688 185.414 210.846 186.361 211.162C187.308 211.478 203.718 217.688 208.873 219.583C209.188 219.688 209.504 219.478 209.504 219.162L210.977 211.162L200.773 207.162C200.773 207.162 198.774 204.741 196.986 203.899C196.986 203.899 198.984 200.109 198.879 199.057C198.774 198.004 199.09 187.372 197.827 183.056C196.775 178.846 199.195 171.267 199.195 171.267Z" fill="#24126A"/>
<path d="M205.191 201.793C205.191 201.793 203.823 200.846 203.402 200.741C203.087 200.635 201.193 200.004 200.773 199.793C200.457 199.688 199.405 199.793 198.879 199.793C198.669 199.793 198.458 199.899 198.458 200.109C198.038 200.951 196.775 203.267 196.986 204.109C196.986 204.109 200.352 206.214 200.773 207.267L201.299 207.372C201.299 207.372 203.613 202.425 205.191 201.793Z" fill="#FCD1C5"/>
<path d="M232.857 214.951C232.436 213.478 231.91 211.583 231.384 209.688L210.661 218.53C210.661 218.53 216.867 226.109 227.702 225.688C230.648 225.583 232.857 224.53 234.435 223.583C233.909 220.109 233.383 216.951 232.857 214.951Z" fill="#24126A"/>
<path d="M240.852 181.372C240.852 181.372 235.382 182.109 230.964 189.162C226.545 196.109 223.389 204.214 223.389 204.214L223.284 205.162C222.864 207.583 220.339 208.951 218.13 207.899C213.501 205.793 206.558 202.635 205.296 201.688C205.296 201.688 201.193 204.004 200.036 209.372C199.09 213.688 199.405 213.688 199.405 213.688C199.405 213.688 217.814 222.32 224.862 222.214C231.91 222.109 240.957 198.741 241.904 194.004C242.851 189.162 244.008 182.741 240.852 181.372Z" fill="#24126A"/>
<path d="M240.852 181.372C240.852 181.372 235.382 182.109 230.964 189.162C226.545 196.109 223.389 204.214 223.389 204.214L223.284 205.162C222.864 207.583 220.339 208.951 218.13 207.899C213.501 205.793 206.558 202.635 205.296 201.688C205.296 201.688 201.193 204.004 200.036 209.372C199.09 213.688 199.405 213.688 199.405 213.688C199.405 213.688 217.814 222.32 224.862 222.214C231.91 222.109 240.957 198.741 241.904 194.004C242.851 189.162 244.008 182.741 240.852 181.372Z" fill="#4846A5"/>
<path d="M220.654 209.056C220.654 209.056 222.969 211.267 224.021 210.004C225.073 208.846 224.757 208.635 224.757 208.635C224.757 208.635 226.861 208.635 227.071 207.267C227.282 206.004 228.334 206.635 228.439 205.162C228.544 203.688 226.756 204.004 226.756 204.004L220.654 209.056Z" fill="#453C9E"/>
<path d="M217.919 207.793C217.919 207.793 218.55 207.162 219.392 206.53C220.234 205.793 221.496 202.951 221.812 202.741C222.022 202.53 224.757 200.32 226.124 200.32C227.492 200.32 226.44 201.793 226.124 202.004C225.809 202.214 224.547 202.846 224.547 202.846C224.547 202.846 223.179 204.004 223.074 204.109C222.969 204.32 226.756 203.793 227.387 204.214C228.018 204.635 227.913 205.583 227.387 205.899C226.966 206.214 226.65 206.109 226.65 206.109C226.65 206.109 227.071 207.267 225.914 207.793C224.757 208.32 224.441 208.004 224.441 208.004C224.441 208.004 224.336 210.004 222.443 209.583L217.919 207.793Z" fill="#FCD1C5"/>
<path d="M205.717 151.267C205.717 151.267 204.034 156.741 208.557 155.162C213.08 153.583 217.183 150.951 218.656 152.004C219.708 152.741 219.708 155.056 219.602 156.214C219.602 156.53 219.708 156.951 219.918 157.267L221.285 159.267C221.391 159.477 221.496 159.793 221.496 160.004L221.601 161.372C221.601 161.688 221.917 162.004 222.232 162.004H222.548C222.863 162.004 223.179 161.793 223.284 161.477L223.6 159.477C223.6 159.477 224.652 156.741 226.966 157.793C226.966 157.793 228.439 155.793 228.018 151.372C227.492 147.056 225.598 142.53 217.078 141.793C208.346 141.056 205.717 151.267 205.717 151.267Z" fill="#AA8383"/>
<path d="M218.761 180.109L217.499 179.162C217.499 179.162 216.341 180.109 215.815 181.162C215.395 182.214 215.815 185.478 215.815 185.478L215.395 186.109L214.869 185.267L214.448 181.372C214.448 181.372 214.869 178.53 214.974 178.425C214.974 178.32 217.393 178.635 217.393 178.635C217.393 178.635 218.34 179.372 218.761 180.109Z" fill="#C4CCD6"/>
<path d="M212.554 176.214C212.554 176.214 211.187 176.32 210.556 176.846C210.556 176.846 212.028 176.951 212.239 176.951C212.449 176.951 212.554 176.214 212.554 176.214Z" fill="#C4CCD6"/>
<path d="M215.184 176.53L217.499 178.635C217.499 178.635 215.5 179.583 214.974 181.372C214.974 181.372 212.449 181.793 212.239 180.951C212.029 180.004 212.239 177.793 211.923 176.741C211.608 175.793 215.184 176.53 215.184 176.53Z" fill="#24126A"/>
<path d="M212.239 180.951C212.239 180.951 211.818 182.846 211.397 183.583C210.977 184.32 210.451 185.267 210.451 185.267L210.556 196.214C210.556 196.214 214.553 187.899 215.5 186.214C215.5 186.214 215.395 182.214 214.974 181.478C214.553 180.635 212.239 180.951 212.239 180.951Z" fill="#24126A"/>
<path d="M223.074 164.635C220.444 172.32 212.975 174.53 212.975 174.53C212.975 174.53 214.343 175.793 214.764 175.899C215.184 176.004 216.341 175.162 216.341 175.162C216.341 175.162 222.022 173.793 223.705 171.372C225.388 168.951 224.757 166.425 224.757 166.425L224.967 164.741C223.81 165.267 223.074 164.635 223.074 164.635Z" fill="#E2B1A6"/>
<path d="M229.175 173.688C229.175 173.688 228.123 177.267 228.018 177.477C227.913 177.583 225.388 177.372 225.388 177.372L226.65 179.688C226.65 179.688 214.027 193.162 211.502 200.425C211.502 200.425 217.499 191.267 227.913 180.214L226.44 178.004L228.965 178.53L229.175 173.688Z" fill="#24126A"/>
<path d="M208.557 170.425L207.926 171.162L208.662 171.899L206.348 174.004C206.348 174.004 205.611 188.741 208.452 198.53C208.452 198.53 204.56 189.583 205.506 173.583L208.031 171.899L207.189 171.056L208.557 170.425Z" fill="#24126A"/>
<path d="M216.447 251.899L213.291 248.53C214.764 250.636 213.08 260.32 212.87 262.636C212.66 264.846 214.658 269.478 215.29 274.846C216.026 280.215 214.553 287.899 214.553 287.899C215.5 287.372 216.236 286.425 216.552 285.057C217.709 280.004 217.288 270.636 216.026 266.741C214.764 262.741 216.447 251.899 216.447 251.899Z" fill="#160A5B"/>
<path d="M224.757 222.214C231.805 222.109 240.852 198.741 241.798 194.004C242.009 193.162 242.114 192.32 242.324 191.478C242.324 191.583 240.431 196.635 238.643 201.057C236.854 205.583 227.387 219.162 222.548 220.109C218.13 220.951 202.456 213.583 199.405 212.109C199.089 213.793 199.195 213.793 199.195 213.793C199.195 213.793 217.709 222.32 224.757 222.214Z" fill="url(#paint63_linear)"/>
<path d="M222.443 162.004C222.758 162.004 223.074 161.793 223.179 161.477L223.495 159.477C223.495 159.477 224.547 156.741 226.861 157.793C226.861 157.793 228.334 155.898 227.913 151.793C225.388 155.583 219.813 157.372 219.813 157.372L221.18 159.372C221.286 159.583 221.391 159.898 221.391 160.109L221.496 161.477C221.496 161.793 221.812 162.109 222.127 162.109L222.443 162.004Z" fill="#936D6D"/>
<defs>
<linearGradient id="paint0_linear" x1="305" y1="170" x2="55" y2="343" gradientUnits="userSpaceOnUse">
<stop stop-color="#3F21D3"/>
<stop offset="1" stop-color="#24126A"/>
</linearGradient>
<linearGradient id="paint1_linear" x1="94.0055" y1="232.802" x2="273.111" y2="232.802" gradientUnits="userSpaceOnUse">
<stop stop-color="#5761D7"/>
<stop offset="0.0725764" stop-color="#5472D8"/>
<stop offset="0.2791" stop-color="#4E9CDB"/>
<stop offset="0.4801" stop-color="#49BDDD"/>
<stop offset="0.6715" stop-color="#45D5DF"/>
<stop offset="0.8493" stop-color="#43E3E0"/>
<stop offset="1" stop-color="#42E8E0"/>
</linearGradient>
<linearGradient id="paint2_linear" x1="231.862" y1="262.879" x2="231.862" y2="55.6617" gradientUnits="userSpaceOnUse">
<stop stop-color="#C0BFF6"/>
<stop offset="0.2938" stop-color="#C5C4F7"/>
<stop offset="0.6399" stop-color="#D3D2F9"/>
<stop offset="1" stop-color="#E9E9FD"/>
</linearGradient>
<linearGradient id="paint3_linear" x1="120.403" y1="43.4337" x2="216.183" y2="43.4337" gradientUnits="userSpaceOnUse">
<stop/>
<stop offset="0.0469354" stop-color="#2F2F2F"/>
<stop offset="0.0981487" stop-color="#5A5A5A"/>
<stop offset="0.155" stop-color="#828282"/>
<stop offset="0.2161" stop-color="#A4A4A4"/>
<stop offset="0.2828" stop-color="#C0C0C0"/>
<stop offset="0.3571" stop-color="#D7D7D7"/>
<stop offset="0.442" stop-color="#E9E9E9"/>
<stop offset="0.5443" stop-color="#F6F6F6"/>
<stop offset="0.6813" stop-color="#FDFDFD"/>
<stop offset="1" stop-color="white"/>
</linearGradient>
<linearGradient id="paint4_linear" x1="120.403" y1="43.4337" x2="216.183" y2="43.4337" gradientUnits="userSpaceOnUse">
<stop stop-color="#7D7DE3"/>
<stop offset="0.0373936" stop-color="#9FA3EA"/>
<stop offset="0.1056" stop-color="#7F86E3"/>
<stop offset="0.1817" stop-color="#5A62E0"/>
<stop offset="0.2663" stop-color="#343EC4"/>
<stop offset="0.3632" stop-color="#3B44B9"/>
<stop offset="0.4798" stop-color="#3E48B0"/>
<stop offset="0.6363" stop-color="#252EA1"/>
<stop offset="1" stop-color="#161D76"/>
</linearGradient>
<linearGradient id="paint5_linear" x1="116.177" y1="45.0498" x2="244.387" y2="45.0498" gradientUnits="userSpaceOnUse">
<stop stop-color="#5761D7"/>
<stop offset="0.1779" stop-color="#5C66D9"/>
<stop offset="0.3876" stop-color="#6A73DF"/>
<stop offset="0.6134" stop-color="#8289E8"/>
<stop offset="0.849" stop-color="#A3A7F5"/>
<stop offset="1" stop-color="#BCBEFF"/>
</linearGradient>
<linearGradient id="paint6_linear" x1="201.292" y1="67.9601" x2="250.94" y2="67.9601" gradientUnits="userSpaceOnUse">
<stop stop-color="#C0BFF6"/>
<stop offset="0.2938" stop-color="#C5C4F7"/>
<stop offset="0.6399" stop-color="#D3D2F9"/>
<stop offset="1" stop-color="#E9E9FD"/>
</linearGradient>
<linearGradient id="paint7_linear" x1="116.177" y1="41.6971" x2="250.94" y2="41.6971" gradientUnits="userSpaceOnUse">
<stop stop-color="#C0BFF6"/>
<stop offset="0.2938" stop-color="#C5C4F7"/>
<stop offset="0.6399" stop-color="#D3D2F9"/>
<stop offset="1" stop-color="#E9E9FD"/>
</linearGradient>
<linearGradient id="paint8_linear" x1="145.72" y1="22.8959" x2="161.576" y2="22.8959" gradientUnits="userSpaceOnUse">
<stop stop-color="#5761D7"/>
<stop offset="0.1779" stop-color="#5C66D9"/>
<stop offset="0.3876" stop-color="#6A73DF"/>
<stop offset="0.6134" stop-color="#8289E8"/>
<stop offset="0.849" stop-color="#A3A7F5"/>
<stop offset="1" stop-color="#BCBEFF"/>
</linearGradient>
<linearGradient id="paint9_linear" x1="149.836" y1="25.2664" x2="165.692" y2="25.2664" gradientUnits="userSpaceOnUse">
<stop stop-color="#5761D7"/>
<stop offset="0.1779" stop-color="#5C66D9"/>
<stop offset="0.3876" stop-color="#6A73DF"/>
<stop offset="0.6134" stop-color="#8289E8"/>
<stop offset="0.849" stop-color="#A3A7F5"/>
<stop offset="1" stop-color="#BCBEFF"/>
</linearGradient>
<linearGradient id="paint10_linear" x1="153.951" y1="27.6369" x2="169.808" y2="27.6369" gradientUnits="userSpaceOnUse">
<stop stop-color="#5761D7"/>
<stop offset="0.1779" stop-color="#5C66D9"/>
<stop offset="0.3876" stop-color="#6A73DF"/>
<stop offset="0.6134" stop-color="#8289E8"/>
<stop offset="0.849" stop-color="#A3A7F5"/>
<stop offset="1" stop-color="#BCBEFF"/>
</linearGradient>
<linearGradient id="paint11_linear" x1="158.067" y1="30.0073" x2="173.924" y2="30.0073" gradientUnits="userSpaceOnUse">
<stop stop-color="#5761D7"/>
<stop offset="0.1779" stop-color="#5C66D9"/>
<stop offset="0.3876" stop-color="#6A73DF"/>
<stop offset="0.6134" stop-color="#8289E8"/>
<stop offset="0.849" stop-color="#A3A7F5"/>
<stop offset="1" stop-color="#BCBEFF"/>
</linearGradient>
<linearGradient id="paint12_linear" x1="170.104" y1="37.0052" x2="185.961" y2="37.0052" gradientUnits="userSpaceOnUse">
<stop stop-color="#5761D7"/>
<stop offset="0.1779" stop-color="#5C66D9"/>
<stop offset="0.3876" stop-color="#6A73DF"/>
<stop offset="0.6134" stop-color="#8289E8"/>
<stop offset="0.849" stop-color="#A3A7F5"/>
<stop offset="1" stop-color="#BCBEFF"/>
</linearGradient>
<linearGradient id="paint13_linear" x1="174.22" y1="39.3757" x2="190.076" y2="39.3757" gradientUnits="userSpaceOnUse">
<stop stop-color="#5761D7"/>
<stop offset="0.1779" stop-color="#5C66D9"/>
<stop offset="0.3876" stop-color="#6A73DF"/>
<stop offset="0.6134" stop-color="#8289E8"/>
<stop offset="0.849" stop-color="#A3A7F5"/>
<stop offset="1" stop-color="#BCBEFF"/>
</linearGradient>
<linearGradient id="paint14_linear" x1="178.336" y1="41.7462" x2="194.192" y2="41.7462" gradientUnits="userSpaceOnUse">
<stop stop-color="#5761D7"/>
<stop offset="0.1779" stop-color="#5C66D9"/>
<stop offset="0.3876" stop-color="#6A73DF"/>
<stop offset="0.6134" stop-color="#8289E8"/>
<stop offset="0.849" stop-color="#A3A7F5"/>
<stop offset="1" stop-color="#BCBEFF"/>
</linearGradient>
<linearGradient id="paint15_linear" x1="182.452" y1="44.1168" x2="198.308" y2="44.1168" gradientUnits="userSpaceOnUse">
<stop stop-color="#5761D7"/>
<stop offset="0.1779" stop-color="#5C66D9"/>
<stop offset="0.3876" stop-color="#6A73DF"/>
<stop offset="0.6134" stop-color="#8289E8"/>
<stop offset="0.849" stop-color="#A3A7F5"/>
<stop offset="1" stop-color="#BCBEFF"/>
</linearGradient>
<linearGradient id="paint16_linear" x1="194.488" y1="51.1146" x2="210.345" y2="51.1146" gradientUnits="userSpaceOnUse">
<stop stop-color="#5761D7"/>
<stop offset="0.1779" stop-color="#5C66D9"/>
<stop offset="0.3876" stop-color="#6A73DF"/>
<stop offset="0.6134" stop-color="#8289E8"/>
<stop offset="0.849" stop-color="#A3A7F5"/>
<stop offset="1" stop-color="#BCBEFF"/>
</linearGradient>
<linearGradient id="paint17_linear" x1="198.604" y1="53.485" x2="214.461" y2="53.485" gradientUnits="userSpaceOnUse">
<stop stop-color="#5761D7"/>
<stop offset="0.1779" stop-color="#5C66D9"/>
<stop offset="0.3876" stop-color="#6A73DF"/>
<stop offset="0.6134" stop-color="#8289E8"/>
<stop offset="0.849" stop-color="#A3A7F5"/>
<stop offset="1" stop-color="#BCBEFF"/>
</linearGradient>
<linearGradient id="paint18_linear" x1="202.72" y1="55.8554" x2="218.577" y2="55.8554" gradientUnits="userSpaceOnUse">
<stop stop-color="#5761D7"/>
<stop offset="0.1779" stop-color="#5C66D9"/>
<stop offset="0.3876" stop-color="#6A73DF"/>
<stop offset="0.6134" stop-color="#8289E8"/>
<stop offset="0.849" stop-color="#A3A7F5"/>
<stop offset="1" stop-color="#BCBEFF"/>
</linearGradient>
<linearGradient id="paint19_linear" x1="206.836" y1="58.2258" x2="222.693" y2="58.2258" gradientUnits="userSpaceOnUse">
<stop stop-color="#5761D7"/>
<stop offset="0.1779" stop-color="#5C66D9"/>
<stop offset="0.3876" stop-color="#6A73DF"/>
<stop offset="0.6134" stop-color="#8289E8"/>
<stop offset="0.849" stop-color="#A3A7F5"/>
<stop offset="1" stop-color="#BCBEFF"/>
</linearGradient>
<linearGradient id="paint20_linear" x1="252.048" y1="170.753" x2="218.454" y2="145.816" gradientUnits="userSpaceOnUse">
<stop stop-color="#5761D7"/>
<stop offset="0.1779" stop-color="#5C66D9"/>
<stop offset="0.3876" stop-color="#6A73DF"/>
<stop offset="0.6134" stop-color="#8289E8"/>
<stop offset="0.849" stop-color="#A3A7F5"/>
<stop offset="1" stop-color="#BCBEFF"/>
</linearGradient>
<linearGradient id="paint21_linear" x1="210.962" y1="193.968" x2="277.974" y2="193.968" gradientUnits="userSpaceOnUse">
<stop stop-color="#5761D7"/>
<stop offset="0.1779" stop-color="#5C66D9"/>
<stop offset="0.3876" stop-color="#6A73DF"/>
<stop offset="0.6134" stop-color="#8289E8"/>
<stop offset="0.849" stop-color="#A3A7F5"/>
<stop offset="1" stop-color="#BCBEFF"/>
</linearGradient>
<linearGradient id="paint22_linear" x1="233.478" y1="191.733" x2="300.526" y2="191.733" gradientUnits="userSpaceOnUse">
<stop stop-color="#C0BFF6"/>
<stop offset="0.2938" stop-color="#C5C4F7"/>
<stop offset="0.6399" stop-color="#D3D2F9"/>
<stop offset="1" stop-color="#E9E9FD"/>
</linearGradient>
<linearGradient id="paint23_linear" x1="244.832" y1="195.541" x2="261.995" y2="195.541" gradientUnits="userSpaceOnUse">
<stop stop-color="#C0BFF6"/>
<stop offset="0.2938" stop-color="#C5C4F7"/>
<stop offset="0.6399" stop-color="#D3D2F9"/>
<stop offset="1" stop-color="#E9E9FD"/>
</linearGradient>
<linearGradient id="paint24_linear" x1="208.135" y1="176.816" x2="274.865" y2="176.816" gradientUnits="userSpaceOnUse">
<stop stop-color="#C0BFF6"/>
<stop offset="0.2938" stop-color="#C5C4F7"/>
<stop offset="0.6399" stop-color="#D3D2F9"/>
<stop offset="1" stop-color="#E9E9FD"/>
</linearGradient>
<linearGradient id="paint25_linear" x1="203.743" y1="171.914" x2="220.824" y2="171.914" gradientUnits="userSpaceOnUse">
<stop stop-color="#C0BFF6"/>
<stop offset="0.2938" stop-color="#C5C4F7"/>
<stop offset="0.6399" stop-color="#D3D2F9"/>
<stop offset="1" stop-color="#E9E9FD"/>
</linearGradient>
<linearGradient id="paint26_linear" x1="191.414" y1="91.7476" x2="195.474" y2="91.7476" gradientUnits="userSpaceOnUse">
<stop stop-color="#C0BFF6"/>
<stop offset="0.2938" stop-color="#C5C4F7"/>
<stop offset="0.6399" stop-color="#D3D2F9"/>
<stop offset="1" stop-color="#E9E9FD"/>
</linearGradient>
<linearGradient id="paint27_linear" x1="190.919" y1="92.1618" x2="194.277" y2="92.1618" gradientUnits="userSpaceOnUse">
<stop stop-color="#5761D7"/>
<stop offset="0.1779" stop-color="#5C66D9"/>
<stop offset="0.3876" stop-color="#6A73DF"/>
<stop offset="0.6134" stop-color="#8289E8"/>
<stop offset="0.849" stop-color="#A3A7F5"/>
<stop offset="1" stop-color="#BCBEFF"/>
</linearGradient>
<linearGradient id="paint28_linear" x1="108.387" y1="44.0529" x2="112.447" y2="44.0529" gradientUnits="userSpaceOnUse">
<stop stop-color="#C0BFF6"/>
<stop offset="0.2938" stop-color="#C5C4F7"/>
<stop offset="0.6399" stop-color="#D3D2F9"/>
<stop offset="1" stop-color="#E9E9FD"/>
</linearGradient>
<linearGradient id="paint29_linear" x1="107.893" y1="44.467" x2="111.25" y2="44.467" gradientUnits="userSpaceOnUse">
<stop stop-color="#5761D7"/>
<stop offset="0.1779" stop-color="#5C66D9"/>
<stop offset="0.3876" stop-color="#6A73DF"/>
<stop offset="0.6134" stop-color="#8289E8"/>
<stop offset="0.849" stop-color="#A3A7F5"/>
<stop offset="1" stop-color="#BCBEFF"/>
</linearGradient>
<linearGradient id="paint30_linear" x1="191.413" y1="253.275" x2="195.474" y2="253.275" gradientUnits="userSpaceOnUse">
<stop stop-color="#C0BFF6"/>
<stop offset="0.2938" stop-color="#C5C4F7"/>
<stop offset="0.6399" stop-color="#D3D2F9"/>
<stop offset="1" stop-color="#E9E9FD"/>
</linearGradient>
<linearGradient id="paint31_linear" x1="190.919" y1="253.743" x2="194.277" y2="253.743" gradientUnits="userSpaceOnUse">
<stop stop-color="#5761D7"/>
<stop offset="0.1779" stop-color="#5C66D9"/>
<stop offset="0.3876" stop-color="#6A73DF"/>
<stop offset="0.6134" stop-color="#8289E8"/>
<stop offset="0.849" stop-color="#A3A7F5"/>
<stop offset="1" stop-color="#BCBEFF"/>
</linearGradient>
<linearGradient id="paint32_linear" x1="191.415" y1="253.62" x2="195.475" y2="253.62" gradientUnits="userSpaceOnUse">
<stop stop-color="#C0BFF6"/>
<stop offset="0.2938" stop-color="#C5C4F7"/>
<stop offset="0.6399" stop-color="#D3D2F9"/>
<stop offset="1" stop-color="#E9E9FD"/>
</linearGradient>
<linearGradient id="paint33_linear" x1="190.919" y1="253.62" x2="194.277" y2="253.62" gradientUnits="userSpaceOnUse">
<stop stop-color="#5761D7"/>
<stop offset="0.1779" stop-color="#5C66D9"/>
<stop offset="0.3876" stop-color="#6A73DF"/>
<stop offset="0.6134" stop-color="#8289E8"/>
<stop offset="0.849" stop-color="#A3A7F5"/>
<stop offset="1" stop-color="#BCBEFF"/>
</linearGradient>
<linearGradient id="paint34_linear" x1="108.387" y1="205.58" x2="112.447" y2="205.58" gradientUnits="userSpaceOnUse">
<stop stop-color="#C0BFF6"/>
<stop offset="0.2938" stop-color="#C5C4F7"/>
<stop offset="0.6399" stop-color="#D3D2F9"/>
<stop offset="1" stop-color="#E9E9FD"/>
</linearGradient>
<linearGradient id="paint35_linear" x1="107.893" y1="206.048" x2="111.251" y2="206.048" gradientUnits="userSpaceOnUse">
<stop stop-color="#5761D7"/>
<stop offset="0.1779" stop-color="#5C66D9"/>
<stop offset="0.3876" stop-color="#6A73DF"/>
<stop offset="0.6134" stop-color="#8289E8"/>
<stop offset="0.849" stop-color="#A3A7F5"/>
<stop offset="1" stop-color="#BCBEFF"/>
</linearGradient>
<linearGradient id="paint36_linear" x1="108.388" y1="205.926" x2="112.448" y2="205.926" gradientUnits="userSpaceOnUse">
<stop stop-color="#C0BFF6"/>
<stop offset="0.2938" stop-color="#C5C4F7"/>
<stop offset="0.6399" stop-color="#D3D2F9"/>
<stop offset="1" stop-color="#E9E9FD"/>
</linearGradient>
<linearGradient id="paint37_linear" x1="107.893" y1="205.926" x2="111.251" y2="205.926" gradientUnits="userSpaceOnUse">
<stop stop-color="#5761D7"/>
<stop offset="0.1779" stop-color="#5C66D9"/>
<stop offset="0.3876" stop-color="#6A73DF"/>
<stop offset="0.6134" stop-color="#8289E8"/>
<stop offset="0.849" stop-color="#A3A7F5"/>
<stop offset="1" stop-color="#BCBEFF"/>
</linearGradient>
<linearGradient id="paint38_linear" x1="168.005" y1="192.381" x2="163.757" y2="199.733" gradientUnits="userSpaceOnUse">
<stop stop-color="#5761D7"/>
<stop offset="0.1645" stop-color="#5E67DA"/>
<stop offset="0.4051" stop-color="#727AE2"/>
<stop offset="0.6924" stop-color="#9297EE"/>
<stop offset="1" stop-color="#BCBEFF"/>
</linearGradient>
<linearGradient id="paint39_linear" x1="168.006" y1="204.044" x2="163.757" y2="211.397" gradientUnits="userSpaceOnUse">
<stop stop-color="#5761D7"/>
<stop offset="0.1645" stop-color="#5E67DA"/>
<stop offset="0.4051" stop-color="#727AE2"/>
<stop offset="0.6924" stop-color="#9297EE"/>
<stop offset="1" stop-color="#BCBEFF"/>
</linearGradient>
<linearGradient id="paint40_linear" x1="168.006" y1="215.913" x2="163.757" y2="223.266" gradientUnits="userSpaceOnUse">
<stop stop-color="#5761D7"/>
<stop offset="0.1645" stop-color="#5E67DA"/>
<stop offset="0.4051" stop-color="#727AE2"/>
<stop offset="0.6924" stop-color="#9297EE"/>
<stop offset="1" stop-color="#BCBEFF"/>
</linearGradient>
<linearGradient id="paint41_linear" x1="185.851" y1="203.979" x2="153.049" y2="203.979" gradientUnits="userSpaceOnUse">
<stop stop-color="#5761D7"/>
<stop offset="0.1645" stop-color="#5E67DA"/>
<stop offset="0.4051" stop-color="#727AE2"/>
<stop offset="0.6924" stop-color="#9297EE"/>
<stop offset="1" stop-color="#BCBEFF"/>
</linearGradient>
<linearGradient id="paint42_linear" x1="169.761" y1="193.533" x2="157.762" y2="193.533" gradientUnits="userSpaceOnUse">
<stop stop-color="#42E8E0"/>
<stop offset="0.1507" stop-color="#43E3E0"/>
<stop offset="0.3285" stop-color="#45D5DF"/>
<stop offset="0.5199" stop-color="#49BDDD"/>
<stop offset="0.7209" stop-color="#4E9CDB"/>
<stop offset="0.9274" stop-color="#5472D8"/>
<stop offset="1" stop-color="#5761D7"/>
</linearGradient>
<linearGradient id="paint43_linear" x1="169.761" y1="205.196" x2="157.762" y2="205.196" gradientUnits="userSpaceOnUse">
<stop stop-color="#42E8E0"/>
<stop offset="0.1507" stop-color="#43E3E0"/>
<stop offset="0.3285" stop-color="#45D5DF"/>
<stop offset="0.5199" stop-color="#49BDDD"/>
<stop offset="0.7209" stop-color="#4E9CDB"/>
<stop offset="0.9274" stop-color="#5472D8"/>
<stop offset="1" stop-color="#5761D7"/>
</linearGradient>
<linearGradient id="paint44_linear" x1="169.761" y1="217.065" x2="157.762" y2="217.065" gradientUnits="userSpaceOnUse">
<stop stop-color="#42E8E0"/>
<stop offset="0.1507" stop-color="#43E3E0"/>
<stop offset="0.3285" stop-color="#45D5DF"/>
<stop offset="0.5199" stop-color="#49BDDD"/>
<stop offset="0.7209" stop-color="#4E9CDB"/>
<stop offset="0.9274" stop-color="#5472D8"/>
<stop offset="1" stop-color="#5761D7"/>
</linearGradient>
<linearGradient id="paint45_linear" x1="206.84" y1="142.22" x2="129.273" y2="97.2819" gradientUnits="userSpaceOnUse">
<stop stop-color="#5761D7"/>
<stop offset="0.1645" stop-color="#5E67DA"/>
<stop offset="0.4051" stop-color="#727AE2"/>
<stop offset="0.6924" stop-color="#9297EE"/>
<stop offset="1" stop-color="#BCBEFF"/>
</linearGradient>
<linearGradient id="paint46_linear" x1="121.813" y1="102.331" x2="191.657" y2="153.435" gradientUnits="userSpaceOnUse">
<stop stop-color="#5761D7"/>
<stop offset="0.1645" stop-color="#5E67DA"/>
<stop offset="0.4051" stop-color="#727AE2"/>
<stop offset="0.6924" stop-color="#9297EE"/>
<stop offset="1" stop-color="#BCBEFF"/>
</linearGradient>
<linearGradient id="paint47_linear" x1="188.804" y1="123.763" x2="133.947" y2="123.763" gradientUnits="userSpaceOnUse">
<stop stop-color="#42E8E0"/>
<stop offset="0.1507" stop-color="#43E3E0"/>
<stop offset="0.3285" stop-color="#45D5DF"/>
<stop offset="0.5199" stop-color="#49BDDD"/>
<stop offset="0.7209" stop-color="#4E9CDB"/>
<stop offset="0.9274" stop-color="#5472D8"/>
<stop offset="1" stop-color="#5761D7"/>
</linearGradient>
<linearGradient id="paint48_linear" x1="191.19" y1="122.467" x2="136.333" y2="122.467" gradientUnits="userSpaceOnUse">
<stop stop-color="#42E8E0"/>
<stop offset="0.1507" stop-color="#43E3E0"/>
<stop offset="0.3285" stop-color="#45D5DF"/>
<stop offset="0.5199" stop-color="#49BDDD"/>
<stop offset="0.7209" stop-color="#4E9CDB"/>
<stop offset="0.9274" stop-color="#5472D8"/>
<stop offset="1" stop-color="#5761D7"/>
</linearGradient>
<linearGradient id="paint49_linear" x1="144.791" y1="210.14" x2="140.543" y2="217.493" gradientUnits="userSpaceOnUse">
<stop stop-color="#5761D7"/>
<stop offset="0.1645" stop-color="#5E67DA"/>
<stop offset="0.4051" stop-color="#727AE2"/>
<stop offset="0.6924" stop-color="#9297EE"/>
<stop offset="1" stop-color="#BCBEFF"/>
</linearGradient>
<linearGradient id="paint50_linear" x1="144.791" y1="221.803" x2="140.543" y2="229.157" gradientUnits="userSpaceOnUse">
<stop stop-color="#5761D7"/>
<stop offset="0.1645" stop-color="#5E67DA"/>
<stop offset="0.4051" stop-color="#727AE2"/>
<stop offset="0.6924" stop-color="#9297EE"/>
<stop offset="1" stop-color="#BCBEFF"/>
</linearGradient>
<linearGradient id="paint51_linear" x1="144.791" y1="233.672" x2="140.543" y2="241.025" gradientUnits="userSpaceOnUse">
<stop stop-color="#5761D7"/>
<stop offset="0.1645" stop-color="#5E67DA"/>
<stop offset="0.4051" stop-color="#727AE2"/>
<stop offset="0.6924" stop-color="#9297EE"/>
<stop offset="1" stop-color="#BCBEFF"/>
</linearGradient>
<linearGradient id="paint52_linear" x1="162.637" y1="221.739" x2="129.835" y2="221.739" gradientUnits="userSpaceOnUse">
<stop stop-color="#5761D7"/>
<stop offset="0.1645" stop-color="#5E67DA"/>
<stop offset="0.4051" stop-color="#727AE2"/>
<stop offset="0.6924" stop-color="#9297EE"/>
<stop offset="1" stop-color="#BCBEFF"/>
</linearGradient>
<linearGradient id="paint53_linear" x1="146.547" y1="211.292" x2="134.548" y2="211.292" gradientUnits="userSpaceOnUse">
<stop stop-color="#42E8E0"/>
<stop offset="0.1507" stop-color="#43E3E0"/>
<stop offset="0.3285" stop-color="#45D5DF"/>
<stop offset="0.5199" stop-color="#49BDDD"/>
<stop offset="0.7209" stop-color="#4E9CDB"/>
<stop offset="0.9274" stop-color="#5472D8"/>
<stop offset="1" stop-color="#5761D7"/>
</linearGradient>
<linearGradient id="paint54_linear" x1="146.547" y1="222.956" x2="134.548" y2="222.956" gradientUnits="userSpaceOnUse">
<stop stop-color="#42E8E0"/>
<stop offset="0.1507" stop-color="#43E3E0"/>
<stop offset="0.3285" stop-color="#45D5DF"/>
<stop offset="0.5199" stop-color="#49BDDD"/>
<stop offset="0.7209" stop-color="#4E9CDB"/>
<stop offset="0.9274" stop-color="#5472D8"/>
<stop offset="1" stop-color="#5761D7"/>
</linearGradient>
<linearGradient id="paint55_linear" x1="146.547" y1="234.824" x2="134.548" y2="234.824" gradientUnits="userSpaceOnUse">
<stop stop-color="#42E8E0"/>
<stop offset="0.1507" stop-color="#43E3E0"/>
<stop offset="0.3285" stop-color="#45D5DF"/>
<stop offset="0.5199" stop-color="#49BDDD"/>
<stop offset="0.7209" stop-color="#4E9CDB"/>
<stop offset="0.9274" stop-color="#5472D8"/>
<stop offset="1" stop-color="#5761D7"/>
</linearGradient>
<linearGradient id="paint56_linear" x1="183.625" y1="159.979" x2="106.058" y2="115.041" gradientUnits="userSpaceOnUse">
<stop stop-color="#5761D7"/>
<stop offset="0.1645" stop-color="#5E67DA"/>
<stop offset="0.4051" stop-color="#727AE2"/>
<stop offset="0.6924" stop-color="#9297EE"/>
<stop offset="1" stop-color="#BCBEFF"/>
</linearGradient>
<linearGradient id="paint57_linear" x1="98.5982" y1="120.091" x2="168.443" y2="171.194" gradientUnits="userSpaceOnUse">
<stop stop-color="#5761D7"/>
<stop offset="0.1645" stop-color="#5E67DA"/>
<stop offset="0.4051" stop-color="#727AE2"/>
<stop offset="0.6924" stop-color="#9297EE"/>
<stop offset="1" stop-color="#BCBEFF"/>
</linearGradient>
<linearGradient id="paint58_linear" x1="165.59" y1="141.522" x2="110.733" y2="141.522" gradientUnits="userSpaceOnUse">
<stop stop-color="#42E8E0"/>
<stop offset="0.1507" stop-color="#43E3E0"/>
<stop offset="0.3285" stop-color="#45D5DF"/>
<stop offset="0.5199" stop-color="#49BDDD"/>
<stop offset="0.7209" stop-color="#4E9CDB"/>
<stop offset="0.9274" stop-color="#5472D8"/>
<stop offset="1" stop-color="#5761D7"/>
</linearGradient>
<linearGradient id="paint59_linear" x1="167.976" y1="140.226" x2="113.118" y2="140.226" gradientUnits="userSpaceOnUse">
<stop stop-color="#42E8E0"/>
<stop offset="0.1507" stop-color="#43E3E0"/>
<stop offset="0.3285" stop-color="#45D5DF"/>
<stop offset="0.5199" stop-color="#49BDDD"/>
<stop offset="0.7209" stop-color="#4E9CDB"/>
<stop offset="0.9274" stop-color="#5472D8"/>
<stop offset="1" stop-color="#5761D7"/>
</linearGradient>
<linearGradient id="paint60_linear" x1="151.161" y1="140.226" x2="129.933" y2="140.226" gradientUnits="userSpaceOnUse">
<stop stop-color="#42E8E0"/>
<stop offset="1" stop-color="#42E8E0"/>
</linearGradient>
<linearGradient id="paint61_linear" x1="192.587" y1="233.094" x2="204.83" y2="233.804" gradientUnits="userSpaceOnUse">
<stop stop-color="#5761D7"/>
<stop offset="0.0725764" stop-color="#5472D8"/>
<stop offset="0.2791" stop-color="#4E9CDB"/>
<stop offset="0.4801" stop-color="#49BDDD"/>
<stop offset="0.6715" stop-color="#45D5DF"/>
<stop offset="0.8493" stop-color="#43E3E0"/>
<stop offset="1" stop-color="#42E8E0"/>
</linearGradient>
<linearGradient id="paint62_linear" x1="209.665" y1="238.071" x2="235.278" y2="239.555" gradientUnits="userSpaceOnUse">
<stop stop-color="#5761D7"/>
<stop offset="0.0725764" stop-color="#5472D8"/>
<stop offset="0.2791" stop-color="#4E9CDB"/>
<stop offset="0.4801" stop-color="#49BDDD"/>
<stop offset="0.6715" stop-color="#45D5DF"/>
<stop offset="0.8493" stop-color="#43E3E0"/>
<stop offset="1" stop-color="#42E8E0"/>
</linearGradient>
<linearGradient id="paint63_linear" x1="199.778" y1="204.891" x2="241.436" y2="207.305" gradientUnits="userSpaceOnUse">
<stop stop-color="#5761D7"/>
<stop offset="0.0725764" stop-color="#5472D8"/>
<stop offset="0.2791" stop-color="#4E9CDB"/>
<stop offset="0.4801" stop-color="#49BDDD"/>
<stop offset="0.6715" stop-color="#45D5DF"/>
<stop offset="0.8493" stop-color="#43E3E0"/>
<stop offset="1" stop-color="#42E8E0"/>
</linearGradient>
</defs>
</svg>
