<svg width="360" height="245" viewBox="0 0 360 245" fill="none" xmlns="http://www.w3.org/2000/svg">
<ellipse cx="180" cy="143.5" rx="180" ry="101.5" fill="url(#paint0_linear)"/>
<path opacity="0.5" d="M184.533 200C245.71 200 295.304 171.369 295.304 136.051C295.304 100.734 245.71 72.1029 184.533 72.1029C123.355 72.1029 73.7611 100.734 73.7611 136.051C73.7611 171.369 123.355 200 184.533 200Z" fill="url(#paint1_radial)"/>
<path opacity="0.502" d="M276.96 87.7532V65.0472C276.447 57.2862 273.368 49.91 268.237 43.1752V65.8811C273.368 72.6159 276.382 79.9921 276.96 87.7532ZM265.543 62.674V39.9681C263.747 37.9156 261.694 35.9272 259.513 34.0671V56.7731C261.758 58.6332 263.747 60.6215 265.543 62.674ZM255.857 53.7584V31.0525C253.484 29.2566 250.919 27.4606 248.16 25.8571V48.563C250.854 50.1665 253.42 51.8983 255.857 53.7584ZM243.029 52.2832V16.1077C263.939 27.2041 277.024 43.111 277.024 60.6857V96.8612C277.024 79.2866 263.939 63.3796 243.029 52.2832Z" fill="#42E8E0"/>
<path opacity="0.502" d="M204.737 34.9652V28.4228C203.133 28.1021 201.53 27.8456 199.862 27.589V34.1314C201.53 34.3238 203.133 34.6445 204.737 34.9652ZM196.014 26.9476V21.1749C194.346 20.9184 192.678 20.7259 191.011 20.5335V26.3062C192.678 26.5628 194.346 26.7552 196.014 26.9476ZM213.075 30.2188V22.3936C211.536 22.0087 209.997 21.6239 208.393 21.3032V29.1925C209.997 29.5133 211.6 29.8981 213.075 30.2188ZM186.97 25.9855V14.376C185.238 14.2477 183.57 14.1194 181.839 13.9911V25.6006C183.57 25.7289 185.302 25.7931 186.97 25.9855ZM168.305 25.3441V13.7346C166.573 13.7346 164.777 13.7987 163.045 13.8628V25.4724C164.777 25.4082 166.509 25.3441 168.305 25.3441ZM159.004 25.6648V11.0406C157.273 11.1689 155.605 11.2972 153.873 11.4255V26.0496C155.605 25.9213 157.273 25.7931 159.004 25.6648ZM177.734 25.4082V8.66742C176.194 8.60328 174.591 8.60328 172.987 8.53914C172.795 8.53914 172.602 8.53914 172.41 8.53914V25.2799C172.602 25.2799 172.795 25.2799 172.987 25.2799C174.591 25.3441 176.194 25.3441 177.734 25.4082ZM149.896 26.4986V5.58866C148.229 5.78108 146.561 5.9735 144.958 6.23007V27.14C146.625 26.9476 148.229 26.691 149.896 26.4986ZM134.31 3.79271C146.369 1.22707 159.389 -0.119895 172.987 0.00838742C191.139 0.20081 208.201 2.95887 222.953 7.76945V43.945C208.136 39.1985 191.139 36.3763 172.987 36.1839C159.389 36.0556 146.305 37.4026 134.31 39.9682V3.79271Z" fill="#42E8E0"/>
<path opacity="0.502" d="M72.799 52.8606V45.5485C70.6182 48.6914 68.8864 51.8984 67.6678 55.2338V76.7852C68.8864 73.4498 70.6182 70.1786 72.799 67.0999V59.7878C73.4404 58.8898 74.0818 57.9918 74.7874 57.0939V61.0065C76.1344 59.3388 77.5455 57.7353 79.149 56.1318V52.2192C85.9479 45.3561 95.0559 39.3268 105.832 34.5162V27.5249C103.907 28.3587 102.047 29.2567 100.251 30.2188C99.3534 30.6678 98.4554 31.1809 97.5574 31.6299C90.6302 35.4783 84.6651 39.8399 79.7263 44.6505C79.5338 44.8429 79.3414 45.0354 79.0849 45.2919V41.3793C77.4813 42.9829 76.0702 44.5864 74.7233 46.254V50.1666C74.0819 51.0646 73.4404 51.9626 72.799 52.8606ZM66.2567 52.604C70.3617 34.9652 87.6797 19.7638 112.182 10.3351V46.5106C87.6797 55.9393 70.3617 71.1407 66.2567 88.7795V52.604Z" fill="#42E8E0"/>
<path opacity="0.7529" d="M79.149 45.292C79.3414 45.0995 79.5338 44.9071 79.7904 44.6505V51.6419C83.4464 48.05 87.7439 44.7147 92.5544 41.6359C94.158 40.6097 95.8898 39.5834 97.6216 38.6213V31.6299C98.5195 31.1168 99.3534 30.6678 100.316 30.2188V37.2102C102.111 36.2481 103.972 35.3501 105.896 34.5163V27.5249V34.5804C95.1201 39.4551 86.0762 45.4202 79.2131 52.2833V45.292H79.149ZM72.799 52.8606C73.4404 51.9626 74.0818 51.0646 74.7874 50.1667V57.158C74.0818 58.056 73.4404 58.954 72.799 59.852V52.8606Z" fill="#42E8E0"/>
<path opacity="0.8784" d="M100.187 30.2188C101.983 29.2567 103.843 28.3587 105.768 27.5249V34.5804C103.843 35.4142 101.983 36.3122 100.187 37.2743V30.2188Z" fill="#42E8E0"/>
<path opacity="0.8784" d="M79.7263 44.6505C83.3823 41.0586 87.6797 37.7233 92.4903 34.6445V41.6359C87.6797 44.7147 83.3823 48.05 79.7263 51.6419V44.6505Z" fill="#42E8E0"/>
<path opacity="0.9725" d="M92.4904 34.7087C94.0939 33.6825 95.8257 32.6562 97.5575 31.6941V38.6855C95.8257 39.6476 94.0939 40.6738 92.4904 41.7001V34.7087Z" fill="#42E8E0"/>
<path opacity="0.7529" d="M67.6678 55.2337C68.8865 51.8984 70.6183 48.6272 72.7991 45.5485V52.8605C70.6183 56.0034 68.8865 59.2105 67.6678 62.5458V69.5372C68.8865 66.2019 70.6183 62.9307 72.7991 59.8519V67.164C70.6183 70.3069 68.8865 73.5139 67.6678 76.8493V55.2337Z" fill="#42E8E0"/>
<path opacity="0.8784" d="M67.6678 62.5459C68.8865 59.2106 70.6183 55.9394 72.7991 52.8606V59.852C70.6183 62.9949 68.8865 66.2019 67.6678 69.5373V62.5459Z" fill="#42E8E0"/>
<path opacity="0.7529" d="M74.7874 57.158C76.1344 55.4903 77.5455 53.8868 79.149 52.2832V56.1958C77.5455 57.7994 76.1344 59.4029 74.7874 61.0706V57.158ZM74.7874 46.254C76.1344 44.5863 77.5455 42.9828 79.149 41.3793V45.2919C77.5455 46.8954 76.1344 48.4989 74.7874 50.1666V46.254Z" fill="#42E8E0"/>
<path opacity="0.8784" d="M74.7874 50.1666C76.1344 48.4989 77.5455 46.8954 79.149 45.2919V52.2832C77.5455 53.8868 76.1344 55.4903 74.7874 57.158V50.1666Z" fill="#42E8E0"/>
<path opacity="0.7529" d="M268.172 43.1753C273.304 49.9101 276.383 57.2863 276.896 65.0474V87.7533C276.383 79.9922 273.304 72.616 268.172 65.8812V43.1753Z" fill="#42E8E0"/>
<path d="M259.578 34.0032C261.758 35.9274 263.811 37.9158 265.607 39.9041V62.61C263.811 60.5575 261.758 58.5692 259.578 56.7091V34.0032Z" fill="#42E8E0"/>
<path opacity="0.7529" d="M248.161 25.7931C250.854 27.4608 253.42 29.1926 255.857 30.9885V53.6944C253.484 51.8985 250.919 50.1025 248.161 48.499V25.7931Z" fill="#42E8E0"/>
<path opacity="0.7529" d="M208.457 21.3032C209.997 21.6239 211.6 22.0088 213.139 22.3936V30.283C211.6 29.8981 210.061 29.5133 208.457 29.1926V21.3032Z" fill="#42E8E0"/>
<path opacity="0.7529" d="M199.862 27.5249C201.466 27.7815 203.134 28.1022 204.737 28.3587V34.9011C203.134 34.5804 201.53 34.3238 199.862 34.0673V27.5249Z" fill="#42E8E0"/>
<path opacity="0.7529" d="M191.011 20.5977C192.679 20.7901 194.346 20.9825 196.014 21.2391V27.0118C194.346 26.7552 192.679 26.5628 191.011 26.3703V20.5977Z" fill="#42E8E0"/>
<path opacity="0.7529" d="M181.839 13.9911C183.571 14.1194 185.302 14.1835 186.97 14.3759V25.9855C185.238 25.8572 183.571 25.7289 181.839 25.6006V13.9911Z" fill="#42E8E0"/>
<path opacity="0.7529" d="M172.474 8.53918C172.667 8.53918 172.859 8.53918 173.051 8.53918C174.655 8.53918 176.194 8.60332 177.798 8.66746V25.4083C176.258 25.3441 174.655 25.3441 173.051 25.28C172.859 25.28 172.667 25.28 172.474 25.28V8.53918Z" fill="#42E8E0"/>
<path d="M163.045 13.8628C164.777 13.7986 166.509 13.7345 168.305 13.7345V25.344C166.573 25.344 164.777 25.4082 163.045 25.4723V13.8628Z" fill="#42E8E0"/>
<path opacity="0.7529" d="M153.873 11.4897C155.541 11.3614 157.273 11.169 159.004 11.1049V25.729C157.273 25.8573 155.605 25.9856 153.873 26.1139V11.4897Z" fill="#42E8E0"/>
<path d="M144.958 6.23003C146.625 5.97347 148.229 5.78105 149.896 5.58862V26.4986C148.229 26.691 146.561 26.8834 144.958 27.14V6.23003Z" fill="#42E8E0"/>
<path d="M205.956 163.953C205.956 165.749 204.48 167.224 202.684 167.224C200.888 167.224 199.413 165.749 199.413 163.953C199.413 162.157 200.888 160.682 202.684 160.682C204.48 160.682 205.956 162.157 205.956 163.953Z" fill="#24126A"/>
<path d="M237.962 127.649C237.962 129.445 236.487 130.92 234.691 130.92C232.895 130.92 231.42 129.445 231.42 127.649C231.42 125.853 232.895 124.378 234.691 124.378C236.551 124.378 237.962 125.853 237.962 127.649Z" fill="#24126A"/>
<path d="M241.746 155.679C243.553 155.679 245.018 154.214 245.018 152.407C245.018 150.601 243.553 149.136 241.746 149.136C239.94 149.136 238.475 150.601 238.475 152.407C238.475 154.214 239.94 155.679 241.746 155.679Z" fill="#24126A"/>
<path d="M174.719 146.314C174.719 148.11 173.244 149.585 171.448 149.585C169.652 149.585 168.177 148.11 168.177 146.314C168.177 144.518 169.652 143.043 171.448 143.043C173.308 143.043 174.719 144.518 174.719 146.314Z" fill="#24126A"/>
<path d="M194.859 124.378C194.859 126.174 193.384 127.649 191.588 127.649C189.792 127.649 188.317 126.174 188.317 124.378C188.317 122.582 189.792 121.107 191.588 121.107C193.384 121.107 194.859 122.582 194.859 124.378Z" fill="#24126A"/>
<path d="M207.367 136.372L171.64 143.235C171.512 143.235 171.32 143.299 171.191 143.299V143.043L169.459 142.594V144.646C169.459 144.711 169.459 144.775 169.459 144.903C169.652 145.673 170.999 146.25 172.346 146.122L208.072 139.259L207.367 136.372Z" fill="url(#paint2_linear)"/>
<path d="M237.257 124.121L236.166 125.019C235.204 124.634 233.793 124.699 232.831 125.276L207.367 136.372L210.959 138.425L236.423 127.328C237 127.008 237.321 126.559 237.257 126.11V124.121Z" fill="url(#paint3_linear)"/>
<path d="M194.026 121.684C193.384 120.978 191.909 120.658 190.626 121.043C190.498 121.107 190.37 121.107 190.241 121.171C190.177 121.043 190.113 120.978 190.049 120.914C189.792 120.658 189.279 120.401 189.279 120.401V122.389C189.279 122.582 189.343 122.838 189.536 123.031L205.956 138.04L210.446 136.693L194.026 121.684Z" fill="url(#paint4_linear)"/>
<path d="M244.056 149.008L243.478 149.2L243.158 149.906C243.029 149.842 242.901 149.778 242.709 149.778L210.446 136.693L208.137 139.259L240.4 152.343C241.618 152.728 243.158 152.407 243.799 151.702C243.991 151.509 244.056 151.253 244.056 150.996V149.008Z" fill="url(#paint5_linear)"/>
<path d="M205.956 137.976L200.632 160.682L200.247 160.489V162.606C200.311 163.247 201.145 163.825 202.364 163.953C203.711 164.081 205.058 163.568 205.25 162.734L210.895 138.489L205.956 137.976Z" fill="url(#paint6_linear)"/>
<path d="M242.708 147.789L212.819 135.667L236.423 125.404C237.449 124.763 237.577 123.865 236.679 123.352L236.423 123.223C235.525 122.71 233.921 122.774 232.831 123.352L209.227 133.614L193.961 119.696C193.32 118.99 191.845 118.669 190.562 119.054C189.343 119.439 188.83 120.273 189.471 120.978L204.737 134.897L171.576 141.311C170.229 141.439 169.267 142.209 169.459 142.979C169.652 143.748 170.999 144.326 172.346 144.197L205.507 137.783L200.247 160.297C200.055 161.066 200.953 161.836 202.364 161.964C203.711 162.093 205.058 161.58 205.25 160.746L210.51 138.232L240.399 150.355C241.618 150.74 243.157 150.419 243.799 149.714C244.44 149.008 243.927 148.11 242.708 147.789ZM209.612 135.667L209.034 136.308L207.816 136.18L207.623 135.474L208.714 135.154L209.612 135.667Z" fill="url(#paint7_linear)"/>
<path d="M208.586 137.527C207.174 137.527 205.956 136.372 205.956 134.897V104.687H211.151V134.897C211.151 136.308 209.997 137.527 208.586 137.527Z" fill="#24126A"/>
<path opacity="0.5" d="M168.369 81.469L167.792 81.1483C165.739 79.9938 165.996 77.9413 168.369 76.5943L184.853 67.1014C187.162 65.7545 190.754 65.6262 192.743 66.7807L193.32 67.1014C195.372 68.256 195.116 70.3085 192.743 71.6555L176.258 81.1483C173.949 82.4953 170.422 82.6236 168.369 81.469Z" fill="url(#paint8_linear)"/>
<path opacity="0.5" d="M194.668 68.8316C194.603 68.126 194.154 67.4846 193.321 67.0357L192.743 66.7149C190.691 65.5604 187.163 65.6887 184.854 67.0357L168.37 76.5285C167.151 77.2341 166.51 78.132 166.446 79.03V81.9164C166.446 82.6861 166.895 83.3916 167.793 83.9047L168.37 84.2254C170.422 85.38 173.95 85.2517 176.259 83.9047L192.743 74.4119C193.962 73.7063 194.603 72.8725 194.668 71.9745V68.8316Z" fill="url(#paint9_linear)"/>
<path d="M203.262 94.7446L168.754 114.628C167.022 115.59 165.675 114.564 165.675 112.319C165.675 110.01 167.086 107.38 168.754 106.418L208.265 83.5841V85.1235C208.329 88.8437 206.02 93.1411 203.262 94.7446Z" fill="#515151"/>
<g opacity="0.5">
<path opacity="0.5" d="M205.827 9.6937C204.609 9.05229 203.069 9.11643 201.402 10.0785L200.375 10.6558C196.591 12.8366 193.448 18.8017 193.448 23.8689V92.1149L202.62 86.7912V88.972L191.652 97.9517L166.637 114.692L201.787 134.576L221.991 119.054L233.472 109.241L240.656 29.385L205.827 9.6937Z" fill="url(#paint10_linear)"/>
</g>
<path d="M180.107 122.325C180.107 122.325 179.145 119.824 181.005 118.028C182.865 116.168 192.55 112.127 193.256 111.678C193.961 111.229 197.425 108.663 197.425 108.663L198.515 106.29C198.515 106.29 178.824 108.214 178.567 108.535C178.311 108.856 169.331 116.873 169.588 117.258C169.844 117.579 175.745 119.054 175.745 119.054L176.9 120.593L180.107 122.325Z" fill="#2D2D2D"/>
<path d="M236.358 29.834L235.332 30.4113C231.548 32.5921 228.405 38.5572 228.405 43.6243V111.87L203.711 126.11C201.979 127.072 200.632 129.766 200.632 132.011C200.632 134.32 202.043 135.346 203.711 134.32L238.219 114.436C240.977 112.832 243.222 108.535 243.222 104.815V103.275V35.0936C243.286 29.9623 240.143 27.6532 236.358 29.834Z" fill="url(#paint11_linear)"/>
<path d="M170.742 137.142C170.742 137.142 165.675 140.413 163.943 142.337C162.212 144.261 158.812 148.174 160.223 150.098C161.634 151.958 166.381 153.049 171.448 148.366C176.515 143.684 175.104 143.428 179.401 141.054C183.763 138.745 184.918 136.18 184.404 134.769C183.891 133.293 181.71 130.792 180.556 131.305C179.401 131.818 170.742 137.142 170.742 137.142Z" fill="#160A5B"/>
<path d="M195.501 150.804C195.501 150.804 193.705 154.845 192.743 156.128C191.781 157.475 187.227 165.171 189.6 166.903C191.973 168.699 196.527 168.186 200.055 164.273C203.647 160.425 204.416 155.679 205.314 154.139C206.212 152.6 208.393 148.431 207.367 146.057C206.341 143.684 206.084 143.235 206.084 143.235L195.501 150.804Z" fill="#160A5B"/>
<path d="M177.028 93.5901C177.028 93.5901 161.891 108.471 159.454 115.975C159.454 115.975 158.427 120.016 161.314 123.223C164.264 126.366 170.422 136.757 170.422 136.757C170.422 136.757 175.04 142.337 181.005 137.847C181.005 137.847 183.699 133.55 182.031 130.664C180.364 127.777 175.938 118.605 175.938 118.605C175.938 118.605 185.623 111.934 190.434 110.267C195.244 108.599 197.746 107.252 197.746 107.252C197.746 107.252 196.848 111.742 193.384 116.168C189.856 120.593 184.02 127.649 186.008 132.588C187.932 137.527 189.087 139.002 190.947 141.888C192.807 144.71 194.539 150.611 196.078 151.253C197.618 151.894 204.865 152.6 206.02 147.853C207.175 143.171 203.583 133.999 201.915 130.92C201.915 130.92 221.478 108.407 223.338 105.905C225.198 103.468 183.057 89.8058 177.028 93.5901Z" fill="#24126A"/>
<path d="M182.095 130.728C180.428 127.841 176.002 118.669 176.002 118.669C176.002 118.669 185.687 111.999 190.498 110.331C195.308 108.663 197.81 107.316 197.81 107.316C198.708 106.033 201.722 101.223 203.005 97.3745C191.973 94.1674 180.043 91.73 177.028 93.5901C178.119 96.2199 183.699 96.2199 183.699 96.2199C183.699 96.2199 185.815 101.351 187.162 101.993C188.573 102.634 191.909 101.928 191.909 101.928C191.909 101.928 191.396 102.762 189.022 104.494C186.649 106.226 171.769 118.413 171.769 118.413C171.769 118.413 172.602 118.926 176.579 126.045C180.556 133.229 181.069 137.912 181.069 137.912C181.069 137.912 183.763 133.55 182.095 130.728Z" fill="#160A5B"/>
<path d="M215.449 101.544C206.725 100.71 196.527 100.646 198.836 105.2C202.749 112.961 210.51 113.346 210.51 113.346C210.446 116.232 198.451 130.022 198.451 130.022C198.451 130.022 198.451 130.022 201.273 135.474C204.096 140.926 203.711 150.804 203.711 150.804C204.801 150.227 205.635 149.329 205.956 147.918C207.11 143.235 203.518 134.063 201.851 130.984C201.851 130.984 221.414 108.471 223.274 105.969C223.851 105.2 220.58 103.468 215.449 101.544Z" fill="#160A5B"/>
<path d="M161.763 53.8869L164.072 52.0909C164.072 52.0909 176.579 45.1637 180.748 42.8546C182.993 41.6359 185.366 39.4551 187.034 37.7233C188.638 35.9915 190.947 35.0935 193.256 35.0294L215.192 34.9011C215.192 34.9011 217.758 39.0062 218.592 39.7758C219.233 40.3531 225.198 45.3561 229.431 49.4611C231.805 51.7061 233.536 54.5924 234.434 57.7353C236.872 66.3302 236.872 83.7124 237.192 96.1558C237.192 96.1558 235.653 96.733 231.933 97.5669C228.213 98.3366 228.662 97.8234 228.662 97.8234C228.662 97.8234 223.081 110.395 215.449 111.614C207.88 112.832 197.617 109.305 195.821 97.3744C195.821 97.3744 181.005 95.1295 176.964 93.526C176.579 93.3977 176.451 92.9487 176.707 92.628C178.503 90.2548 185.174 81.0185 185.815 75.0534C186.521 68.1262 186.329 58.056 185.751 55.298C185.751 55.298 174.591 59.5313 170.999 60.2368C170.999 60.2368 157.401 75.1817 151.692 79.2226C151.692 79.2226 153.617 76.1438 149.704 74.0913L161.763 53.8869Z" fill="#453C9E"/>
<path d="M231.997 97.631C232.574 97.5027 233.087 97.3744 233.536 97.3103L232.767 95.7709L212.177 93.5901L200.119 94.2315L195.95 98.1441C196.206 99.4269 196.527 100.581 196.912 101.672C196.912 101.672 202.043 102.377 204.416 101.928C206.79 101.415 225.134 104.109 225.134 104.109C227.186 101.159 228.469 98.3365 228.662 98.0158C228.662 98.08 228.918 98.2724 231.997 97.631Z" fill="#24126A"/>
<path d="M204.16 90.4473C204.16 90.3832 204.096 90.319 203.967 90.319C203.005 90.319 196.527 90.1266 194.09 89.2928C191.46 88.3948 188.638 88.5231 188.509 88.7155C188.381 88.8438 183.955 90.7039 183.699 91.4735C183.442 92.115 183.057 94.4882 183.635 95.322C184.212 96.1558 184.468 96.7331 184.468 96.7331L184.917 96.7972C184.917 96.7972 185.495 97.9518 185.815 98.4008C185.944 98.5932 186.072 98.7856 186.2 98.978C186.457 99.5553 186.97 100.582 187.162 100.582C187.483 100.582 188.83 100.902 189.151 100.774C189.407 100.71 189.664 99.8119 189.6 99.427C189.6 99.2988 189.6 99.2346 189.728 99.2346C190.369 99.1063 192.037 98.9139 194.41 99.1063C197.297 99.3629 201.338 97.5028 201.722 97.3104H201.787L205.827 96.9255C205.956 96.9255 206.02 96.7973 205.956 96.669L204.16 90.4473Z" fill="#FCD1C5"/>
<path d="M199.349 47.8576C199.349 47.8576 195.886 60.5575 199.542 73.514C199.542 73.514 212.755 48.8197 214.23 44.843C215.641 40.8663 216.154 37.9799 214.871 36.5688C213.524 35.1577 201.594 42.5339 201.594 42.5339L199.349 47.8576Z" fill="#F0F6FF"/>
<path d="M202.749 67.7413C202.749 67.7413 205.25 60.0444 204.801 57.5429C204.352 55.0414 203.711 53.2454 203.711 53.2454L205.956 51.1288L206.982 53.1813C206.982 53.1813 211.985 49.5253 212.306 48.8197C212.306 48.8197 208.265 51.5778 206.982 52.0268C206.982 52.0268 206.405 51.0646 205.571 50.6798C204.801 50.3591 202.813 53.053 202.813 53.053L202.428 57.7353L200.44 68.6393L201.145 70.2428L202.749 67.7413Z" fill="#C4CCD6"/>
<path d="M200.504 47.9858C200.504 47.9858 200.055 52.9888 200.44 53.3095C200.824 53.6302 202.364 53.6944 203.133 53.3095C203.839 52.9247 205.699 50.7439 205.699 50.7439C205.699 50.7439 203.454 46.8313 200.504 47.9858Z" fill="#24126A"/>
<path d="M203.198 52.4116C203.198 52.4116 204.545 55.8752 203.262 60.6217C201.979 65.3681 201.466 69.858 201.466 69.858L199.477 73.514C199.477 73.514 197.04 66.3302 197.81 59.0823C198.195 55.8111 200.632 52.9248 200.632 52.9248L203.198 52.4116Z" fill="#24126A"/>
<path d="M193.127 27.6531C193.127 27.6531 192.55 30.7319 192.743 31.3091C192.935 31.8864 193.769 32.2713 193.576 33.4899C193.384 34.7086 194.09 38.3005 194.41 39.4551C194.41 39.4551 194.154 40.7379 194.539 41.1227C194.923 41.5076 195.372 41.5076 195.693 42.0848C196.014 42.6621 196.142 45.805 197.425 46.8313C198.708 47.8575 200.311 48.1141 201.145 47.8575C201.979 47.601 202.877 46.9596 202.877 46.9596L204.801 47.7292C204.801 47.7292 214.615 44.9712 214.358 38.044V37.3384C214.358 37.3384 215.064 36.3763 215.256 35.7349C215.449 35.0935 217.116 32.2071 216.282 30.9884C216.282 30.9884 220.067 15.9795 208.329 15.0173C196.463 14.1835 194.731 22.4577 193.127 27.6531Z" fill="#FCD1C5"/>
<path d="M214.294 38.1723V38.1082C213.781 37.7875 213.332 37.6592 212.947 37.7234C211.6 37.9799 211.921 35.1577 211.921 35.1577C211.921 35.1577 211.664 35.6708 210.959 39.1986C210.253 42.7905 202.877 47.0879 202.877 47.0879L204.801 47.8576C204.737 47.8576 214.551 45.0996 214.294 38.1723Z" fill="#E2B1A6"/>
<path d="M193.192 21.1108C192.037 23.5482 191.524 26.4987 193.897 28.4229C193.897 28.4229 195.886 29.0002 199.734 27.2042C202.3 25.9855 204.93 26.5628 206.341 27.0118C206.982 27.2042 207.431 27.8456 207.431 28.5512L207.367 30.6678C207.367 31.2451 207.688 31.7582 208.201 31.9506L209.997 32.7203L210.381 34.7728C210.51 35.4143 211.087 35.735 211.728 35.5425L212.177 35.3501C212.177 35.3501 212.434 30.732 216.282 30.9244C216.282 30.9244 219.361 24.2537 216.218 18.0962C213.075 12.0028 204.352 12.3876 202.492 13.0932C200.055 13.9912 200.375 13.8629 198.964 14.7609C196.463 16.4285 194.41 18.5452 193.192 21.1108Z" fill="#AA8383"/>
<path d="M224.492 68.3186C224.492 68.3186 222.697 81.4675 221.991 85.1235L216.218 88.1382L226.417 87.4968L224.492 68.3186Z" fill="#24126A"/>
<path d="M216.154 31.0526C216.154 31.0526 217.18 28.8077 217.437 25.6648C212.69 29.4491 207.367 28.5511 207.367 28.5511L207.303 30.6678C207.303 31.2451 207.623 31.7582 208.136 31.9506L209.932 32.7203L210.317 34.7728C210.446 35.4142 211.023 35.7349 211.664 35.5425L212.113 35.3501C212.113 35.4784 212.37 30.7961 216.154 31.0526Z" fill="#936D6D"/>
<path d="M218.72 42.5979C218.72 42.5979 215.705 53.0529 215.064 55.0412L212.626 54.7847L213.075 58.12L199.862 75.5022L214.486 58.6973L213.909 55.7468L216.154 56.0034L218.72 42.5979Z" fill="#24126A"/>
<path d="M205.763 99.4271C205.763 99.4271 236.679 98.4008 237.513 97.8877C238.283 97.3104 238.411 89.3569 238.347 84.7388C238.283 81.5317 238.347 68.8318 235.589 59.9803C237.77 67.4848 236.615 94.1033 235.653 95.4503C234.691 96.7973 205.25 97.567 205.25 97.567C205.507 98.6574 205.763 99.4271 205.763 99.4271Z" fill="#263649"/>
<path d="M145.022 74.6687C145.022 74.6687 144.893 75.4383 143.547 76.208C142.2 76.9777 138.736 78.6454 138.223 79.1585C137.646 79.6717 135.208 81.8525 135.08 82.109C135.016 82.3656 134.246 84.8671 134.246 84.9954C134.246 85.1236 134.503 86.2782 134.503 86.2782L133.733 89.9342C133.733 89.9342 132.771 91.3453 133.797 91.7302C134.823 92.115 135.465 91.0246 135.465 90.8322C135.465 90.8322 137.068 90.0625 138.223 89.1645C139.377 88.2666 144.06 84.4822 144.893 84.7388C145.663 84.9954 144.958 86.3423 144.573 86.5347C144.188 86.7913 141.686 89.2287 142.713 90.8963C143.739 92.564 144.445 89.9342 145.15 89.4211C145.856 88.908 147.331 86.7913 148.229 86.5347C149.127 86.2782 150.794 82.8787 150.987 81.3393C151.179 79.7999 152.27 78.8378 152.655 78.3247C153.039 77.8116 151.821 74.0272 151.821 74.0272L147.203 72.552L145.599 73.6424L145.022 74.6687Z" fill="#FCD1C5"/>
<path d="M233.28 54.7207C232.318 53.1813 231.869 54.3358 230.586 55.5545C228.854 57.2863 226.609 59.9161 225.455 63.2514C223.402 69.3448 224.108 84.6104 224.813 86.7912C224.813 86.7912 205.443 89.9341 204.096 89.9341C202.749 89.8699 205.763 99.4269 205.763 99.4269C205.763 99.4269 236.679 98.4007 237.513 97.8876C238.283 97.3103 238.411 89.3568 238.347 84.7386C238.283 80.7619 238.347 62.7383 233.28 54.7207Z" fill="#334659"/>
<path d="M205.763 99.4269C205.763 99.4269 236.679 98.4007 237.513 97.8875C238.283 97.3103 238.411 89.3568 238.347 84.7386C238.283 81.5316 238.347 68.8317 235.589 59.9802C237.77 67.4847 236.615 94.1032 235.653 95.4502C234.691 96.7971 205.25 97.5668 205.25 97.5668C205.507 98.6572 205.763 99.4269 205.763 99.4269Z" fill="#263649"/>
<path opacity="0.5" d="M183.25 150.355L82.4202 92.179L136.555 60.8782L237.385 119.118L183.25 150.355Z" fill="url(#paint12_linear)"/>
<path opacity="0.5" d="M82.4202 87.3042V92.1789L183.25 150.355L237.385 119.118V114.308L183.25 145.544L82.4202 87.3042Z" fill="url(#paint13_linear)"/>
<path opacity="0.5" d="M183.25 145.544L82.4202 87.3043L136.555 56.0676L237.385 114.308L183.25 145.544Z" fill="url(#paint14_linear)"/>
<path opacity="0.3" d="M189.151 100.197C189.151 100.197 192.999 101.608 196.014 101.095C198.964 100.581 213.204 100.325 213.204 100.325L210.959 99.0421L205.956 95.5785L193.577 96.4123L188.83 98.1441L189.151 100.197Z" fill="#180D5B"/>
<path d="M204.16 90.4473C204.16 90.3832 204.096 90.319 203.967 90.319C203.005 90.319 196.527 90.1266 194.09 89.2928C191.46 88.3948 188.638 88.5231 188.509 88.7155C188.381 88.8438 183.955 90.7039 183.699 91.4735C183.442 92.115 183.057 94.4882 183.635 95.322C184.212 96.1558 184.468 96.7331 184.468 96.7331L184.917 96.7972C184.917 96.7972 185.495 97.9518 185.815 98.4008C185.944 98.5932 186.072 98.7856 186.2 98.978C186.457 99.5553 186.97 100.582 187.162 100.582C187.483 100.582 188.83 100.902 189.151 100.774C189.407 100.71 189.664 99.8119 189.6 99.427C189.6 99.2988 189.6 99.2346 189.728 99.2346C190.369 99.1063 192.037 98.9139 194.41 99.1063C197.297 99.3629 201.338 97.5028 201.722 97.3104H201.787L205.827 96.9255C205.956 96.9255 206.02 96.7973 205.956 96.669L204.16 90.4473Z" fill="#FCD1C5"/>
<path opacity="0.5" d="M215.641 108.599L215.064 108.278C213.011 107.124 213.268 105.071 215.641 103.724L232.125 94.2316C234.434 92.8846 238.026 92.7563 240.015 93.9109L240.592 94.2316C242.644 95.3861 242.388 97.4386 240.015 98.7856L223.53 108.278C221.221 109.625 217.693 109.754 215.641 108.599Z" fill="url(#paint15_linear)"/>
<path opacity="0.5" d="M242.003 96.0275C241.939 95.322 241.49 94.6806 240.656 94.2316L240.079 93.9109C238.027 92.7563 234.499 92.8846 232.19 94.2316L215.705 103.724C214.487 104.43 213.845 105.328 213.781 106.226V109.112C213.781 109.882 214.23 110.588 215.128 111.101L215.705 111.421C217.758 112.576 221.286 112.448 223.595 111.101L240.079 101.608C241.298 100.902 241.939 100.068 242.003 99.1704V96.0275Z" fill="url(#paint16_linear)"/>
<path d="M233.28 54.7207C232.318 53.1813 231.869 54.3358 230.586 55.5545C228.854 57.2863 226.609 59.9161 225.455 63.2514C223.402 69.3448 224.108 84.6104 224.813 86.7912C224.813 86.7912 205.443 89.9341 204.096 89.9341C202.749 89.8699 205.763 99.4269 205.763 99.4269C205.763 99.4269 236.679 98.4007 237.513 97.8876C238.283 97.3103 238.411 89.3568 238.347 84.7386C238.283 80.7619 238.347 62.7383 233.28 54.7207Z" fill="#4846A5"/>
<path d="M205.763 99.4271C205.763 99.4271 236.679 98.4008 237.513 97.8877C238.283 97.3104 238.411 89.3569 238.347 84.7388C238.283 81.5317 238.347 68.8318 235.589 59.9803C237.77 67.4848 236.615 94.1033 235.653 95.4503C234.691 96.7973 205.25 97.567 205.25 97.567C205.507 98.6574 205.763 99.4271 205.763 99.4271Z" fill="#24126A"/>
<path opacity="0.3" d="M150.345 83.5841C150.345 83.5841 161.378 74.9251 162.981 74.0913C164.585 73.2575 165.226 72.616 165.226 72.616L161.506 70.4994L155.22 73.065L147.331 80.8902L135.208 89.4851V91.4735C135.208 91.4735 145.214 87.176 146.369 86.4705C147.459 85.7008 150.345 83.5841 150.345 83.5841Z" fill="#180D5B"/>
<path opacity="0.63" d="M143.739 91.4093C143.739 91.4093 146.112 89.2926 147.587 88.5871C149.127 87.8815 151.5 86.0214 151.821 84.6103C152.141 83.1992 154.643 79.9922 154.643 79.9922L150.602 82.3013L144.765 85.7007L135.08 91.3451C135.08 91.3451 135.657 92.0507 136.876 91.6017C138.095 91.1527 140.404 89.7416 141.494 89.5492C142.584 89.4209 144.38 89.1002 144.38 89.1002L143.739 91.4093Z" fill="#2D2D2D"/>
<path d="M145.022 74.6687C145.022 74.6687 144.893 75.4383 143.547 76.208C142.2 76.9777 138.736 78.6454 138.223 79.1585C137.646 79.6717 135.208 81.8525 135.08 82.109C135.016 82.3656 134.246 84.8671 134.246 84.9954C134.246 85.1236 134.503 86.2782 134.503 86.2782L133.733 89.9342C133.733 89.9342 132.771 91.3453 133.797 91.7302C134.823 92.115 135.465 91.0246 135.465 90.8322C135.465 90.8322 137.068 90.0625 138.223 89.1645C139.377 88.2666 144.06 84.4822 144.893 84.7388C145.663 84.9954 144.958 86.3423 144.573 86.5347C144.188 86.7913 141.686 89.2287 142.713 90.8963C143.739 92.564 144.445 89.9342 145.15 89.4211C145.856 88.908 147.331 86.7913 148.229 86.5347C149.127 86.2782 150.794 82.8787 150.987 81.3393C151.179 79.7999 152.27 78.8378 152.655 78.3247C153.039 77.8116 151.821 74.0272 151.821 74.0272L147.203 72.552L145.599 73.6424L145.022 74.6687Z" fill="#FCD1C5"/>
<path d="M186.97 49.1405C186.97 49.1405 186.777 42.2132 187.996 36.8895C187.675 37.1461 187.355 37.4026 187.098 37.7234C185.431 39.4552 183.057 41.636 180.812 42.8546C176.643 45.0996 164.136 52.0909 164.136 52.0909L161.827 53.8869C154.45 59.6596 146.24 72.1671 145.086 74.6686C145.663 73.8989 147.138 72.6161 149.961 74.1554C153.873 76.208 152.013 79.3509 152.013 79.3509C157.722 75.31 171.191 60.301 171.191 60.301C174.527 59.5954 184.533 55.8753 185.815 55.4263C186.521 53.2455 186.97 51.193 186.97 49.1405Z" fill="#4846A5"/>
<path d="M171.127 60.2368C174.719 59.4671 185.88 55.2979 185.88 55.2979C186.393 57.7994 186.585 66.5867 186.072 73.3215C189.343 61.0065 186.97 49.1404 186.97 49.1404C186.072 53.502 168.369 59.4671 168.369 59.4671C165.547 63.8287 152.141 76.3362 152.141 76.3362C152.719 77.8756 151.885 79.2225 151.885 79.2225C157.529 75.1816 171.127 60.2368 171.127 60.2368Z" fill="#24126A"/>
<path d="M116.671 96.3482L119.365 97.7593L146.305 82.2372C146.754 81.9806 147.523 81.9806 148.036 82.3013L194.474 109.112C194.923 108.856 196.912 107.894 196.912 107.894L195.95 110.459C195.886 110.588 195.821 110.652 195.693 110.78L167.343 127.136C166.894 127.392 166.124 127.392 165.611 127.072L118.147 99.6835C117.954 99.5553 117.826 99.427 117.762 99.2346L116.671 96.3482Z" fill="url(#paint17_linear)"/>
<path d="M117.058 96.7971L165.741 124.891C166.254 125.212 167.088 125.212 167.537 124.955L196.592 108.214C197.041 107.958 196.977 107.509 196.464 107.188L147.781 79.0942C147.268 78.7735 146.434 78.7735 145.985 79.03L116.929 95.7708C116.48 96.0274 116.545 96.4764 117.058 96.7971Z" fill="url(#paint18_linear)"/>
<path d="M117.056 96.5405L165.739 124.634C166.252 124.955 167.086 124.955 167.535 124.698L196.591 107.958C196.719 107.893 196.848 107.765 196.848 107.637C196.912 107.829 196.848 108.086 196.591 108.214L167.535 124.955C167.086 125.212 166.252 125.212 165.739 124.891L117.056 96.7971C116.671 96.6047 116.543 96.284 116.671 96.0916C116.736 96.2198 116.864 96.4123 117.056 96.5405Z" fill="white"/>
<path d="M180.428 118.798V118.284C180.428 118.22 180.428 118.22 180.363 118.22L178.503 119.311C178.439 119.311 178.439 119.375 178.439 119.439V119.952C178.439 120.016 178.439 120.016 178.503 120.016L180.363 118.926C180.428 118.926 180.428 118.862 180.428 118.798Z" fill="#2842A2"/>
<path d="M177.605 120.465V119.888C177.605 119.824 177.605 119.824 177.541 119.824L175.681 120.914C175.617 120.914 175.617 120.978 175.617 121.042V121.556C175.617 121.62 175.617 121.62 175.681 121.62L177.541 120.529C177.605 120.529 177.605 120.465 177.605 120.465Z" fill="#2842A2"/>
<path d="M180.235 111.999L139.762 88.6513C139.506 88.523 139.185 88.523 138.864 88.6513L124.432 96.9896C124.24 97.1179 124.24 97.4386 124.432 97.5027L164.841 120.85C165.098 120.978 165.419 120.978 165.739 120.85L180.171 112.512C180.428 112.448 180.428 112.127 180.235 111.999Z" fill="#ADB1F2"/>
<path d="M180.236 112.576L180.108 112.641L139.827 89.3574C139.571 89.2291 139.25 89.2291 138.929 89.3574L124.69 97.6316L124.562 97.5674C124.369 97.4391 124.369 97.1184 124.562 97.0543L138.993 88.716C139.25 88.5877 139.571 88.5877 139.891 88.716L180.364 112.063C180.428 112.127 180.428 112.448 180.236 112.576Z" fill="#9198DB"/>
<path d="M137.838 90.7679L175.104 112.255L176.9 111.55L139.377 89.8699L137.838 90.7679Z" fill="#24126A"/>
<path d="M133.99 93.0127L166.958 111.998L168.497 111.1L135.529 92.1147L133.99 93.0127Z" fill="#24126A"/>
<path d="M131.488 94.4239L170.293 116.809L171.833 115.911L133.027 93.5259L131.488 94.4239Z" fill="#24126A"/>
<path d="M128.987 95.835L167.792 118.284L169.331 117.386L130.59 94.937L128.987 95.835Z" fill="#24126A"/>
<path d="M126.485 97.3102L165.29 119.695L166.894 118.797L128.089 96.4122L126.485 97.3102Z" fill="#24126A"/>
<path d="M175.104 112.255L176.643 113.217L178.183 112.255L176.643 111.357L175.104 112.255Z" fill="#24126A"/>
<path d="M165.034 110.908L172.795 115.398L174.398 114.5L166.573 110.01L165.034 110.908Z" fill="#24126A"/>
<path d="M165.803 101.544L154.899 95.2577C154.45 95.0012 154.45 94.6163 154.899 94.3597L162.34 90.0623C162.789 89.8057 163.43 89.8057 163.879 90.0623L174.783 96.3481C175.232 96.6047 175.232 96.9895 174.783 97.2461L167.343 101.544C166.958 101.8 166.252 101.8 165.803 101.544Z" fill="url(#paint19_linear)"/>
<path d="M174.848 96.733L163.944 90.4471C163.495 90.1906 162.853 90.1906 162.404 90.4471L154.964 94.7446C154.836 94.8087 154.772 94.937 154.707 95.0012C154.579 94.8087 154.707 94.5522 154.964 94.3597L162.404 90.0623C162.853 89.8057 163.495 89.8057 163.944 90.0623L174.848 96.3481C175.168 96.5405 175.233 96.733 175.104 96.9895C175.04 96.8612 174.976 96.7971 174.848 96.733Z" fill="#9198DB"/>
<path d="M116.736 95.6427L122.893 59.1464L122.38 58.954L123.15 58.505C123.278 58.4409 123.47 58.4409 123.727 58.5692L172.923 86.9836C173.308 87.2402 173.629 87.8175 173.564 88.2023L167.343 125.019C167.279 125.212 167.214 125.34 167.086 125.404L166.381 125.853L166.252 125.148H166.317L117.441 96.9255C116.992 96.6689 116.671 96.0275 116.736 95.6427Z" fill="url(#paint20_linear)"/>
<path d="M172.602 87.9458L173.436 87.5609C173.5 87.7533 173.564 88.0099 173.564 88.1382L167.343 124.955C167.279 125.148 167.215 125.276 167.086 125.34L166.381 125.789L166.252 125.083H166.317L163.815 123.672L172.602 87.9458Z" fill="url(#paint21_linear)"/>
<path d="M116.607 97.3103L165.803 125.725C166.188 125.917 166.509 125.789 166.573 125.404L172.795 88.5871C172.859 88.1382 172.538 87.5609 172.153 87.3685L122.957 58.954C122.572 58.7616 122.252 58.8899 122.187 59.2747L115.966 96.0916C115.902 96.4765 116.222 97.1179 116.607 97.3103Z" fill="#453C9E"/>
<path opacity="0.502" d="M98.9043 135.923V129.83C100.123 130.471 101.406 131.113 102.689 131.754V137.847C101.406 137.206 100.123 136.565 98.9043 135.923ZM86.8458 128.29V117.002C87.8721 117.771 88.8983 118.541 89.9887 119.247V130.535C88.9625 129.766 87.8721 129.06 86.8458 128.29ZM92.6185 132.267V118.99C93.7731 119.696 94.9276 120.401 96.0821 121.107V134.384C94.8635 133.678 93.7089 132.973 92.6185 132.267ZM77.2247 119.567V104.815C77.9944 105.649 78.8282 106.547 79.662 107.381V122.133C78.8282 121.235 77.9944 120.401 77.2247 119.567ZM81.7145 124.057V108.086C82.6125 108.92 83.5746 109.69 84.5368 110.459V126.43C83.5746 125.661 82.6125 124.827 81.7145 124.057ZM70.2333 109.946V92.6281C70.7464 93.5902 71.3237 94.4882 71.901 95.3862V112.704C71.3237 111.806 70.7464 110.844 70.2333 109.946ZM73.3762 114.821V92.3074C74.0176 93.2054 74.7232 94.1033 75.4287 95.0013V117.515C74.7232 116.617 74.0176 115.719 73.3762 114.821ZM67.8601 104.815V79.415C68.2449 80.3772 68.6298 81.3393 69.1429 82.3014V107.701C68.6298 106.739 68.2449 105.777 67.8601 104.815ZM110.386 110.459C86.2044 100.71 69.4636 85.316 66 67.6772V103.853C69.5278 121.492 86.2044 136.885 110.386 146.635V110.459Z" fill="#42E8E0"/>
<path opacity="0.502" d="M181.325 150.611V142.466C185.495 142.209 189.6 141.888 193.576 141.375V149.521C189.6 150.034 185.495 150.419 181.325 150.611ZM161.762 150.676V135.795C164.264 135.923 166.765 135.987 169.331 136.051C171.063 136.051 172.795 136.051 174.527 136.051V150.932C172.795 150.932 171.063 150.996 169.331 150.932C166.765 150.868 164.264 150.804 161.762 150.676ZM142.905 148.687V125.981C146.818 126.623 150.859 127.072 155.028 127.457V150.162C150.859 149.842 146.818 149.329 142.905 148.687ZM200.055 148.623V124.634C203.967 123.993 207.816 123.223 211.536 122.389V146.378C207.752 147.212 203.967 147.982 200.055 148.623ZM221.157 114.244C205.763 118.99 188.06 121.62 169.331 121.427C156.246 121.299 143.803 119.824 132.322 117.194V153.37C143.803 155.935 156.246 157.475 169.331 157.603C188.06 157.795 205.763 155.165 221.157 150.419V114.244Z" fill="#42E8E0"/>
<path opacity="0.502" d="M247.134 124.634V117.643C264.003 107.701 274.971 94.424 276.767 79.6074V86.5988C274.971 101.351 264.003 114.628 247.134 124.634ZM277.024 97.9518V61.7762C276.511 79.4792 262.785 95.2579 241.426 106.162V142.337C262.785 131.433 276.447 115.655 277.024 97.9518Z" fill="#42E8E0"/>
<path opacity="0.7529" d="M276.767 79.6074C274.971 94.3598 264.003 107.701 247.134 117.643V124.634C264.003 114.693 274.971 101.415 276.767 86.5988V79.6074Z" fill="#42E8E0"/>
<path d="M154.964 127.456C150.859 127.072 146.818 126.623 142.841 125.981V148.687C146.754 149.329 150.794 149.778 154.964 150.162V127.456Z" fill="#42E8E0"/>
<path d="M193.576 141.375C189.535 141.888 185.495 142.209 181.325 142.466V150.612C185.495 150.355 189.6 150.034 193.576 149.521V141.375Z" fill="#42E8E0"/>
<path d="M211.472 122.325C207.752 123.223 203.903 123.993 199.991 124.57V148.559C203.903 147.918 207.752 147.148 211.472 146.314V122.325Z" fill="#42E8E0"/>
<path opacity="0.7529" d="M174.462 135.987C172.731 135.987 170.999 136.051 169.267 135.987C166.701 135.987 164.2 135.859 161.698 135.731V150.611C164.2 150.74 166.701 150.804 169.267 150.868C170.999 150.868 172.731 150.868 174.462 150.868V135.987Z" fill="#42E8E0"/>
<path d="M69.0788 82.2372C68.6298 81.2751 68.1808 80.3129 67.796 79.3508V104.751C68.1808 105.713 68.5657 106.675 69.0788 107.637V82.2372Z" fill="#42E8E0"/>
<path d="M71.9009 95.386C71.3237 94.488 70.7464 93.5259 70.2333 92.6279V109.946C70.7464 110.908 71.3237 111.806 71.9009 112.704V95.386Z" fill="#42E8E0"/>
<path opacity="0.7529" d="M75.4287 95.0012C74.7232 94.1032 74.0176 93.2052 73.3762 92.3073V114.821C74.0176 115.719 74.7232 116.617 75.4287 117.515V95.0012Z" fill="#42E8E0"/>
<path d="M79.662 107.38C78.8282 106.547 77.9944 105.713 77.2247 104.815V119.567C77.9944 120.401 78.8282 121.299 79.662 122.133V107.38Z" fill="#42E8E0"/>
<path opacity="0.7529" d="M84.5367 110.459C83.5746 109.69 82.6125 108.856 81.7145 108.086V124.057C82.6125 124.891 83.5746 125.661 84.5367 126.43V110.459Z" fill="#42E8E0"/>
<path opacity="0.7529" d="M89.9887 119.247C88.8983 118.541 87.8721 117.771 86.8458 117.002V128.29C87.8721 129.06 88.8983 129.83 89.9887 130.535V119.247Z" fill="#42E8E0"/>
<path opacity="0.7529" d="M96.0821 121.042C94.9276 120.337 93.7731 119.631 92.6185 118.926V132.203C93.7731 132.909 94.9276 133.614 96.0821 134.32V121.042Z" fill="#42E8E0"/>
<path opacity="0.7529" d="M102.689 131.69C101.406 131.048 100.187 130.407 98.9043 129.766V135.859C100.123 136.5 101.406 137.142 102.689 137.783V131.69Z" fill="#42E8E0"/>
<defs>
<linearGradient id="paint0_linear" x1="5.43857e-06" y1="245" x2="343.417" y2="17.0199" gradientUnits="userSpaceOnUse">
<stop stop-color="#2F13BA"/>
<stop offset="1" stop-color="#24126A"/>
</linearGradient>
<radialGradient id="paint1_radial" cx="0" cy="0" r="1" gradientUnits="userSpaceOnUse" gradientTransform="translate(184.534 136.056) rotate(149.999) scale(90.4409 78.3252)">
<stop stop-color="#42E8E0"/>
<stop offset="0.1539" stop-color="#33AEB9"/>
<stop offset="0.3113" stop-color="#267A95"/>
<stop offset="0.4663" stop-color="#1B5078"/>
<stop offset="0.6156" stop-color="#132E61"/>
<stop offset="0.7574" stop-color="#0D1651"/>
<stop offset="0.8889" stop-color="#090847"/>
<stop offset="1" stop-color="#080344"/>
</radialGradient>
<linearGradient id="paint2_linear" x1="206.941" y1="136.542" x2="148.064" y2="150.912" gradientUnits="userSpaceOnUse">
<stop stop-color="#5761D7"/>
<stop offset="0.1779" stop-color="#5C66D9"/>
<stop offset="0.3876" stop-color="#6A73DF"/>
<stop offset="0.6134" stop-color="#8289E8"/>
<stop offset="0.849" stop-color="#A3A7F5"/>
<stop offset="1" stop-color="#BCBEFF"/>
</linearGradient>
<linearGradient id="paint3_linear" x1="207.38" y1="131.287" x2="272.56" y2="131.287" gradientUnits="userSpaceOnUse">
<stop stop-color="#5761D7"/>
<stop offset="0.1779" stop-color="#5C66D9"/>
<stop offset="0.3876" stop-color="#6A73DF"/>
<stop offset="0.6134" stop-color="#8289E8"/>
<stop offset="0.849" stop-color="#A3A7F5"/>
<stop offset="1" stop-color="#BCBEFF"/>
</linearGradient>
<linearGradient id="paint4_linear" x1="200.032" y1="129.883" x2="184.797" y2="115.156" gradientUnits="userSpaceOnUse">
<stop stop-color="#5761D7"/>
<stop offset="0.1779" stop-color="#5C66D9"/>
<stop offset="0.3876" stop-color="#6A73DF"/>
<stop offset="0.6134" stop-color="#8289E8"/>
<stop offset="0.849" stop-color="#A3A7F5"/>
<stop offset="1" stop-color="#BCBEFF"/>
</linearGradient>
<linearGradient id="paint5_linear" x1="208.173" y1="144.603" x2="264.769" y2="144.603" gradientUnits="userSpaceOnUse">
<stop stop-color="#5761D7"/>
<stop offset="0.1779" stop-color="#5C66D9"/>
<stop offset="0.3876" stop-color="#6A73DF"/>
<stop offset="0.6134" stop-color="#8289E8"/>
<stop offset="0.849" stop-color="#A3A7F5"/>
<stop offset="1" stop-color="#BCBEFF"/>
</linearGradient>
<linearGradient id="paint6_linear" x1="200.254" y1="150.971" x2="210.92" y2="150.971" gradientUnits="userSpaceOnUse">
<stop stop-color="#5761D7"/>
<stop offset="0.1779" stop-color="#5C66D9"/>
<stop offset="0.3876" stop-color="#6A73DF"/>
<stop offset="0.6134" stop-color="#8289E8"/>
<stop offset="0.849" stop-color="#A3A7F5"/>
<stop offset="1" stop-color="#BCBEFF"/>
</linearGradient>
<linearGradient id="paint7_linear" x1="203.708" y1="140.383" x2="278.3" y2="140.383" gradientUnits="userSpaceOnUse">
<stop stop-color="#C0BFF6"/>
<stop offset="0.2938" stop-color="#C5C4F7"/>
<stop offset="0.6399" stop-color="#D3D2F9"/>
<stop offset="1" stop-color="#E9E9FD"/>
</linearGradient>
<linearGradient id="paint8_linear" x1="166.475" y1="74.0893" x2="194.698" y2="74.0893" gradientUnits="userSpaceOnUse">
<stop stop-color="#42E8E0"/>
<stop offset="0.1507" stop-color="#43E3E0"/>
<stop offset="0.3285" stop-color="#45D5DF"/>
<stop offset="0.5199" stop-color="#49BDDD"/>
<stop offset="0.7209" stop-color="#4E9CDB"/>
<stop offset="0.9274" stop-color="#5472D8"/>
<stop offset="1" stop-color="#5761D7"/>
</linearGradient>
<linearGradient id="paint9_linear" x1="166.476" y1="75.487" x2="194.698" y2="75.487" gradientUnits="userSpaceOnUse">
<stop stop-color="#42E8E0"/>
<stop offset="0.1507" stop-color="#43E3E0"/>
<stop offset="0.3285" stop-color="#45D5DF"/>
<stop offset="0.5199" stop-color="#49BDDD"/>
<stop offset="0.7209" stop-color="#4E9CDB"/>
<stop offset="0.9274" stop-color="#5472D8"/>
<stop offset="1" stop-color="#5761D7"/>
</linearGradient>
<linearGradient id="paint10_linear" x1="227.997" y1="27.7058" x2="201.203" y2="96.6557" gradientUnits="userSpaceOnUse">
<stop stop-color="#42E8E0"/>
<stop offset="0.1507" stop-color="#43E3E0"/>
<stop offset="0.3285" stop-color="#45D5DF"/>
<stop offset="0.5199" stop-color="#49BDDD"/>
<stop offset="0.7209" stop-color="#4E9CDB"/>
<stop offset="0.9274" stop-color="#5472D8"/>
<stop offset="1" stop-color="#5761D7"/>
</linearGradient>
<linearGradient id="paint11_linear" x1="200.625" y1="81.885" x2="243.259" y2="81.885" gradientUnits="userSpaceOnUse">
<stop stop-color="#42E8E0"/>
<stop offset="0.1507" stop-color="#43E3E0"/>
<stop offset="0.3285" stop-color="#45D5DF"/>
<stop offset="0.5199" stop-color="#49BDDD"/>
<stop offset="0.7209" stop-color="#4E9CDB"/>
<stop offset="0.9274" stop-color="#5472D8"/>
<stop offset="1" stop-color="#5761D7"/>
</linearGradient>
<linearGradient id="paint12_linear" x1="82.4002" y1="105.639" x2="237.389" y2="105.639" gradientUnits="userSpaceOnUse">
<stop stop-color="#42E8E0"/>
<stop offset="0.1507" stop-color="#43E3E0"/>
<stop offset="0.3285" stop-color="#45D5DF"/>
<stop offset="0.5199" stop-color="#49BDDD"/>
<stop offset="0.7209" stop-color="#4E9CDB"/>
<stop offset="0.9274" stop-color="#5472D8"/>
<stop offset="1" stop-color="#5761D7"/>
</linearGradient>
<linearGradient id="paint13_linear" x1="82.4002" y1="118.857" x2="237.389" y2="118.857" gradientUnits="userSpaceOnUse">
<stop stop-color="#42E8E0"/>
<stop offset="0.1507" stop-color="#43E3E0"/>
<stop offset="0.3285" stop-color="#45D5DF"/>
<stop offset="0.5199" stop-color="#49BDDD"/>
<stop offset="0.7209" stop-color="#4E9CDB"/>
<stop offset="0.9274" stop-color="#5472D8"/>
<stop offset="1" stop-color="#5761D7"/>
</linearGradient>
<linearGradient id="paint14_linear" x1="82.4002" y1="100.811" x2="237.389" y2="100.811" gradientUnits="userSpaceOnUse">
<stop stop-color="#42E8E0"/>
<stop offset="0.1507" stop-color="#43E3E0"/>
<stop offset="0.3285" stop-color="#45D5DF"/>
<stop offset="0.5199" stop-color="#49BDDD"/>
<stop offset="0.7209" stop-color="#4E9CDB"/>
<stop offset="0.9274" stop-color="#5472D8"/>
<stop offset="1" stop-color="#5761D7"/>
</linearGradient>
<linearGradient id="paint15_linear" x1="213.755" y1="101.234" x2="241.977" y2="101.234" gradientUnits="userSpaceOnUse">
<stop stop-color="#42E8E0"/>
<stop offset="0.1507" stop-color="#43E3E0"/>
<stop offset="0.3285" stop-color="#45D5DF"/>
<stop offset="0.5199" stop-color="#49BDDD"/>
<stop offset="0.7209" stop-color="#4E9CDB"/>
<stop offset="0.9274" stop-color="#5472D8"/>
<stop offset="1" stop-color="#5761D7"/>
</linearGradient>
<linearGradient id="paint16_linear" x1="213.755" y1="102.634" x2="241.978" y2="102.634" gradientUnits="userSpaceOnUse">
<stop stop-color="#42E8E0"/>
<stop offset="0.1507" stop-color="#43E3E0"/>
<stop offset="0.3285" stop-color="#45D5DF"/>
<stop offset="0.5199" stop-color="#49BDDD"/>
<stop offset="0.7209" stop-color="#4E9CDB"/>
<stop offset="0.9274" stop-color="#5472D8"/>
<stop offset="1" stop-color="#5761D7"/>
</linearGradient>
<linearGradient id="paint17_linear" x1="196.893" y1="104.656" x2="116.666" y2="104.656" gradientUnits="userSpaceOnUse">
<stop stop-color="#5761D7"/>
<stop offset="0.1779" stop-color="#5C66D9"/>
<stop offset="0.3876" stop-color="#6A73DF"/>
<stop offset="0.6134" stop-color="#8289E8"/>
<stop offset="0.849" stop-color="#A3A7F5"/>
<stop offset="1" stop-color="#BCBEFF"/>
</linearGradient>
<linearGradient id="paint18_linear" x1="169.938" y1="101.981" x2="89.6678" y2="101.981" gradientUnits="userSpaceOnUse">
<stop stop-color="#C0BFF6"/>
<stop offset="0.2938" stop-color="#C5C4F7"/>
<stop offset="0.6399" stop-color="#D3D2F9"/>
<stop offset="1" stop-color="#E9E9FD"/>
</linearGradient>
<linearGradient id="paint19_linear" x1="175.145" y1="95.8041" x2="154.598" y2="95.8041" gradientUnits="userSpaceOnUse">
<stop stop-color="#C0BFF6"/>
<stop offset="0.2938" stop-color="#C5C4F7"/>
<stop offset="0.6399" stop-color="#D3D2F9"/>
<stop offset="1" stop-color="#E9E9FD"/>
</linearGradient>
<linearGradient id="paint20_linear" x1="173.538" y1="92.1015" x2="116.733" y2="92.1015" gradientUnits="userSpaceOnUse">
<stop stop-color="#C0BFF6"/>
<stop offset="0.2938" stop-color="#C5C4F7"/>
<stop offset="0.6399" stop-color="#D3D2F9"/>
<stop offset="1" stop-color="#E9E9FD"/>
</linearGradient>
<linearGradient id="paint21_linear" x1="173.538" y1="106.669" x2="163.784" y2="106.669" gradientUnits="userSpaceOnUse">
<stop stop-color="#5761D7"/>
<stop offset="0.1779" stop-color="#5C66D9"/>
<stop offset="0.3876" stop-color="#6A73DF"/>
<stop offset="0.6134" stop-color="#8289E8"/>
<stop offset="0.849" stop-color="#A3A7F5"/>
<stop offset="1" stop-color="#BCBEFF"/>
</linearGradient>
</defs>
</svg>
