<svg width="130" height="128" viewBox="0 0 130 128" fill="none" xmlns="http://www.w3.org/2000/svg">
<path opacity="0.4" d="M105.404 73.3511L13.4019 93.7708L36.1307 106.901L41.6997 128L54.1507 117.315L69.9975 126.46L105.404 73.3511Z" fill="#0B0244"/>
<path d="M39.7528 108.893L129.264 32.104L47.5403 88.2922L39.7528 108.893Z" fill="#24126A"/>
<path d="M129.264 32.1045L31.9652 79.2826L0 60.8098L129.264 32.1045Z" fill="url(#paint0_linear)"/>
<path d="M129.264 32.104L47.5403 88.2922L79.5056 106.72L129.264 32.104Z" fill="url(#paint1_linear)"/>
<path d="M47.5403 88.2922L129.264 32.104L31.9652 79.2821L39.7528 108.893L47.5403 88.2922Z" fill="url(#paint2_linear)"/>
<path d="M30.5164 78.4671L129.264 32.104L31.9652 79.2821L30.5164 78.4671Z" fill="white"/>
<path d="M47.5403 88.2922L129.264 32.104L48.8081 89.0166L47.5403 88.2922Z" fill="white"/>
<path d="M64.1116 64.8848C64.1116 64.8848 63.7494 65.9261 63.7947 66.1525C63.84 66.3789 64.5191 67.375 64.5644 67.4203C64.6097 67.4655 65.1983 68.2352 65.8774 68.5974C66.5566 68.9597 66.6018 69.1408 66.6471 69.1408C66.6924 69.1408 66.8282 69.0955 66.8282 69.0955C66.8282 69.0955 66.9188 68.3711 66.6471 68.0541C66.3302 67.6919 66.7829 67.1939 66.7829 67.1939L66.0132 65.2017L64.1116 64.8848Z" fill="#FCD1C5"/>
<path d="M71.4464 86.8892C71.4464 86.8892 70.2692 87.1608 69.092 87.2061C67.9601 87.2514 64.7908 87.84 64.8361 88.9719C64.8813 90.1038 66.5113 91.7338 68.5487 91.9601C70.5862 92.1865 73.2122 91.6432 74.5705 91.6885C75.8835 91.7337 76.8343 90.4207 76.3363 89.153C75.8382 87.8852 71.4464 86.8892 71.4464 86.8892Z" fill="#160A5B"/>
<path d="M78.3737 83.855C78.3737 83.855 78.7812 84.5342 78.5548 84.9417C78.3284 85.3492 77.7398 86.3905 75.8835 85.3944C74.0271 84.3984 70.4503 82.9495 70.4503 82.9495C70.4503 82.9495 68.4128 81.8629 68.5487 80.5951C68.6845 79.3274 70.5861 79.5538 70.5861 79.5538L78.3737 83.855Z" fill="#160A5B"/>
<path d="M57.8182 38.6692C57.8182 38.6692 56.5957 38.6692 56.0524 38.4428C55.5091 38.2164 53.9697 37.6731 53.8791 37.6278C53.7885 37.5826 52.9283 37.5373 52.5208 37.2656C52.5208 37.2656 52.068 37.492 52.4302 37.8542C52.7925 38.2164 53.4263 38.307 53.4263 38.307L54.0602 38.6692C54.0602 38.6692 52.7925 39.3031 52.7019 39.3483C52.6114 39.3936 51.5247 40.2086 51.4342 40.2539C51.3436 40.2992 50.8456 40.6614 51.0267 40.9783C51.0267 40.9783 51.0267 41.0689 51.2983 41.1141C51.2983 41.1141 50.6192 41.4311 50.8003 41.748C50.9814 42.0649 51.3889 41.9291 51.3889 41.9291C51.3889 41.9291 51.57 42.5177 52.3397 42.0649C52.3397 42.0649 52.4302 42.7894 54.2413 42.0197C54.2413 42.0197 54.9657 41.8386 55.5091 41.8838C56.0524 41.9291 57.5012 41.5669 58.2709 41.0236C58.9953 40.4803 57.8182 38.6692 57.8182 38.6692Z" fill="#FCD1C5"/>
<path d="M55.5091 41.8841C56.0524 41.9294 57.5013 41.5672 58.271 41.0239C58.769 40.6616 58.4068 39.7108 58.1351 39.1675C57.7729 38.9864 57.456 38.8506 57.456 38.8506C57.456 38.8506 57.5013 40.6164 57.456 40.888C57.4107 41.1597 55.826 41.4766 54.7847 41.6125C53.7433 41.7483 52.385 42.1558 52.385 42.1558C52.4756 42.3369 52.7925 42.6538 54.2413 42.0652C54.2413 42.0199 54.9658 41.8388 55.5091 41.8841Z" fill="#E2B1A6"/>
<path d="M71.9444 35.2285C71.9444 35.2285 69.409 35.6813 68.5487 35.9529C67.7337 36.2246 60.4442 37.6734 57.7729 38.3073C57.5918 38.3526 57.456 38.4884 57.456 38.6695C57.4107 38.8054 57.4107 38.9865 57.456 39.1223C57.5465 39.4392 57.7729 42.4275 59.267 41.9294C59.7198 41.7936 61.0328 41.522 62.0742 41.3861C63.1155 41.2503 67.5526 40.8881 67.5526 40.8881L75.0685 36.5868L71.9444 35.2285Z" fill="#4846A5"/>
<path d="M66.5112 65.8352C66.5112 65.8352 67.1904 74.1208 68.8203 77.2449C70.4956 80.4142 70.8578 86.1644 71.22 87.251C71.5822 88.3376 72.6236 89.9223 74.3893 90.2845C76.1098 90.6015 76.4268 89.4696 76.3815 88.7904C76.291 88.1113 75.8382 86.9793 75.8382 86.2549C75.8382 85.5305 76.0193 85.1683 76.0646 84.8061C76.0646 84.8061 78.0567 85.3947 78.419 83.9005C78.419 83.9005 78.2831 83.4478 78.2378 83.2214C78.2378 82.995 78.5548 77.5166 78.6001 76.8827C78.6453 76.2035 78.3737 72.6267 77.8756 70.8156C77.3776 69.0498 77.6493 65.2919 77.6493 65.2919L71.8991 64.4316L66.5112 65.8352Z" fill="#24126A"/>
<path d="M75.8835 65.8806C75.8835 65.8806 75.8382 67.1937 75.2496 68.2803C75.2496 68.2803 75.1591 72.6721 74.661 74.8907C74.661 74.8907 75.2949 79.3278 75.7476 80.7313C76.2004 82.1349 76.0646 84.8515 76.0646 84.8515C76.0646 84.8515 76.291 84.9421 76.6079 84.9421C76.9248 84.9421 77.0607 79.5541 76.6079 78.6033C76.1099 77.6525 75.8382 73.3965 76.0646 72.1288C76.291 70.861 76.291 67.1484 76.5626 66.4692C76.8343 65.8354 76.291 65.4731 76.291 65.4731L75.8835 65.8806Z" fill="#160A5B"/>
<path d="M71.5822 35.2734C71.5822 35.2734 69.8617 36.4959 69.907 38.5786L71.1747 38.307C71.1747 38.3522 70.8125 35.9979 71.5822 35.2734Z" fill="#160A5B"/>
<path d="M71.6275 67.6463C75.476 67.7821 77.5587 66.1521 77.5587 66.1521C77.5587 65.6088 77.604 65.2919 77.604 65.2919L71.8539 64.4316L66.5565 65.8352C66.5565 65.8352 66.6923 67.4652 66.964 69.5932C67.9148 69.6837 68.8656 67.4652 68.8656 67.4652L71.4917 67.6463C71.4464 67.601 67.779 67.4652 71.6275 67.6463Z" fill="#160A5B"/>
<path d="M67.2357 65.9711C67.2357 65.9711 75.5213 69.3669 79.6867 63.1187C79.8226 62.9376 79.8678 62.7112 79.8678 62.4848V60.9907C79.8678 60.8096 79.9131 60.6285 79.9584 60.4474C80.0942 60.0852 80.1395 59.6777 80.0489 59.2702C79.7773 57.595 79.0529 53.0673 78.8718 51.8449C78.6454 50.3055 79.6415 44.1478 81.0903 41.4765C82.5392 38.8505 79.1434 32.7834 79.1434 32.7834C79.1434 32.7834 78.2832 31.3799 76.5627 31.8326C76.5627 31.8326 78.1926 33.0098 77.2418 34.187C76.3363 35.3642 73.6197 36.315 73.6197 36.315C73.6197 36.315 68.594 38.8052 66.8735 41.884C66.8735 41.884 66.2849 43.4687 66.1943 45.5061C66.1038 47.5436 66.2849 52.4334 66.1491 53.1126C66.0585 53.7917 65.6963 58.41 65.7416 58.6363C65.7416 58.7722 67.2357 65.9711 67.2357 65.9711Z" fill="#453C9E"/>
<path d="M69.7711 66.6503C69.7711 66.6503 74.9327 53.6559 74.7968 48.8566C74.661 44.1479 67.4168 58.1836 67.4168 58.1836L67.2357 65.9259C67.2357 65.9712 68.8203 66.5145 69.7711 66.6503Z" fill="#24126A"/>
<path d="M67.3715 51.1657C67.5526 50.079 67.6885 48.9924 67.7337 47.9057C67.779 46.0041 68.3676 42.8801 71.8086 43.4687C76.6532 44.3289 74.4347 51.0298 73.8914 52.1617C73.348 53.3389 71.1295 58.591 70.9937 58.9079C70.9031 59.1796 67.4168 65.6994 66.1943 67.2841C66.1038 67.4199 65.8774 67.4652 65.7416 67.3294C65.2435 66.9219 64.2022 65.9711 64.0663 65.3372C63.8852 64.5675 64.6549 61.7151 64.6549 61.7151C64.6549 61.7151 66.6471 54.6067 66.8282 54.2897C66.9188 54.1086 67.0546 52.9314 67.3715 51.1657Z" fill="#4846A5"/>
<path d="M71.6275 35.4549C71.6275 35.4549 71.2653 34.5493 70.3598 34.4588C69.4542 34.3682 68.9562 34.0966 68.8656 33.7796C68.7751 33.4627 68.7751 33.0552 68.594 32.5572C68.3676 32.0591 68.2318 30.8367 68.2318 30.7914C68.2318 30.7461 67.5526 30.565 67.5073 30.2481C67.4621 29.9311 67.8695 28.8898 67.8243 28.7992C67.779 28.7087 67.4168 28.0295 67.5073 27.5315C67.5526 27.0334 67.6432 26.2637 67.9148 25.6299C68.1865 24.996 70.1786 21.1928 75.1591 23.2755C80.1395 25.3582 76.2457 29.5236 76.6985 32.2402C76.6985 32.2402 77.1512 32.8288 76.291 33.7796C75.3854 34.7304 73.0311 34.9115 71.6275 35.4549Z" fill="#FCD1C5"/>
<path d="M76.2457 33.7795C77.106 32.8287 76.6532 32.2401 76.6532 32.2401C76.6079 31.8779 76.608 31.4704 76.6985 31.0177L74.7063 31.3799C74.7063 31.3799 71.8539 28.7538 72.035 30.1574C72.2161 31.561 71.4917 31.7874 71.4917 31.7874L72.0803 32.5571C72.2161 32.7382 72.1256 32.9645 71.9898 33.1909C71.1295 34.5945 69.1373 34.1417 69.1373 34.1417C69.3637 34.3228 69.8165 34.4134 70.3598 34.504C71.2653 34.5945 71.6275 35.5 71.6275 35.5C73.0311 34.9114 75.3855 34.7303 76.2457 33.7795Z" fill="#E2B1A6"/>
<path d="M67.6884 24.1355C67.6884 24.1355 67.3262 25.1769 67.8695 25.5844C68.4129 26.0371 68.9562 26.4446 68.9562 26.4446L68.9109 27.7577C68.9109 27.9388 68.9562 28.1199 69.0467 28.301L69.7259 29.3876C69.8617 29.614 69.907 29.8404 69.907 30.112V30.6554C69.907 30.7912 69.9975 30.927 70.1786 30.9723L70.3597 31.0176C70.5409 31.0176 70.6767 30.927 70.6767 30.7459L70.7672 30.0215C70.7672 30.0215 71.1294 29.4329 71.9444 30.1573L72.6689 30.4742C72.85 30.5648 73.0311 30.7459 73.1216 30.927C73.3027 31.5156 73.7555 32.6022 74.0724 32.7833C74.5252 33.055 76.2457 32.1948 76.4721 31.7873C76.6985 31.3798 77.3323 28.799 77.7398 27.5313C78.102 26.3088 77.9662 23.23 74.2988 22.3698C70.6314 21.5095 68.2318 23.0489 67.6884 24.1355Z" fill="#AA8383"/>
<path d="M76.5626 31.7871C76.789 31.3796 77.4229 28.7988 77.8304 27.5311C77.8304 27.5311 76.3815 28.4819 74.5252 28.7083C72.6688 28.9799 69.0014 26.8066 69.0014 26.8066V27.7574C69.0014 27.9385 69.0467 28.1197 69.1373 28.3008L69.8164 29.3874C69.9522 29.6138 69.9975 29.8402 69.9975 30.1118V30.6551C69.9975 30.791 70.0881 30.9268 70.2692 30.9721L70.4503 31.0174C70.6314 31.0174 70.7672 30.9268 70.7672 30.7457L70.8578 30.0213C70.8578 30.0213 71.22 29.4327 72.035 30.1571L73.0763 30.6099C73.0763 30.6099 73.6649 32.5568 74.1177 32.8284C74.5704 33.0548 76.291 32.1945 76.5626 31.7871Z" fill="#936D6D"/>
<path d="M76.6079 31.9233C76.6079 31.9233 78.0115 32.8289 77.2871 34.0513C76.5174 35.3191 71.3106 37.4471 71.0389 37.764C71.0389 37.764 70.8578 35.9077 71.5822 35.2738C71.5822 35.2738 75.5666 34.5494 76.2457 33.5533C76.8343 32.5572 76.6079 31.9233 76.6079 31.9233Z" fill="#F0F6FF"/>
<path d="M76.6079 31.9233C76.6079 31.9233 76.8343 32.6025 76.2004 33.5986C75.7024 34.3683 73.3028 34.9569 72.1708 35.1832C72.1708 35.1832 72.5783 35.4096 73.2575 36.6321C74.8874 35.8171 76.8343 34.821 77.2871 34.0513C78.0568 32.8289 76.6079 31.9233 76.6079 31.9233Z" fill="#C4CCD6"/>
<path d="M73.9366 44.6006C75.2043 48.6755 71.718 54.9236 71.1747 56.78C70.6314 58.6363 65.3793 67.0577 65.3793 67.0577C65.5152 67.1936 65.651 67.2841 65.7415 67.3747C65.8774 67.4652 66.0585 67.4652 66.1943 67.3294C67.4168 65.79 70.8578 59.2249 70.9936 58.9532C71.1294 58.6363 73.348 53.3842 73.8913 52.207C74.3441 51.3015 75.8835 46.7739 73.9366 44.6006Z" fill="#24126A"/>
<path d="M77.5135 35.9531C77.5135 35.9531 75.1591 37.2209 74.0272 37.8095C72.8953 38.3981 71.6275 39.1678 71.6275 39.1678L71.22 38.715L70.6767 39.8469C70.6767 39.8469 68.8657 40.8883 68.0507 41.7485C67.1904 42.6088 66.5566 43.786 66.466 44.0123C66.466 44.0123 68.7298 41.1599 70.4956 40.3449L70.9484 40.1186L71.22 39.213L71.6275 39.6658C71.6275 39.6658 76.7891 36.7228 77.5135 35.9531Z" fill="#24126A"/>
<path opacity="0.2" d="M32.7802 69.4122C39.4817 69.4122 44.9143 66.2702 44.9143 62.3943C44.9143 58.5185 39.4817 55.3765 32.7802 55.3765C26.0787 55.3765 20.6461 58.5185 20.6461 62.3943C20.6461 66.2702 26.0787 69.4122 32.7802 69.4122Z" fill="#0B0244"/>
<path opacity="0.2" d="M71.5821 92.8653C78.2836 92.8653 83.7162 89.7233 83.7162 85.8475C83.7162 81.9716 78.2836 78.8296 71.5821 78.8296C64.8806 78.8296 59.448 81.9716 59.448 85.8475C59.448 89.7233 64.8806 92.8653 71.5821 92.8653Z" fill="#0B0244"/>
<path d="M39.8885 36.2244C39.8885 36.2244 40.7488 36.3602 41.0657 36.2244C41.3827 36.0433 42.2429 35.9527 43.1937 36.3149C44.1445 36.6772 44.0992 36.5866 44.4615 36.6319C44.8237 36.6771 45.4575 36.7224 45.6839 36.8583C45.865 36.9941 46.2725 37.2205 45.9103 37.7185C45.5481 38.2165 44.2351 37.7638 44.0087 37.7185C43.7823 37.6732 43.5559 38.0807 43.6465 38.3977C43.737 38.7599 45.7745 40.9331 46.0914 41.1595C46.4083 41.3859 47.7666 42.2914 47.8119 42.6536C47.8572 43.0159 47.8119 43.0611 47.8119 43.0611C47.8119 43.0611 48.2194 43.4233 48.0836 43.7403C47.9478 44.0572 47.3139 43.5592 47.2233 43.6497C47.2233 43.6497 47.3139 44.0119 47.1781 44.1025C47.0422 44.1478 46.1367 43.8308 46.0461 43.7403C46.0461 43.7403 45.9556 44.0119 45.4575 43.7403C44.9595 43.4686 43.0126 42.3367 42.7862 42.1556C42.5598 41.9292 41.7901 41.2501 41.4732 41.069C41.1563 40.8879 40.613 40.254 40.3413 39.9823C40.0696 39.7107 38.8924 39.1221 38.4397 39.0315C37.9869 38.8504 39.8885 36.2244 39.8885 36.2244Z" fill="#FCD1C5"/>
<path d="M41.4279 40.1635C40.9751 39.3486 39.5263 38.7147 39.5263 38.7147C39.6168 38.0355 40.5677 36.2245 40.5677 36.2245C40.2507 36.2245 39.9338 36.1792 39.9338 36.1792C39.9338 36.1792 37.9869 38.8052 38.4397 38.8958C38.8924 38.9863 40.0696 39.5749 40.3413 39.8466C40.6129 40.1183 41.1562 40.7521 41.4732 40.9332C41.7901 41.1143 42.5598 41.8388 42.7862 42.0199C43.0126 42.2462 44.9142 43.3329 45.4575 43.6045C45.9556 43.8762 46.0461 43.6045 46.0461 43.6045C46.1367 43.6951 47.0422 44.0573 47.178 43.9668C47.3139 43.9215 47.2233 43.514 47.2233 43.514C47.2233 43.514 46.5894 43.1518 45.9556 42.9254C45.3217 42.7896 41.8807 40.9785 41.4279 40.1635Z" fill="#E2B1A6"/>
<path d="M38.4397 33.2812C38.4397 33.2812 38.6208 34.2773 38.5755 35.047C38.4849 35.862 36.9003 34.8207 36.9455 34.6395C36.9908 34.5037 37.7152 33.2812 37.7152 33.2812H38.4397Z" fill="#FCD1C5"/>
<path d="M31.4218 9.0587C31.4218 9.0587 32.3273 9.01342 33.4139 10.8245C34.4553 12.545 36.3116 18.7026 37.2625 21.057C37.353 21.2834 37.3983 21.4645 37.4436 21.6908C37.7605 23.5472 39.2093 32.195 39.2999 33.2364C39.2999 33.2364 38.168 33.9608 37.4436 34.1872L35.8589 33.6438L34.3195 17.9329L31.784 9.64729L31.4218 9.0587Z" fill="#24126A"/>
<path d="M26.3508 60.7642C26.3508 60.7642 26.0339 62.213 26.215 62.4847C26.3961 62.7563 28.2525 64.8843 28.4788 65.2013C28.6599 65.4729 29.656 67.2387 31.4671 67.6462C33.2782 68.0537 34.5006 67.9631 34.727 67.1029C34.9534 66.2426 33.912 64.8843 33.414 64.4316C32.9159 63.9788 30.8785 61.5339 30.5163 61.1716C30.1541 60.8094 29.6108 60.7642 29.6108 60.7642L27.2564 61.1716L26.3508 60.7642Z" fill="#160A5B"/>
<path d="M33.5951 56.4175C33.5951 56.4175 35.3609 57.0966 36.3117 57.3683C37.2625 57.5947 39.481 59.2699 39.4358 60.0849C39.3905 60.9451 38.3038 61.4884 37.2172 61.3979C36.0853 61.3073 34.7723 60.5829 34.5459 60.4018C34.3195 60.2207 33.5498 59.8132 32.6443 59.4963C31.7387 59.2246 30.2446 59.0888 30.0182 58.5908C29.7919 58.0927 29.7466 57.0966 29.7466 57.0966L33.5951 56.4175Z" fill="#160A5B"/>
<path d="M29.5655 56.1005C29.5655 56.01 29.656 55.8741 29.656 55.8289C29.7466 55.3761 29.656 53.6103 29.656 53.6103L29.2485 54.1536C29.2485 54.1536 29.5202 55.9647 30.0635 58.7718C30.1993 59.4963 30.5615 60.2207 30.6068 60.6282C30.7879 61.8506 30.0635 62.077 30.0635 62.077C28.6146 63.1636 27.3469 62.5298 26.9394 62.1676C26.4867 61.8054 26.3508 61.262 25.717 59.2246C25.0831 57.2324 24.585 52.9764 24.7209 51.9351C24.8567 51.0295 25.1736 48.5393 25.1284 46.8188C25.1284 45.0983 23.8153 39.6651 23.8153 39.6651L29.2485 38.6238L32.9612 36.7222L35.7683 37.1297C35.7683 37.1297 36.1305 35.9525 36.4928 39.6651C36.855 43.4231 34.5911 50.0787 34.5911 50.0787C34.0026 53.3839 33.8215 57.1872 33.5045 57.6852C33.1423 58.1832 31.8293 59.4057 30.5615 58.4549C30.3352 58.2738 30.0635 58.0927 29.9277 57.9116L29.5655 56.1005Z" fill="#24126A"/>
<path d="M29.2485 54.1085C29.2485 54.1085 31.0143 49.264 31.8746 44.5552C32.6896 39.937 34.1384 39.3031 34.727 38.4429C34.727 38.4429 35.6325 38.8504 36.0853 38.9409C36.1306 38.9409 36.1758 38.9409 36.2211 38.9409C36.6286 38.9409 34.229 41.8839 33.8215 42.6536C33.3687 43.4233 30.9238 49.9431 30.7427 50.8486C30.5616 51.7542 30.3804 58.0476 30.6068 58.4098C30.7879 58.772 29.9277 58.1382 29.9277 58.1382C29.9277 58.1382 29.4296 56.8251 29.2485 54.1085Z" fill="#160A5B"/>
<path d="M33.8667 36.8131L32.9159 36.6772L29.2033 38.5789L23.7701 39.6202C23.7701 39.6202 25.0831 45.0534 25.0831 46.7739C25.0831 48.4944 24.7662 50.9846 24.6756 51.8901C24.5398 52.8862 25.0831 57.1422 25.6717 59.1797C25.9434 60.0399 26.1245 60.6738 26.2603 61.0813C26.4867 62.2132 27.3922 62.3943 27.3922 62.3943C27.3922 62.3943 25.2642 55.8292 25.4453 51.9807C25.6264 48.1775 26.1697 45.0534 26.0792 44.2837C26.0792 44.2837 32.2368 42.3821 33.414 38.3977C33.6404 37.8092 33.7762 37.2658 33.8667 36.8131Z" fill="#160A5B"/>
<path d="M23.1815 9.87359C23.1815 9.87359 22.7287 10.2358 22.6382 10.598C22.5476 10.9602 22.0043 12.3185 22.0043 12.3185C22.0043 12.3185 19.4235 15.7595 18.9708 16.8009C18.518 17.8423 18.3369 18.6572 18.3369 18.6572L25.1736 27.0787C25.1736 27.0787 22.774 35.319 23.4531 38.3525C24.1323 41.386 24.9925 42.518 26.0792 42.8349C27.1658 43.1518 32.9159 40.7974 33.2781 37.8092C33.6856 34.8209 33.5045 34.4587 33.5045 34.4587C33.5045 34.4587 36.1758 35.1832 36.3569 34.504C36.538 33.8249 36.04 28.8897 35.8589 28.2106C35.7231 27.5314 35.3156 19.7439 35.3156 19.7439C35.3156 19.7439 33.6856 12.5902 33.5951 12.228C33.5045 11.8658 32.5084 9.19444 31.1954 9.05861C29.8824 8.92278 28.2524 11.0055 28.2524 11.0055L23.1815 9.87359Z" fill="#453C9E"/>
<path d="M23.4984 9.64697C23.4984 9.64697 23.2268 9.82808 23.1815 10.145C23.1362 10.4619 22.9098 11.0505 23.4079 11.6391C23.9059 12.273 27.845 15.4424 29.4297 18.159C31.0596 20.8755 33.0518 23.9091 33.1876 24.5429C33.1876 24.5429 33.912 20.2417 33.2782 18.2495C32.6443 16.2573 30.5616 12.273 30.1088 11.9561C29.656 11.6391 26.9847 11.4128 26.9847 11.4128L23.4984 9.64697Z" fill="#F0F6FF"/>
<path d="M27.5733 13.9936C27.5733 13.9936 27.3469 14.3558 27.3016 14.6275C27.3016 14.6275 26.1697 14.0389 25.6717 13.8125L27.4375 15.035C27.4375 15.035 27.528 14.4011 27.6186 14.3105C27.6186 14.3105 28.6147 15.0802 28.7505 15.3972C28.8863 15.7594 30.7427 20.3776 30.7427 20.3776L31.6935 21.9623L31.9651 21.6001L30.3804 17.2535C30.3804 17.2535 29.4749 15.8952 29.4749 15.8499C29.4749 15.8047 28.841 14.3558 28.841 14.3558L27.5733 13.9936Z" fill="#C4CCD6"/>
<path d="M27.5733 13.9934C27.5733 13.9934 28.1619 12.9068 29.2938 12.9521C29.2938 12.9521 29.6107 14.3104 29.7013 14.8537C29.7013 14.8537 28.9769 15.1706 28.6599 14.899C28.3883 14.6273 27.5733 13.9934 27.5733 13.9934Z" fill="#160A5B"/>
<path d="M29.5202 14.5373C29.5202 14.5373 32.4179 18.1141 33.414 22.4154L33.2329 24.6339L31.6935 21.9173C31.6935 21.9173 29.2033 15.6692 28.6147 14.5373C28.0261 13.4053 29.5202 14.5373 29.5202 14.5373Z" fill="#160A5B"/>
<path d="M24.7209 28.8442C24.5398 29.6139 24.3134 30.5647 24.087 31.5608C24.087 31.5608 28.3883 37.1751 32.5537 39.4389C32.9612 38.8956 33.2329 38.3523 33.3234 37.7637C33.5498 36.179 33.5951 35.3641 33.5951 34.9113L28.7505 31.2439L24.7209 28.8442Z" fill="#24126A"/>
<path d="M24.4492 20.604C24.4492 20.604 25.6717 22.2792 26.0339 22.4603C26.3508 22.5962 29.0221 27.3049 29.5655 28.2105C30.1088 29.116 31.5576 30.3385 31.5576 30.3385L30.1993 30.4743L24.8567 23.3206L24.4492 20.604Z" fill="#24126A"/>
<path d="M25.1737 22.0981C24.6303 20.7398 23.8154 19.5626 22.7287 18.6571C21.5063 17.6157 19.8763 16.6196 19.0161 17.5251C17.5219 19.1098 18.1558 22.0981 20.2385 24.9052C22.3665 27.7576 25.6717 31.7872 26.4867 32.4664C27.2564 33.1003 33.6856 37.9901 37.3983 39.8012C37.67 39.937 37.9869 39.8465 38.168 39.5748C38.6661 38.7145 39.7527 36.994 40.1149 36.2696C40.2055 36.1338 40.1602 35.9527 40.0244 35.8621C38.6661 35.0019 31.9199 30.6553 29.9277 29.297C29.6108 29.0706 29.3844 28.799 29.2033 28.4821C28.6147 27.3501 27.1205 24.543 25.8075 23.0941C25.5359 22.7772 25.3548 22.4603 25.1737 22.0981C25.2189 22.1433 25.2189 22.1433 25.1737 22.0981Z" fill="#4846A5"/>
<path d="M30.1541 10.5073L32.5084 12.907L31.9198 13.1334L32.6895 13.5861C32.6895 13.5861 34.5912 18.0685 34.1837 23.1395C34.1837 23.1395 35.1345 19.1551 33.097 13.4956L32.4632 13.1786L32.8706 13.0428L30.1541 10.5073Z" fill="#24126A"/>
<path d="M23.4532 9.23961C23.4984 9.33016 23.4984 9.42072 23.4984 9.55655C23.4984 9.78293 23.4532 10.1451 23.4532 10.281C23.4984 10.5074 24.9473 12.9976 27.9808 13.0428C27.9808 13.0428 28.343 12.4995 28.4336 12.409C28.4336 12.409 29.656 12.3637 30.1541 11.9109C30.6521 11.4582 30.3352 10.6885 30.3352 10.6885L30.4257 9.73765C30.4257 9.60182 30.471 9.51127 30.5616 9.42072C30.6521 9.33017 30.8332 9.14906 30.8332 9.05851C30.8785 8.96795 30.788 8.74157 30.7427 8.60574C30.6974 8.51519 30.6974 8.42463 30.6974 8.33408C30.7427 8.1077 30.7427 7.60966 30.5616 6.97579C30.5163 6.79468 30.5163 6.61357 30.5616 6.43247C30.6521 6.11553 30.7427 5.70805 30.7427 5.52694C30.7427 5.30056 30.3352 4.62141 30.3352 4.34975C30.3352 4.07809 29.973 3.21783 29.973 3.21783C29.973 3.21783 27.7091 -0.947604 24.087 0.863457C20.4196 2.67452 22.3212 6.61357 22.774 7.70021C22.774 7.70021 23.2268 8.60574 23.2721 8.78685C23.4079 8.92268 23.3626 9.01323 23.4532 9.23961Z" fill="#FCD1C5"/>
<path d="M30.3352 3.62532C30.3804 3.94225 30.2446 4.21391 30.0182 4.39502C29.5655 4.80251 28.7052 5.43638 27.528 5.57221C26.713 5.66276 26.2603 5.70804 26.0339 5.75332C25.8528 5.75332 25.7622 5.88914 25.717 6.07025C25.717 6.38719 25.6717 6.83995 25.6264 7.15689C25.6264 7.29272 25.5811 7.38327 25.5359 7.5191L25.2642 8.06242C25.2189 8.19825 25.0378 8.2888 24.902 8.2888H24.8567C24.6756 8.2888 24.5398 8.15297 24.5398 7.97186V7.92659C24.4945 7.5191 24.2228 7.11161 23.8606 6.9305C23.6795 6.83995 23.4531 6.79468 23.2268 6.88523C22.5929 7.15689 22.8645 7.74548 22.8645 7.74548C22.8645 7.74548 22.0948 6.83995 21.7779 5.61748C21.4157 4.39502 21.5062 2.22175 23.0909 1.08983C24.6756 -0.0420788 26.713 -0.494845 28.4788 0.72762C29.9277 1.7237 30.2899 2.94617 30.3352 3.62532Z" fill="#AA8383"/>
<path d="M24.3587 8.74139C24.2681 8.65084 24.3587 9.46581 23.5437 9.51109C23.5437 9.73747 23.4984 10.0997 23.4984 10.2355C23.5437 10.4619 24.9925 12.9521 28.0261 12.9974C28.0261 12.9974 28.3883 12.4541 28.4788 12.3635C28.4788 12.3635 25.717 11.0052 25.2189 10.4166C24.7209 9.78275 24.4492 8.87722 24.3587 8.74139Z" fill="#E2B1A6"/>
<path d="M29.2938 12.907C29.2938 12.907 30.1088 12.9975 30.5163 13.2239C30.5163 13.2239 30.6068 12.8164 30.4257 12.3184C30.4257 12.3184 30.6521 12.4995 30.6521 13.4955C30.6521 13.4955 29.4296 13.0881 29.3391 13.0881L29.2938 12.907Z" fill="#C4CCD6"/>
<path d="M38.4849 38.8956C38.4849 38.8956 31.4671 34.866 29.1127 33.2361C26.7583 31.6514 20.1027 24.8599 18.7444 22.2339C19.1066 23.0941 19.6046 23.9997 20.2838 24.9052C22.4118 27.7576 25.717 31.7872 26.5319 32.4664C27.3016 33.1003 33.7309 37.9901 37.4436 39.8012C37.7152 39.937 38.0322 39.8464 38.2133 39.5748C38.3038 39.3937 38.4397 39.2126 38.5755 38.9862C38.4849 38.9409 38.4849 38.8956 38.4849 38.8956Z" fill="#24126A"/>
<path d="M22.3665 12.5449L25.5811 17.1178L26.3961 16.8462L26.4414 17.7064C26.4414 17.7064 30.2899 20.5589 33.1423 26.4901C33.1423 26.4901 29.3391 20.3778 26.3055 18.3403L26.0339 17.4801L25.4 17.6159L22.3665 12.5449Z" fill="#24126A"/>
<path d="M22.0496 6.20614C22.0043 6.20614 22.0043 6.20614 21.959 6.16086C22.3212 7.06639 22.8645 7.74554 22.8645 7.74554C22.8645 7.74554 22.5929 7.15695 23.2268 6.88529C23.4531 6.79474 23.6795 6.84001 23.8606 6.93057C24.2228 7.11167 24.4945 7.47388 24.5398 7.92665V7.97192C24.5398 8.15303 24.6756 8.24359 24.8567 8.28886H24.902C25.0378 8.28886 25.1736 8.19831 25.2642 8.06248L25.5359 7.51916C25.5811 7.38333 25.6264 7.29278 25.6264 7.15695C25.6717 6.84001 25.717 6.38725 25.717 6.07031C25.7622 6.07031 23.6342 6.74946 22.0496 6.20614Z" fill="#936D6D"/>
<defs>
<linearGradient id="paint0_linear" x1="-48.8112" y1="3.34743" x2="71.0388" y2="51.8109" gradientUnits="userSpaceOnUse">
<stop stop-color="#C0BFF6"/>
<stop offset="0.2938" stop-color="#C5C4F7"/>
<stop offset="0.6399" stop-color="#D3D2F9"/>
<stop offset="1" stop-color="#E9E9FD"/>
</linearGradient>
<linearGradient id="paint1_linear" x1="120.788" y1="133.216" x2="87.6655" y2="58.518" gradientUnits="userSpaceOnUse">
<stop stop-color="#C0BFF6"/>
<stop offset="0.2938" stop-color="#C5C4F7"/>
<stop offset="0.6399" stop-color="#D3D2F9"/>
<stop offset="1" stop-color="#E9E9FD"/>
</linearGradient>
<linearGradient id="paint2_linear" x1="61.4538" y1="60.6731" x2="150.969" y2="98.8328" gradientUnits="userSpaceOnUse">
<stop stop-color="#C0BFF6"/>
<stop offset="0.2938" stop-color="#C5C4F7"/>
<stop offset="0.6399" stop-color="#D3D2F9"/>
<stop offset="1" stop-color="#E9E9FD"/>
</linearGradient>
</defs>
</svg>
