<svg width="36" height="36" viewBox="0 0 36 36" fill="none" xmlns="http://www.w3.org/2000/svg">
<circle cx="18" cy="18" r="18" fill="#02084D"/>
<path d="M26.9045 22.2747C26.8827 22.2278 26.8624 22.1888 26.8435 22.1576C26.5312 21.5951 25.9345 20.9048 25.0535 20.0863L25.0349 20.0675L25.0256 20.0583L25.0162 20.0489H25.0067C24.6069 19.6678 24.3537 19.4115 24.2477 19.2803C24.0537 19.0304 24.0102 18.7774 24.1163 18.5211C24.1912 18.3274 24.4726 17.9184 24.9597 17.2935C25.216 16.9623 25.419 16.6969 25.5688 16.4969C26.6498 15.0598 27.1185 14.1415 26.9747 13.7416L26.9188 13.6482C26.8813 13.5919 26.7845 13.5404 26.6285 13.4935C26.4721 13.4466 26.2722 13.4389 26.0285 13.4701L23.3295 13.4888C23.2858 13.4733 23.2233 13.4747 23.142 13.4935C23.0607 13.5123 23.0201 13.5217 23.0201 13.5217L22.9731 13.5451L22.9358 13.5733C22.9046 13.592 22.8702 13.6248 22.8327 13.6717C22.7954 13.7184 22.7642 13.7732 22.7392 13.8357C22.4454 14.5916 22.1113 15.2945 21.7363 15.9443C21.5051 16.3317 21.2928 16.6675 21.0989 16.9518C20.9053 17.236 20.7428 17.4454 20.6117 17.5796C20.4804 17.7139 20.3619 17.8216 20.2555 17.9029C20.1492 17.9842 20.0681 18.0186 20.012 18.006C19.9557 17.9935 19.9027 17.981 19.8525 17.9685C19.7651 17.9122 19.6947 17.8357 19.6417 17.7389C19.5885 17.6421 19.5526 17.5202 19.5339 17.3734C19.5153 17.2264 19.5042 17.1001 19.5011 16.9938C19.4982 16.8877 19.4995 16.7376 19.5058 16.5439C19.5123 16.3501 19.5153 16.219 19.5153 16.1503C19.5153 15.9128 19.5199 15.6551 19.5292 15.3771C19.5386 15.0991 19.5463 14.8788 19.5527 14.7165C19.559 14.554 19.562 14.3822 19.562 14.201C19.562 14.0198 19.551 13.8777 19.5292 13.7745C19.5076 13.6715 19.4746 13.5715 19.431 13.4746C19.3872 13.3778 19.3231 13.3029 19.2389 13.2497C19.1546 13.1966 19.0497 13.1544 18.925 13.1231C18.5938 13.0482 18.1721 13.0076 17.6596 13.0013C16.4976 12.9889 15.7509 13.0639 15.4198 13.2264C15.2886 13.295 15.1699 13.3888 15.0637 13.5074C14.9512 13.6449 14.9355 13.7199 15.0167 13.7323C15.3917 13.7884 15.6571 13.9228 15.8133 14.1352L15.8696 14.2478C15.9134 14.329 15.9571 14.4728 16.0009 14.6789C16.0445 14.885 16.0727 15.1131 16.0852 15.3629C16.1163 15.819 16.1163 16.2095 16.0852 16.5344C16.0539 16.8593 16.0243 17.1123 15.9961 17.2935C15.9679 17.4747 15.9258 17.6215 15.8696 17.734C15.8133 17.8464 15.7758 17.9152 15.7571 17.9401C15.7383 17.9651 15.7227 17.9808 15.7103 17.987C15.6291 18.0181 15.5446 18.0339 15.4572 18.0339C15.3697 18.0339 15.2635 17.9901 15.1386 17.9026C15.0137 17.8151 14.884 17.6949 14.7497 17.5418C14.6153 17.3887 14.4638 17.1747 14.2951 16.8998C14.1264 16.6249 13.9515 16.3001 13.7703 15.9252L13.6204 15.6533C13.5267 15.4785 13.3986 15.2238 13.2362 14.8896C13.0736 14.5553 12.93 14.2319 12.8051 13.9195C12.7551 13.7883 12.6801 13.6884 12.5802 13.6197L12.5333 13.5915C12.5021 13.5665 12.452 13.54 12.3834 13.5118C12.3146 13.4836 12.2428 13.4634 12.1678 13.4509L9.59991 13.4696C9.33751 13.4696 9.15946 13.529 9.06572 13.6478L9.0282 13.7039C9.00945 13.7352 9 13.7852 9 13.8539C9 13.9227 9.01874 14.007 9.05626 14.1069C9.43113 14.9879 9.83878 15.8376 10.2792 16.6561C10.7197 17.4746 11.1024 18.1338 11.4272 18.6334C11.7521 19.1333 12.0832 19.6051 12.4206 20.0485C12.7581 20.4922 12.9814 20.7765 13.0907 20.9014C13.2001 21.0265 13.286 21.1201 13.3485 21.1825L13.5828 21.4074C13.7328 21.5574 13.953 21.737 14.2435 21.9463C14.5341 22.1557 14.8558 22.3618 15.2088 22.565C15.5619 22.7679 15.9726 22.9335 16.4413 23.0615C16.9099 23.1897 17.3659 23.2412 17.8096 23.2163H18.8873C19.1059 23.1975 19.2715 23.1287 19.3841 23.0101L19.4214 22.9631C19.4465 22.9258 19.4699 22.8679 19.4916 22.7899C19.5135 22.7118 19.5244 22.6258 19.5244 22.5322C19.518 22.2636 19.5385 22.0215 19.5852 21.806C19.6319 21.5905 19.6852 21.4281 19.7447 21.3187C19.8042 21.2094 19.8714 21.1171 19.9461 21.0424C20.021 20.9674 20.0744 20.922 20.1057 20.9064C20.1368 20.8907 20.1617 20.88 20.1804 20.8736C20.3304 20.8236 20.5068 20.872 20.7101 21.019C20.9132 21.1658 21.1037 21.3471 21.2818 21.5626C21.4599 21.7782 21.6739 22.0202 21.9237 22.2888C22.1738 22.5575 22.3924 22.7572 22.5798 22.8886L22.7671 23.0011C22.8922 23.0761 23.0547 23.1449 23.2547 23.2073C23.4543 23.2698 23.6292 23.2854 23.7793 23.2542L26.1784 23.2168C26.4157 23.2168 26.6004 23.1775 26.7314 23.0995C26.8626 23.0214 26.9405 22.9354 26.9657 22.8418C26.9908 22.7481 26.9921 22.6418 26.9704 22.523C26.9482 22.4045 26.9263 22.3216 26.9045 22.2747Z" fill="white"/>
</svg>
