<svg width="168" height="160" viewBox="0 0 168 160" fill="none" xmlns="http://www.w3.org/2000/svg">
<path opacity="0.5" d="M84 160C130.392 160 168 138.041 168 110.952C168 83.8642 130.392 61.9048 84 61.9048C37.6081 61.9048 0 83.8642 0 110.952C0 138.041 37.6081 160 84 160Z" fill="url(#paint0_radial)"/>
<path d="M77.6633 100.828L77.5693 101.112L77.4754 100.923C77.4754 100.923 77.0056 102.439 77.3814 103.197C77.7572 103.956 78.3209 104.903 79.1665 106.041C80.0121 107.083 81.2334 109.358 81.6092 109.831C81.985 110.305 83.958 111.916 86.4007 112.201C88.8435 112.485 89.5011 111.063 89.3132 110.211C89.1253 109.452 87.81 107.367 86.3068 105.756C84.8975 104.05 83.7701 101.965 83.7701 101.965L77.6633 100.828Z" fill="#160A5B"/>
<path d="M85.0854 94.0046C85.0854 94.0046 84.9915 95.6157 85.1794 96.2791C85.3673 96.9425 89.0314 97.1321 90.2528 97.3216C91.5681 97.5111 93.8229 98.4589 94.4806 98.7432C95.2322 99.1223 99.9297 99.5961 100.493 97.7955C101.057 95.9948 98.1447 94.5732 96.0777 94.0994C94.1048 93.6255 90.8165 92.583 90.8165 92.583L85.0854 94.0046Z" fill="#160A5B"/>
<path d="M72.4959 62.2563C72.4959 62.2563 72.402 66.7106 73.8112 72.9656C75.3145 79.1257 75.1266 83.4852 75.1266 83.4852C75.1266 83.4852 73.5294 90.4984 74.9387 95.3317C76.3479 100.165 77.4753 101.492 77.4753 101.492C77.4753 101.492 80.1999 105.188 83.7701 101.871C83.7701 101.871 81.7971 95.3317 81.5153 90.0245C81.5153 90.0245 83.3003 86.1388 83.864 82.727C83.864 82.727 84.3338 88.2238 84.7096 90.4036C84.7096 90.4036 84.4277 93.6258 85.2733 94.9526C86.1189 96.2794 89.9709 96.6585 91.1922 94.384C92.4136 92.1095 90.1588 93.2467 90.8164 82.727C90.8164 82.727 94.3866 78.2728 94.8563 70.0276C95.3261 61.7825 95.3261 58.5602 94.8563 56.9491C94.3866 55.338 86.4947 49.5569 86.4947 49.5569L82.0789 55.2432L72.4959 62.2563Z" fill="#24126A"/>
<path d="M84.1459 84.8116C84.3338 84.0535 84.5217 83.2953 84.7096 82.5371C84.7096 82.5371 85.1793 88.0339 85.5551 90.2136C85.5551 90.2136 85.2733 93.4359 86.1189 94.7627C86.6826 95.6156 88.4676 96.0895 89.9709 95.7104C88.2797 96.4686 86.0249 96.0895 85.3672 95.047C84.5217 93.7202 84.8035 90.498 84.8035 90.498C84.6156 89.0764 84.3338 86.5175 84.1459 84.8116Z" fill="url(#paint1_linear)"/>
<path d="M72.4959 62.256L82.1729 55.3377L86.5886 49.6514C86.5886 49.6514 86.6826 49.7461 86.9644 49.9357L82.9245 55.1481L73.2475 62.0665C73.2475 62.0665 73.1536 66.5208 74.5628 72.7757C76.0661 78.9359 75.8782 83.2954 75.8782 83.2954C75.8782 83.2954 74.281 90.3085 75.6903 95.1419C77.0995 99.9752 78.227 101.302 78.227 101.302C78.227 101.302 79.9181 103.482 82.3608 102.913C79.5423 104.24 77.4753 101.586 77.4753 101.586C77.4753 101.586 76.3479 100.26 74.9387 95.4262C73.5294 90.5928 75.1266 83.5797 75.1266 83.5797C75.1266 83.5797 75.3145 79.2202 73.8112 73.06C72.402 66.8051 72.4959 62.256 72.4959 62.256Z" fill="url(#paint2_linear)"/>
<path d="M90.0648 71.4489C91.3801 69.9325 92.0378 65.0044 92.0378 65.0044C92.0378 65.0044 90.0648 69.0796 88.5616 70.3116C87.1523 71.5437 85.9309 73.913 85.6491 75.4293C85.3672 76.9457 83.9579 82.7267 83.9579 82.7267C83.9579 82.7267 84.4277 88.2235 84.8035 90.4033C84.8035 90.4033 84.5217 93.6255 85.3672 94.9523C85.5551 95.2366 85.837 95.4262 86.2128 95.6157C86.2128 95.5209 86.0249 88.4131 86.2128 85.3804C86.4007 82.3477 88.7495 72.9652 90.0648 71.4489Z" fill="#160A5B"/>
<path d="M60.6581 29.0859C60.6581 29.0859 57.2758 35.8147 56.9 36.2886C56.5242 36.7625 50.2295 45.0076 49.5718 49.6514C49.5718 49.6514 49.102 51.4521 51.2629 53.0632C53.4238 54.6744 64.51 61.7822 65.1677 61.877C65.8254 61.9718 69.8653 59.9816 70.0532 55.6221C70.0532 55.6221 61.4096 51.5469 59.5306 49.5567C59.5306 49.5567 62.9129 43.8704 64.5101 42.1645C64.8859 41.7854 65.1677 40.9324 65.2617 40.0795C65.8254 36.2886 64.3222 32.5925 61.5976 30.0337L60.6581 29.0859Z" fill="#4846A5"/>
<path d="M86.0249 13.4485C86.0249 13.4485 89.783 17.6184 91.662 17.9028C93.541 18.0923 97.7689 19.7034 101.245 19.6087C104.721 19.5139 117.968 22.5466 119.753 23.3995C119.753 23.3995 119.753 23.4943 119.378 23.4943C119.002 23.4943 117.78 22.9257 116.747 24.1577C115.714 25.3897 115.62 27.3799 115.714 27.5695C115.808 27.759 116.183 27.38 117.593 27.38C119.002 27.4747 119.659 27.8538 119.659 27.8538L119.847 28.612L119.941 29.1806C119.941 29.1806 118.532 30.6022 116.935 29.844C115.338 29.1806 103.594 28.2329 102.936 28.0434C102.279 27.9486 92.3197 27.1904 90.5346 27.0009C88.7495 26.7166 87.1524 26.8113 87.1524 26.8113C87.1524 26.8113 84.052 21.125 83.8641 21.0302C83.8641 20.9355 86.0249 13.4485 86.0249 13.4485Z" fill="#4846A5"/>
<path d="M115.62 27.4748C115.62 27.4748 116.277 30.697 119.847 28.6121C123.324 26.6219 117.78 26.0532 117.78 26.0532L115.62 27.4748Z" fill="#24126A"/>
<path d="M133.282 26.4322C133.095 25.8636 128.115 24.8211 128.115 24.8211C128.115 24.8211 127.457 24.1577 126.8 23.8734C126.048 23.4943 123.324 24.0629 122.384 23.9682C121.539 23.9682 119.847 23.21 119.847 23.21C115.526 21.978 115.526 27.4747 115.714 27.4747C115.901 27.4747 117.311 27.2852 117.78 27.2852C118.25 27.2852 118.814 27.4747 118.814 27.4747C118.908 27.6643 119.566 28.5172 119.941 28.8963C120.411 29.3702 121.82 29.844 122.572 29.7493C123.324 29.6545 125.203 30.4127 125.203 30.5074C125.297 30.6022 125.484 30.8865 125.484 30.8865C125.484 30.8865 125.391 31.3604 125.672 31.6447C125.954 31.929 126.8 31.2656 126.988 31.2656C127.176 31.2656 127.833 31.1708 128.021 31.0761C128.209 30.9813 129.806 28.612 129.9 28.1381C129.994 27.6643 129.336 26.6218 129.336 26.6218C129.336 26.6218 132.249 27.0956 132.437 27.0956C132.625 27.38 133.47 27.0957 133.282 26.4322ZM126.612 28.8015C126.33 28.8015 126.048 28.612 125.672 28.612C125.297 28.612 124.827 28.5172 124.451 28.3277C124.451 28.3277 124.357 27.38 124.827 27.2852C125.297 27.1904 125.672 27.0956 125.672 27.0956C125.672 27.0956 126.33 27.2852 126.33 27.1904C126.33 27.1904 126.518 27.6643 126.988 27.5695C126.988 27.5695 127.082 28.3277 127.645 28.612C127.739 28.612 126.894 28.8015 126.612 28.8015Z" fill="#FCD1C5"/>
<path d="M95.0442 56.9491C94.5745 55.338 86.6826 49.5569 86.6826 49.5569L84.5217 52.4L82.6426 59.7923L72.5899 62.9197C72.5899 62.9197 73.1536 68.0374 81.3273 67.374C89.5011 66.8054 90.4406 60.3609 90.4406 60.3609C90.4406 60.3609 91.3801 62.4459 95.42 63.0145C95.42 59.7923 95.3261 57.9916 95.0442 56.9491Z" fill="#160A5B"/>
<path d="M70.6169 17.6184L69.2076 21.2197C69.2076 21.2197 62.5371 27.0008 60.6581 29.1806C60.6581 29.1806 63.9464 35.5303 64.604 42.2591C64.604 42.2591 67.6104 44.7232 68.55 45.9552C69.4895 47.0925 71.8383 52.4945 72.5899 54.2004C73.3415 56.001 71.2745 61.2135 71.2745 61.2135C71.2745 61.2135 74.0931 66.5207 78.6967 66.3312C83.3003 66.1416 86.4007 63.3932 86.9644 58.3703C87.5281 53.3474 87.3402 52.684 87.3402 52.684C87.3402 52.684 89.4071 58.8442 92.5075 58.8442C95.6079 58.8442 100.587 53.537 100.587 53.537C100.587 53.537 103.876 50.5042 103.594 49.0827C103.312 47.6611 95.7958 35.8146 95.3261 33.8244C94.9503 31.8342 93.2592 24.8211 93.2592 24.8211L86.1189 13.5432L81.7971 13.7328L70.6169 17.6184Z" fill="#453C9E"/>
<path d="M78.7906 65.0045C83.1124 64.815 86.1188 62.2561 86.9644 57.6123C86.9644 57.8018 86.8705 57.9914 86.8705 58.2757C86.3067 63.2986 83.2064 66.047 78.6027 66.2366C73.9991 66.4261 71.1806 61.1189 71.1806 61.1189C71.1806 61.1189 71.3685 60.7398 71.5564 60.1712C72.2141 61.3084 74.8447 65.1941 78.7906 65.0045Z" fill="url(#paint3_linear)"/>
<path d="M70.6169 17.6184C70.6169 17.6184 70.6169 19.7982 71.4625 21.8831C72.308 23.9681 75.0326 35.9094 81.2334 40.0793L83.5822 41.5957V34.0139C83.5822 34.0139 83.5822 29.3701 82.4548 26.3374C81.4213 23.3995 81.4213 19.7982 81.4213 19.7982L79.6362 19.3243C79.7302 19.3243 70.6169 17.6184 70.6169 17.6184Z" fill="#F0F6FF"/>
<path d="M78.3209 23.1152C78.3209 23.1152 79.4483 23.589 79.9181 22.8308C80.3878 22.0727 80.8576 20.6511 80.7636 19.9877C80.7636 19.9877 83.6761 20.1772 84.2398 18.5661C84.8035 17.0498 84.1459 16.5759 84.0519 16.102C83.958 15.6282 83.864 14.3961 83.4882 13.4484V13.0693C83.4882 13.0693 84.0519 12.5955 83.7701 12.0268C83.4882 11.4582 81.891 9.75232 81.7031 9.46801C81.5152 9.18369 81.7031 7.0987 81.1394 6.05621C80.4818 5.01372 79.3544 3.59214 79.3544 3.59214C79.3544 3.59214 73.0596 -1.336 68.1742 3.59214C63.2887 8.52028 70.7109 17.5236 70.7109 17.5236C70.7109 17.5236 71.2745 20.4615 72.7778 21.5988C74.0931 22.8308 78.3209 23.1152 78.3209 23.1152Z" fill="#FCD1C5"/>
<path d="M73.7173 11.174C73.7173 10.9845 73.7173 10.795 73.6233 10.6054C73.4354 10.0368 73.1536 8.6152 74.6568 7.47794C76.5358 6.05636 79.8241 4.82433 79.7302 3.49752C79.6362 2.07594 74.375 -1.33585 70.523 0.559588C66.6709 2.36025 63.0068 7.00408 65.6375 11.9322C68.2681 16.8604 70.6169 17.6185 70.6169 17.6185C70.6169 17.6185 71.3685 17.429 70.7109 16.6708C69.9593 15.8179 68.7379 13.8277 69.7714 13.1643C70.8048 12.5008 72.6838 13.9224 72.9657 14.2067C73.0596 14.3015 73.1536 14.4911 73.2475 14.5858C73.3415 14.7754 73.7173 14.8701 73.9052 14.7754H73.9992C74.281 14.6806 74.375 14.3963 74.281 14.112L73.8112 12.8799C73.7173 12.6904 73.7173 12.5009 73.7173 12.3113V11.174Z" fill="#AA8383"/>
<path d="M78.133 24.5369C78.133 24.5369 76.7238 25.5794 75.8782 27.4748C75.8782 27.4748 77.3814 25.9584 78.227 25.5794C78.227 25.5794 79.8241 26.3375 79.8241 26.9062C79.8241 27.38 80.012 30.5075 80.3879 32.2134C80.7637 33.9193 80.7637 39.7004 80.7637 39.7004L81.7971 40.3638L82.2669 37.8049L82.079 32.3082L81.1395 27.2852C81.1395 27.2852 80.9516 25.3898 80.8576 25.295C80.7637 25.295 78.133 24.5369 78.133 24.5369Z" fill="#C4CCD6"/>
<path d="M78.133 24.5367C78.133 24.5367 79.7302 22.8308 80.4818 22.8308C81.3273 22.8308 81.7031 23.2099 81.7031 23.3047C81.7031 23.3994 82.4548 26.0531 82.4548 26.0531C82.4548 26.0531 83.958 30.6969 83.7701 36.0989C83.5822 41.5009 83.4882 41.5009 83.4882 41.5009L81.5153 40.2688C81.5153 40.2688 82.079 36.3832 80.9515 31.9289C79.9181 27.4746 80.8576 26.7165 80.2939 26.3374C79.9181 25.7687 77.8512 25.1053 78.133 24.5367Z" fill="#24126A"/>
<path d="M68.55 45.8604C69.4895 46.9976 71.7443 52.3049 72.496 54.1055C72.5899 54.3898 72.6838 54.7689 72.6838 55.2428C72.8717 55.3376 72.9657 55.4323 72.9657 55.4323L73.9992 54.4846C73.9992 54.4846 73.0597 51.2624 71.6504 47.1872C70.2411 43.112 64.5101 42.259 64.5101 42.259C64.5101 42.259 67.6105 44.7231 68.55 45.8604Z" fill="#24126A"/>
<path d="M70.0532 55.8113C70.0532 55.8113 71.6504 53.442 72.2141 53.1577C72.2141 53.1577 72.1201 53.8211 73.0597 54.2002C73.9992 54.5793 78.7907 56.4747 78.9786 56.759C79.1665 56.9486 78.9786 57.2329 78.6967 57.3277C78.6967 57.3277 79.7302 57.7068 80.106 57.7068C80.4818 57.7068 81.0455 58.1806 80.7636 58.6545C80.4818 59.1283 80.2939 59.0336 80.2939 59.0336C80.2939 59.0336 80.3879 59.5074 80.106 59.6022C79.8242 59.697 79.0725 59.697 79.0725 59.697C79.0725 59.697 79.2604 60.1708 78.7907 60.3604C78.4149 60.5499 76.4419 60.7395 76.4419 60.7395C76.4419 60.7395 74.9387 60.5499 74.4689 60.5499C73.9992 60.5499 72.0262 61.0238 71.1806 60.929C70.3351 60.8342 67.5165 59.7917 67.2347 59.6022C66.9528 59.6022 70.0532 55.8113 70.0532 55.8113Z" fill="#FCD1C5"/>
<path d="M68.9258 22.3569L69.1137 25.5792L70.8048 26.1478L69.6774 27.0955C69.6774 27.0955 74.375 37.8048 80.2939 41.1218C80.2939 41.1218 74.6568 39.1316 69.3016 27.1903C69.3016 27.1903 69.8653 26.5269 70.0532 26.3374L68.8318 25.7687L68.9258 22.3569Z" fill="#24126A"/>
<path d="M84.1459 21.978C84.1459 21.978 86.2128 32.8768 84.4277 41.1219C84.4277 41.1219 86.5886 37.1415 84.6156 21.978H84.1459Z" fill="#24126A"/>
<path d="M129.9 28.0434C129.806 27.5696 129.336 26.8114 129.336 26.8114C129.336 26.8114 126.894 26.6219 126.518 26.5271C126.518 26.6219 128.679 27.4748 129.9 28.0434Z" fill="#E2B1A6"/>
<path d="M115.62 27.4746C115.714 27.4746 116.183 27.4746 116.559 27.3799C116.183 24.9158 118.908 23.0204 119.002 23.0204C115.526 22.736 115.526 27.4746 115.62 27.4746Z" fill="#E2B1A6"/>
<path d="M67.2347 59.792C67.4226 59.8868 69.0197 60.4554 70.1472 60.8345C70.1472 60.8345 70.8988 57.8966 70.7109 56.9488C70.523 56.0011 70.1472 55.7168 70.1472 55.7168C70.0532 55.8116 70.0532 55.9064 70.0532 55.9064C70.0532 55.9064 66.9528 59.6024 67.2347 59.792Z" fill="#E2B1A6"/>
<path d="M70.0532 55.7168C70.0532 55.7168 70.523 57.4227 69.3955 58.7495C68.2681 60.0763 68.1742 60.2659 68.1742 60.2659H66.8589C66.8589 60.2659 66.2012 58.1809 66.2952 58.0861C66.3891 57.9913 70.0532 55.7168 70.0532 55.7168Z" fill="#4846A5"/>
<path d="M82.2669 25.2002C82.2669 25.2002 83.4882 32.6872 83.2064 35.4356C82.9245 38.1839 83.0185 41.1219 83.0185 41.1219L83.3943 41.501L83.4882 41.5957C83.4882 41.5957 83.5822 41.5957 83.7701 36.1937C83.958 30.7917 82.4548 26.1479 82.4548 26.1479C82.4548 26.1479 82.4548 25.6741 82.2669 25.2002Z" fill="#24126A"/>
<path d="M82.7366 102.724C83.1124 102.534 83.4882 102.25 83.864 101.871C83.864 101.871 81.891 95.3317 81.6092 90.0245C81.6092 90.0245 83.3943 86.1388 83.958 82.7271C83.7701 83.3905 81.7031 87.0866 80.7636 90.8774C79.8241 94.6683 82.7366 102.724 82.7366 102.724Z" fill="#160A5B"/>
<path d="M73.5294 16.3865C73.5294 16.576 74.0931 19.2296 75.1265 20.4617C76.254 21.7885 77.0995 23.0205 77.0995 23.0205C77.7572 23.1153 78.227 23.1153 78.227 23.1153C78.227 23.1153 79.3544 23.5891 79.8241 22.831C80.2939 22.0728 80.7636 20.6512 80.6697 19.9878C80.6697 19.9878 76.7237 19.6087 75.2205 18.4715C73.8112 17.5237 73.5294 16.576 73.5294 16.3865Z" fill="#E2B1A6"/>
<path d="M72.1201 53.1579C72.1201 53.1579 72.308 53.6317 72.402 53.6317L72.4959 53.2526L72.308 52.8735C72.2141 52.9683 72.1201 53.1579 72.1201 53.1579Z" fill="#1B2B3A"/>
<path d="M83.5822 41.5012C83.5822 41.5012 86.3067 50.4098 87.2462 52.5895L87.1523 54.7693C87.2463 54.7693 83.6761 43.681 83.5822 41.5012Z" fill="#24126A"/>
<path d="M86.3067 44.7233C86.4946 45.1972 86.2128 45.7658 85.743 45.9554C85.2733 46.1449 84.7096 45.7658 84.6156 45.292C84.4277 44.8181 84.7096 44.2495 85.1793 44.0599C85.5551 43.8704 86.1188 44.1547 86.3067 44.7233Z" fill="#24126A"/>
<path d="M87.6221 48.5141C87.81 48.9879 87.5281 49.5566 87.0584 49.7461C86.5886 49.9357 86.0249 49.5566 85.9309 49.0827C85.743 48.6088 86.0249 48.0402 86.4946 47.8507C86.9644 47.7559 87.5281 48.0402 87.6221 48.5141Z" fill="#24126A"/>
<path d="M73.8112 12.7853C73.7173 12.5958 73.7173 12.4062 73.7173 12.2167V11.1742C73.7173 10.9846 73.7173 10.7951 73.6233 10.6055C73.5294 10.416 73.5294 10.2265 73.4354 9.94214C73.4354 9.94214 69.1137 13.0696 66.3891 13.2592C68.6439 16.9553 70.5229 17.6187 70.5229 17.6187C70.5229 17.6187 71.2746 17.4291 70.6169 16.6709C69.8653 15.818 68.6439 13.8278 69.6774 13.1644C70.7109 12.501 72.5899 13.9226 72.8717 14.2069C72.9657 14.3016 73.0596 14.4912 73.1536 14.586C73.2475 14.7755 73.6233 14.8703 73.8112 14.7755H73.9052C74.1871 14.6807 74.281 14.3964 74.187 14.1121L73.8112 12.7853Z" fill="#936D6D"/>
<path d="M65.6376 129.26C65.6376 129.26 67.6106 129.734 69.4896 129.829C71.3687 129.923 76.4421 130.966 76.3481 132.861C76.2541 134.757 73.5296 137.6 70.2413 137.979C66.859 138.358 62.5373 137.41 60.3764 137.505C58.2155 137.6 56.7123 135.325 57.5578 133.146C58.4034 130.966 65.6376 129.26 65.6376 129.26Z" fill="#160A5B"/>
<path d="M54.3635 124.047C54.3635 124.047 53.6119 125.185 53.9877 125.943C54.3635 126.701 55.303 128.407 58.3095 126.701C61.3159 124.995 67.2348 122.531 67.2348 122.531C67.2348 122.531 70.6171 120.73 70.4292 118.551C70.2413 116.466 67.1409 116.75 67.1409 116.75L54.3635 124.047Z" fill="#160A5B"/>
<path d="M74.1872 93.8151C74.1872 93.8151 72.8719 107.652 70.1473 112.959C67.3288 118.266 66.5772 128.123 66.0135 129.923C65.4498 131.819 63.5707 134.472 60.7522 135.041C57.8397 135.61 57.37 133.619 57.5579 132.482C57.7458 131.345 58.4974 129.355 58.4974 128.123C58.4974 126.891 58.2155 126.227 58.2155 125.659C58.2155 125.659 54.9272 126.606 54.4574 124.047C54.4574 124.047 54.7393 123.289 54.7393 122.91C54.7393 122.531 54.4574 113.243 54.3635 112.106C54.2695 110.969 54.9272 104.903 55.7728 101.966C56.7123 99.0276 56.3365 92.6779 56.3365 92.6779L65.6376 91.3511L74.1872 93.8151Z" fill="#24126A"/>
<path d="M55.7728 101.966C56.7123 99.0278 56.3365 92.678 56.3365 92.678L57.182 92.5833C57.182 93.4362 57.37 99.0277 56.6183 101.681C55.6788 104.714 55.1151 110.779 55.2091 111.822C55.303 112.959 55.5849 122.247 55.5849 122.626C55.5849 123.005 55.303 123.763 55.303 123.763C55.7728 126.322 59.0611 125.374 59.0611 125.374C59.0611 125.943 59.4369 126.512 59.4369 127.838C59.4369 129.07 58.5913 131.061 58.4974 132.198C58.4034 133.335 58.8732 135.325 61.6917 134.757C61.7857 134.757 61.8796 134.662 61.9735 134.662C61.5977 134.852 61.222 134.946 60.8462 135.041C57.9337 135.61 57.4639 133.619 57.6518 132.482C57.8397 131.345 58.5913 129.355 58.5913 128.123C58.5913 126.891 58.3094 126.133 58.2155 125.564C58.2155 125.564 54.9272 126.701 54.4574 124.048C54.4574 124.048 54.7393 123.289 54.7393 122.91C54.7393 122.531 54.4574 113.244 54.3635 112.106C54.2695 111.064 54.8332 104.904 55.7728 101.966Z" fill="url(#paint4_linear)"/>
<path d="M59.155 93.7204C59.155 93.7204 59.155 95.9001 60.0945 97.7008C60.0945 97.7008 60.0946 105.093 60.8462 108.789C60.8462 108.789 59.6248 116.276 58.8732 118.645C58.1216 121.015 58.2155 125.659 58.2155 125.659C58.2155 125.659 57.8397 125.753 57.276 125.848C56.7123 125.848 56.7123 116.655 57.5579 115.044C58.4034 113.433 58.9671 106.23 58.6853 104.051C58.4034 101.871 58.4974 95.7106 58.1216 94.5733C57.7457 93.4361 58.5913 92.8674 58.5913 92.8674L59.155 93.7204Z" fill="#160A5B"/>
<path d="M66.953 43.6809C66.953 43.6809 69.6776 45.6711 69.4897 49.0829L67.5167 48.609C67.5167 48.609 68.1744 44.8182 66.953 43.6809Z" fill="#160A5B"/>
<path d="M65.9195 96.753C59.7187 96.9426 56.3365 94.1942 56.3365 94.1942C56.3365 93.3412 56.3365 92.7726 56.3365 92.7726L65.6376 91.4458L74.1872 93.8151C74.1872 93.8151 73.9054 96.5635 73.4356 100.07C71.9324 100.26 70.4292 96.4687 70.4292 96.4687L66.2013 96.753C66.2013 96.6583 72.1203 96.5635 65.9195 96.753Z" fill="#160A5B"/>
<path d="M73.0599 94.0048C73.0599 94.0048 59.6248 99.5963 53.0482 89.0767C52.8603 88.7924 52.7664 88.4133 52.7664 88.0342L52.8603 85.5701C52.8603 85.2858 52.8603 84.9067 52.7664 84.6224C52.5785 83.959 52.4845 83.2956 52.6724 82.6322C53.1422 79.8838 54.5514 72.3968 54.8333 70.4066C55.2091 67.8478 53.8938 57.8019 51.6389 53.4424C49.4781 49.1777 55.1152 39.4162 55.1152 39.4162C55.1152 39.4162 56.5244 37.1417 59.249 37.8998C59.249 37.8998 56.6184 39.7005 58.1216 41.6907C59.5309 43.6809 63.8526 45.1973 63.8526 45.1973C63.8526 45.1973 71.7445 49.2725 74.4691 54.2954C74.4691 54.2954 75.4086 56.949 75.5026 60.1712C75.5965 63.4883 75.2207 71.5439 75.3147 72.5863C75.4086 73.7236 75.8784 81.3054 75.7844 81.6845C75.5965 82.1583 73.0599 94.0048 73.0599 94.0048Z" fill="#453C9E"/>
<path d="M57.9337 39.3213C57.7458 38.7527 57.7458 38.2788 58.0276 37.8049C58.4034 37.8049 58.7792 37.8049 59.249 37.8997C59.155 37.8997 58.4034 38.4683 57.9337 39.3213Z" fill="url(#paint5_linear)"/>
<path d="M68.9259 95.1419C68.9259 95.1419 61.034 73.5339 61.4098 65.6679C61.7856 57.9913 72.9658 81.1157 72.9658 81.1157L73.0598 93.9099C73.0598 94.0047 70.5231 94.9524 68.9259 95.1419Z" fill="#24126A"/>
<path d="M52.9542 82.5373C53.0482 82.8216 53.0482 83.1059 53.0482 83.485L52.9542 85.9491C52.9542 86.3282 53.0482 86.7072 53.2361 86.9916C59.7187 97.4165 73.1537 91.9197 73.1537 91.9197C73.1537 91.9197 75.0328 83.3902 75.5965 80.6418C75.5965 81.3052 75.5965 81.7791 75.5965 81.8739C75.5965 82.253 72.9659 94.0995 72.9659 94.0995C72.9659 94.0995 59.5308 99.691 52.9542 89.1713C52.7663 88.887 52.6724 88.5079 52.6724 88.1288L52.7663 85.6648C52.7663 85.3804 52.7663 85.0014 52.6724 84.717C52.4845 84.0536 52.3905 83.3902 52.5784 82.7268C52.6724 82.4425 52.6724 82.0634 52.7663 81.6843C52.8603 81.9687 52.8603 82.253 52.9542 82.5373Z" fill="url(#paint6_linear)"/>
<path d="M51.8268 51.4524C54.0817 55.8119 55.397 65.8578 55.0212 68.3218C55.0212 68.5114 54.9272 68.8905 54.8333 69.1748C54.8333 65.5735 53.6119 57.2335 51.6389 53.3479C50.9813 52.1158 51.0752 50.5047 51.3571 48.7988C51.3571 49.8413 51.451 50.789 51.8268 51.4524Z" fill="url(#paint7_linear)"/>
<path d="M73.2477 69.5535C72.9658 67.7528 72.7779 66.0469 72.7779 64.2462C72.7779 61.2135 71.9324 56.0959 66.3892 56.9488C58.5913 58.1808 61.9735 69.1744 62.8191 71.1646C63.6646 73.06 67.0469 81.779 67.2348 82.3477C67.4227 82.8215 72.7779 93.7203 74.7509 96.2792C74.9388 96.5635 75.2207 96.5634 75.4086 96.3739C76.1602 95.7105 77.9453 94.0994 78.1332 93.0569C78.415 91.7301 77.2876 87.0863 77.2876 87.0863C77.2876 87.0863 74.2812 75.3346 73.9993 74.7659C73.8114 74.3868 73.7174 72.3966 73.2477 69.5535Z" fill="#4846A5"/>
<path d="M66.859 43.8706C66.859 43.8706 67.5167 42.449 68.9259 42.2595C70.3352 42.0699 71.1808 41.6909 71.2747 41.217C71.4626 40.6484 71.4626 40.0797 71.7445 39.2268C72.1203 38.4686 72.4022 36.4784 72.4022 36.4784C72.4022 36.4784 73.4356 36.0993 73.5296 35.6255C73.6235 35.1516 73.0598 33.4457 73.0598 33.2562C73.1538 33.1614 73.7175 32.0241 73.6235 31.266C73.5296 30.413 73.4356 29.2757 72.9659 28.2332C72.4961 27.1908 69.4897 21.1254 61.5978 24.2528C53.6119 27.4751 59.7187 34.2039 58.8732 38.5634C58.8732 38.5634 58.1216 39.5111 59.4369 41.0275C60.9401 42.6386 64.6982 43.0177 66.859 43.8706Z" fill="#FCD1C5"/>
<path d="M59.6248 41.1221C58.3095 39.511 59.0611 38.658 59.0611 38.658C59.155 38.0894 59.155 37.426 59.0611 36.6678L62.1615 37.2364C62.1615 37.2364 66.7651 33.0665 66.4832 35.341C66.1074 37.6155 67.2348 37.9946 67.2348 37.9946L66.2953 39.2266C66.0135 39.511 66.2014 39.89 66.3893 40.2691C67.7046 42.5437 70.8989 41.8803 70.8989 41.8803C70.5231 42.1646 69.8655 42.3541 68.9259 42.4489C67.5167 42.6384 66.859 44.06 66.859 44.06C64.6982 43.0175 60.9401 42.6384 59.6248 41.1221Z" fill="#E2B1A6"/>
<path d="M73.3417 25.9586C73.3417 25.9586 73.9054 27.5697 72.9659 28.2331C72.0263 28.8965 71.2747 29.56 71.2747 29.56V31.6449C71.2747 31.9293 71.1808 32.2136 70.9929 32.4979L69.8654 34.2038C69.6775 34.5829 69.4897 34.9619 69.4897 35.341V36.194C69.4897 36.4783 69.3018 36.6679 69.1139 36.6679H68.832C68.5502 36.6679 68.3622 36.4783 68.2683 36.194L68.1743 35.0567C68.1743 35.0567 67.6106 34.109 66.2953 35.2463L65.1679 35.7201C64.886 35.8149 64.6042 36.0992 64.5102 36.4783C64.2284 37.426 63.4768 39.1319 63.007 39.511C62.2554 39.8901 59.5308 38.4685 59.249 37.8999C58.8732 37.2365 57.9336 33.0665 57.3699 31.0763C56.8062 29.0861 57.182 24.158 63.007 22.9259C68.832 21.6939 72.59 24.158 73.3417 25.9586Z" fill="#AA8383"/>
<path d="M59.1564 37.9C58.7806 37.2366 57.8411 33.0666 57.2774 31.0764C57.2774 31.0764 59.5323 32.5927 62.5387 33.0666C65.4512 33.5405 71.3701 30.1287 71.3701 30.1287V31.645C71.3701 31.9293 71.2762 32.2136 71.0883 32.498L69.9608 34.2039C69.7729 34.5829 69.585 34.962 69.585 35.3411V36.1941C69.585 36.4784 69.3971 36.6679 69.2092 36.6679H68.9274C68.6455 36.6679 68.4576 36.4784 68.3637 36.1941L68.2697 35.0568C68.2697 35.0568 67.706 34.1091 66.3907 35.2464L64.6996 35.9098C64.6996 35.9098 63.6661 39.0372 63.0085 39.4163C62.2568 39.9849 59.5323 38.5634 59.1564 37.9Z" fill="#936D6D"/>
<path d="M59.0611 38.0894C59.0611 38.0894 56.8062 39.5109 57.9337 41.5011C59.0611 43.4913 67.3288 47.0927 67.7985 47.6613C67.7985 47.6613 68.0804 44.6286 67.0469 43.5861C67.0469 43.5861 60.7522 42.3541 59.7187 40.743C58.6853 39.1318 59.0611 38.0894 59.0611 38.0894Z" fill="#F0F6FF"/>
<path d="M59.0611 38.0894C59.0611 38.0894 58.6853 39.1318 59.6248 40.743C60.3764 41.975 64.1345 43.0175 66.0135 43.3966C66.0135 43.3966 65.3558 43.7757 64.2284 45.6711C61.6917 44.3443 58.5913 42.6384 57.9337 41.4064C56.8062 39.5109 59.0611 38.0894 59.0611 38.0894Z" fill="#C4CCD6"/>
<path d="M57.5578 44.5337C57.5578 44.5337 61.2219 46.6187 63.007 47.6612C64.7921 48.6089 66.7651 49.9357 66.7651 49.9357L67.4227 49.2723L68.2683 51.0729C68.2683 51.0729 71.0868 52.7788 72.4021 54.2004C73.7175 55.622 74.7509 57.5174 74.8449 57.8965C74.8449 57.8965 71.2747 53.2527 68.5501 51.8311L67.7985 51.452L67.3288 50.0304L66.6711 50.7886C66.7651 50.7886 58.6853 45.8605 57.5578 44.5337Z" fill="#24126A"/>
<path d="M67.0469 107.652C67.1409 107.273 67.3288 106.989 67.5167 106.894L82.6428 94.005C83.0186 93.6259 83.3944 93.9102 83.4884 94.5736L85.2735 109.548C85.3674 110.211 85.0856 111.064 84.7098 111.443L71.9324 122.531L72.4022 126.891L68.5501 125.09C68.3622 124.995 68.2683 124.711 68.1743 124.332L66.7651 108.695C66.859 108.41 66.953 108.031 67.0469 107.652Z" fill="url(#paint8_linear)"/>
<path d="M86.7767 95.521L83.2066 94.0047L83.1126 93.9099C83.0187 93.9099 82.8308 93.9099 82.6429 94.0047L67.5167 106.894C67.3288 107.083 67.1409 107.368 67.0469 107.652L67.6106 107.936L70.7111 109.452L83.9582 97.9851L86.7767 95.521Z" fill="#453C9E"/>
<path d="M88.4678 113.149L72.9659 126.796C72.4961 127.175 72.1203 126.891 72.0264 126.133L70.5231 110.401C70.4292 109.737 70.711 108.884 71.1808 108.505L86.3069 95.6161C86.6827 95.237 87.0586 95.5213 87.1525 96.1847L89.0315 111.253C89.1255 111.917 88.8436 112.77 88.4678 113.149Z" fill="#24126A"/>
<path d="M70.1473 125.185L68.6441 109.547C68.5501 108.884 68.832 108.031 69.3018 107.652L84.4279 94.763C84.5219 94.6682 84.7098 94.5734 84.8037 94.5734C84.6158 94.4787 84.5219 94.5734 84.334 94.6682L69.2078 107.557C68.832 107.936 68.5501 108.789 68.5501 109.453L70.0534 125.09C70.0534 125.564 70.3352 125.943 70.5231 125.943C70.3352 125.848 70.1473 125.564 70.1473 125.185Z" fill="#160A5B"/>
<path d="M75.6904 102.155L74.9388 101.776C74.7509 101.681 74.563 101.681 74.4691 101.681H74.3751C74.2812 101.681 74.2812 101.776 74.2812 101.871V102.06L76.536 103.198V103.008C76.536 102.913 76.442 102.724 76.3481 102.629L76.2541 102.534C76.0662 102.345 75.8783 102.25 75.6904 102.155Z" fill="#160A5B"/>
<path d="M75.4086 104.051L76.442 103.103L74.2812 101.681L73.2477 102.534L75.4086 104.051Z" fill="#160A5B"/>
<path d="M74.657 103.008L73.9054 102.629C73.7175 102.534 73.5296 102.534 73.4357 102.534H73.3417C73.2477 102.534 73.2477 102.629 73.2477 102.724V102.913L75.5026 104.051V103.861C75.5026 103.766 75.4086 103.577 75.3147 103.482L75.2207 103.387C74.9389 103.292 74.751 103.103 74.657 103.008Z" fill="url(#paint9_linear)"/>
<path d="M74.1886 103.387L74.0932 102.724L74.1886 102.819V103.482V103.387Z" fill="#722318"/>
<path d="M74.0933 102.724L75.2207 101.871L74.1872 102.819L74.0933 102.724Z" fill="#722318"/>
<path d="M80.482 97.9853L79.7303 97.6063C79.5424 97.5115 79.3545 97.5115 79.2606 97.5115H79.1666C79.0727 97.5115 79.0727 97.6063 79.0727 97.701V97.8906L81.3275 99.0278V98.8383C81.3275 98.7435 81.2336 98.554 81.1396 98.4592L81.0457 98.3644C80.8578 98.2696 80.6699 98.0801 80.482 97.9853Z" fill="#160A5B"/>
<path d="M80.2001 99.976L81.3275 99.0283L79.0727 97.6067L78.0392 98.4596L80.2001 99.976Z" fill="#160A5B"/>
<path d="M79.4485 98.9331L78.6969 98.554C78.509 98.4592 78.3211 98.4592 78.2272 98.4592H78.1332C78.0393 98.4592 78.0392 98.554 78.0392 98.6488V98.8383L80.2941 99.9756V99.786C80.2941 99.6913 80.2001 99.5017 80.1062 99.4069L80.0122 99.3122C79.8243 99.1226 79.6364 99.0279 79.4485 98.9331Z" fill="url(#paint10_linear)"/>
<path d="M78.9788 99.3121L78.8848 98.6487H78.9788L79.0727 99.3121H78.9788Z" fill="#722318"/>
<path d="M78.8848 98.6486L80.0122 97.7957L78.9788 98.6486H78.8848Z" fill="#722318"/>
<path d="M73.6235 99.5963L73.9054 102.345L74.657 101.776L74.3751 99.0277C74.3751 98.6486 74.563 98.0799 74.8449 97.8904L77.9453 95.3316C78.2271 95.142 78.509 95.2368 78.509 95.6159L78.7908 98.2695L79.5425 97.7009L79.2606 94.9525C79.1666 94.0995 78.6029 93.8152 77.9453 94.2891L74.657 97.0374C73.9993 97.6061 73.5296 98.7434 73.6235 99.5963Z" fill="#453C9E"/>
<path d="M78.9788 95.1419L77.6634 95.0471L73.9993 98.4589L73.8114 100.639L73.9054 102.439L74.7509 102.818V100.639V99.1223L75.5025 97.9851L76.9118 96.8478C77.0058 96.753 78.9788 95.1419 78.9788 95.1419Z" fill="#453C9E"/>
<path d="M79.5425 98.7436L78.7908 98.2697L78.509 96.3743H79.3546L79.5425 96.469V98.7436Z" fill="#453C9E"/>
<path d="M79.5425 94.5732L78.6969 94.0994C78.6969 94.0994 78.8848 94.5732 78.9787 94.5732L79.2606 94.668C79.1666 94.668 79.5425 94.5732 79.5425 94.5732Z" fill="#453C9E"/>
<path d="M74.4691 100.07L74.7509 102.819L75.5025 102.25L75.2207 99.5016C75.2207 99.1225 75.4086 98.5539 75.6904 98.3643L78.7908 95.7107C79.0727 95.5212 79.3545 95.6159 79.3545 95.995L79.6364 98.6486L80.388 98.08L80.1061 95.3316C80.0122 94.4787 79.4485 94.1944 78.7908 94.6682L75.5025 97.4166C74.8448 97.9852 74.3751 99.1225 74.4691 100.07Z" fill="#160A5B"/>
<path d="M77.9453 92.9622C77.9453 92.9622 78.509 95.7105 78.3211 96.3739C78.1332 97.0373 76.9118 98.3642 76.0662 98.6485C75.3146 98.9328 75.5965 97.985 75.4086 97.3216C75.2207 96.753 75.2207 95.4262 75.2207 95.4262L77.9453 92.9622Z" fill="#FCD1C5"/>
<path d="M75.3146 95.5212L77.9453 93.0571C77.9453 93.0571 78.0392 93.6258 78.1332 94.2892C78.1332 94.2892 77.1937 96.2794 75.4086 97.1323C75.3146 96.4689 75.3146 95.5212 75.3146 95.5212Z" fill="#E2B1A6"/>
<path d="M78.1332 93.2464C78.1332 93.2464 77.1937 96.1843 74.8449 96.4686L75.5965 93.2464C75.5965 93.2464 77.5695 92.6777 77.6634 92.6777C77.7574 92.583 78.1332 93.2464 78.1332 93.2464Z" fill="#4846A5"/>
<path d="M62.9131 58.7495C60.7522 65.3835 66.2014 75.7137 66.953 78.7464C67.7046 81.7791 75.9723 95.9001 75.9723 95.9001C76.0662 95.9948 76.0662 95.9949 76.0662 95.9949C75.8783 96.0896 75.6904 96.2792 75.5025 96.3739C75.3146 96.4687 75.4086 96.4687 75.1267 96.4687C74.9388 96.4687 74.7509 96.4687 74.657 96.2792C72.7779 93.6256 67.3288 82.8216 67.1409 82.3477C66.953 81.8738 63.5707 73.1548 62.7252 71.1646C62.0675 69.6483 59.8127 62.2561 62.9131 58.7495Z" fill="url(#paint11_linear)"/>
<path opacity="0.4" d="M132.854 20.4097L130.129 18.7986V24.2006L132.854 25.7169V20.4097Z" fill="#42E8E0"/>
<path opacity="0.6" d="M137.739 33.0141L135.015 31.403V27.0435L137.739 28.5598V33.0141Z" fill="#42E8E0"/>
<path opacity="0.8" d="M142.625 27.5174L139.9 25.9062V29.8867L142.625 31.4978V27.5174Z" fill="#42E8E0"/>
<path d="M147.604 26.4749L144.786 24.8638V32.7298L147.604 34.341V26.4749Z" fill="#42E8E0"/>
<path d="M152.49 25.8115L149.671 24.2952V35.573L152.49 37.1841V25.8115Z" fill="#42E8E0"/>
<path opacity="0.8" d="M157.375 32.1612L154.651 30.55V38.4161L157.375 40.0272V32.1612Z" fill="#42E8E0"/>
<path opacity="0.6" d="M162.261 33.0145L159.536 31.4033V41.2596L162.261 42.8707V33.0145Z" fill="#42E8E0"/>
<path opacity="0.4" d="M167.146 31.5928L164.422 29.9817V44.1027L167.146 45.7138V31.5928Z" fill="#42E8E0"/>
<defs>
<radialGradient id="paint0_radial" cx="0" cy="0" r="1" gradientUnits="userSpaceOnUse" gradientTransform="translate(83.9676 110.966) rotate(149.736) scale(68.7789 59.8784)">
<stop stop-color="#42E8E0"/>
<stop offset="0.1539" stop-color="#33AEB9"/>
<stop offset="0.3113" stop-color="#267A95"/>
<stop offset="0.4663" stop-color="#1B5078"/>
<stop offset="0.6156" stop-color="#132E61"/>
<stop offset="0.7574" stop-color="#0D1651"/>
<stop offset="0.8889" stop-color="#090847"/>
<stop offset="1" stop-color="#080344"/>
</radialGradient>
<linearGradient id="paint1_linear" x1="89.9535" y1="89.2465" x2="84.1585" y2="89.2465" gradientUnits="userSpaceOnUse">
<stop stop-color="#5761D7"/>
<stop offset="0.0725764" stop-color="#5472D8"/>
<stop offset="0.2791" stop-color="#4E9CDB"/>
<stop offset="0.4801" stop-color="#49BDDD"/>
<stop offset="0.6715" stop-color="#45D5DF"/>
<stop offset="0.8493" stop-color="#43E3E0"/>
<stop offset="1" stop-color="#42E8E0"/>
</linearGradient>
<linearGradient id="paint2_linear" x1="87.0046" y1="76.4005" x2="72.4938" y2="76.4005" gradientUnits="userSpaceOnUse">
<stop stop-color="#5761D7"/>
<stop offset="0.0725764" stop-color="#5472D8"/>
<stop offset="0.2791" stop-color="#4E9CDB"/>
<stop offset="0.4801" stop-color="#49BDDD"/>
<stop offset="0.6715" stop-color="#45D5DF"/>
<stop offset="0.8493" stop-color="#43E3E0"/>
<stop offset="1" stop-color="#42E8E0"/>
</linearGradient>
<linearGradient id="paint3_linear" x1="86.9399" y1="61.9835" x2="71.2149" y2="61.9835" gradientUnits="userSpaceOnUse">
<stop stop-color="#5761D7"/>
<stop offset="0.0725764" stop-color="#5472D8"/>
<stop offset="0.2791" stop-color="#4E9CDB"/>
<stop offset="0.4801" stop-color="#49BDDD"/>
<stop offset="0.6715" stop-color="#45D5DF"/>
<stop offset="0.8493" stop-color="#43E3E0"/>
<stop offset="1" stop-color="#42E8E0"/>
</linearGradient>
<linearGradient id="paint4_linear" x1="63.6057" y1="114.319" x2="54.1061" y2="113.493" gradientUnits="userSpaceOnUse">
<stop stop-color="#5761D7"/>
<stop offset="0.0725764" stop-color="#5472D8"/>
<stop offset="0.2791" stop-color="#4E9CDB"/>
<stop offset="0.4801" stop-color="#49BDDD"/>
<stop offset="0.6715" stop-color="#45D5DF"/>
<stop offset="0.8493" stop-color="#43E3E0"/>
<stop offset="1" stop-color="#42E8E0"/>
</linearGradient>
<linearGradient id="paint5_linear" x1="59.119" y1="38.6368" x2="57.782" y2="38.5206" gradientUnits="userSpaceOnUse">
<stop stop-color="#5761D7"/>
<stop offset="0.0725764" stop-color="#5472D8"/>
<stop offset="0.2791" stop-color="#4E9CDB"/>
<stop offset="0.4801" stop-color="#49BDDD"/>
<stop offset="0.6715" stop-color="#45D5DF"/>
<stop offset="0.8493" stop-color="#43E3E0"/>
<stop offset="1" stop-color="#42E8E0"/>
</linearGradient>
<linearGradient id="paint6_linear" x1="75.0605" y1="88.445" x2="52.2523" y2="86.4636" gradientUnits="userSpaceOnUse">
<stop stop-color="#5761D7"/>
<stop offset="0.0725764" stop-color="#5472D8"/>
<stop offset="0.2791" stop-color="#4E9CDB"/>
<stop offset="0.4801" stop-color="#49BDDD"/>
<stop offset="0.6715" stop-color="#45D5DF"/>
<stop offset="0.8493" stop-color="#43E3E0"/>
<stop offset="1" stop-color="#42E8E0"/>
</linearGradient>
<linearGradient id="paint7_linear" x1="55.8003" y1="59.2777" x2="50.4072" y2="58.8092" gradientUnits="userSpaceOnUse">
<stop stop-color="#5761D7"/>
<stop offset="0.0725764" stop-color="#5472D8"/>
<stop offset="0.2791" stop-color="#4E9CDB"/>
<stop offset="0.4801" stop-color="#49BDDD"/>
<stop offset="0.6715" stop-color="#45D5DF"/>
<stop offset="0.8493" stop-color="#43E3E0"/>
<stop offset="1" stop-color="#42E8E0"/>
</linearGradient>
<linearGradient id="paint8_linear" x1="85.2394" y1="111.021" x2="66.7874" y2="109.418" gradientUnits="userSpaceOnUse">
<stop stop-color="#5761D7"/>
<stop offset="0.0725764" stop-color="#5472D8"/>
<stop offset="0.2791" stop-color="#4E9CDB"/>
<stop offset="0.4801" stop-color="#49BDDD"/>
<stop offset="0.6715" stop-color="#45D5DF"/>
<stop offset="0.8493" stop-color="#43E3E0"/>
<stop offset="1" stop-color="#42E8E0"/>
</linearGradient>
<linearGradient id="paint9_linear" x1="75.4628" y1="103.375" x2="73.1143" y2="103.171" gradientUnits="userSpaceOnUse">
<stop stop-color="#5761D7"/>
<stop offset="0.0725764" stop-color="#5472D8"/>
<stop offset="0.2791" stop-color="#4E9CDB"/>
<stop offset="0.4801" stop-color="#49BDDD"/>
<stop offset="0.6715" stop-color="#45D5DF"/>
<stop offset="0.8493" stop-color="#43E3E0"/>
<stop offset="1" stop-color="#42E8E0"/>
</linearGradient>
<linearGradient id="paint10_linear" x1="80.2946" y1="99.2748" x2="77.9517" y2="99.0713" gradientUnits="userSpaceOnUse">
<stop stop-color="#5761D7"/>
<stop offset="0.0725764" stop-color="#5472D8"/>
<stop offset="0.2791" stop-color="#4E9CDB"/>
<stop offset="0.4801" stop-color="#49BDDD"/>
<stop offset="0.6715" stop-color="#45D5DF"/>
<stop offset="0.8493" stop-color="#43E3E0"/>
<stop offset="1" stop-color="#42E8E0"/>
</linearGradient>
<linearGradient id="paint11_linear" x1="77.5837" y1="78.3803" x2="60.1293" y2="76.864" gradientUnits="userSpaceOnUse">
<stop stop-color="#5761D7"/>
<stop offset="0.0725764" stop-color="#5472D8"/>
<stop offset="0.2791" stop-color="#4E9CDB"/>
<stop offset="0.4801" stop-color="#49BDDD"/>
<stop offset="0.6715" stop-color="#45D5DF"/>
<stop offset="0.8493" stop-color="#43E3E0"/>
<stop offset="1" stop-color="#42E8E0"/>
</linearGradient>
</defs>
</svg>
