<svg width="187" height="160" viewBox="0 0 187 160" fill="none" xmlns="http://www.w3.org/2000/svg">
<path opacity="0.5" d="M93.5 160C145.139 160 187 135.982 187 106.354C187 76.7255 145.139 52.7073 93.5 52.7073C41.8614 52.7073 0 76.7255 0 106.354C0 135.982 41.8614 160 93.5 160Z" fill="url(#paint0_radial)"/>
<path d="M111.583 129.761C111.583 131.267 110.338 132.505 108.822 132.505C107.306 132.505 106.06 131.267 106.06 129.761C106.06 128.254 107.306 127.016 108.822 127.016C110.338 127.016 111.583 128.254 111.583 129.761Z" fill="#24126A"/>
<path d="M138.599 99.3055C138.599 100.812 137.353 102.05 135.838 102.05C134.322 102.05 133.076 100.812 133.076 99.3055C133.076 97.7989 134.322 96.5613 135.838 96.5613C137.408 96.5613 138.599 97.7989 138.599 99.3055Z" fill="#24126A"/>
<path d="M141.793 122.819C143.318 122.819 144.554 121.591 144.554 120.075C144.554 118.559 143.318 117.331 141.793 117.331C140.268 117.331 139.032 118.559 139.032 120.075C139.032 121.591 140.268 122.819 141.793 122.819Z" fill="#24126A"/>
<path d="M85.2165 114.963C85.2165 116.47 83.9713 117.708 82.4554 117.708C80.9394 117.708 79.6942 116.47 79.6942 114.963C79.6942 113.457 80.9394 112.219 82.4554 112.219C84.0254 112.219 85.2165 113.457 85.2165 114.963Z" fill="#24126A"/>
<path d="M102.217 96.5613C102.217 98.0679 100.971 99.3055 99.4554 99.3055C97.9395 99.3055 96.6943 98.0679 96.6943 96.5613C96.6943 95.0547 97.9395 93.8171 99.4554 93.8171C100.971 93.8171 102.217 95.0547 102.217 96.5613Z" fill="#24126A"/>
<path d="M112.774 106.624L82.6177 112.381C82.5095 112.381 82.347 112.435 82.2388 112.435V112.22L80.777 111.843V113.565C80.777 113.619 80.777 113.672 80.777 113.78C80.9394 114.426 82.0763 114.91 83.2133 114.802L113.369 109.045L112.774 106.624Z" fill="url(#paint1_linear)"/>
<path d="M138.003 96.3457L137.083 97.099C136.271 96.7762 135.08 96.83 134.268 97.3142L112.774 106.623L115.806 108.345L137.299 99.0361C137.787 98.767 138.057 98.3904 138.003 98.0137V96.3457Z" fill="url(#paint2_linear)"/>
<path d="M101.513 94.3013C100.971 93.7094 99.7262 93.4403 98.6434 93.7632C98.5351 93.817 98.4269 93.817 98.3186 93.8708C98.2644 93.7632 98.2103 93.7094 98.1562 93.6556C97.9396 93.4403 97.5065 93.2251 97.5065 93.2251V94.8931C97.5065 95.0546 97.5606 95.2698 97.723 95.4312L111.583 108.022L115.373 106.892L101.513 94.3013Z" fill="url(#paint3_linear)"/>
<path d="M143.742 117.223L143.255 117.385L142.984 117.976C142.876 117.923 142.768 117.869 142.605 117.869L115.373 106.892L113.424 109.044L140.656 120.021C141.685 120.344 142.984 120.075 143.526 119.483C143.688 119.322 143.742 119.106 143.742 118.891V117.223Z" fill="url(#paint4_linear)"/>
<path d="M111.583 107.968L107.089 127.016L106.764 126.855V128.63C106.818 129.168 107.522 129.653 108.551 129.76C109.688 129.868 110.825 129.438 110.987 128.738L115.752 108.399L111.583 107.968Z" fill="url(#paint5_linear)"/>
<path d="M142.605 116.201L117.376 106.031L137.299 97.4219C138.166 96.8838 138.274 96.1305 137.516 95.7L137.299 95.5924C136.541 95.1619 135.188 95.2157 134.267 95.7L114.344 104.309L101.459 92.633C100.917 92.0411 99.6719 91.7721 98.5891 92.0949C97.5605 92.4177 97.1274 93.1172 97.6688 93.7091L110.554 105.385L82.5637 110.766C81.4267 110.874 80.6146 111.519 80.777 112.165C80.9395 112.811 82.0764 113.295 83.2133 113.187L111.204 107.807L106.764 126.693C106.602 127.339 107.36 127.985 108.551 128.092C109.688 128.2 110.825 127.769 110.987 127.07L115.427 108.183L140.656 118.353C141.685 118.676 142.984 118.407 143.525 117.815C144.067 117.223 143.634 116.47 142.605 116.201ZM114.669 106.031L114.182 106.569L113.153 106.462L112.99 105.87L113.911 105.601L114.669 106.031Z" fill="url(#paint6_linear)"/>
<path d="M113.803 107.592C112.612 107.592 111.583 106.623 111.583 105.385V80.042H115.968V105.385C115.968 106.569 114.994 107.592 113.803 107.592Z" fill="#24126A"/>
<path opacity="0.5" d="M79.8567 60.5657L79.3695 60.2966C77.637 59.3281 77.8536 57.6063 79.8567 56.4763L93.7708 48.5128C95.7198 47.3828 98.7517 47.2752 100.43 48.2437L100.917 48.5128C102.65 49.4813 102.433 51.2031 100.43 52.3331L86.516 60.2966C84.5669 61.4266 81.5892 61.5342 79.8567 60.5657Z" fill="url(#paint7_linear)"/>
<path opacity="0.5" d="M102.055 49.9637C102.001 49.3718 101.622 48.8337 100.918 48.4571L100.431 48.188C98.6986 47.2195 95.7209 47.3271 93.7719 48.4571L79.8578 56.4206C78.8292 57.0125 78.2878 57.7658 78.2336 58.5191V60.9405C78.2336 61.5862 78.6126 62.178 79.3706 62.6085L79.8578 62.8775C81.5903 63.8461 84.568 63.7385 86.5171 62.6085L100.431 54.645C101.46 54.0531 102.001 53.3536 102.055 52.6003V49.9637Z" fill="url(#paint8_linear)"/>
<path d="M109.309 71.7024L80.1816 88.3828C78.7198 89.1899 77.5829 88.329 77.5829 86.4457C77.5829 84.5086 78.774 82.3025 80.1816 81.4954L113.532 62.3398V63.6312C113.586 66.7521 111.637 70.3572 109.309 71.7024Z" fill="#515151"/>
<g opacity="0.5">
<path opacity="0.5" d="M111.475 0.352966C110.446 -0.185111 109.146 -0.1313 107.739 0.675815L106.873 1.16008C103.678 2.98954 101.025 7.99366 101.025 12.2445V69.4958L108.768 65.0298V66.8592L99.5095 74.3923L78.3949 88.4361L108.064 105.116L125.118 92.095L134.809 83.8625L140.873 16.8719L111.475 0.352966Z" fill="url(#paint9_linear)"/>
</g>
<path d="M89.7643 94.8391C89.7643 94.8391 88.9522 92.7406 90.5223 91.234C92.0924 89.6736 100.268 86.2837 100.863 85.9071C101.459 85.5304 104.382 83.3781 104.382 83.3781L105.303 81.3872C105.303 81.3872 88.6815 83.0014 88.465 83.2705C88.2484 83.5395 80.6688 90.2655 80.8854 90.5883C81.1019 90.8574 86.0828 92.0949 86.0828 92.0949L87.0573 93.3863L89.7643 94.8391Z" fill="#2D2D2D"/>
<path d="M137.245 17.2485L136.379 17.7328C133.185 19.5623 130.532 24.5664 130.532 28.8172V86.0685L109.688 98.0139C108.226 98.821 107.089 101.081 107.089 102.964C107.089 104.901 108.28 105.762 109.688 104.901L138.815 88.2208C141.143 86.8757 143.038 83.2705 143.038 80.1497V78.8583V21.6608C143.092 17.3561 140.44 15.4191 137.245 17.2485Z" fill="url(#paint10_linear)"/>
<path d="M81.86 107.269C81.86 107.269 77.5829 110.013 76.1211 111.628C74.6593 113.242 71.7899 116.524 72.981 118.138C74.1721 119.699 78.1784 120.613 82.4555 116.686C86.7326 112.758 85.5415 112.542 89.1689 110.551C92.8504 108.614 93.8249 106.462 93.3918 105.278C92.9587 104.041 91.1179 101.942 90.1434 102.373C89.1689 102.803 81.86 107.269 81.86 107.269Z" fill="#160A5B"/>
<path d="M102.758 118.73C102.758 118.73 101.242 122.12 100.43 123.196C99.6178 124.326 95.7739 130.783 97.777 132.236C99.7802 133.742 103.624 133.312 106.602 130.03C109.634 126.801 110.283 122.819 111.041 121.528C111.799 120.237 113.64 116.739 112.774 114.748C111.908 112.757 111.691 112.381 111.691 112.381L102.758 118.73Z" fill="#160A5B"/>
<path d="M87.1656 70.7336C87.1656 70.7336 74.3886 83.217 72.3313 89.5125C72.3313 89.5125 71.465 92.9023 73.9013 95.5927C76.3918 98.2293 81.5892 106.946 81.5892 106.946C81.5892 106.946 85.4873 111.627 90.5223 107.861C90.5223 107.861 92.7962 104.256 91.3886 101.834C89.9809 99.4131 86.2453 91.7186 86.2453 91.7186C86.2453 91.7186 94.4204 86.1226 98.4809 84.7236C102.541 83.3246 104.653 82.1946 104.653 82.1946C104.653 82.1946 103.895 85.9612 100.971 89.6739C97.9937 93.3866 93.0669 99.3054 94.7453 103.449C96.3695 107.592 97.344 108.829 98.9141 111.251C100.484 113.618 101.946 118.569 103.245 119.107C104.545 119.645 110.662 120.237 111.637 116.255C112.611 112.327 109.58 104.632 108.172 102.05C108.172 102.05 124.685 83.1632 126.255 81.0647C127.825 79.02 92.2548 67.5589 87.1656 70.7336Z" fill="#24126A"/>
<path d="M91.4426 101.888C90.035 99.4669 86.2993 91.7724 86.2993 91.7724C86.2993 91.7724 94.4745 86.1764 98.535 84.7774C102.595 83.3784 104.707 82.2484 104.707 82.2484C105.465 81.1723 108.01 77.1367 109.092 73.9082C99.7802 71.2179 89.7101 69.1732 87.1656 70.7336C88.0859 72.9397 92.7961 72.9397 92.7961 72.9397C92.7961 72.9397 94.5828 77.2443 95.7197 77.7824C96.9108 78.3205 99.7261 77.7286 99.7261 77.7286C99.7261 77.7286 99.2929 78.4281 97.2898 79.8809C95.2866 81.3337 82.7261 91.5572 82.7261 91.5572C82.7261 91.5572 83.4299 91.9876 86.7866 97.9603C90.1433 103.987 90.5764 107.915 90.5764 107.915C90.5764 107.915 92.8503 104.256 91.4426 101.888Z" fill="#160A5B"/>
<path d="M119.595 77.4056C112.232 76.7061 103.624 76.6523 105.573 80.4727C108.876 86.9834 115.427 87.3062 115.427 87.3062C115.373 89.7276 105.248 101.296 105.248 101.296C105.248 101.296 105.248 101.296 107.631 105.87C110.013 110.444 109.688 118.73 109.688 118.73C110.608 118.246 111.312 117.492 111.583 116.309C112.557 112.381 109.525 104.686 108.118 102.103C108.118 102.103 124.631 83.2168 126.201 81.1183C126.688 80.4726 123.927 79.0198 119.595 77.4056Z" fill="#160A5B"/>
<path d="M74.2803 37.4261L76.2293 35.9195C76.2293 35.9195 86.7866 30.1082 90.3057 28.1712C92.2007 27.1488 94.2038 25.3194 95.6115 23.8666C96.965 22.4138 98.914 21.6604 100.863 21.6066L119.379 21.499C119.379 21.499 121.545 24.9427 122.248 25.5884C122.79 26.0727 127.825 30.2697 131.398 33.7134C133.401 35.5966 134.863 38.018 135.621 40.6546C137.678 47.8648 137.678 62.4467 137.949 72.8854C137.949 72.8854 136.65 73.3696 133.51 74.0691C130.369 74.7148 130.748 74.2844 130.748 74.2844C130.748 74.2844 126.038 84.8307 119.596 85.853C113.207 86.8754 104.545 83.9159 103.029 73.9077C103.029 73.9077 90.5223 72.0244 87.1115 70.6792C86.7866 70.5716 86.6783 70.195 86.8949 69.9259C88.4108 67.9351 94.0414 60.1867 94.5828 55.1826C95.1784 49.3714 95.0159 40.9236 94.5287 38.6099C94.5287 38.6099 85.1083 42.1612 82.0764 42.7531C82.0764 42.7531 70.5987 55.2903 65.7803 58.6801C65.7803 58.6801 67.4045 56.0974 64.1019 54.3755L74.2803 37.4261Z" fill="#453C9E"/>
<path d="M133.564 74.1233C134.051 74.0157 134.484 73.9081 134.863 73.8542L134.213 72.5629L116.834 70.7334L106.656 71.2715L103.137 74.5537C103.353 75.6299 103.624 76.5984 103.949 77.5132C103.949 77.5132 108.28 78.1051 110.283 77.7284C112.287 77.2979 127.771 79.5579 127.771 79.5579C129.503 77.0827 130.586 74.7152 130.748 74.4461C130.748 74.4999 130.965 74.6614 133.564 74.1233Z" fill="#24126A"/>
<path d="M110.067 68.0973C110.067 68.0435 110.013 67.9897 109.904 67.9897C109.092 67.9897 103.624 67.8283 101.567 67.1288C99.3471 66.3755 96.965 66.4831 96.8567 66.6445C96.7484 66.7521 93.0127 68.3126 92.7962 68.9583C92.5796 69.4963 92.2548 71.4872 92.742 72.1867C93.2293 72.8862 93.4459 73.3705 93.4459 73.3705L93.8248 73.4243C93.8248 73.4243 94.3121 74.3928 94.5828 74.7695C94.6911 74.9309 94.7994 75.0923 94.9076 75.2538C95.1242 75.738 95.5573 76.599 95.7198 76.599C95.9905 76.599 97.1274 76.868 97.3981 76.7604C97.6147 76.7066 97.8312 75.9533 97.7771 75.6304C97.7771 75.5228 97.7771 75.469 97.8854 75.469C98.4268 75.3614 99.8344 75.2 101.838 75.3614C104.274 75.5766 107.685 74.0162 108.01 73.8548H108.064L111.475 73.5319C111.583 73.5319 111.637 73.4243 111.583 73.3167L110.067 68.0973Z" fill="#FCD1C5"/>
<path d="M106.006 32.3687C106.006 32.3687 103.083 43.0226 106.169 53.8918C106.169 53.8918 117.322 33.1758 118.567 29.8397C119.758 26.5037 120.191 24.0823 119.108 22.8986C117.971 21.7148 107.901 27.9027 107.901 27.9027L106.006 32.3687Z" fill="#F0F6FF"/>
<path d="M108.876 49.0493C108.876 49.0493 110.987 42.5924 110.608 40.4939C110.229 38.3954 109.688 36.8888 109.688 36.8888L111.583 35.1131L112.449 36.8349C112.449 36.8349 116.672 33.7679 116.943 33.176C116.943 33.176 113.532 35.4898 112.449 35.8664C112.449 35.8664 111.962 35.0593 111.258 34.7365C110.608 34.4674 108.93 36.7273 108.93 36.7273L108.605 40.6553L106.927 49.8026L107.522 51.1478L108.876 49.0493Z" fill="#C4CCD6"/>
<path d="M106.981 32.4764C106.981 32.4764 106.602 36.6734 106.927 36.9424C107.252 37.2115 108.551 37.2653 109.201 36.9424C109.796 36.6196 111.366 34.7901 111.366 34.7901C111.366 34.7901 109.471 31.5079 106.981 32.4764Z" fill="#24126A"/>
<path d="M109.255 36.189C109.255 36.189 110.392 39.0946 109.309 43.0763C108.226 47.0581 107.793 50.8247 107.793 50.8247L106.115 53.8917C106.115 53.8917 104.057 47.8652 104.707 41.785C105.032 39.0408 107.089 36.6194 107.089 36.6194L109.255 36.189Z" fill="#24126A"/>
<path d="M100.755 15.4189C100.755 15.4189 100.267 18.0017 100.43 18.486C100.592 18.9702 101.296 19.2931 101.134 20.3154C100.971 21.3378 101.567 24.351 101.838 25.3196C101.838 25.3196 101.621 26.3957 101.946 26.7186C102.271 27.0414 102.65 27.0414 102.92 27.5257C103.191 28.0099 103.299 30.6465 104.382 31.5074C105.465 32.3684 106.818 32.5836 107.522 32.3684C108.226 32.1531 108.984 31.6151 108.984 31.6151L110.608 32.2607C110.608 32.2607 118.892 29.947 118.675 24.1358V23.5439C118.675 23.5439 119.271 22.7368 119.433 22.1987C119.595 21.6606 121.003 19.2393 120.299 18.2169C120.299 18.2169 123.494 5.62595 113.586 4.81883C103.57 4.11933 102.108 11.0605 100.755 15.4189Z" fill="#FCD1C5"/>
<path d="M118.621 24.2438V24.19C118.188 23.921 117.809 23.8133 117.484 23.8672C116.347 24.0824 116.618 21.7148 116.618 21.7148C116.618 21.7148 116.401 22.1453 115.806 25.1047C115.21 28.118 108.984 31.7231 108.984 31.7231L110.608 32.3688C110.554 32.3688 118.838 30.055 118.621 24.2438Z" fill="#E2B1A6"/>
<path d="M100.809 9.93107C99.8345 11.9758 99.4014 14.4509 101.405 16.0651C101.405 16.0651 103.083 16.5494 106.331 15.0428C108.497 14.0205 110.717 14.5047 111.908 14.8814C112.449 15.0428 112.828 15.5809 112.828 16.1728L112.774 17.9484C112.774 18.4327 113.045 18.8631 113.478 19.0246L114.994 19.6703L115.319 21.3921C115.427 21.9302 115.914 22.1992 116.456 22.0378L116.835 21.8764C116.835 21.8764 117.051 18.0022 120.299 18.1636C120.299 18.1636 122.898 12.5676 120.245 7.40211C117.592 2.29038 110.229 2.61323 108.659 3.20511C106.602 3.95842 106.873 3.8508 105.682 4.60411C103.57 6.00311 101.838 7.77876 100.809 9.93107Z" fill="#AA8383"/>
<path d="M127.229 49.5332C127.229 49.5332 125.713 60.5638 125.118 63.6308L120.245 66.1598L128.853 65.6217L127.229 49.5332Z" fill="#24126A"/>
<path d="M120.191 18.2708C120.191 18.2708 121.057 16.3876 121.274 13.751C117.267 16.9256 112.774 16.1723 112.774 16.1723L112.72 17.948C112.72 18.4322 112.99 18.8627 113.423 19.0241L114.939 19.6698L115.264 21.3917C115.373 21.9297 115.86 22.1988 116.401 22.0374L116.78 21.8759C116.78 21.9835 116.997 18.0556 120.191 18.2708Z" fill="#936D6D"/>
<path d="M122.357 27.9565C122.357 27.9565 119.812 36.7272 119.271 38.3952L117.213 38.18L117.592 40.978L106.439 55.5599L118.783 41.4623L118.296 38.9871L120.191 39.2023L122.357 27.9565Z" fill="#24126A"/>
<path d="M111.42 75.63C111.42 75.63 137.516 74.7691 138.22 74.3387C138.869 73.8544 138.978 67.1822 138.924 63.3081C138.869 60.6177 138.924 49.9638 136.596 42.5383C138.436 48.8338 137.462 71.164 136.65 72.294C135.838 73.4239 110.987 74.0696 110.987 74.0696C111.204 74.9843 111.42 75.63 111.42 75.63Z" fill="#263649"/>
<path d="M60.1497 54.8604C60.1497 54.8604 60.0414 55.5061 58.9045 56.1518C57.7676 56.7974 54.844 58.1964 54.4109 58.6269C53.9236 59.0574 51.8663 60.8868 51.758 61.1021C51.7039 61.3173 51.0542 63.4158 51.0542 63.5234C51.0542 63.631 51.2707 64.5996 51.2707 64.5996L50.621 67.6666C50.621 67.6666 49.8089 68.8504 50.6752 69.1732C51.5414 69.4961 52.0828 68.5813 52.0828 68.4199C52.0828 68.4199 53.4363 67.7742 54.4109 67.0209C55.3854 66.2676 59.3376 63.0929 60.0414 63.3082C60.6911 63.5234 60.0956 64.6534 59.7707 64.8148C59.4459 65.03 57.3344 67.0747 58.2007 68.4737C59.0669 69.8727 59.6625 67.6666 60.258 67.2361C60.8535 66.8057 62.0988 65.03 62.8567 64.8148C63.6147 64.5996 65.0223 61.7478 65.1848 60.4564C65.3472 59.165 66.2675 58.3579 66.5924 57.9274C66.9172 57.4969 65.8886 54.3223 65.8886 54.3223L61.9905 53.0847L60.637 53.9994L60.1497 54.8604Z" fill="#FCD1C5"/>
<path d="M134.647 38.1261C133.834 36.8347 133.455 37.8032 132.373 38.8256C130.911 40.2784 129.016 42.4845 128.041 45.2825C126.309 50.3942 126.905 63.2005 127.5 65.0299C127.5 65.0299 111.15 67.6665 110.013 67.6665C108.876 67.6127 111.42 75.63 111.42 75.63C111.42 75.63 137.516 74.7691 138.22 74.3386C138.869 73.8544 138.978 67.1822 138.924 63.3081C138.869 59.972 138.924 44.852 134.647 38.1261Z" fill="#334659"/>
<path d="M111.42 75.6298C111.42 75.6298 137.516 74.7689 138.22 74.3384C138.869 73.8541 138.978 67.182 138.924 63.3078C138.869 60.6175 138.924 49.9635 136.596 42.5381C138.436 48.8336 137.462 71.1638 136.65 72.2937C135.838 73.4237 110.987 74.0694 110.987 74.0694C111.204 74.9841 111.42 75.6298 111.42 75.6298Z" fill="#263649"/>
<path opacity="0.5" d="M92.4172 118.353L7.30896 69.5497L53.0032 43.2915L138.111 92.1489L92.4172 118.353Z" fill="url(#paint11_linear)"/>
<path opacity="0.5" d="M7.30896 65.4602V69.5496L92.4172 118.353L138.111 92.1488V88.1132L92.4172 114.318L7.30896 65.4602Z" fill="url(#paint12_linear)"/>
<path opacity="0.5" d="M92.4172 114.317L7.30896 65.46L53.0032 39.2556L138.111 88.113L92.4172 114.317Z" fill="url(#paint13_linear)"/>
<path opacity="0.3" d="M97.3981 76.276C97.3981 76.276 100.646 77.4598 103.191 77.0293C105.682 76.5988 117.701 76.3836 117.701 76.3836L115.806 75.3075L111.583 72.4019L101.134 73.1013L97.1274 74.5542L97.3981 76.276Z" fill="#180D5B"/>
<path d="M110.067 68.0971C110.067 68.0433 110.013 67.9895 109.904 67.9895C109.092 67.9895 103.624 67.8281 101.567 67.1286C99.3471 66.3753 96.9649 66.4829 96.8566 66.6443C96.7484 66.7519 93.0127 68.3123 92.7961 68.958C92.5796 69.4961 92.2547 71.487 92.742 72.1865C93.2292 72.886 93.4458 73.3702 93.4458 73.3702L93.8248 73.4241C93.8248 73.4241 94.312 74.3926 94.5827 74.7692C94.691 74.9307 94.7993 75.0921 94.9076 75.2535C95.1241 75.7378 95.5573 76.5987 95.7197 76.5987C95.9904 76.5987 97.1273 76.8677 97.398 76.7601C97.6146 76.7063 97.8311 75.953 97.777 75.6302C97.777 75.5226 97.777 75.4688 97.8853 75.4688C98.4267 75.3611 99.8343 75.1997 101.838 75.3611C104.274 75.5764 107.685 74.0159 108.009 73.8545H108.064L111.474 73.5317C111.583 73.5317 111.637 73.4241 111.583 73.3164L110.067 68.0971Z" fill="#FCD1C5"/>
<path opacity="0.5" d="M119.758 83.3249L119.271 83.0559C117.538 82.0874 117.755 80.3655 119.758 79.2356L133.672 71.272C135.621 70.1421 138.653 70.0345 140.331 71.003L140.818 71.272C142.551 72.2406 142.334 73.9624 140.331 75.0924L126.417 83.0559C124.468 84.1859 121.49 84.2935 119.758 83.3249Z" fill="url(#paint14_linear)"/>
<path opacity="0.5" d="M142.01 72.7784C141.956 72.1865 141.577 71.6484 140.873 71.2718L140.386 71.0027C138.653 70.0342 135.676 70.1418 133.727 71.2718L119.813 79.2353C118.784 79.8272 118.242 80.5805 118.188 81.3338V83.7552C118.188 84.4009 118.567 84.9927 119.325 85.4232L119.813 85.6922C121.545 86.6608 124.523 86.5532 126.472 85.4232L140.386 77.4597C141.414 76.8678 141.956 76.1683 142.01 75.415V72.7784Z" fill="url(#paint15_linear)"/>
<path d="M134.647 38.1261C133.834 36.8347 133.455 37.8032 132.373 38.8256C130.911 40.2784 129.016 42.4845 128.041 45.2825C126.309 50.3942 126.905 63.2005 127.5 65.0299C127.5 65.0299 111.15 67.6665 110.013 67.6665C108.876 67.6127 111.42 75.63 111.42 75.63C111.42 75.63 137.516 74.7691 138.22 74.3386C138.869 73.8544 138.978 67.1822 138.924 63.3081C138.869 59.972 138.924 44.852 134.647 38.1261Z" fill="#4846A5"/>
<path d="M111.42 75.6298C111.42 75.6298 137.516 74.7689 138.22 74.3384C138.869 73.8541 138.978 67.182 138.924 63.3078C138.869 60.6175 138.924 49.9635 136.596 42.5381C138.436 48.8336 137.462 71.1638 136.65 72.2937C135.838 73.4237 110.987 74.0694 110.987 74.0694C111.204 74.9841 111.42 75.6298 111.42 75.6298Z" fill="#24126A"/>
<path opacity="0.3" d="M64.6433 62.3396C64.6433 62.3396 73.9554 55.0755 75.3089 54.376C76.6624 53.6765 77.2038 53.1384 77.2038 53.1384L74.0637 51.3628L68.758 53.5151L62.0988 60.0796L51.8663 67.2899V68.9579C51.8663 68.9579 60.3121 65.3528 61.2866 64.7609C62.207 64.1152 64.6433 62.3396 64.6433 62.3396Z" fill="#180D5B"/>
<path opacity="0.63" d="M59.0669 68.9042C59.0669 68.9042 61.07 67.1285 62.3153 66.5366C63.6146 65.9448 65.6178 64.3843 65.8885 63.2006C66.1592 62.0168 68.2707 59.3264 68.2707 59.3264L64.8598 61.2635L59.9331 64.1153L51.7579 68.8504C51.7579 68.8504 52.2452 69.4423 53.2739 69.0656C54.3025 68.6889 56.2516 67.5052 57.1719 67.3438C58.0923 67.2361 59.6083 66.9671 59.6083 66.9671L59.0669 68.9042Z" fill="#2D2D2D"/>
<path d="M60.1497 54.8601C60.1497 54.8601 60.0414 55.5058 58.9045 56.1515C57.7676 56.7972 54.844 58.1962 54.4109 58.6267C53.9236 59.0571 51.8663 60.8866 51.758 61.1018C51.7039 61.3171 51.0542 63.4156 51.0542 63.5232C51.0542 63.6308 51.2707 64.5993 51.2707 64.5993L50.621 67.6664C50.621 67.6664 49.8089 68.8501 50.6752 69.173C51.5414 69.4958 52.0828 68.5811 52.0828 68.4197C52.0828 68.4197 53.4363 67.774 54.4109 67.0207C55.3854 66.2674 59.3376 63.0927 60.0414 63.3079C60.6911 63.5232 60.0956 64.6531 59.7707 64.8145C59.4459 65.0298 57.3344 67.0745 58.2007 68.4735C59.0669 69.8725 59.6625 67.6664 60.258 67.2359C60.8535 66.8054 62.0988 65.0298 62.8567 64.8145C63.6147 64.5993 65.0223 61.7475 65.1848 60.4561C65.3472 59.1647 66.2675 58.3576 66.5924 57.9272C66.9172 57.4967 65.8886 54.3221 65.8886 54.3221L61.9905 53.0845L60.637 53.9992L60.1497 54.8601Z" fill="#FCD1C5"/>
<path d="M95.5573 33.445C95.5573 33.445 95.3949 27.6338 96.4235 23.1677C96.1528 23.383 95.8821 23.5982 95.6656 23.8672C94.2579 25.32 92.2548 27.1495 90.3598 28.1718C86.8407 30.0551 76.2834 35.9201 76.2834 35.9201L74.3344 37.4268C68.1083 42.2695 61.1783 52.7619 60.2038 54.8604C60.6911 54.2148 61.9363 53.1386 64.3184 54.43C67.621 56.1518 66.0509 58.7884 66.0509 58.7884C70.8694 55.3985 82.2388 42.8075 82.2388 42.8075C85.0541 42.2156 93.5 39.0948 94.5828 38.7181C95.1783 36.8887 95.5573 35.1668 95.5573 33.445Z" fill="#4846A5"/>
<path d="M82.1848 42.7536C85.2167 42.1079 94.6371 38.6104 94.6371 38.6104C95.0702 40.7089 95.2326 48.0805 94.7995 53.7303C97.5606 43.3992 95.5574 33.4448 95.5574 33.4448C94.7995 37.1037 79.8568 42.1079 79.8568 42.1079C77.4746 45.7668 66.1594 56.2593 66.1594 56.2593C66.6466 57.5507 65.9428 58.6806 65.9428 58.6806C70.7071 55.2907 82.1848 42.7536 82.1848 42.7536Z" fill="#24126A"/>
<path d="M36.2197 73.0471L38.4936 74.2309L61.2325 61.2095C61.6114 60.9942 62.2611 60.9942 62.6942 61.2633L101.892 83.7549C102.271 83.5396 103.949 82.7325 103.949 82.7325L103.137 84.8848C103.083 84.9924 103.029 85.0462 102.92 85.1539L78.9904 98.8748C78.6114 99.0901 77.9618 99.0901 77.5286 98.821L37.4649 75.8451C37.3025 75.7375 37.1942 75.6299 37.1401 75.4685L36.2197 73.0471Z" fill="url(#paint16_linear)"/>
<path d="M36.5467 73.4238L77.6391 96.9915C78.0722 97.2606 78.776 97.2606 79.155 97.0453L103.68 83.0015C104.059 82.7863 104.005 82.4096 103.572 82.1406L62.4798 58.5728C62.0467 58.3038 61.3429 58.3038 60.9639 58.519L36.4384 72.5628C36.0595 72.7781 36.1136 73.1547 36.5467 73.4238Z" fill="url(#paint17_linear)"/>
<path d="M36.5446 73.2089L77.6369 96.7767C78.0701 97.0457 78.7739 97.0457 79.1529 96.8305L103.678 82.7867C103.787 82.7329 103.895 82.6253 103.895 82.5177C103.949 82.6791 103.895 82.8943 103.678 83.0019L79.1529 97.0457C78.7739 97.261 78.0701 97.261 77.6369 96.9919L36.5446 73.4242C36.2197 73.2627 36.1115 72.9937 36.2197 72.8323C36.2739 72.9399 36.3822 73.1013 36.5446 73.2089Z" fill="white"/>
<path d="M90.035 91.8798V91.4493C90.035 91.3955 90.035 91.3955 89.9809 91.3955L88.4108 92.3102C88.3567 92.3102 88.3567 92.364 88.3567 92.4179V92.8483C88.3567 92.9021 88.3567 92.9021 88.4108 92.9021L89.9809 91.9874C90.035 91.9874 90.035 91.9336 90.035 91.8798Z" fill="#2842A2"/>
<path d="M87.6528 93.2786V92.7943C87.6528 92.7405 87.6528 92.7405 87.5986 92.7405L86.0286 93.6552C85.9744 93.6552 85.9744 93.709 85.9744 93.7628V94.1933C85.9744 94.2471 85.9744 94.2471 86.0286 94.2471L87.5986 93.3324C87.6528 93.3324 87.6528 93.2786 87.6528 93.2786Z" fill="#2842A2"/>
<path d="M89.8726 86.1762L55.7102 66.5902C55.4937 66.4826 55.223 66.4826 54.9523 66.5902L42.7707 73.5852C42.6083 73.6928 42.6083 73.9619 42.7707 74.0157L76.879 93.6017C77.0956 93.7093 77.3663 93.7093 77.637 93.6017L89.8185 86.6067C90.0351 86.5529 90.0351 86.2838 89.8726 86.1762Z" fill="#ADB1F2"/>
<path d="M89.8745 86.6616L89.7662 86.7154L55.7662 67.1832C55.5496 67.0756 55.2789 67.0756 55.0082 67.1832L42.9891 74.1244L42.8808 74.0706C42.7184 73.963 42.7184 73.694 42.8808 73.6402L55.0624 66.6452C55.2789 66.5375 55.5496 66.5375 55.8203 66.6452L89.9828 86.2312C90.0369 86.285 90.0369 86.554 89.8745 86.6616Z" fill="#9198DB"/>
<path d="M54.086 68.3661L85.5414 86.3917L87.0573 85.7998L55.3854 67.6128L54.086 68.3661Z" fill="#24126A"/>
<path d="M50.8376 70.2492L78.6656 86.1762L79.965 85.4229L52.1369 69.4958L50.8376 70.2492Z" fill="#24126A"/>
<path d="M48.7261 71.433L81.4808 90.2119L82.7802 89.4586L50.0255 70.6797L48.7261 71.433Z" fill="#24126A"/>
<path d="M46.6146 72.6168L79.3694 91.4495L80.6688 90.6962L47.9681 71.8635L46.6146 72.6168Z" fill="#24126A"/>
<path d="M44.5032 73.8544L77.2579 92.6333L78.6114 91.88L45.8567 73.1011L44.5032 73.8544Z" fill="#24126A"/>
<path d="M85.5414 86.3915L86.8408 87.1986L88.1401 86.3915L86.8408 85.6382L85.5414 86.3915Z" fill="#24126A"/>
<path d="M77.0413 85.2616L83.5923 89.0281L84.9458 88.2748L78.3407 84.5083L77.0413 85.2616Z" fill="#24126A"/>
<path d="M77.6911 77.406L68.4872 72.1329C68.1083 71.9177 68.1083 71.5948 68.4872 71.3796L74.7675 67.7745C75.1465 67.5592 75.6879 67.5592 76.0669 67.7745L85.2707 73.0476C85.6497 73.2628 85.6497 73.5857 85.2707 73.8009L78.9904 77.406C78.6656 77.6213 78.07 77.6213 77.6911 77.406Z" fill="url(#paint18_linear)"/>
<path d="M85.326 73.3702L76.1222 68.0971C75.7432 67.8818 75.2018 67.8818 74.8229 68.0971L68.5426 71.7022C68.4343 71.756 68.3802 71.8636 68.326 71.9174C68.2178 71.756 68.326 71.5408 68.5426 71.3793L74.8229 67.7742C75.2018 67.559 75.7432 67.559 76.1222 67.7742L85.326 73.0474C85.5967 73.2088 85.6509 73.3702 85.5426 73.5854C85.4885 73.4778 85.4343 73.424 85.326 73.3702Z" fill="#9198DB"/>
<path d="M36.2738 72.4554L41.4713 41.8388L41.0381 41.6774L41.6878 41.3007C41.7961 41.2469 41.9585 41.2469 42.1751 41.3545L83.7006 65.1913C84.0254 65.4066 84.2961 65.8908 84.242 66.2137L78.9904 97.0993C78.9362 97.2607 78.8821 97.3683 78.7738 97.4221L78.1783 97.7988L78.07 97.2069H78.1241L36.8693 73.5315C36.4904 73.3163 36.2197 72.7782 36.2738 72.4554Z" fill="url(#paint19_linear)"/>
<path d="M83.4299 65.9986L84.1338 65.6758C84.1879 65.8372 84.242 66.0524 84.242 66.16L78.9905 97.0457C78.9363 97.2071 78.8822 97.3147 78.7739 97.3685L78.1784 97.7452L78.0701 97.1533H78.1242L76.0128 95.9695L83.4299 65.9986Z" fill="url(#paint20_linear)"/>
<path d="M36.1655 73.8535L77.691 97.6903C78.0158 97.8517 78.2865 97.7441 78.3407 97.4212L83.5923 66.5356C83.6464 66.1589 83.3757 65.6747 83.0509 65.5133L41.5254 41.6765C41.2005 41.515 40.9298 41.6227 40.8757 41.9455L35.6241 72.8311C35.57 73.1539 35.8407 73.692 36.1655 73.8535Z" fill="#453C9E"/>
<defs>
<radialGradient id="paint0_radial" cx="0" cy="0" r="1" gradientUnits="userSpaceOnUse" gradientTransform="translate(93.5011 106.357) rotate(150.152) scale(76.2224 65.8076)">
<stop stop-color="#42E8E0"/>
<stop offset="0.1539" stop-color="#33AEB9"/>
<stop offset="0.3113" stop-color="#267A95"/>
<stop offset="0.4663" stop-color="#1B5078"/>
<stop offset="0.6156" stop-color="#132E61"/>
<stop offset="0.7574" stop-color="#0D1651"/>
<stop offset="0.8889" stop-color="#090847"/>
<stop offset="1" stop-color="#080344"/>
</radialGradient>
<linearGradient id="paint1_linear" x1="112.414" y1="106.766" x2="62.752" y2="118.962" gradientUnits="userSpaceOnUse">
<stop stop-color="#5761D7"/>
<stop offset="0.1779" stop-color="#5C66D9"/>
<stop offset="0.3876" stop-color="#6A73DF"/>
<stop offset="0.6134" stop-color="#8289E8"/>
<stop offset="0.849" stop-color="#A3A7F5"/>
<stop offset="1" stop-color="#BCBEFF"/>
</linearGradient>
<linearGradient id="paint2_linear" x1="112.785" y1="102.357" x2="167.802" y2="102.357" gradientUnits="userSpaceOnUse">
<stop stop-color="#5761D7"/>
<stop offset="0.1779" stop-color="#5C66D9"/>
<stop offset="0.3876" stop-color="#6A73DF"/>
<stop offset="0.6134" stop-color="#8289E8"/>
<stop offset="0.849" stop-color="#A3A7F5"/>
<stop offset="1" stop-color="#BCBEFF"/>
</linearGradient>
<linearGradient id="paint3_linear" x1="106.583" y1="101.179" x2="93.8" y2="88.7465" gradientUnits="userSpaceOnUse">
<stop stop-color="#5761D7"/>
<stop offset="0.1779" stop-color="#5C66D9"/>
<stop offset="0.3876" stop-color="#6A73DF"/>
<stop offset="0.6134" stop-color="#8289E8"/>
<stop offset="0.849" stop-color="#A3A7F5"/>
<stop offset="1" stop-color="#BCBEFF"/>
</linearGradient>
<linearGradient id="paint4_linear" x1="113.455" y1="113.528" x2="161.226" y2="113.528" gradientUnits="userSpaceOnUse">
<stop stop-color="#5761D7"/>
<stop offset="0.1779" stop-color="#5C66D9"/>
<stop offset="0.3876" stop-color="#6A73DF"/>
<stop offset="0.6134" stop-color="#8289E8"/>
<stop offset="0.849" stop-color="#A3A7F5"/>
<stop offset="1" stop-color="#BCBEFF"/>
</linearGradient>
<linearGradient id="paint5_linear" x1="106.77" y1="118.87" x2="115.773" y2="118.87" gradientUnits="userSpaceOnUse">
<stop stop-color="#5761D7"/>
<stop offset="0.1779" stop-color="#5C66D9"/>
<stop offset="0.3876" stop-color="#6A73DF"/>
<stop offset="0.6134" stop-color="#8289E8"/>
<stop offset="0.849" stop-color="#A3A7F5"/>
<stop offset="1" stop-color="#BCBEFF"/>
</linearGradient>
<linearGradient id="paint6_linear" x1="109.686" y1="109.987" x2="172.647" y2="109.987" gradientUnits="userSpaceOnUse">
<stop stop-color="#C0BFF6"/>
<stop offset="0.2938" stop-color="#C5C4F7"/>
<stop offset="0.6399" stop-color="#D3D2F9"/>
<stop offset="1" stop-color="#E9E9FD"/>
</linearGradient>
<linearGradient id="paint7_linear" x1="78.2578" y1="54.3748" x2="102.08" y2="54.3748" gradientUnits="userSpaceOnUse">
<stop stop-color="#42E8E0"/>
<stop offset="0.1507" stop-color="#43E3E0"/>
<stop offset="0.3285" stop-color="#45D5DF"/>
<stop offset="0.5199" stop-color="#49BDDD"/>
<stop offset="0.7209" stop-color="#4E9CDB"/>
<stop offset="0.9274" stop-color="#5472D8"/>
<stop offset="1" stop-color="#5761D7"/>
</linearGradient>
<linearGradient id="paint8_linear" x1="78.2589" y1="55.5469" x2="102.081" y2="55.5469" gradientUnits="userSpaceOnUse">
<stop stop-color="#42E8E0"/>
<stop offset="0.1507" stop-color="#43E3E0"/>
<stop offset="0.3285" stop-color="#45D5DF"/>
<stop offset="0.5199" stop-color="#49BDDD"/>
<stop offset="0.7209" stop-color="#4E9CDB"/>
<stop offset="0.9274" stop-color="#5472D8"/>
<stop offset="1" stop-color="#5761D7"/>
</linearGradient>
<linearGradient id="paint9_linear" x1="130.187" y1="15.4633" x2="107.812" y2="73.3982" gradientUnits="userSpaceOnUse">
<stop stop-color="#42E8E0"/>
<stop offset="0.1507" stop-color="#43E3E0"/>
<stop offset="0.3285" stop-color="#45D5DF"/>
<stop offset="0.5199" stop-color="#49BDDD"/>
<stop offset="0.7209" stop-color="#4E9CDB"/>
<stop offset="0.9274" stop-color="#5472D8"/>
<stop offset="1" stop-color="#5761D7"/>
</linearGradient>
<linearGradient id="paint10_linear" x1="107.083" y1="60.9139" x2="143.07" y2="60.9139" gradientUnits="userSpaceOnUse">
<stop stop-color="#42E8E0"/>
<stop offset="0.1507" stop-color="#43E3E0"/>
<stop offset="0.3285" stop-color="#45D5DF"/>
<stop offset="0.5199" stop-color="#49BDDD"/>
<stop offset="0.7209" stop-color="#4E9CDB"/>
<stop offset="0.9274" stop-color="#5472D8"/>
<stop offset="1" stop-color="#5761D7"/>
</linearGradient>
<linearGradient id="paint11_linear" x1="7.29207" y1="80.8412" x2="138.115" y2="80.8412" gradientUnits="userSpaceOnUse">
<stop stop-color="#42E8E0"/>
<stop offset="0.1507" stop-color="#43E3E0"/>
<stop offset="0.3285" stop-color="#45D5DF"/>
<stop offset="0.5199" stop-color="#49BDDD"/>
<stop offset="0.7209" stop-color="#4E9CDB"/>
<stop offset="0.9274" stop-color="#5472D8"/>
<stop offset="1" stop-color="#5761D7"/>
</linearGradient>
<linearGradient id="paint12_linear" x1="7.29207" y1="91.9294" x2="138.115" y2="91.9294" gradientUnits="userSpaceOnUse">
<stop stop-color="#42E8E0"/>
<stop offset="0.1507" stop-color="#43E3E0"/>
<stop offset="0.3285" stop-color="#45D5DF"/>
<stop offset="0.5199" stop-color="#49BDDD"/>
<stop offset="0.7209" stop-color="#4E9CDB"/>
<stop offset="0.9274" stop-color="#5472D8"/>
<stop offset="1" stop-color="#5761D7"/>
</linearGradient>
<linearGradient id="paint13_linear" x1="7.29207" y1="76.7908" x2="138.115" y2="76.7908" gradientUnits="userSpaceOnUse">
<stop stop-color="#42E8E0"/>
<stop offset="0.1507" stop-color="#43E3E0"/>
<stop offset="0.3285" stop-color="#45D5DF"/>
<stop offset="0.5199" stop-color="#49BDDD"/>
<stop offset="0.7209" stop-color="#4E9CDB"/>
<stop offset="0.9274" stop-color="#5472D8"/>
<stop offset="1" stop-color="#5761D7"/>
</linearGradient>
<linearGradient id="paint14_linear" x1="118.166" y1="77.1466" x2="141.988" y2="77.1466" gradientUnits="userSpaceOnUse">
<stop stop-color="#42E8E0"/>
<stop offset="0.1507" stop-color="#43E3E0"/>
<stop offset="0.3285" stop-color="#45D5DF"/>
<stop offset="0.5199" stop-color="#49BDDD"/>
<stop offset="0.7209" stop-color="#4E9CDB"/>
<stop offset="0.9274" stop-color="#5472D8"/>
<stop offset="1" stop-color="#5761D7"/>
</linearGradient>
<linearGradient id="paint15_linear" x1="118.166" y1="78.3204" x2="141.989" y2="78.3204" gradientUnits="userSpaceOnUse">
<stop stop-color="#42E8E0"/>
<stop offset="0.1507" stop-color="#43E3E0"/>
<stop offset="0.3285" stop-color="#45D5DF"/>
<stop offset="0.5199" stop-color="#49BDDD"/>
<stop offset="0.7209" stop-color="#4E9CDB"/>
<stop offset="0.9274" stop-color="#5472D8"/>
<stop offset="1" stop-color="#5761D7"/>
</linearGradient>
<linearGradient id="paint16_linear" x1="103.933" y1="80.0165" x2="36.215" y2="80.0165" gradientUnits="userSpaceOnUse">
<stop stop-color="#5761D7"/>
<stop offset="0.1779" stop-color="#5C66D9"/>
<stop offset="0.3876" stop-color="#6A73DF"/>
<stop offset="0.6134" stop-color="#8289E8"/>
<stop offset="0.849" stop-color="#A3A7F5"/>
<stop offset="1" stop-color="#BCBEFF"/>
</linearGradient>
<linearGradient id="paint17_linear" x1="81.1819" y1="77.7724" x2="13.4275" y2="77.7724" gradientUnits="userSpaceOnUse">
<stop stop-color="#C0BFF6"/>
<stop offset="0.2938" stop-color="#C5C4F7"/>
<stop offset="0.6399" stop-color="#D3D2F9"/>
<stop offset="1" stop-color="#E9E9FD"/>
</linearGradient>
<linearGradient id="paint18_linear" x1="85.5759" y1="72.5913" x2="68.2326" y2="72.5913" gradientUnits="userSpaceOnUse">
<stop stop-color="#C0BFF6"/>
<stop offset="0.2938" stop-color="#C5C4F7"/>
<stop offset="0.6399" stop-color="#D3D2F9"/>
<stop offset="1" stop-color="#E9E9FD"/>
</linearGradient>
<linearGradient id="paint19_linear" x1="84.2197" y1="69.4847" x2="36.2716" y2="69.4847" gradientUnits="userSpaceOnUse">
<stop stop-color="#C0BFF6"/>
<stop offset="0.2938" stop-color="#C5C4F7"/>
<stop offset="0.6399" stop-color="#D3D2F9"/>
<stop offset="1" stop-color="#E9E9FD"/>
</linearGradient>
<linearGradient id="paint20_linear" x1="84.2195" y1="81.7059" x2="75.9863" y2="81.7059" gradientUnits="userSpaceOnUse">
<stop stop-color="#5761D7"/>
<stop offset="0.1779" stop-color="#5C66D9"/>
<stop offset="0.3876" stop-color="#6A73DF"/>
<stop offset="0.6134" stop-color="#8289E8"/>
<stop offset="0.849" stop-color="#A3A7F5"/>
<stop offset="1" stop-color="#BCBEFF"/>
</linearGradient>
</defs>
</svg>
