<svg width="144" height="160" viewBox="0 0 144 160" fill="none" xmlns="http://www.w3.org/2000/svg">
<path opacity="0.3" d="M144 109.331L143.692 109.155H143.649L141.013 107.657H141.057L140.749 107.481H140.705L138.026 105.939H138.07L137.762 105.762H137.718L135.038 104.22H135.082L134.775 104.044H134.731L132.051 102.502H132.095L131.788 102.326H131.744L129.064 100.784H129.108L128.801 100.608H128.757L126.077 99.0656H126.121L125.813 98.8894H125.769L123.09 97.3473H123.134L122.826 97.1711H122.782L120.103 95.6291H120.146L119.839 95.4529H119.795L117.115 93.9109H117.159L116.852 93.7347H116.808L114.128 92.1926H114.172L113.865 92.0164H113.821L111.141 90.4744H111.185L110.877 90.2982H110.833L108.154 88.7562H108.198L107.89 88.58H107.846L105.167 87.038H105.211L104.903 86.8617H104.859L102.179 85.3197H102.223L101.916 85.1435H101.872L99.1922 83.6015H99.2361L98.9286 83.4253H98.8847L96.205 81.8833H96.2489L95.9414 81.707H95.8975L93.2178 80.165H93.2617L92.9542 79.9888H92.9103L90.2306 78.4468H90.2746L89.9671 78.2706H89.9231L87.2434 76.7286H87.2874L86.9799 76.5523H86.9359L84.2563 75.0103H84.3002L83.9927 74.8341H83.9488L81.2691 73.2921H81.313L81.0055 73.1159H80.9616L78.2819 71.5739H78.3258L78.0183 71.3976H77.9744L75.2947 69.8556H75.3386L75.0311 69.6794H74.9872L72.3075 68.1374H72.3514L72.0439 67.9612H72L71.6925 68.1374L69.0128 69.6794L68.7053 69.8556L66.0256 71.3976L65.7181 71.5739L63.0384 73.1159L62.7309 73.2921L60.0513 74.8341L59.7438 75.0103L57.0641 76.5523L56.7566 76.7286L54.0769 78.2706L53.7694 78.4468L51.0897 79.9888L50.7822 80.165L48.1025 81.707L47.795 81.8833L45.1153 83.4253L44.8078 83.6015L42.1281 85.1435L41.8206 85.3197L39.1409 86.8617L38.8334 87.038L36.1537 88.58L35.8463 88.7562L33.1666 90.2982L32.8591 90.4744L30.1794 92.0164L29.9158 92.1926L27.2361 93.7347L26.9286 93.9109L24.2489 95.4529L23.9414 95.6291L21.2617 97.1711L20.9542 97.3473L18.2746 98.8894L17.9671 99.0656L15.2874 100.608L14.9799 100.784L12.3002 102.326L11.9927 102.502L9.31299 104.044L9.00549 104.22L6.32581 105.762L6.0183 105.939L3.33862 107.481L3.03111 107.657L0.351435 109.199L0.0439319 109.375H0L0.307503 109.551H0.351435L3.03111 111.093H2.98719L3.29469 111.269H3.33862L6.0183 112.811H5.97438L6.28188 112.988H6.32581L9.00549 114.53H8.96156L9.26907 114.706H9.31299L11.9927 116.248H11.9487L12.2563 116.424H12.3002L14.9799 117.966H14.9359L15.2434 118.142H15.2874L17.9671 119.684H17.9231L18.2306 119.861H18.2746L20.9542 121.403H20.9103L21.2178 121.579H21.2617L23.9414 123.121H23.8975L24.205 123.297H24.2489L26.9286 124.839H26.8847L27.1922 125.015H27.2361L29.9158 126.557H29.8719L30.1794 126.734H30.2233L32.903 128.276H32.8591L33.1666 128.452H33.2105L35.8902 129.994H35.8463L36.1537 130.17H36.1977L38.8774 131.712H38.8334L39.1409 131.888H39.1849L41.8645 133.43H41.8206L42.1281 133.606H42.1721L44.8517 135.148H44.8078L45.1153 135.325H45.1592L47.8389 136.867H47.795L48.1025 137.043H48.1464L50.8261 138.585H50.7822L51.0897 138.761H51.1336L53.8133 140.303H53.7694L54.0769 140.479H54.1208L56.8005 142.021H56.7566L57.0641 142.198H57.108L59.7877 143.74H59.7438L60.0513 143.916H60.0952L62.7749 145.458H62.7309L63.0384 145.634H63.0824L65.7621 147.176H65.7181L66.0256 147.352H66.0696L68.7492 148.894H68.7053L69.0128 149.071H69.0568L71.7364 150.613H71.6925L72 150.789L72.1318 150.701L72.3514 150.568L75.2068 148.938L75.2947 148.894L77.9744 147.352L78.2819 147.176L80.9616 145.634L81.1812 145.502L83.9048 143.916L84.0366 143.828L86.8481 142.198L87.1556 142.021L89.8353 140.479L90.0988 140.303L92.8664 138.717L93.0421 138.629L95.7218 137.087L96.0293 136.911L98.709 135.369L98.9725 135.192L101.652 133.65L101.96 133.474L104.639 131.932L104.947 131.756L107.627 130.214L107.934 130.038L110.614 128.496L110.921 128.32L113.601 126.778L113.908 126.601L116.588 125.059L116.896 124.883L119.575 123.341L119.883 123.165L122.563 121.623L122.87 121.447L125.55 119.905L125.857 119.728L128.537 118.186L128.844 118.01L131.524 116.468L131.832 116.292L134.511 114.75L134.819 114.574L137.498 113.032L137.806 112.855L140.486 111.313L140.793 111.137L143.473 109.595L144 109.331ZM140.398 107.657L137.718 109.199L135.038 107.657L137.718 106.115L140.398 107.657ZM72.5272 109.375L69.8475 110.917L67.1678 109.375L69.8475 107.833L72.5272 109.375ZM70.155 107.657L72.8347 106.115L75.5143 107.657L72.8347 109.199L70.155 107.657ZM72.7907 109.551L75.4704 111.093L72.7907 112.635L70.1111 111.093L72.7907 109.551ZM73.0982 109.375L75.7779 107.833L78.4576 109.375L75.7779 110.917L73.0982 109.375ZM76.0415 107.657L78.7212 106.115L81.4009 107.657L78.7212 109.199L76.0415 107.657ZM75.734 107.481L73.0543 105.939L75.734 104.397L78.4137 105.939L75.734 107.481ZM72.7907 105.762L70.1111 104.22L72.7907 102.678L75.4704 104.22L72.7907 105.762ZM72.5272 105.939L69.8475 107.481L67.1678 105.939L69.8475 104.397L72.5272 105.939ZM69.54 107.657L66.8603 109.199L64.1806 107.657L66.8603 106.115L69.54 107.657ZM66.5967 109.375L63.917 110.917L61.2373 109.375L63.917 107.833L66.5967 109.375ZM66.9042 109.551L69.5839 111.093L66.9042 112.635L64.2245 111.093L66.9042 109.551ZM69.8475 111.225L72.5272 112.767L69.8475 114.309L67.1678 112.767L69.8475 111.225ZM72.7907 112.944L75.4704 114.486L72.7907 116.028L70.1111 114.486L72.7907 112.944ZM73.0982 112.767L75.7779 111.225L78.4576 112.767L75.7779 114.309L73.0982 112.767ZM76.0415 111.093L78.7212 109.551L81.4009 111.093L78.7212 112.635L76.0415 111.093ZM78.9847 109.375L81.6644 107.833L84.3441 109.375L81.6644 110.917L78.9847 109.375ZM81.9719 107.657L84.6516 106.115L87.3313 107.657L84.6516 109.199L81.9719 107.657ZM81.6644 107.481L78.9847 105.939L81.6644 104.397L84.3441 105.939L81.6644 107.481ZM78.7212 105.762L76.0415 104.22L78.7212 102.678L81.4009 104.22L78.7212 105.762ZM75.734 104.044L73.0543 102.502L75.734 100.96L78.4137 102.502L75.734 104.044ZM72.7907 102.37L70.1111 100.828L72.7907 99.2859L75.4704 100.828L72.7907 102.37ZM72.5272 102.502L69.8475 104.044L67.1678 102.502L69.8475 100.96L72.5272 102.502ZM69.54 104.22L66.8603 105.762L64.1806 104.22L66.8603 102.678L69.54 104.22ZM66.5967 105.939L63.917 107.481L61.2373 105.939L63.917 104.397L66.5967 105.939ZM63.6535 107.657L60.9738 109.199L58.2941 107.657L60.9738 106.115L63.6535 107.657ZM60.7102 109.375L58.0305 110.917L55.3508 109.375L58.0305 107.833L60.7102 109.375ZM60.9738 109.551L63.6535 111.093L60.9738 112.635L58.2941 111.093L60.9738 109.551ZM63.961 111.225L66.6406 112.767L63.961 114.309L61.2813 112.767L63.961 111.225ZM66.9042 112.944L69.5839 114.486L66.9042 116.028L64.2245 114.486L66.9042 112.944ZM69.8475 114.662L72.5272 116.204L69.8475 117.746L67.1678 116.204L69.8475 114.662ZM72.7907 116.38L75.4704 117.922L72.7907 119.464L70.1111 117.922L72.7907 116.38ZM73.0982 116.204L75.7779 114.662L78.4576 116.204L75.7779 117.746L73.0982 116.204ZM76.0415 114.486L78.7212 112.944L81.4009 114.486L78.7212 116.028L76.0415 114.486ZM78.9847 112.767L81.6644 111.225L84.3441 112.767L81.6644 114.309L78.9847 112.767ZM81.9719 111.093L84.6516 109.551L87.3313 111.093L84.6516 112.635L81.9719 111.093ZM84.9152 109.375L87.5949 107.833L90.2746 109.375L87.5949 110.917L84.9152 109.375ZM87.8585 107.657L90.5381 106.115L93.2178 107.657L90.5381 109.199L87.8585 107.657ZM87.5509 107.481L84.8713 105.939L87.5509 104.397L90.2306 105.939L87.5509 107.481ZM84.6077 105.762L81.928 104.22L84.6077 102.678L87.2874 104.22L84.6077 105.762ZM81.6644 104.044L78.9847 102.502L81.6644 100.96L84.3441 102.502L81.6644 104.044ZM78.7212 102.37L76.0415 100.828L78.7212 99.2859L81.4009 100.828L78.7212 102.37ZM75.734 100.652L73.0543 99.1096L75.734 97.5676L78.4137 99.1096L75.734 100.652ZM72.7907 98.9334L70.1111 97.3914L72.7907 95.8494L75.4704 97.3914L72.7907 98.9334ZM72.5272 99.1096L69.8475 100.652L67.1678 99.1096L69.8475 97.5676L72.5272 99.1096ZM69.54 100.828L66.8603 102.37L64.1806 100.828L66.8603 99.2859L69.54 100.828ZM66.5967 102.502L63.917 104.044L61.2373 102.502L63.917 100.96L66.5967 102.502ZM63.6535 104.22L60.9738 105.762L58.2941 104.22L60.9738 102.678L63.6535 104.22ZM60.7102 105.939L58.0305 107.481L55.3508 105.939L58.0305 104.397L60.7102 105.939ZM57.723 107.657L55.0433 109.199L52.3636 107.657L55.0433 106.115L57.723 107.657ZM54.7798 109.375L52.1001 110.917L49.4204 109.375L52.1001 107.833L54.7798 109.375ZM55.0872 109.551L57.7669 111.093L55.0872 112.635L52.4076 111.093L55.0872 109.551ZM58.0305 111.225L60.7102 112.767L58.0305 114.309L55.3508 112.767L58.0305 111.225ZM60.9738 112.944L63.6535 114.486L60.9738 116.028L58.2941 114.486L60.9738 112.944ZM63.961 114.662L66.6406 116.204L63.961 117.746L61.2813 116.204L63.961 114.662ZM66.9042 116.38L69.5839 117.922L66.9042 119.464L64.2245 117.922L66.9042 116.38ZM69.8475 118.098L72.5272 119.64L69.8475 121.182L67.1678 119.64L69.8475 118.098ZM72.7907 119.772L75.4704 121.314L72.7907 122.856L70.1111 121.314L72.7907 119.772ZM73.0982 119.64L75.7779 118.098L78.4576 119.64L75.7779 121.182L73.0982 119.64ZM76.0415 117.922L78.7212 116.38L81.4009 117.922L78.7212 119.464L76.0415 117.922ZM78.9847 116.204L81.6644 114.662L84.3441 116.204L81.6644 117.746L78.9847 116.204ZM81.9719 114.486L84.6516 112.944L87.3313 114.486L84.6516 116.028L81.9719 114.486ZM84.9152 112.767L87.5949 111.225L90.2746 112.767L87.5949 114.309L84.9152 112.767ZM87.8585 111.093L90.5381 109.551L93.2178 111.093L90.5381 112.635L87.8585 111.093ZM90.8017 109.375L93.4814 107.833L96.1611 109.375L93.4814 110.917L90.8017 109.375ZM93.745 107.657L96.4247 106.115L99.1043 107.657L96.4247 109.199L93.745 107.657ZM93.4814 107.481L90.8017 105.939L93.4814 104.397L96.1611 105.939L93.4814 107.481ZM90.4942 105.762L87.8145 104.22L90.4942 102.678L93.1739 104.22L90.4942 105.762ZM87.5509 104.044L84.8713 102.502L87.5509 100.96L90.2306 102.502L87.5509 104.044ZM84.6077 102.37L81.928 100.828L84.6077 99.2859L87.2874 100.828L84.6077 102.37ZM81.6644 100.652L78.9847 99.1096L81.6644 97.5676L84.3441 99.1096L81.6644 100.652ZM78.7212 98.9334L76.0415 97.3914L78.7212 95.8494L81.4009 97.3914L78.7212 98.9334ZM75.734 97.2152L73.0543 95.6732L75.734 94.1312L78.4137 95.6732L75.734 97.2152ZM72.7907 95.4969L70.1111 93.9549L72.7907 92.4129L75.4704 93.9549L72.7907 95.4969ZM72.5272 95.6732L69.8475 97.2152L67.1678 95.6732L69.8475 94.1312L72.5272 95.6732ZM69.54 97.3914L66.8603 98.9334L64.1806 97.3914L66.8603 95.8494L69.54 97.3914ZM66.5967 99.1096L63.917 100.652L61.2373 99.1096L63.917 97.5676L66.5967 99.1096ZM63.6535 100.828L60.9738 102.37L58.2941 100.828L60.9738 99.2859L63.6535 100.828ZM60.7102 102.502L58.0305 104.044L55.3508 102.502L58.0305 100.96L60.7102 102.502ZM57.723 104.22L55.0433 105.762L52.3636 104.22L55.0433 102.678L57.723 104.22ZM54.7798 105.939L52.1001 107.481L49.4204 105.939L52.1001 104.397L54.7798 105.939ZM51.8365 107.657L49.1568 109.199L46.4771 107.657L49.1568 106.115L51.8365 107.657ZM48.8932 109.375L46.2136 110.917L43.5339 109.375L46.2136 107.833L48.8932 109.375ZM49.2007 109.551L51.8804 111.093L49.2007 112.635L46.521 111.093L49.2007 109.551ZM52.144 111.225L54.8237 112.767L52.144 114.309L49.4643 112.767L52.144 111.225ZM55.0872 112.944L57.7669 114.486L55.0872 116.028L52.4076 114.486L55.0872 112.944ZM58.0305 114.662L60.7102 116.204L58.0305 117.746L55.3508 116.204L58.0305 114.662ZM60.9738 116.38L63.6535 117.922L60.9738 119.464L58.2941 117.922L60.9738 116.38ZM63.961 118.098L66.6406 119.64L63.961 121.182L61.2813 119.64L63.961 118.098ZM66.9042 119.772L69.5839 121.314L66.9042 122.856L64.2245 121.314L66.9042 119.772ZM69.8475 121.491L72.5272 123.033L69.8475 124.575L67.1678 123.033L69.8475 121.491ZM72.7907 123.209L75.4704 124.751L72.7907 126.293L70.1111 124.751L72.7907 123.209ZM73.0982 123.033L75.7779 121.491L78.4576 123.033L75.7779 124.575L73.0982 123.033ZM76.0415 121.314L78.7212 119.772L81.4009 121.314L78.7212 122.856L76.0415 121.314ZM78.9847 119.64L81.6644 118.098L84.3441 119.64L81.6644 121.182L78.9847 119.64ZM81.9719 117.922L84.6516 116.38L87.3313 117.922L84.6516 119.464L81.9719 117.922ZM84.9152 116.204L87.5949 114.662L90.2746 116.204L87.5949 117.746L84.9152 116.204ZM87.8585 114.486L90.5381 112.944L93.2178 114.486L90.4942 116.028L87.8585 114.486ZM90.8017 112.767L93.4814 111.225L96.1611 112.767L93.4814 114.309L90.8017 112.767ZM93.745 111.093L96.4247 109.551L99.1043 111.093L96.4247 112.635L93.745 111.093ZM96.7322 109.375L99.4118 107.833L102.092 109.375L99.4118 110.917L96.7322 109.375ZM99.6754 107.657L102.355 106.115L105.035 107.657L102.355 109.199L99.6754 107.657ZM99.3679 107.481L96.6882 105.939L99.3679 104.397L102.048 105.939L99.3679 107.481ZM96.4247 105.762L93.745 104.22L96.4247 102.678L99.1043 104.22L96.4247 105.762ZM93.4814 104.044L90.8017 102.502L93.4814 100.96L96.1611 102.502L93.4814 104.044ZM90.4942 102.37L87.8145 100.828L90.4942 99.2859L93.1739 100.828L90.4942 102.37ZM87.5509 100.652L84.8713 99.1096L87.5509 97.5676L90.2306 99.1096L87.5509 100.652ZM84.6077 98.9334L81.928 97.3914L84.6077 95.8494L87.2874 97.3914L84.6077 98.9334ZM81.6644 97.2152L78.9847 95.6732L81.6644 94.1312L84.3441 95.6732L81.6644 97.2152ZM78.7212 95.4969L76.0415 93.9549L78.7212 92.4129L81.4009 93.9549L78.7212 95.4969ZM75.734 93.8228L73.0543 92.2808L75.734 90.7388L78.4137 92.2808L75.734 93.8228ZM72.7907 92.1045L70.1111 90.5625L72.7907 89.0205L75.4704 90.5625L72.7907 92.1045ZM72.5272 92.2808L69.8475 93.8228L67.1678 92.2808L69.8475 90.7388L72.5272 92.2808ZM69.54 93.9549L66.8603 95.4969L64.1806 93.9549L66.8603 92.4129L69.54 93.9549ZM66.5967 95.6732L63.917 97.2152L61.2373 95.6732L63.917 94.1312L66.5967 95.6732ZM63.6535 97.3914L60.9738 98.9334L58.2941 97.3914L60.9738 95.8494L63.6535 97.3914ZM60.7102 99.1096L58.0305 100.652L55.3508 99.1096L58.0305 97.5676L60.7102 99.1096ZM57.723 100.828L55.0433 102.37L52.3636 100.828L55.0433 99.2859L57.723 100.828ZM54.7798 102.502L52.1001 104.044L49.4204 102.502L52.1001 100.96L54.7798 102.502ZM51.8365 104.22L49.1568 105.762L46.4771 104.22L49.1568 102.678L51.8365 104.22ZM48.8932 105.939L46.2136 107.481L43.5339 105.939L46.2136 104.397L48.8932 105.939ZM45.95 107.657L43.2703 109.199L40.5906 107.657L43.2703 106.115L45.95 107.657ZM42.9628 109.375L40.2831 110.917L37.6034 109.375L40.2831 107.833L42.9628 109.375ZM43.2703 109.551L45.95 111.093L43.2703 112.635L40.5906 111.093L43.2703 109.551ZM46.2136 111.225L48.8932 112.767L46.2136 114.309L43.5339 112.767L46.2136 111.225ZM49.2007 112.944L51.8804 114.486L49.2007 116.028L46.521 114.486L49.2007 112.944ZM52.144 114.662L54.8237 116.204L52.144 117.746L49.4643 116.204L52.144 114.662ZM55.0872 116.38L57.7669 117.922L55.0872 119.464L52.4076 117.922L55.0872 116.38ZM58.0305 118.098L60.7102 119.64L58.0305 121.182L55.3508 119.64L58.0305 118.098ZM60.9738 119.772L63.6535 121.314L60.9738 122.856L58.2941 121.314L60.9738 119.772ZM63.961 121.491L66.6406 123.033L63.961 124.575L61.2813 123.033L63.961 121.491ZM66.9042 123.209L69.5839 124.751L66.9042 126.293L64.2245 124.751L66.9042 123.209ZM69.8475 124.927L72.5272 126.469L69.8475 128.011L67.1678 126.469L69.8475 124.927ZM72.7907 126.645L75.4704 128.187L72.7907 129.729L70.1111 128.187L72.7907 126.645ZM73.0982 126.469L75.7779 124.927L78.4576 126.469L75.7779 128.011L73.0982 126.469ZM76.0415 124.751L78.7212 123.209L81.4009 124.751L78.7212 126.293L76.0415 124.751ZM78.9847 123.033L81.6644 121.491L84.3441 123.033L81.6644 124.575L78.9847 123.033ZM81.9719 121.314L84.6516 119.772L87.3313 121.314L84.6516 122.856L81.9719 121.314ZM84.9152 119.64L87.5949 118.098L90.2746 119.64L87.5949 121.182L84.9152 119.64ZM87.8585 117.922L90.5381 116.38L93.2178 117.922L90.5381 119.464L87.8585 117.922ZM90.8017 116.204L93.4814 114.662L96.1611 116.204L93.4814 117.746L90.8017 116.204ZM93.745 114.486L96.4247 112.944L99.1043 114.486L96.4247 116.028L93.745 114.486ZM96.7322 112.767L99.4118 111.225L102.092 112.767L99.4118 114.309L96.7322 112.767ZM99.6754 111.093L102.355 109.551L105.035 111.093L102.355 112.635L99.6754 111.093ZM102.619 109.375L105.298 107.833L107.978 109.375L105.298 110.917L102.619 109.375ZM105.562 107.657L108.242 106.115L110.921 107.657L108.242 109.199L105.562 107.657ZM105.298 107.481L102.619 105.939L105.298 104.397L107.978 105.939L105.298 107.481ZM102.311 105.762L99.6315 104.22L102.311 102.678L104.991 104.22L102.311 105.762ZM99.3679 104.044L96.6882 102.502L99.3679 100.96L102.048 102.502L99.3679 104.044ZM96.4247 102.37L93.745 100.828L96.4247 99.2859L99.1043 100.828L96.4247 102.37ZM93.4814 100.652L90.8017 99.1096L93.4814 97.5676L96.1611 99.1096L93.4814 100.652ZM90.4942 98.9334L87.8145 97.3914L90.4942 95.8494L93.1739 97.3914L90.4942 98.9334ZM87.5509 97.2152L84.8713 95.6732L87.5509 94.1312L90.2306 95.6732L87.5509 97.2152ZM84.6077 95.4969L81.928 93.9549L84.6077 92.4129L87.2874 93.9549L84.6077 95.4969ZM81.6644 93.8228L78.9847 92.2808L81.6644 90.7388L84.3441 92.2808L81.6644 93.8228ZM78.7212 92.1045L76.0415 90.5625L78.7212 89.0205L81.4009 90.5625L78.7212 92.1045ZM75.734 90.3863L73.0543 88.8443L75.734 87.3023L78.4137 88.8443L75.734 90.3863ZM72.7907 88.6681L70.1111 87.1261L72.7907 85.5841L75.4704 87.1261L72.7907 88.6681ZM72.5272 88.8443L69.8475 90.3863L67.1678 88.8443L69.8475 87.3023L72.5272 88.8443ZM69.54 90.5625L66.8603 92.1045L64.1806 90.5625L66.8603 89.0205L69.54 90.5625ZM66.5967 92.2808L63.917 93.8228L61.2373 92.2808L63.917 90.7388L66.5967 92.2808ZM63.6535 93.9549L60.9738 95.4969L58.2941 93.9549L60.9738 92.4129L63.6535 93.9549ZM60.7102 95.6732L58.0305 97.2152L55.3508 95.6732L58.0305 94.1312L60.7102 95.6732ZM57.723 97.3914L55.0433 98.9334L52.3636 97.3914L55.0433 95.8494L57.723 97.3914ZM54.7798 99.1096L52.1001 100.652L49.4204 99.1096L52.1001 97.5676L54.7798 99.1096ZM51.8365 100.828L49.2007 102.37L46.521 100.828L49.2007 99.2859L51.8365 100.828ZM48.8932 102.502L46.2136 104.044L43.5339 102.502L46.2136 100.96L48.8932 102.502ZM45.95 104.22L43.2703 105.762L40.5906 104.22L43.2703 102.678L45.95 104.22ZM42.9628 105.939L40.2831 107.481L37.6034 105.939L40.2831 104.397L42.9628 105.939ZM40.0195 107.657L37.3398 109.199L34.7041 107.657L37.3838 106.115L40.0195 107.657ZM37.0763 109.375L34.3966 110.917L31.7169 109.375L34.3966 107.833L37.0763 109.375ZM37.3838 109.551L40.0635 111.093L37.3838 112.635L34.7041 111.093L37.3838 109.551ZM40.327 111.225L43.0067 112.767L40.327 114.309L37.6474 112.767L40.327 111.225ZM43.2703 112.944L45.95 114.486L43.2703 116.028L40.5906 114.486L43.2703 112.944ZM46.2136 114.662L48.8932 116.204L46.2136 117.746L43.5339 116.204L46.2136 114.662ZM49.2007 116.38L51.8804 117.922L49.2007 119.464L46.521 117.922L49.2007 116.38ZM52.144 118.098L54.8237 119.64L52.144 121.182L49.4643 119.64L52.144 118.098ZM55.0872 119.772L57.7669 121.314L55.0872 122.856L52.4076 121.314L55.0872 119.772ZM58.0305 121.491L60.7102 123.033L58.0305 124.575L55.3508 123.033L58.0305 121.491ZM60.9738 123.209L63.6535 124.751L60.9738 126.293L58.2941 124.751L60.9738 123.209ZM63.961 124.927L66.6406 126.469L63.961 128.011L61.2813 126.469L63.961 124.927ZM66.9042 126.645L69.5839 128.187L66.9042 129.729L64.2245 128.187L66.9042 126.645ZM69.8475 128.32L72.5272 129.862L69.8475 131.404L67.1678 129.862L69.8475 128.32ZM72.7907 130.038L75.4704 131.58L72.7907 133.122L70.1111 131.58L72.7907 130.038ZM73.0982 129.862L75.7779 128.32L78.4576 129.862L75.7779 131.404L73.0982 129.862ZM76.0415 128.187L78.7212 126.645L81.4009 128.187L78.7212 129.729L76.0415 128.187ZM78.9847 126.469L81.6644 124.927L84.3441 126.469L81.6644 128.011L78.9847 126.469ZM81.9719 124.751L84.6516 123.209L87.3313 124.751L84.6516 126.293L81.9719 124.751ZM84.9152 123.033L87.5949 121.491L90.2746 123.033L87.5949 124.575L84.9152 123.033ZM87.8585 121.314L90.5381 119.772L93.2178 121.314L90.5381 122.856L87.8585 121.314ZM90.8017 119.64L93.4814 118.098L96.1611 119.64L93.4814 121.182L90.8017 119.64ZM93.745 117.922L96.4247 116.38L99.1043 117.922L96.4247 119.464L93.745 117.922ZM96.7322 116.204L99.4118 114.662L102.092 116.204L99.4118 117.746L96.7322 116.204ZM99.6754 114.486L102.355 112.944L105.035 114.486L102.355 116.028L99.6754 114.486ZM102.619 112.767L105.298 111.225L107.978 112.767L105.298 114.309L102.619 112.767ZM105.562 111.093L108.242 109.551L110.921 111.093L108.242 112.635L105.562 111.093ZM108.505 109.375L111.185 107.833L113.865 109.375L111.185 110.917L108.505 109.375ZM111.492 107.657L114.172 106.115L116.852 107.657L114.172 109.199L111.492 107.657ZM111.185 107.481L108.505 105.939L111.185 104.397L113.865 105.939L111.185 107.481ZM108.242 105.762L105.562 104.22L108.242 102.678L110.921 104.22L108.242 105.762ZM105.298 104.044L102.619 102.502L105.298 100.96L107.978 102.502L105.298 104.044ZM102.311 102.37L99.6315 100.828L102.311 99.2859L104.991 100.828L102.311 102.37ZM99.3679 100.652L96.6882 99.1096L99.3679 97.5676L102.048 99.1096L99.3679 100.652ZM96.4247 98.9334L93.745 97.3914L96.4247 95.8494L99.1043 97.3914L96.4247 98.9334ZM93.4814 97.2152L90.8017 95.6732L93.4814 94.1312L96.1611 95.6732L93.4814 97.2152ZM90.4942 95.4969L87.8145 93.9549L90.4942 92.4129L93.1739 93.9549L90.4942 95.4969ZM87.5509 93.8228L84.8713 92.2808L87.5509 90.7388L90.2306 92.2808L87.5509 93.8228ZM84.6077 92.1045L81.928 90.5625L84.6077 89.0205L87.2874 90.5625L84.6077 92.1045ZM81.6644 90.3863L78.9847 88.8443L81.6644 87.3023L84.3441 88.8443L81.6644 90.3863ZM78.7212 88.6681L76.0415 87.1261L78.7212 85.5841L81.4009 87.1261L78.7212 88.6681ZM75.734 86.9498L73.0543 85.4078L75.734 83.8658L78.4137 85.4078L75.734 86.9498ZM72.7907 85.2757L70.1111 83.7337L72.7907 82.1917L75.4704 83.7337L72.7907 85.2757ZM72.5272 85.4078L69.8475 86.9498L67.1678 85.4078L69.8475 83.8658L72.5272 85.4078ZM69.54 87.1261L66.8603 88.6681L64.1806 87.1261L66.8603 85.5841L69.54 87.1261ZM66.5967 88.8443L63.917 90.3863L61.2373 88.8443L63.917 87.3023L66.5967 88.8443ZM63.6535 90.5625L60.9738 92.1045L58.2941 90.5625L60.9738 89.0205L63.6535 90.5625ZM60.7102 92.2808L58.0305 93.8228L55.3508 92.2808L58.0305 90.7388L60.7102 92.2808ZM57.723 93.9549L55.0433 95.4969L52.3636 93.9549L55.0433 92.4129L57.723 93.9549ZM54.7798 95.6732L52.1001 97.2152L49.4204 95.6732L52.1001 94.1312L54.7798 95.6732ZM51.8365 97.3914L49.1568 98.9334L46.4771 97.3914L49.1568 95.8494L51.8365 97.3914ZM48.8932 99.1096L46.2136 100.652L43.5339 99.1096L46.2136 97.5676L48.8932 99.1096ZM45.95 100.828L43.2703 102.37L40.5906 100.828L43.2703 99.2859L45.95 100.828ZM42.9628 102.502L40.2831 104.044L37.6034 102.502L40.2831 100.96L42.9628 102.502ZM40.0195 104.22L37.3398 105.762L34.6602 104.22L37.3398 102.678L40.0195 104.22ZM37.0763 105.939L34.3966 107.481L31.7169 105.939L34.3966 104.397L37.0763 105.939ZM34.133 107.657L31.4533 109.199L28.7736 107.657L31.4533 106.115L34.133 107.657ZM31.1898 109.375L28.5101 110.917L25.8304 109.375L28.5101 107.833L31.1898 109.375ZM31.4533 109.551L34.133 111.093L31.4533 112.635L28.7736 111.093L31.4533 109.551ZM34.4405 111.225L37.1202 112.767L34.4405 114.309L31.7608 112.767L34.4405 111.225ZM37.3838 112.944L40.0635 114.486L37.3838 116.028L34.7041 114.486L37.3838 112.944ZM40.327 114.662L43.0067 116.204L40.327 117.746L37.6474 116.204L40.327 114.662ZM43.2703 116.38L45.95 117.922L43.2703 119.464L40.5906 117.922L43.2703 116.38ZM46.2136 118.098L48.8932 119.64L46.2136 121.182L43.5339 119.64L46.2136 118.098ZM49.2007 119.772L51.8804 121.314L49.2007 122.856L46.521 121.314L49.2007 119.772ZM52.144 121.491L54.8237 123.033L52.144 124.575L49.4643 123.033L52.144 121.491ZM55.0872 123.209L57.7669 124.751L55.0872 126.293L52.4076 124.751L55.0872 123.209ZM58.0305 124.927L60.7102 126.469L58.0305 128.011L55.3508 126.469L58.0305 124.927ZM60.9738 126.645L63.6535 128.187L60.9738 129.729L58.2941 128.187L60.9738 126.645ZM63.961 128.32L66.6406 129.862L63.961 131.404L61.2813 129.862L63.961 128.32ZM66.9042 130.038L69.5839 131.58L66.9042 133.122L64.2245 131.58L66.9042 130.038ZM69.8475 131.756L72.5272 133.298L69.8475 134.84L67.1678 133.298L69.8475 131.756ZM72.7907 133.474L75.4704 135.016L72.7907 136.558L70.1111 135.016L72.7907 133.474ZM73.0982 133.298L75.7779 131.756L78.4576 133.298L75.7779 134.84L73.0982 133.298ZM76.0415 131.58L78.7212 130.038L81.4009 131.58L78.7212 133.122L76.0415 131.58ZM78.9847 129.862L81.6644 128.32L84.3441 129.862L81.6644 131.404L78.9847 129.862ZM81.9719 128.187L84.6516 126.645L87.3313 128.187L84.6516 129.729L81.9719 128.187ZM84.9152 126.469L87.5949 124.927L90.2746 126.469L87.5949 128.011L84.9152 126.469ZM87.8585 124.751L90.5381 123.209L93.2178 124.751L90.5381 126.293L87.8585 124.751ZM90.8017 123.033L93.4814 121.491L96.1611 123.033L93.4814 124.575L90.8017 123.033ZM93.745 121.314L96.4247 119.772L99.1043 121.314L96.4247 122.856L93.745 121.314ZM96.7322 119.64L99.4118 118.098L102.092 119.64L99.4118 121.182L96.7322 119.64ZM99.6754 117.922L102.355 116.38L105.035 117.922L102.355 119.464L99.6754 117.922ZM102.619 116.204L105.298 114.662L107.978 116.204L105.298 117.746L102.619 116.204ZM105.562 114.486L108.242 112.944L110.921 114.486L108.242 116.028L105.562 114.486ZM108.505 112.767L111.185 111.225L113.865 112.767L111.185 114.309L108.505 112.767ZM111.492 111.093L114.172 109.551L116.852 111.093L114.172 112.635L111.492 111.093ZM114.436 109.375L117.115 107.833L119.795 109.375L117.115 110.917L114.436 109.375ZM117.379 107.657L120.059 106.115L122.738 107.657L120.059 109.199L117.379 107.657ZM117.071 107.481L114.392 105.939L117.071 104.397L119.751 105.939L117.071 107.481ZM114.128 105.762L111.448 104.22L114.128 102.678L116.808 104.22L114.128 105.762ZM111.185 104.044L108.505 102.502L111.185 100.96L113.865 102.502L111.185 104.044ZM108.242 102.37L105.562 100.828L108.242 99.2859L110.921 100.828L108.242 102.37ZM105.298 100.652L102.619 99.1096L105.298 97.5676L107.978 99.1096L105.298 100.652ZM102.311 98.9334L99.6315 97.3914L102.311 95.8494L104.991 97.3914L102.311 98.9334ZM99.3679 97.2152L96.6882 95.6732L99.3679 94.1312L102.048 95.6732L99.3679 97.2152ZM96.4247 95.4969L93.745 93.9549L96.4247 92.4129L99.1043 93.9549L96.4247 95.4969ZM93.4814 93.8228L90.8017 92.2808L93.4814 90.7388L96.1611 92.2808L93.4814 93.8228ZM90.4942 92.1045L87.8145 90.5625L90.4942 89.0205L93.1739 90.5625L90.4942 92.1045ZM87.5509 90.3863L84.8713 88.8443L87.5509 87.3023L90.2306 88.8443L87.5509 90.3863ZM84.6077 88.6681L81.928 87.1261L84.6077 85.5841L87.2874 87.1261L84.6077 88.6681ZM81.6644 86.9498L78.9847 85.4078L81.6644 83.8658L84.3441 85.4078L81.6644 86.9498ZM78.7212 85.2757L76.0415 83.7337L78.7212 82.1917L81.4009 83.7337L78.7212 85.2757ZM75.734 83.5574L73.0543 82.0154L75.734 80.4734L78.4137 82.0154L75.734 83.5574ZM72.7907 81.8392L70.1111 80.2972L72.7907 78.7552L75.4704 80.2972L72.7907 81.8392ZM72.5272 82.0154L69.8475 83.5574L67.1678 82.0154L69.8475 80.4734L72.5272 82.0154ZM69.54 83.7337L66.8603 85.2757L64.1806 83.7337L66.8603 82.1917L69.54 83.7337ZM66.5967 85.4078L63.917 86.9498L61.2373 85.4078L63.917 83.8658L66.5967 85.4078ZM63.6535 87.1261L60.9738 88.6681L58.2941 87.1261L60.9738 85.5841L63.6535 87.1261ZM60.7102 88.8443L58.0305 90.3863L55.3508 88.8443L58.0305 87.3023L60.7102 88.8443ZM57.723 90.5625L55.0433 92.1045L52.3636 90.5625L55.0433 89.0205L57.723 90.5625ZM54.7798 92.2808L52.1001 93.8228L49.4204 92.2808L52.1001 90.7388L54.7798 92.2808ZM51.8365 93.9549L49.1568 95.4969L46.4771 93.9549L49.1568 92.4129L51.8365 93.9549ZM48.8932 95.6732L46.2136 97.2152L43.5339 95.6732L46.2136 94.1312L48.8932 95.6732ZM45.95 97.3914L43.2703 98.9334L40.5906 97.3914L43.2703 95.8494L45.95 97.3914ZM42.9628 99.1096L40.2831 100.652L37.6034 99.1096L40.2831 97.5676L42.9628 99.1096ZM40.0195 100.828L37.3398 102.37L34.6602 100.828L37.3398 99.2859L40.0195 100.828ZM37.0763 102.502L34.3966 104.044L31.7169 102.502L34.3966 100.96L37.0763 102.502ZM34.133 104.22L31.4533 105.762L28.7736 104.22L31.4533 102.678L34.133 104.22ZM31.1898 105.939L28.5101 107.481L25.8304 105.939L28.5101 104.397L31.1898 105.939ZM28.2026 107.657L25.5229 109.199L22.8432 107.657L25.5229 106.115L28.2026 107.657ZM25.2593 109.375L22.5796 110.917L19.8999 109.375L22.5796 107.833L25.2593 109.375ZM25.5668 109.551L28.2465 111.093L25.5668 112.635L22.8871 111.093L25.5668 109.551ZM28.5101 111.225L31.1898 112.767L28.5101 114.309L25.8304 112.767L28.5101 111.225ZM31.4533 112.944L34.133 114.486L31.4533 116.028L28.7736 114.486L31.4533 112.944ZM34.4405 114.662L37.1202 116.204L34.4405 117.746L31.7608 116.204L34.4405 114.662ZM37.3838 116.38L40.0635 117.922L37.3838 119.464L34.7041 117.922L37.3838 116.38ZM40.327 118.098L43.0067 119.64L40.327 121.182L37.6474 119.64L40.327 118.098ZM43.2703 119.772L45.95 121.314L43.2703 122.856L40.5906 121.314L43.2703 119.772ZM46.2136 121.491L48.8932 123.033L46.2136 124.575L43.5339 123.033L46.2136 121.491ZM49.2007 123.209L51.8804 124.751L49.2007 126.293L46.521 124.751L49.2007 123.209ZM52.144 124.927L54.8237 126.469L52.144 128.011L49.4643 126.469L52.144 124.927ZM55.0872 126.645L57.7669 128.187L55.0872 129.729L52.4076 128.187L55.0872 126.645ZM58.0305 128.32L60.7102 129.862L58.0305 131.404L55.3508 129.862L58.0305 128.32ZM60.9738 130.038L63.6535 131.58L60.9738 133.122L58.2941 131.58L60.9738 130.038ZM63.961 131.756L66.6406 133.298L63.961 134.84L61.2813 133.298L63.961 131.756ZM66.9042 133.474L69.5839 135.016L66.9042 136.558L64.2245 135.016L66.9042 133.474ZM69.8475 135.192L72.5272 136.734L69.8475 138.276L67.2117 136.734L69.8475 135.192ZM72.7907 136.867L75.4704 138.409L72.7907 139.951L70.1111 138.409L72.7907 136.867ZM73.0982 136.734L75.7779 135.192L78.4576 136.734L75.7779 138.276L73.0982 136.734ZM76.0415 135.016L78.7212 133.474L81.4009 135.016L78.7212 136.558L76.0415 135.016ZM78.9847 133.298L81.6644 131.756L84.3441 133.298L81.6644 134.84L78.9847 133.298ZM81.9719 131.58L84.6516 130.038L87.3313 131.58L84.6516 133.122L81.9719 131.58ZM84.9152 129.862L87.5949 128.32L90.2746 129.862L87.5949 131.404L84.9152 129.862ZM87.8585 128.187L90.5381 126.645L93.2178 128.187L90.5381 129.729L87.8585 128.187ZM90.8017 126.469L93.4814 124.927L96.1611 126.469L93.4814 128.011L90.8017 126.469ZM93.745 124.751L96.4247 123.209L99.1043 124.751L96.4247 126.293L93.745 124.751ZM96.7322 123.033L99.4118 121.491L102.092 123.033L99.4118 124.575L96.7322 123.033ZM99.6754 121.314L102.355 119.772L105.035 121.314L102.355 122.856L99.6754 121.314ZM102.619 119.64L105.298 118.098L107.978 119.64L105.298 121.182L102.619 119.64ZM105.562 117.922L108.242 116.38L110.921 117.922L108.242 119.464L105.562 117.922ZM108.505 116.204L111.185 114.662L113.865 116.204L111.185 117.746L108.505 116.204ZM111.492 114.486L114.172 112.944L116.852 114.486L114.172 116.028L111.492 114.486ZM114.436 112.767L117.115 111.225L119.795 112.767L117.115 114.309L114.436 112.767ZM117.379 111.093L120.059 109.551L122.738 111.093L120.059 112.635L117.379 111.093ZM120.322 109.375L123.002 107.833L125.682 109.375L123.002 110.917L120.322 109.375ZM123.265 107.657L125.945 106.115L128.625 107.657L125.945 109.199L123.265 107.657ZM123.002 107.481L120.322 105.939L123.002 104.397L125.682 105.939L123.002 107.481ZM120.059 105.762L117.379 104.22L120.059 102.678L122.738 104.22L120.059 105.762ZM117.071 104.044L114.392 102.502L117.071 100.96L119.751 102.502L117.071 104.044ZM114.128 102.37L111.448 100.828L114.128 99.2859L116.808 100.828L114.128 102.37ZM111.185 100.652L108.505 99.1096L111.185 97.5676L113.865 99.1096L111.185 100.652ZM108.242 98.9334L105.562 97.3914L108.242 95.8494L110.921 97.3914L108.242 98.9334ZM105.298 97.2152L102.619 95.6732L105.298 94.1312L107.978 95.6732L105.298 97.2152ZM102.311 95.4969L99.6315 93.9549L102.311 92.4129L104.991 93.9549L102.311 95.4969ZM99.3679 93.8228L96.6882 92.2808L99.3679 90.7388L102.048 92.2808L99.3679 93.8228ZM96.4247 92.1045L93.745 90.5625L96.4247 89.0205L99.1043 90.5625L96.4247 92.1045ZM93.4814 90.3863L90.8017 88.8443L93.4814 87.3023L96.1611 88.8443L93.4814 90.3863ZM90.4942 88.6681L87.8145 87.1261L90.4942 85.5841L93.1739 87.1261L90.4942 88.6681ZM87.5509 86.9498L84.8713 85.4078L87.5509 83.8658L90.2306 85.4078L87.5509 86.9498ZM84.6077 85.2757L81.928 83.7337L84.6077 82.1917L87.2874 83.7337L84.6077 85.2757ZM81.6644 83.5574L78.9847 82.0154L81.6644 80.4734L84.3441 82.0154L81.6644 83.5574ZM78.7212 81.8392L76.0415 80.2972L78.7212 78.7552L81.4009 80.2972L78.7212 81.8392ZM75.734 80.121L73.0543 78.579L75.734 77.037L78.4137 78.579L75.734 80.121ZM72.7907 78.4027L70.1111 76.8607L72.7907 75.3187L75.4704 76.8607L72.7907 78.4027ZM72.5272 78.579L69.8475 80.121L67.1678 78.579L69.8475 77.037L72.5272 78.579ZM69.54 80.2972L66.8603 81.8392L64.1806 80.2972L66.8603 78.7552L69.54 80.2972ZM66.5967 82.0154L63.917 83.5574L61.2373 82.0154L63.917 80.4734L66.5967 82.0154ZM63.6535 83.7337L60.9738 85.2757L58.2941 83.7337L60.9738 82.1917L63.6535 83.7337ZM60.7102 85.4078L58.0305 86.9498L55.3508 85.4078L58.0305 83.8658L60.7102 85.4078ZM57.723 87.1261L55.0433 88.6681L52.3636 87.1261L55.0433 85.5841L57.723 87.1261ZM54.7798 88.8443L52.1001 90.3863L49.4204 88.8443L52.1001 87.3023L54.7798 88.8443ZM51.8365 90.5625L49.1568 92.1045L46.4771 90.5625L49.1568 89.0205L51.8365 90.5625ZM48.8932 92.2808L46.2136 93.8228L43.5339 92.2808L46.2136 90.7388L48.8932 92.2808ZM45.95 93.9549L43.2703 95.4969L40.5906 93.9549L43.2703 92.4129L45.95 93.9549ZM42.9628 95.6732L40.2831 97.2152L37.6034 95.6732L40.2831 94.1312L42.9628 95.6732ZM40.0195 97.3914L37.3398 98.9334L34.6602 97.3914L37.3398 95.8494L40.0195 97.3914ZM37.0763 99.1096L34.3966 100.652L31.7169 99.1096L34.3966 97.5676L37.0763 99.1096ZM34.133 100.828L31.4533 102.37L28.7736 100.828L31.4533 99.2859L34.133 100.828ZM31.1898 102.502L28.5101 104.044L25.8304 102.502L28.5101 100.96L31.1898 102.502ZM28.2026 104.22L25.5229 105.762L22.8432 104.22L25.5229 102.678L28.2026 104.22ZM25.2593 105.939L22.5796 107.481L19.8999 105.939L22.5796 104.397L25.2593 105.939ZM22.316 107.657L19.6364 109.199L16.9567 107.657L19.6364 106.115L22.316 107.657ZM19.3728 109.375L16.6931 110.917L14.0134 109.375L16.6931 107.833L19.3728 109.375ZM19.6364 109.551L22.316 111.093L19.6364 112.635L16.9567 111.093L19.6364 109.551ZM22.6236 111.225L25.3032 112.767L22.6236 114.309L19.9439 112.767L22.6236 111.225ZM25.5668 112.944L28.2465 114.486L25.5668 116.028L22.8871 114.486L25.5668 112.944ZM28.5101 114.662L31.1898 116.204L28.5101 117.746L25.8304 116.204L28.5101 114.662ZM31.4533 116.38L34.133 117.922L31.4533 119.464L28.7736 117.922L31.4533 116.38ZM34.4405 118.098L37.1202 119.64L34.4405 121.182L31.7608 119.64L34.4405 118.098ZM37.3838 119.772L40.0635 121.314L37.3838 122.856L34.7041 121.314L37.3838 119.772ZM40.327 121.491L43.0067 123.033L40.327 124.575L37.6474 123.033L40.327 121.491ZM43.2703 123.209L45.95 124.751L43.2703 126.293L40.5906 124.751L43.2703 123.209ZM46.2136 124.927L48.8932 126.469L46.2136 128.011L43.5339 126.469L46.2136 124.927ZM49.2007 126.645L51.8804 128.187L49.2007 129.685L46.521 128.143L49.2007 126.645ZM52.144 128.32L54.8237 129.862L52.144 131.404L49.4643 129.862L52.144 128.32ZM55.0872 130.038L57.7669 131.58L55.0872 133.122L52.4076 131.58L55.0872 130.038ZM58.0305 131.756L60.7102 133.298L58.0305 134.84L55.3508 133.298L58.0305 131.756ZM60.9738 133.474L63.6535 135.016L60.9738 136.558L58.2941 135.016L60.9738 133.474ZM63.961 135.192L66.6406 136.734L63.961 138.276L61.2813 136.734L63.961 135.192ZM66.9042 136.867L69.5839 138.409L66.9042 139.951L64.2245 138.409L66.9042 136.867ZM69.8475 138.585L72.5272 140.127L69.8475 141.669L67.1678 140.127L69.8475 138.585ZM72.7907 140.303L75.4704 141.845L72.7907 143.387L70.1111 141.845L72.7907 140.303ZM73.0982 140.127L75.7779 138.585L78.4576 140.127L75.7779 141.669L73.0982 140.127ZM76.0415 138.409L78.7212 136.867L81.4009 138.409L78.7212 139.951L76.0415 138.409ZM78.9847 136.734L81.6644 135.192L84.3441 136.734L81.6644 138.276L78.9847 136.734ZM81.9719 135.016L84.6516 133.474L87.3313 135.016L84.6516 136.558L81.9719 135.016ZM84.9152 133.298L87.5949 131.756L90.2746 133.298L87.5949 134.84L84.9152 133.298ZM87.8585 131.58L90.5381 130.038L93.2178 131.58L90.5381 133.122L87.8585 131.58ZM90.8017 129.862L93.4814 128.32L96.1611 129.862L93.4814 131.404L90.8017 129.862ZM93.745 128.187L96.4247 126.645L99.1043 128.187L96.4247 129.729L93.745 128.187ZM96.7322 126.469L99.4118 124.927L102.092 126.469L99.4118 128.011L96.7322 126.469ZM99.6754 124.751L102.355 123.209L105.035 124.751L102.355 126.293L99.6754 124.751ZM102.619 123.033L105.298 121.491L107.978 123.033L105.298 124.575L102.619 123.033ZM105.562 121.314L108.242 119.772L110.921 121.314L108.242 122.856L105.562 121.314ZM108.505 119.64L111.185 118.098L113.865 119.64L111.185 121.182L108.505 119.64ZM111.492 117.922L114.172 116.38L116.852 117.922L114.172 119.464L111.492 117.922ZM114.436 116.204L117.115 114.662L119.795 116.204L117.115 117.746L114.436 116.204ZM117.379 114.486L120.059 112.944L122.738 114.486L120.059 116.028L117.379 114.486ZM120.322 112.767L123.002 111.225L125.682 112.767L123.002 114.309L120.322 112.767ZM123.265 111.093L125.945 109.551L128.625 111.093L125.945 112.635L123.265 111.093ZM126.253 109.375L128.932 107.833L131.612 109.375L128.932 110.917L126.253 109.375ZM129.196 107.657L131.876 106.115L134.555 107.657L131.876 109.199L129.196 107.657ZM128.888 107.481L126.209 105.939L128.888 104.397L131.568 105.939L128.888 107.481ZM125.945 105.762L123.265 104.22L125.945 102.678L128.625 104.22L125.945 105.762ZM123.002 104.044L120.322 102.502L123.002 100.96L125.682 102.502L123.002 104.044ZM120.059 102.37L117.379 100.828L120.059 99.2859L122.738 100.828L120.059 102.37ZM117.071 100.652L114.392 99.1096L117.071 97.5676L119.751 99.1096L117.071 100.652ZM114.128 98.9334L111.448 97.3914L114.128 95.8494L116.808 97.3914L114.128 98.9334ZM111.185 97.2152L108.505 95.6732L111.185 94.1312L113.865 95.6732L111.185 97.2152ZM108.242 95.4969L105.562 93.9549L108.242 92.4129L110.921 93.9549L108.242 95.4969ZM105.298 93.8228L102.619 92.2808L105.298 90.7388L107.978 92.2808L105.298 93.8228ZM102.311 92.1045L99.6315 90.5625L102.311 89.0205L104.991 90.5625L102.311 92.1045ZM99.3679 90.3863L96.6882 88.8443L99.3679 87.3023L102.048 88.8443L99.3679 90.3863ZM96.4247 88.6681L93.745 87.1261L96.4247 85.5841L99.1043 87.1261L96.4247 88.6681ZM93.4814 86.9498L90.8017 85.4078L93.4814 83.8658L96.1611 85.4078L93.4814 86.9498ZM90.4942 85.2757L87.8145 83.7337L90.4942 82.1917L93.1739 83.7337L90.4942 85.2757ZM87.5509 83.5574L84.8713 82.0154L87.5509 80.4734L90.2306 82.0154L87.5509 83.5574ZM84.6077 81.8392L81.928 80.2972L84.6077 78.7552L87.2874 80.2972L84.6077 81.8392ZM81.6644 80.121L78.9847 78.579L81.6644 77.037L84.3441 78.579L81.6644 80.121ZM78.7212 78.4027L76.0415 76.8607L78.7212 75.3187L81.4009 76.8607L78.7212 78.4027ZM75.734 76.7286L73.0543 75.1866L75.734 73.6446L78.4137 75.1866L75.734 76.7286ZM72.7907 75.0103L70.1111 73.4683L72.7907 71.9263L75.4704 73.4683L72.7907 75.0103ZM72.5272 75.1866L69.8475 76.7286L67.1678 75.1866L69.8475 73.6446L72.5272 75.1866ZM69.54 76.8607L66.8603 78.4027L64.1806 76.8607L66.8603 75.3187L69.54 76.8607ZM66.5967 78.579L63.917 80.121L61.2373 78.579L63.917 77.037L66.5967 78.579ZM63.6535 80.2972L60.9738 81.8392L58.2941 80.2972L60.9738 78.7552L63.6535 80.2972ZM60.7102 82.0154L58.0305 83.5574L55.3508 82.0154L58.0305 80.4734L60.7102 82.0154ZM57.723 83.7337L55.0433 85.2757L52.3636 83.7337L55.0433 82.1917L57.723 83.7337ZM54.7798 85.4078L52.1001 86.9498L49.4204 85.4078L52.1001 83.8658L54.7798 85.4078ZM51.8365 87.1261L49.1568 88.6681L46.4771 87.1261L49.1568 85.5841L51.8365 87.1261ZM48.8932 88.8443L46.2136 90.3863L43.5339 88.8443L46.2136 87.3023L48.8932 88.8443ZM45.95 90.5625L43.2703 92.1045L40.5906 90.5625L43.2703 89.0205L45.95 90.5625ZM42.9628 92.2808L40.2831 93.8228L37.6034 92.2808L40.2831 90.7388L42.9628 92.2808ZM40.0195 93.9549L37.3398 95.4969L34.6602 93.9549L37.3398 92.4129L40.0195 93.9549ZM37.0763 95.6732L34.3966 97.2152L31.7169 95.6732L34.3966 94.1312L37.0763 95.6732ZM34.133 97.3914L31.4533 98.9334L28.7736 97.3914L31.4533 95.8494L34.133 97.3914ZM31.1898 99.1096L28.5101 100.652L25.8304 99.1096L28.5101 97.5676L31.1898 99.1096ZM28.2026 100.828L25.5229 102.37L22.8432 100.828L25.5229 99.2859L28.2026 100.828ZM25.2593 102.502L22.5796 104.044L19.8999 102.502L22.5796 100.96L25.2593 102.502ZM22.316 104.22L19.6364 105.762L16.9567 104.22L19.6364 102.678L22.316 104.22ZM19.3728 105.939L16.6931 107.481L14.0134 105.939L16.6931 104.397L19.3728 105.939ZM16.4295 107.657L13.7498 109.199L11.0702 107.657L13.7498 106.115L16.4295 107.657ZM13.4423 109.375L10.7627 110.917L8.08298 109.375L10.7627 107.833L13.4423 109.375ZM13.7498 109.551L16.4295 111.093L13.7498 112.635L11.0702 111.093L13.7498 109.551ZM16.6931 111.225L19.3728 112.767L16.6931 114.309L14.0134 112.767L16.6931 111.225ZM19.6364 112.944L22.316 114.486L19.6364 116.028L16.9567 114.486L19.6364 112.944ZM22.6236 114.662L25.3032 116.204L22.6236 117.746L19.9439 116.204L22.6236 114.662ZM25.5668 116.38L28.2465 117.922L25.5668 119.464L22.8871 117.922L25.5668 116.38ZM28.5101 118.098L31.1898 119.64L28.5101 121.182L25.8304 119.64L28.5101 118.098ZM31.4533 119.772L34.133 121.314L31.4533 122.856L28.7736 121.314L31.4533 119.772ZM34.4405 121.491L37.1202 123.033L34.4405 124.575L31.7608 123.033L34.4405 121.491ZM37.3838 123.209L40.0635 124.751L37.3838 126.293L34.7041 124.751L37.3838 123.209ZM40.327 124.927L43.0067 126.469L40.327 128.011L37.6474 126.469L40.327 124.927ZM43.2703 126.645L45.95 128.187L43.2703 129.729L40.5906 128.187L43.2703 126.645ZM46.2136 128.32L48.8932 129.862L46.2136 131.404L43.5339 129.862L46.2136 128.32ZM49.2007 130.038L51.8804 131.58L49.2007 133.122L46.521 131.58L49.2007 130.038ZM52.144 131.756L54.8237 133.298L52.144 134.84L49.4643 133.298L52.144 131.756ZM55.0872 133.474L57.7669 135.016L55.0872 136.558L52.4076 135.016L55.0872 133.474ZM58.0305 135.192L60.7102 136.734L58.0305 138.276L55.3508 136.734L58.0305 135.192ZM60.9738 136.867L63.6535 138.409L60.9738 139.951L58.2941 138.409L60.9738 136.867ZM63.961 138.585L66.6406 140.127L63.961 141.669L61.2813 140.127L63.961 138.585ZM66.9042 140.303L69.5839 141.845L66.9042 143.387L64.2245 141.845L66.9042 140.303ZM69.8475 142.021L72.5272 143.563L69.8475 145.105L67.1678 143.563L69.8475 142.021ZM72.7907 143.74L75.4704 145.282L72.7907 146.824L70.1111 145.282L72.7907 143.74ZM73.0982 143.563L75.7779 142.021L78.4576 143.563L75.7779 145.105L73.0982 143.563ZM76.0415 141.845L78.7212 140.303L81.4009 141.845L78.7212 143.387L76.0415 141.845ZM78.9847 140.127L81.6644 138.585L84.3441 140.127L81.6644 141.669L78.9847 140.127ZM81.9719 138.409L84.6516 136.867L87.3313 138.409L84.6516 139.951L81.9719 138.409ZM84.9152 136.734L87.5949 135.192L90.2746 136.734L87.5949 138.276L84.9152 136.734ZM87.8585 135.016L90.5381 133.474L93.2178 135.016L90.5381 136.558L87.8585 135.016ZM90.8017 133.298L93.4814 131.756L96.1611 133.298L93.4814 134.84L90.8017 133.298ZM93.745 131.58L96.4247 130.038L99.1043 131.58L96.4247 133.122L93.745 131.58ZM96.7322 129.862L99.4118 128.32L102.092 129.862L99.4118 131.404L96.7322 129.862ZM99.6754 128.187L102.355 126.645L105.035 128.187L102.355 129.729L99.6754 128.187ZM102.619 126.469L105.298 124.927L107.978 126.469L105.298 128.011L102.619 126.469ZM105.562 124.751L108.242 123.209L110.921 124.751L108.242 126.293L105.562 124.751ZM108.505 123.033L111.185 121.491L113.865 123.033L111.185 124.575L108.505 123.033ZM111.492 121.314L114.172 119.772L116.852 121.314L114.172 122.856L111.492 121.314ZM114.436 119.64L117.115 118.098L119.795 119.64L117.115 121.182L114.436 119.64ZM117.379 117.922L120.059 116.38L122.738 117.922L120.059 119.464L117.379 117.922ZM120.322 116.204L123.002 114.662L125.682 116.204L123.002 117.746L120.322 116.204ZM123.265 114.486L125.945 112.944L128.625 114.486L125.945 116.028L123.265 114.486ZM126.253 112.767L128.932 111.225L131.612 112.767L128.932 114.309L126.253 112.767ZM129.196 111.093L131.876 109.551L134.555 111.093L131.876 112.635L129.196 111.093ZM132.139 109.375L134.819 107.833L137.498 109.375L134.819 110.917L132.139 109.375ZM137.455 105.939L134.775 107.481L132.095 105.939L134.775 104.397L137.455 105.939ZM134.511 104.22L131.832 105.762L129.152 104.22L131.832 102.678L134.511 104.22ZM131.568 102.546L128.888 104.088L126.209 102.546L128.888 101.004L131.568 102.546ZM128.625 100.828L125.945 102.37L123.265 100.828L125.945 99.2859L128.625 100.828ZM125.638 99.1096L122.958 100.652L120.278 99.1096L122.958 97.5676L125.638 99.1096ZM122.694 97.3914L120.015 98.9334L117.335 97.3914L120.015 95.8494L122.694 97.3914ZM119.751 95.6732L117.071 97.2152L114.392 95.6732L117.071 94.1312L119.751 95.6732ZM116.808 93.9549L114.128 95.4969L111.448 93.9549L114.128 92.4129L116.808 93.9549ZM113.821 92.2808L111.141 93.8228L108.461 92.2808L111.141 90.7388L113.821 92.2808ZM110.877 90.5625L108.198 92.1045L105.518 90.5625L108.198 89.0205L110.877 90.5625ZM107.934 88.8443L105.254 90.3863L102.575 88.8443L105.254 87.3023L107.934 88.8443ZM104.991 87.1261L102.311 88.6681L99.6315 87.1261L102.311 85.5841L104.991 87.1261ZM102.048 85.4078L99.3679 86.9498L96.6882 85.4078L99.3679 83.8658L102.048 85.4078ZM99.0604 83.7337L96.3807 85.2757L93.701 83.7337L96.3807 82.1917L99.0604 83.7337ZM96.1171 82.0154L93.4375 83.5574L90.7578 82.0154L93.4375 80.4734L96.1171 82.0154ZM93.1739 80.2972L90.4942 81.8392L87.8145 80.2972L90.4942 78.7552L93.1739 80.2972ZM90.2306 78.579L87.5509 80.121L84.8713 78.579L87.5509 77.037L90.2306 78.579ZM87.2874 76.8607L84.6077 78.4027L81.928 76.8607L84.6077 75.3187L87.2874 76.8607ZM84.3002 75.1866L81.6205 76.7286L78.9408 75.1866L81.6205 73.6446L84.3002 75.1866ZM81.3569 73.4683L78.6773 75.0103L75.9976 73.4683L78.6773 71.9263L81.3569 73.4683ZM78.4137 71.7501L75.734 73.2921L73.0543 71.7501L75.734 70.2081L78.4137 71.7501ZM72.7907 68.4899L75.4704 70.0319L72.7907 71.5739L70.1111 70.0319L72.7907 68.4899ZM69.8475 70.2081L72.5272 71.7501L69.8475 73.2921L67.1678 71.7501L69.8475 70.2081ZM66.9042 71.9263L69.5839 73.4683L66.9042 75.0103L64.2245 73.4683L66.9042 71.9263ZM63.961 73.6446L66.6406 75.1866L63.961 76.7286L61.2813 75.1866L63.961 73.6446ZM60.9738 75.3187L63.6535 76.8607L60.9738 78.4027L58.2941 76.8607L60.9738 75.3187ZM58.0305 77.037L60.7102 78.579L58.0305 80.121L55.3508 78.579L58.0305 77.037ZM55.0872 78.7552L57.7669 80.2972L55.0872 81.8392L52.4076 80.2972L55.0872 78.7552ZM52.144 80.4734L54.8237 82.0154L52.144 83.5574L49.4643 82.0154L52.144 80.4734ZM49.2007 82.1917L51.8804 83.7337L49.2007 85.2757L46.521 83.7337L49.2007 82.1917ZM46.2136 83.9099L48.8932 85.4519L46.2136 86.9939L43.5339 85.4519L46.2136 83.9099ZM43.2703 85.5841L45.95 87.1261L43.2703 88.6681L40.5906 87.1261L43.2703 85.5841ZM40.327 87.3023L43.0067 88.8443L40.327 90.3863L37.6474 88.8443L40.327 87.3023ZM37.3838 89.0205L40.0635 90.5625L37.3838 92.1045L34.7041 90.5625L37.3838 89.0205ZM37.0763 92.2808L34.3966 93.8228L31.7169 92.2808L34.3966 90.7388L37.0763 92.2808ZM31.4533 92.457L34.133 93.999L31.4533 95.541L28.7736 93.999L31.4533 92.457ZM28.5101 94.1312L31.1898 95.6732L28.5101 97.2152L25.8304 95.6732L28.5101 94.1312ZM25.5668 95.8494L28.2465 97.3914L25.5668 98.9334L22.8871 97.3914L25.5668 95.8494ZM22.6236 97.5676L25.3032 99.1096L22.6236 100.652L19.9439 99.1096L22.6236 97.5676ZM19.6364 99.2859L22.316 100.828L19.6364 102.37L16.9567 100.828L19.6364 99.2859ZM16.6931 101.004L19.3728 102.546L16.6931 104.088L14.0134 102.546L16.6931 101.004ZM13.7498 102.678L16.4295 104.22L13.7498 105.762L11.0702 104.22L13.7498 102.678ZM10.8066 104.397L13.4863 105.939L10.8066 107.481L8.12691 105.939L10.8066 104.397ZM7.86333 106.115L10.543 107.657L7.86333 109.199L5.18365 107.657L7.86333 106.115ZM2.24039 109.375L4.92007 107.833L7.59976 109.375L4.92007 110.917L2.24039 109.375ZM5.18365 111.049L7.86333 109.507L10.543 111.049L7.86333 112.591L5.18365 111.049ZM8.12691 112.767L10.8066 111.225L13.4863 112.767L10.8066 114.309L8.12691 112.767ZM11.1141 114.486L13.7938 112.944L16.4735 114.486L13.7938 116.028L11.1141 114.486ZM14.0574 116.204L16.737 114.662L19.4167 116.204L16.737 117.746L14.0574 116.204ZM17.0006 117.922L19.6803 116.38L22.36 117.922L19.6803 119.464L17.0006 117.922ZM19.9439 119.64L22.6236 118.098L25.3032 119.64L22.6236 121.182L19.9439 119.64ZM22.8871 121.314L25.5668 119.772L28.2465 121.314L25.5668 122.856L22.8871 121.314ZM25.8743 123.033L28.554 121.491L31.2337 123.033L28.554 124.575L25.8743 123.033ZM28.8176 124.751L31.4973 123.209L34.1769 124.751L31.4973 126.293L28.8176 124.751ZM31.7608 126.469L34.4405 124.927L37.1202 126.469L34.4405 128.011L31.7608 126.469ZM34.7041 128.187L37.3838 126.645L40.0635 128.187L37.3838 129.729L34.7041 128.187ZM37.6474 129.862L40.327 128.32L43.0067 129.862L40.327 131.404L37.6474 129.862ZM40.6345 131.58L43.3142 130.038L45.9939 131.58L43.3142 133.122L40.6345 131.58ZM43.5778 133.298L46.2575 131.756L48.9372 133.298L46.2575 134.84L43.5778 133.298ZM46.521 135.016L49.2007 133.474L51.8804 135.016L49.2007 136.558L46.521 135.016ZM49.4643 136.734L52.144 135.192L54.8237 136.734L52.144 138.276L49.4643 136.734ZM52.4076 138.409L55.0872 136.867L57.7669 138.409L55.0872 139.951L52.4076 138.409ZM55.3948 140.127L58.0744 138.585L60.7541 140.127L58.0744 141.669L55.3948 140.127ZM58.338 141.845L61.0177 140.303L63.6974 141.845L61.0177 143.387L58.338 141.845ZM61.2813 143.563L63.961 142.021L66.6406 143.563L63.961 145.105L61.2813 143.563ZM64.2245 145.282L66.9042 143.74L69.5839 145.282L66.9042 146.824L64.2245 145.282ZM67.2117 146.956L69.8914 145.414L72.5711 146.956L69.8914 148.498L67.2117 146.956ZM70.155 148.674L72.8347 147.132L75.5143 148.674L72.8347 150.216L70.155 148.674ZM75.734 148.498L73.0543 146.956L75.734 145.414L78.4137 146.956L75.734 148.498ZM78.7212 146.824L76.0415 145.282L78.7212 143.74L81.4009 145.282L78.7212 146.824ZM81.6644 145.105L78.9847 143.563L81.6644 142.021L84.3441 143.563L81.6644 145.105ZM84.6077 143.387L81.928 141.845L84.6077 140.303L87.2874 141.845L84.6077 143.387ZM84.9152 140.127L87.5949 138.585L90.2746 140.127L87.5949 141.669L84.9152 140.127ZM87.8585 138.409L90.5381 136.867L93.2178 138.409L90.5381 139.951L87.8585 138.409ZM93.4814 138.276L90.8017 136.734L93.4814 135.192L96.1611 136.734L93.4814 138.276ZM96.4247 136.558L93.745 135.016L96.4247 133.474L99.1043 135.016L96.4247 136.558ZM99.3679 134.84L96.6882 133.298L99.3679 131.756L102.048 133.298L99.3679 134.84ZM102.311 133.122L99.6315 131.58L102.311 130.038L104.991 131.58L102.311 133.122ZM105.298 131.404L102.619 129.862L105.298 128.32L107.978 129.862L105.298 131.404ZM108.242 129.685L105.562 128.143L108.242 126.601L110.921 128.143L108.242 129.685ZM111.185 128.011L108.505 126.469L111.185 124.927L113.865 126.469L111.185 128.011ZM114.128 126.293L111.448 124.751L114.128 123.209L116.808 124.751L114.128 126.293ZM117.071 124.575L114.392 123.033L117.071 121.491L119.751 123.033L117.071 124.575ZM120.059 122.856L117.379 121.314L120.059 119.772L122.738 121.314L120.059 122.856ZM123.002 121.138L120.322 119.596L123.002 118.054L125.682 119.596L123.002 121.138ZM125.945 119.464L123.265 117.922L125.945 116.38L128.625 117.922L125.945 119.464ZM128.888 117.746L126.209 116.204L128.888 114.662L131.568 116.204L128.888 117.746ZM131.832 116.028L129.152 114.486L131.832 112.944L134.511 114.486L131.832 116.028ZM132.139 112.767L134.819 111.225L137.498 112.767L134.819 114.309L132.139 112.767ZM137.762 112.591L135.082 111.049L137.762 109.507L140.442 111.049L137.762 112.591ZM140.705 110.917L138.026 109.375L140.705 107.833L143.385 109.375L140.705 110.917Z" fill="url(#paint0_radial)"/>
<g opacity="0.5">
<g opacity="0.11">
<path opacity="0.11" d="M74.8241 134.278C73.7276 133.662 72.3679 133.662 71.3153 134.278L50.2622 146.419C49.9113 146.595 49.9113 147.079 50.2622 147.299L71.4468 159.571C72.4118 160.143 73.596 160.143 74.5609 159.571L95.7895 147.299C96.1403 147.123 96.1403 146.639 95.7895 146.419L74.8241 134.278Z" fill="url(#paint1_linear)"/>
</g>
<g opacity="0.11">
<path opacity="0.11" d="M74.8242 130.715C73.7277 130.099 72.368 130.099 71.3153 130.715L50.3061 142.856C49.9552 143.032 49.9552 143.516 50.3061 143.736L71.4908 156.008C72.4557 156.58 73.64 156.58 74.6049 156.008L95.8334 143.736C96.1843 143.56 96.1843 143.076 95.8334 142.856L74.8242 130.715Z" fill="url(#paint2_linear)"/>
</g>
<g opacity="0.11">
<path opacity="0.11" d="M74.8242 127.152C73.7277 126.536 72.368 126.536 71.3153 127.152L50.3061 139.293C49.9552 139.469 49.9552 139.952 50.3061 140.172L71.4908 152.445C72.4557 153.017 73.64 153.017 74.6049 152.445L95.8334 140.172C96.1843 139.996 96.1843 139.513 95.8334 139.293L74.8242 127.152Z" fill="url(#paint3_linear)"/>
</g>
<g opacity="0.11">
<path opacity="0.11" d="M74.8246 123.633C73.728 123.017 72.3684 123.017 71.3157 123.633L50.3065 135.774C49.9556 135.95 49.9556 136.434 50.3065 136.654L71.4911 148.926C72.4561 149.498 73.6403 149.498 74.6053 148.926L95.8338 136.654C96.1846 136.478 96.1846 135.994 95.8338 135.774L74.8246 123.633Z" fill="url(#paint4_linear)"/>
</g>
<path opacity="0.11" d="M95.7899 135.774L74.8246 123.633C73.728 123.017 72.3684 123.017 71.3157 123.633L50.3065 135.774C50.1311 135.862 50.0433 136.038 50.0433 136.214V146.859C50.0433 147.035 50.1311 147.211 50.3065 147.299L71.4912 159.571C72.4561 160.143 73.6403 160.143 74.6053 159.571L95.8338 147.299C96.0092 147.211 96.0969 147.035 96.0969 146.859V136.214C96.0531 136.038 95.9653 135.862 95.7899 135.774Z" fill="url(#paint5_linear)"/>
</g>
<g opacity="0.11">
<path opacity="0.11" d="M75.1751 111.317C73.8593 110.569 72.2365 110.569 70.9207 111.317L45.5693 125.965C45.1745 126.185 45.1745 126.756 45.5693 127.02L71.0961 141.8C72.2365 142.46 73.6839 142.46 74.8681 141.8L100.439 127.02C100.834 126.8 100.834 126.229 100.439 125.965L75.1751 111.317Z" fill="url(#paint6_linear)"/>
</g>
<g opacity="0.11">
<path opacity="0.11" d="M75.1751 107.006C73.8593 106.258 72.2365 106.258 70.9207 107.006L45.5693 121.654C45.1745 121.874 45.1745 122.446 45.5693 122.71L71.0961 137.489C72.2365 138.149 73.6839 138.149 74.8681 137.489L100.439 122.71C100.834 122.49 100.834 121.918 100.439 121.654L75.1751 107.006Z" fill="url(#paint7_linear)"/>
</g>
<g opacity="0.11">
<path opacity="0.11" d="M75.1752 102.739C73.8594 101.991 72.2366 101.991 70.9208 102.739L45.6132 117.387C45.2185 117.607 45.2185 118.179 45.6132 118.443L71.1401 133.223C72.2804 133.882 73.7278 133.882 74.9121 133.223L100.483 118.443C100.878 118.223 100.878 117.651 100.483 117.387L75.1752 102.739Z" fill="url(#paint8_linear)"/>
</g>
<g opacity="0.11">
<path opacity="0.11" d="M75.1757 98.4722C73.8599 97.7244 72.2371 97.7244 70.9213 98.4722L45.5699 113.12C45.1751 113.34 45.1751 113.912 45.5699 114.176L71.0967 128.956C72.2371 129.615 73.6845 129.615 74.8687 128.956L100.439 114.176C100.834 113.956 100.834 113.384 100.439 113.12L75.1757 98.4722Z" fill="url(#paint9_linear)"/>
</g>
<path opacity="0.11" d="M100.483 113.12L75.1751 98.4722C73.8593 97.7244 72.2365 97.7244 70.9206 98.4722L45.5692 113.12C45.3499 113.252 45.2622 113.428 45.2622 113.648V126.492C45.2622 126.712 45.3499 126.888 45.5692 127.02L71.0961 141.8C72.2365 142.46 73.6839 142.46 74.8681 141.8L100.439 127.02C100.658 126.888 100.746 126.712 100.746 126.492V113.648C100.79 113.428 100.658 113.208 100.483 113.12Z" fill="url(#paint10_linear)"/>
<g opacity="0.11">
<path opacity="0.11" d="M75.6575 87.9592C74.0785 87.0354 72.1048 87.0354 70.482 87.9592L39.7796 105.686C39.2971 105.95 39.2971 106.654 39.7796 106.962L70.7451 124.909C72.1487 125.745 73.9031 125.745 75.3066 124.909L106.316 107.006C106.799 106.742 106.799 106.038 106.316 105.73L75.6575 87.9592Z" fill="url(#paint11_linear)"/>
</g>
<g opacity="0.11">
<path opacity="0.11" d="M75.6575 82.7687C74.0785 81.845 72.1048 81.845 70.482 82.7687L39.7796 100.496C39.2971 100.76 39.2971 101.463 39.7796 101.771L70.7451 119.718C72.1487 120.554 73.9031 120.554 75.3066 119.718L106.316 101.815C106.799 101.551 106.799 100.848 106.316 100.54L75.6575 82.7687Z" fill="url(#paint12_linear)"/>
</g>
<g opacity="0.11">
<path opacity="0.11" d="M75.6575 77.5781C74.0785 76.6543 72.1048 76.6543 70.482 77.5781L39.7796 95.3051C39.2971 95.569 39.2971 96.2728 39.7796 96.5807L70.7451 114.528C72.1487 115.363 73.9031 115.363 75.3066 114.528L106.316 96.6247C106.799 96.3608 106.799 95.657 106.316 95.3491L75.6575 77.5781Z" fill="url(#paint13_linear)"/>
</g>
<g opacity="0.11">
<path opacity="0.11" d="M75.6575 72.3876C74.0785 71.4639 72.1048 71.4639 70.482 72.3876L39.7796 90.1147C39.2971 90.3786 39.2971 91.0824 39.7796 91.3903L70.7451 109.337C72.1487 110.173 73.9031 110.173 75.3066 109.337L106.316 91.4343C106.799 91.1704 106.799 90.4666 106.316 90.1587L75.6575 72.3876Z" fill="url(#paint14_linear)"/>
</g>
<path opacity="0.5" d="M106.317 90.1587L75.6582 72.3876C74.0792 71.4639 72.1055 71.4639 70.4826 72.3876L39.7802 90.1147C39.5171 90.2466 39.4293 90.5105 39.4293 90.7305V106.302C39.4293 106.566 39.5609 106.786 39.7802 106.918L70.7458 124.865C72.1493 125.701 73.9037 125.701 75.3073 124.865L106.317 106.962C106.58 106.83 106.668 106.566 106.668 106.346V90.7745C106.668 90.5545 106.536 90.2906 106.317 90.1587Z" fill="url(#paint15_linear)"/>
<g opacity="0.11">
<path opacity="0.11" d="M75.6575 72.3876C74.0785 71.4639 72.1048 71.4639 70.482 72.3876L39.7796 90.1147C39.2971 90.3786 39.2971 91.0824 39.7796 91.3903L70.7451 109.337C72.1487 110.173 73.9031 110.173 75.3066 109.337L106.316 91.4343C106.799 91.1704 106.799 90.4666 106.316 90.1587L75.6575 72.3876Z" fill="url(#paint16_linear)"/>
</g>
<path d="M106.316 90.6863L75.3067 108.589C73.9031 109.425 72.1487 109.425 70.7452 108.589L39.7796 90.6423C39.648 90.5544 39.5603 90.4664 39.5164 90.3784C39.341 90.6863 39.4287 91.1702 39.7796 91.3461L70.7452 109.293C72.1487 110.129 73.9031 110.129 75.3067 109.293L106.316 91.3901C106.667 91.1702 106.755 90.7303 106.579 90.4224C106.535 90.5544 106.448 90.6423 106.316 90.6863Z" fill="url(#paint17_linear)"/>
<path d="M66.6224 82.5488C66.6224 82.5488 66.2276 82.9887 65.789 83.4726C65.3504 84.0004 64.1662 84.7042 63.6398 85.0121C63.1574 85.32 60.8328 87.0796 60.3503 88.7951C59.8678 90.5106 61.5345 90.7305 63.2012 90.4666C64.8679 90.1587 66.4469 88.6191 66.9294 88.0473C67.368 87.4754 68.9908 86.1998 71.0523 85.1441C73.1137 84.0884 71.8856 82.6368 71.8856 82.6368L66.6224 82.5488Z" fill="#160A5B"/>
<path d="M81.9735 87.6511C81.9735 87.6511 82.3244 88.4429 82.4121 89.4106C82.4999 90.4223 82.6315 92.5777 82.7192 93.1936C82.763 93.8094 82.8069 95.393 81.6665 96.8445C80.57 98.3401 79.9998 98.912 78.5086 98.3401C77.0173 97.7683 77.0612 95.261 77.3243 93.9853C77.5875 92.7097 77.8068 89.8505 77.8068 89.5426C77.7629 89.2347 77.8945 89.0587 77.8945 89.0587L81.9735 87.6511Z" fill="#160A5B"/>
<path d="M61.4906 53.165C61.4906 53.165 61.7976 64.5578 64.4731 70.6281C64.4731 70.6281 66.3591 75.9506 66.6223 82.2848C66.6223 82.2848 66.1837 83.3845 66.7977 84.2643C67.4118 85.144 71.3154 85.9798 71.9733 83.0326C72.6312 80.1294 72.368 74.6749 71.6662 72.3876C70.9645 70.1002 71.9294 63.854 71.9294 63.854C71.9294 63.854 72.9821 64.5138 74.3856 69.0445C75.7891 73.5313 76.7979 75.2908 77.2804 76.5224C77.7629 77.7541 78.2015 85.4079 77.8945 89.1469C77.8945 89.1469 81.0524 89.5868 81.9735 88.0912C82.8946 86.5956 83.2016 78.7658 82.9384 76.2585C82.7191 73.7512 81.6665 65.7894 81.798 63.3261C81.9296 60.8628 82.456 58.8394 81.8858 56.3761C81.3156 53.9128 64.6924 48.4143 64.6924 48.4143L61.4906 53.165Z" fill="#24126A"/>
<path d="M81.798 63.3262C81.9296 60.8629 82.4559 58.8394 81.8857 56.3761C81.6664 55.4524 79.2102 54.0887 76.1839 52.7691C71.096 52.2853 64.6485 51.7574 64.2099 51.8454C63.8152 51.8894 62.7625 52.3292 61.8853 52.6372L61.5344 53.165C61.5344 53.165 61.5344 53.8688 61.6221 55.0125C62.8064 55.3644 65.0871 55.0125 65.0871 55.0125C65.3941 55.8043 67.4117 58.6635 69.8679 59.8951C72.3241 61.1268 79.5611 60.6869 79.9559 61.1708C80.3506 61.6546 80.4383 67.9009 80.3945 68.6927C80.3506 69.4844 81.0962 74.499 81.7541 78.8978C82.412 83.2526 81.4033 88.5311 81.3594 88.707C81.5787 88.5751 81.798 88.3551 81.9296 88.1352C82.8507 86.6396 83.1577 78.8098 82.8945 76.3025C82.6752 73.7952 81.6664 65.7895 81.798 63.3262Z" fill="#160A5B"/>
<path d="M67.061 15.8635C67.061 15.8635 63.3767 16.6992 62.1486 17.0072C61.9293 17.0511 61.7977 17.1831 61.71 17.403C61.3591 18.3268 60.438 21.142 61.1398 25.2768C61.9731 30.3354 61.71 33.7664 61.71 33.7664L59.9994 42.6959C59.9994 42.6959 57.8502 51.1856 58.0257 51.4055C58.2011 51.6254 62.4995 55.2764 63.9907 54.7486C65.482 54.2207 65.4381 53.385 65.4381 53.385C65.4381 53.385 66.6224 59.5432 71.9733 59.4552C77.3243 59.4113 81.6665 59.4113 82.5437 57.2559C83.4648 55.1005 82.2806 45.995 81.3595 42.432C80.4384 38.825 78.2015 31.655 78.2015 31.655L86.0087 22.9895L79.3419 17.8869C79.3419 17.8869 77.7629 14.8957 77.105 14.5438C76.4471 14.148 76.0962 14.4999 76.0962 14.4999L67.061 15.8635Z" fill="white"/>
<path d="M71.8418 19.4265C71.8418 19.4265 71.14 19.8663 70.9207 19.8224C70.7014 19.7784 69.9119 19.0306 69.9119 19.0306C69.9119 19.0306 67.982 18.9866 67.7627 18.1508C67.5434 17.3151 67.4118 16.4793 67.2364 16.0394C67.061 15.5995 66.2276 13.5321 66.1837 12.6964C66.1837 11.8606 66.2276 10.365 65.8329 9.57324C65.482 8.78146 64.9995 0.81969 72.6312 1.03963C80.3068 1.25957 77.9384 9.26532 77.9384 9.26532C77.9384 9.26532 78.5086 9.48526 78.1577 10.541C77.8068 11.5527 77.7629 11.6846 77.5875 12.1685C77.412 12.6964 77.3243 13.0043 76.8419 13.4002L76.7103 14.3679C76.7103 14.3679 77.0612 15.8195 76.1401 17.2271C75.1313 18.6347 71.8418 19.4265 71.8418 19.4265Z" fill="#FCD1C5"/>
<path d="M61.9292 17.095C61.9292 17.095 61.0959 17.2269 58.4642 23.9131C56.973 27.652 54.6922 31.5229 54.2098 34.2942C53.7273 37.0654 53.9905 40.0565 54.5606 40.2325C55.087 40.4524 64.6047 44.0154 67.5872 45.1591C67.7627 45.2031 67.9381 45.1151 67.982 44.9392L68.8153 40.3205L62.8942 38.0331C62.8942 38.0331 61.7538 36.6695 60.7011 36.1416C60.7011 36.1416 61.8854 33.9422 61.7976 33.3704C61.7099 32.7546 61.8854 26.5963 61.2275 24.045C60.5257 21.4937 61.9292 17.095 61.9292 17.095Z" fill="white"/>
<path d="M65.3943 34.778C65.3943 34.778 64.5609 34.2501 64.3855 34.1622C64.1662 34.0742 63.1135 33.7223 62.8942 33.6343C62.7188 33.5463 62.1047 33.6343 61.7977 33.6343C61.6661 33.6343 61.5784 33.7223 61.5345 33.8103C61.2714 34.2941 60.5696 35.6577 60.6573 36.1416C60.6573 36.1416 62.631 37.3733 62.8503 37.9451L63.1574 38.0331C63.1135 38.0331 64.4293 35.1739 65.3943 34.778Z" fill="#FCD1C5"/>
<path d="M81.3595 42.388C81.1402 41.5082 80.8332 40.4525 80.5262 39.3088L68.5522 44.4554C68.5522 44.4554 72.1488 48.8982 78.4209 48.5902C80.1314 48.5023 81.4034 47.8864 82.3245 47.3586C82.0174 45.4231 81.6665 43.6196 81.3595 42.388Z" fill="#CFCDE0"/>
<path d="M67.9821 37.5052C69.9119 23.4291 71.2716 19.7342 71.2716 19.7342V18.9424L70.526 19.6022C67.9821 27.2121 67.9821 37.5052 67.9821 37.5052Z" fill="#CFCDE0"/>
<path d="M86.0087 22.9893C86.0087 22.9893 82.8507 23.4291 80.3068 27.476C77.7629 31.5229 75.8769 36.2295 75.8769 36.2295L75.7892 36.7574C75.5699 38.121 74.0786 38.9128 72.8067 38.341C70.1312 37.1533 66.1399 35.3058 65.3942 34.778C65.3942 34.778 63.0258 36.0976 62.3679 39.2207C61.8415 41.728 61.9731 41.728 61.9731 41.728C61.9731 41.728 72.6312 46.6986 76.7103 46.6546C80.8332 46.6106 86.0087 33.0624 86.6227 30.2472C87.1929 27.476 87.807 23.781 86.0087 22.9893Z" fill="white"/>
<path d="M74.3418 39.001C74.3418 39.001 75.7015 40.2767 76.2717 39.5729C76.8418 38.8691 76.6664 38.8251 76.6664 38.8251C76.6664 38.8251 77.8945 38.8251 78.0261 38.0773C78.1577 37.3295 78.7717 37.7254 78.8156 36.8896C78.8594 36.0539 77.8506 36.2298 77.8506 36.2298L74.3418 39.001Z" fill="#CFCDE0"/>
<path d="M72.7189 38.297C72.7189 38.297 73.0698 37.9451 73.5522 37.5492C74.0347 37.1533 74.7803 35.4817 74.9119 35.3058C75.0435 35.1738 76.6663 33.9422 77.4119 33.8982C78.2014 33.8982 77.6312 34.734 77.4119 34.8659C77.2365 34.9979 76.4909 35.3498 76.4909 35.3498C76.4909 35.3498 75.7014 36.0096 75.6137 36.0976C75.5259 36.1856 77.7628 35.9216 78.1137 36.1416C78.4646 36.3615 78.3769 36.9333 78.1576 37.1093C77.8944 37.2852 77.719 37.2413 77.719 37.2413C77.719 37.2413 77.9821 37.9011 77.2804 38.253C76.6225 38.5609 76.447 38.3849 76.447 38.3849C76.447 38.3849 76.4032 39.5726 75.2628 39.3087L72.7189 38.297Z" fill="#FCD1C5"/>
<path d="M65.6574 5.5263C65.6574 5.5263 64.6486 8.73741 67.2802 7.81366C69.9119 6.88992 72.2803 5.39434 73.1137 5.96618C73.7277 6.40606 73.7277 7.76967 73.6839 8.3855C73.6839 8.60544 73.7277 8.82538 73.8593 9.00133L74.6488 10.145C74.7365 10.277 74.7804 10.4089 74.7804 10.5849L74.8242 11.3767C74.8242 11.5966 74.9997 11.7286 75.1751 11.7286H75.3506C75.5699 11.7286 75.7453 11.5966 75.7453 11.4207L75.9646 10.277C75.9646 10.277 76.5787 8.69342 77.8945 9.30925C77.8945 9.30925 78.7717 8.12158 78.4647 5.61428C78.1576 3.10698 77.0611 0.467722 72.1049 0.0278457C67.1925 -0.456019 65.6574 5.5263 65.6574 5.5263Z" fill="#AA8383"/>
<path d="M75.7454 13.2681C74.2102 17.7108 69.868 19.0305 69.868 19.0305C69.868 19.0305 70.6575 19.7782 70.8768 19.8222C70.9646 19.8222 71.0961 19.7782 71.2277 19.7343C71.7102 19.5143 72.2365 19.3384 72.719 19.1624C73.7716 18.8105 75.4383 18.1507 76.0524 17.227C77.0173 15.8194 76.6226 14.3678 76.6226 14.3678L76.7541 13.4C76.1401 13.62 75.7454 13.2681 75.7454 13.2681Z" fill="#E2B1A6"/>
<path d="M71.8856 63.8979C71.8856 63.8979 71.8856 63.8979 71.9295 63.9419L70.0435 61.9185C70.9207 63.1501 69.9119 68.7805 69.8242 70.0562C69.7365 71.3318 70.833 74.0151 71.2277 77.1382C71.6225 80.2613 70.7891 84.7041 70.7891 84.7041C71.3154 84.3962 71.754 83.8683 71.9295 83.0765C72.5874 80.1733 72.3242 74.7189 71.6225 72.4315C70.9207 70.1442 71.8856 63.8979 71.8856 63.8979Z" fill="#160A5B"/>
<path d="M75.3945 11.6844C75.6138 11.6844 75.7893 11.5525 75.7893 11.3765L76.0086 10.2328C76.0086 10.2328 76.6226 8.64928 77.9384 9.26511C77.9384 9.26511 78.7718 8.12143 78.5525 5.74609C77.1051 7.94548 73.8594 8.9572 73.8594 8.9572L74.6489 10.1009C74.7366 10.2328 74.7804 10.3648 74.7804 10.5408L74.8243 11.3325C74.8243 11.5525 74.9997 11.6844 75.1752 11.6844H75.3945Z" fill="#936D6D"/>
<defs>
<radialGradient id="paint0_radial" cx="0" cy="0" r="1" gradientUnits="userSpaceOnUse" gradientTransform="translate(73.7397 109.456) scale(44.765 25.4871)">
<stop stop-color="#42E8E0"/>
<stop offset="1" stop-color="#180D5B"/>
</radialGradient>
<linearGradient id="paint1_linear" x1="50.0314" y1="146.877" x2="96.0507" y2="146.877" gradientUnits="userSpaceOnUse">
<stop stop-color="#5761D7"/>
<stop offset="0.0725764" stop-color="#5472D8"/>
<stop offset="0.2791" stop-color="#4E9CDB"/>
<stop offset="0.4801" stop-color="#49BDDD"/>
<stop offset="0.6715" stop-color="#45D5DF"/>
<stop offset="0.8493" stop-color="#43E3E0"/>
<stop offset="1" stop-color="#42E8E0"/>
</linearGradient>
<linearGradient id="paint2_linear" x1="50.0315" y1="143.327" x2="96.0508" y2="143.327" gradientUnits="userSpaceOnUse">
<stop stop-color="#5761D7"/>
<stop offset="0.0725764" stop-color="#5472D8"/>
<stop offset="0.2791" stop-color="#4E9CDB"/>
<stop offset="0.4801" stop-color="#49BDDD"/>
<stop offset="0.6715" stop-color="#45D5DF"/>
<stop offset="0.8493" stop-color="#43E3E0"/>
<stop offset="1" stop-color="#42E8E0"/>
</linearGradient>
<linearGradient id="paint3_linear" x1="50.0315" y1="139.776" x2="96.0508" y2="139.776" gradientUnits="userSpaceOnUse">
<stop stop-color="#5761D7"/>
<stop offset="0.0725764" stop-color="#5472D8"/>
<stop offset="0.2791" stop-color="#4E9CDB"/>
<stop offset="0.4801" stop-color="#49BDDD"/>
<stop offset="0.6715" stop-color="#45D5DF"/>
<stop offset="0.8493" stop-color="#43E3E0"/>
<stop offset="1" stop-color="#42E8E0"/>
</linearGradient>
<linearGradient id="paint4_linear" x1="50.0319" y1="136.226" x2="96.0511" y2="136.226" gradientUnits="userSpaceOnUse">
<stop stop-color="#5761D7"/>
<stop offset="0.0725764" stop-color="#5472D8"/>
<stop offset="0.2791" stop-color="#4E9CDB"/>
<stop offset="0.4801" stop-color="#49BDDD"/>
<stop offset="0.6715" stop-color="#45D5DF"/>
<stop offset="0.8493" stop-color="#43E3E0"/>
<stop offset="1" stop-color="#42E8E0"/>
</linearGradient>
<linearGradient id="paint5_linear" x1="50.0319" y1="141.552" x2="96.0511" y2="141.552" gradientUnits="userSpaceOnUse">
<stop stop-color="#5761D7"/>
<stop offset="0.0725764" stop-color="#5472D8"/>
<stop offset="0.2791" stop-color="#4E9CDB"/>
<stop offset="0.4801" stop-color="#49BDDD"/>
<stop offset="0.6715" stop-color="#45D5DF"/>
<stop offset="0.8493" stop-color="#43E3E0"/>
<stop offset="1" stop-color="#42E8E0"/>
</linearGradient>
<linearGradient id="paint6_linear" x1="45.3044" y1="126.504" x2="100.778" y2="126.504" gradientUnits="userSpaceOnUse">
<stop stop-color="#5761D7"/>
<stop offset="0.0725764" stop-color="#5472D8"/>
<stop offset="0.2791" stop-color="#4E9CDB"/>
<stop offset="0.4801" stop-color="#49BDDD"/>
<stop offset="0.6715" stop-color="#45D5DF"/>
<stop offset="0.8493" stop-color="#43E3E0"/>
<stop offset="1" stop-color="#42E8E0"/>
</linearGradient>
<linearGradient id="paint7_linear" x1="45.3044" y1="122.224" x2="100.778" y2="122.224" gradientUnits="userSpaceOnUse">
<stop stop-color="#5761D7"/>
<stop offset="0.0725764" stop-color="#5472D8"/>
<stop offset="0.2791" stop-color="#4E9CDB"/>
<stop offset="0.4801" stop-color="#49BDDD"/>
<stop offset="0.6715" stop-color="#45D5DF"/>
<stop offset="0.8493" stop-color="#43E3E0"/>
<stop offset="1" stop-color="#42E8E0"/>
</linearGradient>
<linearGradient id="paint8_linear" x1="45.3045" y1="117.944" x2="100.778" y2="117.944" gradientUnits="userSpaceOnUse">
<stop stop-color="#5761D7"/>
<stop offset="0.0725764" stop-color="#5472D8"/>
<stop offset="0.2791" stop-color="#4E9CDB"/>
<stop offset="0.4801" stop-color="#49BDDD"/>
<stop offset="0.6715" stop-color="#45D5DF"/>
<stop offset="0.8493" stop-color="#43E3E0"/>
<stop offset="1" stop-color="#42E8E0"/>
</linearGradient>
<linearGradient id="paint9_linear" x1="45.305" y1="113.664" x2="100.779" y2="113.664" gradientUnits="userSpaceOnUse">
<stop stop-color="#5761D7"/>
<stop offset="0.0725764" stop-color="#5472D8"/>
<stop offset="0.2791" stop-color="#4E9CDB"/>
<stop offset="0.4801" stop-color="#49BDDD"/>
<stop offset="0.6715" stop-color="#45D5DF"/>
<stop offset="0.8493" stop-color="#43E3E0"/>
<stop offset="1" stop-color="#42E8E0"/>
</linearGradient>
<linearGradient id="paint10_linear" x1="45.3044" y1="120.084" x2="100.778" y2="120.084" gradientUnits="userSpaceOnUse">
<stop stop-color="#5761D7"/>
<stop offset="0.0725764" stop-color="#5472D8"/>
<stop offset="0.2791" stop-color="#4E9CDB"/>
<stop offset="0.4801" stop-color="#49BDDD"/>
<stop offset="0.6715" stop-color="#45D5DF"/>
<stop offset="0.8493" stop-color="#43E3E0"/>
<stop offset="1" stop-color="#42E8E0"/>
</linearGradient>
<linearGradient id="paint11_linear" x1="39.4087" y1="106.4" x2="106.674" y2="106.4" gradientUnits="userSpaceOnUse">
<stop stop-color="#5761D7"/>
<stop offset="0.0725764" stop-color="#5472D8"/>
<stop offset="0.2791" stop-color="#4E9CDB"/>
<stop offset="0.4801" stop-color="#49BDDD"/>
<stop offset="0.6715" stop-color="#45D5DF"/>
<stop offset="0.8493" stop-color="#43E3E0"/>
<stop offset="1" stop-color="#42E8E0"/>
</linearGradient>
<linearGradient id="paint12_linear" x1="39.4087" y1="101.211" x2="106.674" y2="101.211" gradientUnits="userSpaceOnUse">
<stop stop-color="#5761D7"/>
<stop offset="0.0725764" stop-color="#5472D8"/>
<stop offset="0.2791" stop-color="#4E9CDB"/>
<stop offset="0.4801" stop-color="#49BDDD"/>
<stop offset="0.6715" stop-color="#45D5DF"/>
<stop offset="0.8493" stop-color="#43E3E0"/>
<stop offset="1" stop-color="#42E8E0"/>
</linearGradient>
<linearGradient id="paint13_linear" x1="39.4087" y1="96.0212" x2="106.674" y2="96.0212" gradientUnits="userSpaceOnUse">
<stop stop-color="#5761D7"/>
<stop offset="0.0725764" stop-color="#5472D8"/>
<stop offset="0.2791" stop-color="#4E9CDB"/>
<stop offset="0.4801" stop-color="#49BDDD"/>
<stop offset="0.6715" stop-color="#45D5DF"/>
<stop offset="0.8493" stop-color="#43E3E0"/>
<stop offset="1" stop-color="#42E8E0"/>
</linearGradient>
<linearGradient id="paint14_linear" x1="39.4087" y1="90.8318" x2="106.674" y2="90.8318" gradientUnits="userSpaceOnUse">
<stop stop-color="#5761D7"/>
<stop offset="0.0725764" stop-color="#5472D8"/>
<stop offset="0.2791" stop-color="#4E9CDB"/>
<stop offset="0.4801" stop-color="#49BDDD"/>
<stop offset="0.6715" stop-color="#45D5DF"/>
<stop offset="0.8493" stop-color="#43E3E0"/>
<stop offset="1" stop-color="#42E8E0"/>
</linearGradient>
<linearGradient id="paint15_linear" x1="39.4094" y1="98.616" x2="106.674" y2="98.616" gradientUnits="userSpaceOnUse">
<stop stop-color="#5761D7"/>
<stop offset="0.0725764" stop-color="#5472D8"/>
<stop offset="0.2791" stop-color="#4E9CDB"/>
<stop offset="0.4801" stop-color="#49BDDD"/>
<stop offset="0.6715" stop-color="#45D5DF"/>
<stop offset="0.8493" stop-color="#43E3E0"/>
<stop offset="1" stop-color="#42E8E0"/>
</linearGradient>
<linearGradient id="paint16_linear" x1="39.4087" y1="90.8318" x2="106.674" y2="90.8318" gradientUnits="userSpaceOnUse">
<stop stop-color="#5761D7"/>
<stop offset="0.0725764" stop-color="#5472D8"/>
<stop offset="0.2791" stop-color="#4E9CDB"/>
<stop offset="0.4801" stop-color="#49BDDD"/>
<stop offset="0.6715" stop-color="#45D5DF"/>
<stop offset="0.8493" stop-color="#43E3E0"/>
<stop offset="1" stop-color="#42E8E0"/>
</linearGradient>
<linearGradient id="paint17_linear" x1="39.4091" y1="100.185" x2="106.673" y2="100.185" gradientUnits="userSpaceOnUse">
<stop stop-color="#5761D7"/>
<stop offset="0.0725764" stop-color="#5472D8"/>
<stop offset="0.2791" stop-color="#4E9CDB"/>
<stop offset="0.4801" stop-color="#49BDDD"/>
<stop offset="0.6715" stop-color="#45D5DF"/>
<stop offset="0.8493" stop-color="#43E3E0"/>
<stop offset="1" stop-color="#42E8E0"/>
</linearGradient>
</defs>
</svg>
