<svg width="161" height="160" viewBox="0 0 161 160" fill="none" xmlns="http://www.w3.org/2000/svg">
<path opacity="0.5" d="M81.9174 160C125.594 160 161 138.299 161 111.529C161 84.7599 125.594 63.0588 81.9174 63.0588C38.2413 63.0588 2.83487 84.7599 2.83487 111.529C2.83487 138.299 38.2413 160 81.9174 160Z" fill="url(#paint0_radial)"/>
<path opacity="0.5" d="M83.3486 61.2189L70.2591 69.0307C59.8057 65.266 52.3519 59.5248 53.4427 56.2307C54.5335 52.9366 63.8961 53.3131 74.3496 57.0778C77.7129 58.3013 80.7125 59.713 83.3486 61.2189Z" fill="#242993"/>
<path d="M79.8034 44.1834L79.6216 40.7952L78.8944 38.7246L78.4399 40.4187L79.8034 44.1834Z" fill="#DD821F"/>
<path d="M45.2618 44.8426L45.1708 41.4543C45.1708 41.4543 47.8978 44.2779 47.8978 44.372C47.8978 44.4661 45.2618 44.8426 45.2618 44.8426Z" fill="#FFD85A"/>
<path d="M62.8059 54.7248C72.3503 54.4424 79.895 49.4542 79.7132 40.7954C79.5314 32.0424 71.6232 25.1718 62.0787 25.4542C52.5343 25.7366 44.9896 32.9836 45.1714 41.6424C45.3532 50.3013 53.2615 54.913 62.8059 54.7248Z" fill="#FFD85A"/>
<path d="M62.8962 60.3718C72.4407 60.0895 79.9853 52.8424 79.8035 44.1836C79.6217 35.4306 71.7135 28.56 62.169 28.8424C52.6246 29.1247 45.0799 36.3718 45.2617 45.0306C45.4435 53.6894 53.3518 60.56 62.8962 60.3718Z" fill="#FFD85A"/>
<path d="M74.5319 33.1719C77.6225 35.9013 79.6223 39.7601 79.7132 44.0895C79.895 52.8425 72.3503 60.0895 62.8059 60.2778C58.0791 60.3719 53.8069 58.7719 50.6254 56.0425L74.5319 33.1719Z" fill="#DD821F"/>
<path d="M46.0939 44.9726C45.8949 36.6585 53.0976 29.7422 62.1817 29.5248C71.2658 29.3073 78.7913 35.8709 78.9903 44.185C79.1894 52.4991 71.9866 59.4153 62.9025 59.6328C53.8184 59.8503 46.293 53.2867 46.0939 44.9726Z" fill="#F9BF30"/>
<path d="M49.2891 44.9257C49.135 38.2223 54.95 32.6399 62.2773 32.457C69.6047 32.2742 75.6696 37.5602 75.8237 44.2636C75.9778 50.967 70.1628 56.5493 62.8354 56.7322C55.5081 56.915 49.4432 51.6291 49.2891 44.9257Z" fill="#F2B42A"/>
<path d="M49.2613 44.9365C49.2613 44.6542 49.2613 44.3718 49.2613 44.0895C49.8976 50.3954 55.7152 55.1954 62.7144 55.0071C69.7137 54.8189 75.3495 49.7365 75.6222 43.4307C75.6222 43.713 75.7131 43.9954 75.7131 44.2777C75.8949 50.9601 70.0773 56.513 62.7144 56.7013C55.5334 56.8895 49.4431 51.6189 49.2613 44.9365Z" fill="#FFD85A"/>
<path d="M59.9875 45.5955L62.7144 42.9602C65.3505 43.619 70.1682 44.7484 74.0769 45.6896C73.077 48.7014 70.7136 51.1484 67.623 52.5602L59.9875 45.5955Z" fill="#FFD85A"/>
<path d="M64.2597 53.5013C63.8052 53.5954 63.3507 53.5954 62.9871 53.5954C59.8057 53.6896 56.8969 52.5602 54.7153 50.7719L59.1694 46.5366L64.2597 53.5013Z" fill="#FFD85A"/>
<path d="M65.6233 40.2308L70.7136 35.3367C72.4407 36.9367 73.986 38.6308 74.3496 40.8896L65.6233 40.2308Z" fill="#FFD85A"/>
<path d="M62.9872 33.9249C55.7152 34.1131 49.8976 39.666 49.9885 46.3484C49.9885 47.666 50.2612 48.9837 50.8066 50.2072C49.8976 48.6072 49.3522 46.819 49.3522 44.9366C49.1704 38.2543 54.988 32.7013 62.3509 32.5131C68.1684 32.3249 73.1679 35.7131 75.0768 40.419C72.7134 36.466 68.1684 33.8307 62.9872 33.9249Z" fill="#DD821F"/>
<path d="M79.6226 40.7955C79.6226 42.1131 79.8044 43.0543 79.4408 44.2778C79.0772 42.9602 78.2591 39.1955 78.2591 39.1955L76.9865 36.1837L75.8957 35.2425L74.0777 33.8308L73.896 29.4072C77.3501 32.1366 79.5317 36.1837 79.6226 40.7955Z" fill="#DD821F"/>
<path d="M46.2616 40.3247L46.1707 39.3836C46.1707 39.2894 46.0798 39.1953 45.9889 39.1953H45.898C45.8071 39.1953 45.7162 39.2894 45.7162 39.4777L45.8071 40.4188C45.8071 40.513 45.898 40.6071 45.9889 40.6071H46.0798C46.1707 40.513 46.2616 40.4188 46.2616 40.3247Z" fill="#DD821F"/>
<path d="M47.8069 36.8423L47.716 35.2423C47.716 35.0541 47.6251 34.96 47.4433 34.96H47.2615C47.1706 34.96 46.9888 35.0541 46.9888 35.2423L47.0797 36.8423C47.0797 37.0305 47.1706 37.1247 47.3524 37.1247H47.5342C47.6251 37.1247 47.8069 37.0305 47.8069 36.8423Z" fill="#DD821F"/>
<path d="M49.8976 33.8306L49.8067 32.2306C49.8067 32.0424 49.7158 31.9482 49.534 31.9482H49.2613C49.0795 31.9482 48.9886 32.0424 48.9886 32.2306L49.0795 33.8306C49.0795 34.0188 49.1704 34.1129 49.3522 34.1129H49.6249C49.7158 34.2071 49.8976 34.0188 49.8976 33.8306Z" fill="#DD821F"/>
<path d="M52.9882 31.4777L52.8973 29.5953C52.8973 29.4071 52.8064 29.313 52.6246 29.313H52.3519C52.1701 29.313 52.0792 29.5012 52.0792 29.5953L52.1701 31.4777C52.1701 31.6659 52.261 31.76 52.4428 31.76H52.7155C52.8973 31.76 52.9882 31.5718 52.9882 31.4777Z" fill="#DD821F"/>
<path d="M56.1697 29.8777L56.0788 27.713C56.0788 27.5248 55.9879 27.4307 55.8061 27.4307H55.5334C55.3516 27.4307 55.2607 27.5248 55.2607 27.713L55.3516 29.8777C55.3516 30.066 55.4425 30.1601 55.6243 30.1601H55.897C56.0788 30.1601 56.1697 29.9718 56.1697 29.8777Z" fill="#DD821F"/>
<path d="M59.3512 28.8424L59.2603 26.7719C59.2603 26.5836 59.1693 26.4895 58.9875 26.4895H58.7149C58.5331 26.4895 58.4422 26.5836 58.4422 26.7719L58.533 28.8424C58.533 29.0307 58.624 29.1248 58.8058 29.1248H59.0785C59.2602 29.2189 59.3512 29.0307 59.3512 28.8424Z" fill="#DD821F"/>
<path d="M62.5327 28.5601L62.4417 26.3954C62.4417 26.2072 62.3508 26.113 62.169 26.113H61.8963C61.7145 26.113 61.6237 26.2072 61.6237 26.3954L61.7145 28.5601C61.7145 28.7483 61.8055 28.8425 61.9873 28.8425H62.2599C62.4417 28.8425 62.5327 28.7483 62.5327 28.5601Z" fill="#DD821F"/>
<path d="M65.805 28.6543L65.7141 26.6779C65.7141 26.4896 65.6232 26.3955 65.4414 26.3955H65.1687C64.9869 26.3955 64.896 26.4896 64.896 26.6779L64.9869 28.6543C64.9869 28.8426 65.0778 28.9367 65.2596 28.9367H65.5323C65.6232 28.9367 65.805 28.7485 65.805 28.6543Z" fill="#DD821F"/>
<path d="M68.9865 29.313L68.8956 27.3366C68.8956 27.1483 68.8047 27.0542 68.6229 27.0542H68.3502C68.1684 27.0542 68.0775 27.1483 68.0775 27.3366L68.1684 29.313C68.1684 29.5013 68.2593 29.5954 68.4411 29.5954H68.7138C68.8956 29.6895 68.9865 29.5013 68.9865 29.313Z" fill="#DD821F"/>
<path d="M72.2589 31.0072L72.168 28.9366C72.168 28.7484 72.0771 28.6543 71.8953 28.6543H71.6226C71.4408 28.6543 71.3499 28.7484 71.3499 28.9366L71.4408 31.0072C71.4408 31.1955 71.5317 31.2896 71.7135 31.2896H71.9862C72.0771 31.2896 72.2589 31.1014 72.2589 31.0072Z" fill="#DD821F"/>
<path d="M88.3481 101.313C88.3481 101.313 87.8936 101.878 87.3482 102.442C86.8028 103.101 85.4393 103.948 84.803 104.325C84.1667 104.701 81.4397 106.866 80.8943 109.031C80.3489 111.195 82.2578 111.478 84.2576 111.101C86.2574 110.725 88.1663 108.842 88.7117 108.089C89.2571 107.431 91.166 105.831 93.6203 104.513C96.0746 103.195 94.6202 101.407 94.6202 101.407L88.3481 101.313Z" fill="#162184"/>
<path d="M106.619 107.619C106.619 107.619 106.982 108.56 107.164 109.784C107.255 111.007 107.437 113.642 107.528 114.489C107.619 115.242 107.619 117.219 106.255 119.007C104.892 120.795 104.256 121.548 102.528 120.795C100.801 120.042 100.801 117.031 101.165 115.431C101.438 113.831 101.801 110.348 101.71 109.972C101.71 109.595 101.801 109.407 101.801 109.407L106.619 107.619Z" fill="#162184"/>
<path d="M82.2578 65.266C82.2578 65.266 82.6214 79.2895 85.8029 86.7248C85.8029 86.7248 88.0754 93.313 88.3481 101.031C88.3481 101.031 87.8027 102.348 88.5299 103.478C89.2571 104.607 93.893 105.548 94.7111 101.972C95.4382 98.3954 95.1656 91.713 94.3475 88.8895C93.5294 86.0659 94.6201 78.3483 94.6201 78.3483C94.6201 78.3483 95.8927 79.1954 97.5289 84.7483C99.1651 90.3012 100.438 92.3718 100.983 93.9718C101.529 95.4777 102.074 104.889 101.71 109.501C101.71 109.501 105.437 110.066 106.528 108.184C107.619 106.301 107.982 96.7012 107.71 93.6895C107.437 90.5836 106.164 80.7954 106.346 77.7836C106.528 74.7718 107.164 72.3248 106.437 69.2189C105.801 66.2071 85.9847 59.4307 85.9847 59.4307L82.2578 65.266Z" fill="#242993"/>
<path d="M106.437 77.6894C106.619 74.6777 107.255 72.2306 106.528 69.1247C106.255 67.9953 103.347 66.3012 99.7105 64.7012C93.6203 64.1365 85.9847 63.4777 85.4393 63.5718C84.9848 63.6659 83.7122 64.1365 82.7123 64.6071L82.2578 65.2659C82.2578 65.2659 82.2578 66.113 82.3487 67.5247C83.8031 67.9953 86.4392 67.5247 86.4392 67.5247C86.8028 68.4659 89.1662 72.0424 92.075 73.5483C94.9838 75.0541 103.619 74.5836 104.074 75.1483C104.528 75.713 104.619 83.4306 104.619 84.3718C104.528 85.313 105.437 91.5247 106.255 96.8894C107.073 102.254 105.801 108.748 105.801 108.936C106.073 108.748 106.346 108.56 106.528 108.278C107.619 106.395 107.982 96.7953 107.71 93.7836C107.528 90.5836 106.255 80.7953 106.437 77.6894Z" fill="#162184"/>
<path d="M88.8935 19.4306C88.8935 19.4306 84.5303 20.4659 82.9851 20.8423C82.7124 20.9364 82.5306 21.1247 82.4396 21.3129C81.9852 22.4423 80.9852 25.9247 81.7124 31.007C82.7123 37.2188 82.3487 41.4541 82.3487 41.4541L80.3489 52.3717C80.3489 52.3717 77.8038 62.8188 77.9856 63.1011C78.1674 63.3835 83.894 67.807 85.6211 67.2423C87.3482 66.5835 86.8028 65.5482 86.8028 65.5482C86.8028 65.5482 88.2572 73.0776 94.6202 73.0776C100.983 72.9835 106.164 72.9835 107.255 70.3482C108.346 67.7129 106.982 56.5129 105.801 52.0894C104.71 47.6659 101.983 38.8188 101.983 38.8188L111.437 28.1835L103.528 21.8776C103.528 21.8776 101.619 18.207 100.892 17.7364C100.074 17.2659 99.7106 17.6423 99.7106 17.6423L88.8935 19.4306Z" fill="#4553C7"/>
<path d="M85.8938 64.7011C85.8938 65.0775 85.712 65.6423 84.5304 66.0187C83.2578 66.4893 80.2581 64.5128 78.2583 63.1011C79.2582 63.9481 84.0759 67.6187 85.7121 67.054C86.0757 66.9599 86.3484 66.7717 86.5302 66.6775C86.2575 65.9246 85.9847 65.1717 85.8938 64.7011Z" fill="url(#paint1_linear)"/>
<path d="M107.346 69.407C106.164 72.2306 100.71 72.2306 94.0748 72.2306C92.3477 72.2306 90.9842 71.76 89.8934 71.007C91.0751 72.1364 92.6204 72.9835 94.802 72.9835C101.165 72.8894 106.346 72.8894 107.437 70.2541C107.801 69.407 107.891 67.6188 107.801 65.4541C107.71 67.1482 107.619 68.6541 107.346 69.407Z" fill="url(#paint2_linear)"/>
<path d="M100.62 17.6425C100.62 17.6425 102.256 19.7131 99.8923 22.4425C98.4379 24.1366 95.9836 27.8072 93.893 31.5719C92.6204 33.9248 91.3478 35.1484 90.7115 37.2189C90.7115 37.2189 90.6206 34.7719 90.5297 31.1013C90.4388 27.6189 90.4388 23.9484 90.5297 23.0072C90.8933 21.1248 98.8924 16.7013 100.62 17.6425Z" fill="#F0FFFF"/>
<path d="M94.6202 23.7599C94.6202 23.7599 93.8021 24.3246 93.5294 24.2305C93.2567 24.2305 92.3477 23.2893 92.3477 23.2893C92.3477 23.2893 90.0752 23.2893 89.8025 22.254C89.5298 21.2187 89.348 20.1834 89.1662 19.7128C88.8935 19.1481 87.9845 16.6069 87.8936 15.5716C87.8936 14.5363 87.8936 12.654 87.53 11.7128C87.1664 10.7716 86.5301 0.983403 95.6201 1.26576C104.71 1.54811 101.892 11.3363 101.892 11.3363C101.892 11.3363 102.528 11.6187 102.165 12.9363C101.801 14.1599 101.71 14.3481 101.438 14.9128C101.256 15.5716 101.165 15.9481 100.529 16.4187L100.347 17.5481C100.347 17.5481 100.801 19.3363 99.6196 21.0305C98.5288 22.8187 94.6202 23.7599 94.6202 23.7599Z" fill="#FCE8EE"/>
<path d="M82.8032 20.9363C82.8032 20.9363 81.8033 21.1245 78.7128 29.3128C76.9857 33.9245 74.2587 38.6304 73.6224 42.0186C73.077 45.4069 73.3497 49.0775 73.986 49.3598C74.6223 49.6422 85.9847 53.9716 89.5298 55.3833C89.7116 55.4775 89.9843 55.2892 89.9843 55.101L90.9842 49.4539L83.9849 46.6304C83.9849 46.6304 82.6214 44.9363 81.3488 44.2775C81.3488 44.2775 82.8032 41.548 82.7123 40.8892C82.6214 40.1363 82.8032 32.5127 81.9851 29.4069C81.0762 26.301 82.8032 20.9363 82.8032 20.9363Z" fill="#242993"/>
<path d="M86.8937 42.6777C86.8937 42.6777 85.8938 42.0189 85.712 41.9248C85.4393 41.8307 84.1667 41.3601 83.894 41.266C83.7122 41.1718 82.985 41.266 82.6214 41.266C82.4396 41.266 82.3487 41.3601 82.2578 41.4542C81.9851 42.0189 81.167 43.713 81.2579 44.3718C81.2579 44.3718 83.6213 45.8777 83.894 46.6307L84.2576 46.7248C84.2576 46.6307 85.8029 43.1483 86.8937 42.6777Z" fill="#FCE8EE"/>
<path d="M105.983 51.9952C105.71 50.9599 105.346 49.6422 104.983 48.2305L90.7115 54.5363C90.7115 54.5363 94.9838 59.9952 102.438 59.6187C104.528 59.5246 105.983 58.7716 107.073 58.1128C106.71 55.7599 106.346 53.5011 105.983 51.9952Z" fill="#242993"/>
<path d="M111.437 28.1836C111.437 28.1836 107.71 28.7483 104.619 33.7365C101.619 38.7248 99.347 44.4659 99.347 44.4659L99.256 45.1248C98.9833 46.8189 97.2563 47.7601 95.711 47.1012C92.5295 45.5954 87.7118 43.3365 86.8937 42.6777C86.8937 42.6777 84.0758 44.2777 83.2577 48.1365C82.6214 51.2424 82.8032 51.2424 82.8032 51.2424C82.8032 51.2424 95.4383 57.3601 100.347 57.2659C105.255 57.1718 111.437 40.513 112.164 37.1248C112.891 33.6424 113.618 29.1248 111.437 28.1836Z" fill="#242993"/>
<path d="M111.437 28.1836C111.437 28.1836 107.71 28.7483 104.619 33.7365C101.619 38.7248 99.347 44.4659 99.347 44.4659L99.256 45.1248C98.9833 46.8189 97.2563 47.7601 95.711 47.1012C92.5295 45.5954 87.7118 43.3365 86.8937 42.6777C86.8937 42.6777 84.0758 44.2777 83.2577 48.1365C82.6214 51.2424 82.8032 51.2424 82.8032 51.2424C82.8032 51.2424 95.4383 57.3601 100.347 57.2659C105.255 57.1718 111.437 40.513 112.164 37.1248C112.891 33.6424 113.618 29.1248 111.437 28.1836Z" fill="#485DCE"/>
<path d="M97.6198 47.854C97.6198 47.854 99.256 49.3599 99.8923 48.5128C100.62 47.6658 100.347 47.5717 100.347 47.5717C100.347 47.5717 101.801 47.5717 101.983 46.6305C102.165 45.6893 102.892 46.1599 102.892 45.1246C102.892 44.0893 101.71 44.2775 101.71 44.2775L97.6198 47.854Z" fill="#4553C7"/>
<path d="M95.6201 47.007C95.6201 47.007 96.0746 46.6306 96.62 46.0659C97.1654 45.5953 98.0744 43.5247 98.2562 43.3365C98.438 43.1482 100.347 41.6423 101.256 41.6423C102.165 41.6423 101.529 42.6776 101.256 42.8659C101.074 43.0541 100.165 43.5247 100.165 43.5247C100.165 43.5247 99.2561 44.3717 99.1652 44.4659C99.0743 44.56 101.71 44.2776 102.165 44.56C102.619 44.8423 102.528 45.5012 102.165 45.6894C101.892 45.8776 101.619 45.8776 101.619 45.8776C101.619 45.8776 101.892 46.7247 101.074 47.1012C100.256 47.4776 100.074 47.2894 100.074 47.2894C100.074 47.2894 99.9833 48.7012 98.7107 48.4188L95.6201 47.007Z" fill="#FCE8EE"/>
<path d="M87.2573 6.63058C87.2573 6.63058 86.0756 10.5835 89.1662 9.45411C92.2568 8.3247 95.1656 6.44234 96.1655 7.19528C96.8927 7.75999 96.8927 9.35999 96.8018 10.2071C96.8018 10.4894 96.8927 10.6776 96.9836 10.96L97.8926 12.3718C97.9835 12.56 98.0743 12.7482 98.0743 12.9365L98.1652 13.8776C98.1652 14.16 98.347 14.3482 98.6197 14.3482H98.8016C99.0743 14.3482 99.2561 14.16 99.2561 13.9718L99.5287 12.56C99.5287 12.56 100.256 10.6776 101.801 11.4306C101.801 11.4306 102.801 10.0188 102.528 6.91294C102.165 3.80705 100.801 0.60705 94.9838 0.042344C89.0753 -0.616479 87.2573 6.63058 87.2573 6.63058Z" fill="#AA9AAC"/>
<path d="M96.2563 27.2424L95.3474 26.4894C95.3474 26.4894 94.5293 27.1483 94.2566 27.9012C93.9839 28.6541 94.2566 31.0071 94.2566 31.0071L93.9839 31.4777L93.6203 30.8188L93.3476 27.9953C93.3476 27.9953 93.6203 25.9247 93.7112 25.9247C93.7112 25.8306 95.4383 26.113 95.4383 26.113C95.4383 26.113 95.8927 26.6777 96.2563 27.2424Z" fill="#C4E3FF"/>
<path d="M91.9841 24.4189C91.9841 24.4189 91.0751 24.5131 90.6206 24.8895C90.6206 24.8895 91.6205 24.9836 91.8023 24.9836C91.9841 24.9836 91.9841 24.4189 91.9841 24.4189Z" fill="#C4E3FF"/>
<path d="M93.8021 24.7013L95.3474 26.2072C95.3474 26.2072 93.9839 26.866 93.5294 28.1837C93.5294 28.1837 91.8023 28.5602 91.6205 27.9013C91.4387 27.2425 91.6205 25.6425 91.4387 24.8896C91.2569 24.1366 93.8021 24.7013 93.8021 24.7013Z" fill="#242993"/>
<path d="M91.8023 27.807C91.8023 27.807 91.5296 29.1246 91.166 29.6893C90.8024 30.254 90.5297 30.8187 90.5297 30.8187V38.6305C90.5297 38.6305 93.3476 32.7011 93.893 31.4775C93.893 31.4775 93.8021 28.654 93.5294 28.0893C93.3476 27.6187 91.8023 27.807 91.8023 27.807Z" fill="#242993"/>
<path d="M99.2561 16.2305C97.4381 21.6893 92.2568 23.2893 92.2568 23.2893C92.2568 23.2893 93.1658 24.2305 93.4385 24.2305C93.7112 24.2305 94.5293 23.7599 94.5293 23.7599C94.5293 23.7599 98.438 22.8187 99.6197 21.0305C100.71 19.3364 100.347 17.5481 100.347 17.5481L100.529 16.4187C99.7106 16.7011 99.2561 16.2305 99.2561 16.2305Z" fill="#E2C8CF"/>
<path d="M103.437 22.6306C103.437 22.6306 102.71 25.1718 102.619 25.2659C102.528 25.36 100.801 25.1718 100.801 25.1718L101.619 26.7718C101.619 26.7718 92.984 36.3718 91.166 41.5483C91.166 41.5483 95.2565 34.96 102.438 27.1483L101.438 25.5483L103.165 25.9247L103.437 22.6306Z" fill="#242993"/>
<path d="M89.1662 20.3718L88.7117 20.9365L89.2571 21.5012L87.6209 23.0071C87.6209 23.0071 87.1664 33.5483 89.0753 40.513C89.0753 40.513 86.4392 34.113 86.9846 22.7248L88.7117 21.5012L88.1663 20.9365L89.1662 20.3718Z" fill="#242993"/>
<path d="M94.6202 78.4422C94.6202 78.4422 94.7111 78.4422 94.6202 78.4422L92.4386 75.9951C93.4385 77.501 92.2568 84.4657 92.1659 86.0657C92.075 87.6657 93.3476 90.9598 93.893 94.7245C94.3475 98.5834 93.3476 104.042 93.3476 104.042C93.9839 103.666 94.5293 103.007 94.7111 102.066C95.4383 98.4892 95.1656 91.8069 94.3475 88.9834C93.5294 86.1598 94.6202 78.4422 94.6202 78.4422Z" fill="#162184"/>
<path d="M100.347 57.2658C105.255 57.1717 111.437 40.5129 112.164 37.1247C112.255 36.56 112.436 35.9011 112.527 35.3364C112.527 35.4305 111.255 39.007 109.982 42.207C108.71 45.407 102.256 55.1011 98.8924 55.76C95.8928 56.3247 85.0757 51.0541 82.985 50.0188C82.8032 51.1482 82.8941 51.2423 82.8941 51.2423C82.8941 51.2423 95.5291 57.2658 100.347 57.2658Z" fill="url(#paint3_linear)"/>
<path d="M98.8016 14.2541C99.0743 14.2541 99.2561 14.0659 99.2561 13.8777L99.5287 12.4659C99.5287 12.4659 100.256 10.5835 101.801 11.3365C101.801 11.3365 102.801 9.92473 102.528 7.00708C100.801 9.73649 96.9836 10.96 96.9836 10.96L97.8926 12.3718C97.9835 12.56 98.0743 12.7483 98.0743 12.9365L98.1652 13.8777C98.1652 14.16 98.347 14.3483 98.6197 14.3483L98.8016 14.2541Z" fill="#938496"/>
<path opacity="0.5" d="M107.619 142.785C106.528 146.079 114.073 151.82 124.435 155.585C134.889 159.349 144.251 159.726 145.342 156.432C146.433 153.138 138.888 147.396 128.526 143.632C118.072 139.867 108.709 139.491 107.619 142.785Z" fill="#242993"/>
<path d="M133.979 130.738L133.889 127.35L133.161 125.279L132.616 126.973L133.979 130.738Z" fill="#DD821F"/>
<path d="M99.5286 131.397L99.4377 128.008C99.4377 128.008 102.165 130.832 102.165 130.926C102.074 131.02 99.5286 131.397 99.5286 131.397Z" fill="#FFD85A"/>
<path d="M116.981 141.279C126.526 140.997 134.07 136.008 133.889 127.35C133.707 118.597 125.799 111.726 116.254 112.008C106.71 112.291 99.165 119.538 99.3468 128.197C99.5286 136.855 107.437 141.467 116.981 141.279Z" fill="#FFD85A"/>
<path d="M99.5118 131.588C99.3028 122.858 106.864 115.596 116.399 115.368C125.935 115.14 133.835 122.032 134.044 130.761C134.253 139.491 126.692 146.753 117.156 146.981C107.621 147.21 99.7208 140.318 99.5118 131.588Z" fill="#FFD85A"/>
<path d="M128.798 119.82C131.889 122.549 133.889 126.408 133.98 130.738C134.161 139.491 126.617 146.738 117.072 146.926C112.345 147.02 108.073 145.42 104.892 142.691L128.798 119.82Z" fill="#DD821F"/>
<path d="M100.345 131.602C100.154 123.288 107.363 116.364 116.447 116.137C125.531 115.91 133.05 122.467 133.241 130.781C133.432 139.095 126.223 146.019 117.14 146.246C108.056 146.473 100.537 139.916 100.345 131.602Z" fill="#F9BF30"/>
<path d="M103.526 131.522C103.372 124.819 109.187 119.236 116.514 119.054C123.841 118.871 129.906 124.157 130.06 130.86C130.214 137.564 124.399 143.146 117.072 143.329C109.745 143.511 103.68 138.225 103.526 131.522Z" fill="#F2B42A"/>
<path d="M103.528 131.491C103.528 131.208 103.528 130.926 103.528 130.644C104.164 136.95 109.982 141.75 116.981 141.561C123.981 141.373 129.616 136.291 129.889 129.985C129.889 130.267 129.98 130.55 129.98 130.832C130.162 137.514 124.344 143.067 116.981 143.255C109.709 143.444 103.71 138.173 103.528 131.491Z" fill="#FFD85A"/>
<path d="M114.254 132.149L116.981 129.514C119.617 130.173 124.435 131.302 128.344 132.244C127.344 135.255 124.98 137.702 121.89 139.114L114.254 132.149Z" fill="#FFD85A"/>
<path d="M118.527 140.055C118.072 140.149 117.618 140.149 117.254 140.149C114.073 140.244 111.164 139.114 108.982 137.326L113.436 133.091L118.527 140.055Z" fill="#FFD85A"/>
<path d="M119.89 126.785L124.98 121.891C126.708 123.491 128.253 125.185 128.616 127.444L119.89 126.785Z" fill="#FFD85A"/>
<path d="M117.163 120.479C109.891 120.667 104.074 126.22 104.164 132.903C104.164 134.22 104.437 135.538 104.983 136.761C104.074 135.161 103.528 133.373 103.528 131.491C103.346 124.808 109.164 119.256 116.527 119.067C122.344 118.879 127.344 122.267 129.253 126.973C126.98 123.02 122.344 120.385 117.163 120.479Z" fill="#DD821F"/>
<path d="M133.889 127.35C133.889 128.667 134.07 129.608 133.707 130.832C133.343 129.514 132.525 125.75 132.525 125.75L131.252 122.738L130.162 121.797L128.344 120.385L128.162 115.961C131.525 118.691 133.798 122.738 133.889 127.35Z" fill="#DD821F"/>
<path d="M100.438 126.879L100.347 125.938C100.347 125.844 100.256 125.75 100.165 125.75H100.074C99.9831 125.75 99.8922 125.844 99.8922 126.032L99.9831 126.973C99.9831 127.067 100.074 127.161 100.165 127.161H100.256C100.438 127.067 100.528 126.973 100.438 126.879Z" fill="#DD821F"/>
<path d="M101.983 123.397L101.892 121.797C101.892 121.608 101.801 121.514 101.619 121.514H101.437C101.347 121.514 101.165 121.608 101.165 121.797L101.256 123.397C101.256 123.585 101.347 123.679 101.528 123.679H101.71C101.892 123.679 101.983 123.585 101.983 123.397Z" fill="#DD821F"/>
<path d="M104.074 120.385L103.983 118.785C103.983 118.597 103.892 118.502 103.71 118.502H103.437C103.255 118.502 103.165 118.597 103.165 118.785L103.255 120.385C103.255 120.573 103.346 120.667 103.528 120.667H103.801C103.983 120.761 104.074 120.573 104.074 120.385Z" fill="#DD821F"/>
<path d="M107.255 118.032L107.164 116.15C107.164 115.961 107.073 115.867 106.891 115.867H106.619C106.437 115.867 106.346 115.961 106.346 116.15L106.437 118.032C106.437 118.22 106.528 118.314 106.71 118.314H106.982C107.164 118.314 107.255 118.126 107.255 118.032Z" fill="#DD821F"/>
<path d="M110.437 116.432L110.346 114.267C110.346 114.079 110.255 113.985 110.073 113.985H109.8C109.618 113.985 109.528 114.079 109.528 114.267L109.618 116.432C109.618 116.62 109.709 116.714 109.891 116.714H110.164C110.346 116.714 110.437 116.62 110.437 116.432Z" fill="#DD821F"/>
<path d="M113.618 115.397L113.527 113.326C113.527 113.138 113.436 113.044 113.254 113.044H112.982C112.8 113.044 112.709 113.138 112.709 113.326L112.8 115.397C112.8 115.585 112.891 115.679 113.073 115.679H113.345C113.436 115.773 113.618 115.585 113.618 115.397Z" fill="#DD821F"/>
<path d="M116.799 115.114L116.709 112.95C116.709 112.761 116.618 112.667 116.436 112.667H116.163C115.981 112.667 115.89 112.761 115.89 112.95L115.981 115.114C115.981 115.303 116.072 115.397 116.254 115.397H116.527C116.709 115.397 116.799 115.303 116.799 115.114Z" fill="#DD821F"/>
<path d="M119.981 115.209L119.89 113.232C119.89 113.044 119.799 112.95 119.617 112.95H119.345C119.163 112.95 119.072 113.044 119.072 113.232L119.163 115.209C119.163 115.397 119.254 115.491 119.436 115.491H119.708C119.89 115.491 119.981 115.303 119.981 115.209Z" fill="#DD821F"/>
<path d="M123.253 115.867L123.162 113.891C123.162 113.703 123.072 113.608 122.89 113.608H122.617C122.435 113.608 122.344 113.703 122.344 113.891L122.435 115.867C122.435 116.055 122.526 116.15 122.708 116.15H122.981C123.072 116.244 123.253 116.055 123.253 115.867Z" fill="#DD821F"/>
<path d="M126.435 117.561L126.344 115.491C126.344 115.303 126.253 115.208 126.071 115.208H125.799C125.617 115.208 125.526 115.303 125.526 115.491L125.617 117.561C125.617 117.75 125.708 117.844 125.889 117.844H126.162C126.344 117.844 126.435 117.656 126.435 117.561Z" fill="#DD821F"/>
<path opacity="0.5" d="M9.44717 121.138C8.35638 124.432 15.901 130.173 26.2636 133.938C36.717 137.702 46.0797 138.079 47.1705 134.785C48.2613 131.491 40.7166 125.749 30.3541 121.985C19.9915 118.22 10.6289 117.844 9.44717 121.138Z" fill="#242993"/>
<path d="M35.8989 109.091L35.7171 105.702L34.9899 103.632L34.4445 105.326L35.8989 109.091Z" fill="#DD821F"/>
<path d="M1.35716 109.75L1.26622 106.361C1.26622 106.361 3.99321 109.185 3.99321 109.279C3.99321 109.373 1.35716 109.75 1.35716 109.75Z" fill="#FFD85A"/>
<path d="M18.8099 119.632C28.3543 119.35 35.8989 114.361 35.7171 105.703C35.5353 96.9497 27.6271 90.0791 18.0826 90.3614C8.53816 90.6438 0.993526 97.8909 1.17532 106.55C1.44802 115.208 9.3563 119.914 18.8099 119.632Z" fill="#FFD85A"/>
<path d="M1.36866 109.926C1.1597 101.196 8.7206 93.9344 18.2564 93.7061C27.7922 93.4779 35.6919 100.37 35.9008 109.1C36.1098 117.829 28.5489 125.091 19.0131 125.32C9.47728 125.548 1.57761 118.656 1.36866 109.926Z" fill="#FFD85A"/>
<path d="M30.6268 98.1731C33.7174 100.903 35.7171 104.761 35.808 109.091C35.9898 117.844 28.4452 125.091 18.9007 125.279C14.1739 125.373 9.90165 123.773 6.72016 121.044L30.6268 98.1731Z" fill="#DD821F"/>
<path d="M2.18725 109.907C1.98821 101.593 9.19096 94.677 18.2751 94.4596C27.3591 94.2421 34.8846 100.806 35.0836 109.12C35.2827 117.434 28.0799 124.35 18.9958 124.568C9.91172 124.785 2.38628 118.221 2.18725 109.907Z" fill="#F9BF30"/>
<path d="M5.38239 109.861C5.22827 103.157 11.0433 97.5749 18.3706 97.3921C25.6979 97.2093 31.7629 102.495 31.917 109.199C32.0711 115.902 26.256 121.484 18.9287 121.667C11.6014 121.85 5.5365 116.564 5.38239 109.861Z" fill="#F2B42A"/>
<path d="M5.3567 109.844C5.3567 109.561 5.3567 109.279 5.3567 108.997C5.993 115.303 11.8106 120.103 18.8099 119.914C25.8091 119.726 31.4449 114.644 31.7176 108.338C31.7176 108.62 31.8085 108.903 31.8085 109.185C31.9903 115.867 26.1727 121.42 18.8099 121.608C11.5379 121.797 5.5385 116.526 5.3567 109.844Z" fill="#FFD85A"/>
<path d="M16.0829 110.502L18.8099 107.867C21.446 108.526 26.2636 109.655 30.1723 110.597C29.1724 113.608 26.809 116.055 23.7184 117.467L16.0829 110.502Z" fill="#FFD85A"/>
<path d="M20.3551 118.408C19.9006 118.502 19.4461 118.502 19.0825 118.502C15.9011 118.596 12.9922 117.467 10.8107 115.679L15.2648 111.443L20.3551 118.408Z" fill="#FFD85A"/>
<path d="M21.7186 105.138L26.809 100.244C28.5361 101.844 30.0814 103.538 30.445 105.797L21.7186 105.138Z" fill="#FFD85A"/>
<path d="M18.9916 98.8318C11.7196 99.0201 5.90209 104.573 5.99299 111.255C5.99299 112.573 6.26571 113.891 6.81111 115.114C5.90211 113.514 5.35668 111.726 5.35668 109.844C5.17488 103.161 10.9925 97.6083 18.3554 97.4201C24.1729 97.2318 29.1724 100.62 31.0813 105.326C28.8088 101.373 24.2638 98.7377 18.9916 98.8318Z" fill="#DD821F"/>
<path d="M35.7171 105.703C35.7171 107.02 35.8989 107.962 35.5353 109.185C35.1717 107.867 34.3536 104.103 34.3536 104.103L33.081 101.091L31.9903 100.15L30.1723 98.738L29.9905 94.3145C33.4447 97.0439 35.6262 101.091 35.7171 105.703Z" fill="#DD821F"/>
<path d="M2.35701 105.232L2.26613 104.291C2.26613 104.197 2.17522 104.103 2.08432 104.103H1.99345C1.90255 104.103 1.81164 104.197 1.81164 104.385L1.90251 105.326C1.90251 105.42 1.99342 105.514 2.08432 105.514H2.1752C2.2661 105.42 2.35701 105.326 2.35701 105.232Z" fill="#DD821F"/>
<path d="M3.81143 101.75L3.7205 100.15C3.7205 99.9613 3.62961 99.8672 3.44781 99.8672H3.266C3.1751 99.8672 2.99331 99.9613 2.99331 100.15L3.08419 101.75C3.08419 101.938 3.17514 102.032 3.35693 102.032H3.53869C3.72049 102.032 3.81143 101.938 3.81143 101.75Z" fill="#DD821F"/>
<path d="M5.993 98.7378L5.90212 97.1378C5.90212 96.9496 5.81123 96.8555 5.62943 96.8555H5.35669C5.17489 96.8555 5.084 96.9496 5.084 97.1378L5.17493 98.7378C5.17493 98.9261 5.26582 99.0202 5.44762 99.0202H5.72031C5.81121 99.1143 5.993 98.9261 5.993 98.7378Z" fill="#DD821F"/>
<path d="M9.08359 96.3849L8.99265 94.5026C8.99265 94.3143 8.90177 94.2202 8.71997 94.2202H8.44728C8.26548 94.2202 8.17459 94.3143 8.17459 94.5026L8.26547 96.3849C8.26547 96.5731 8.35636 96.6673 8.53816 96.6673H8.8109C8.9927 96.6673 9.08359 96.479 9.08359 96.3849Z" fill="#DD821F"/>
<path d="M12.2651 94.785L12.1741 92.6202C12.1741 92.432 12.0833 92.3379 11.9015 92.3379H11.6288C11.447 92.3379 11.3561 92.432 11.3561 92.6202L11.447 94.785C11.447 94.9732 11.5378 95.0673 11.7196 95.0673H11.9924C12.1742 95.0673 12.2651 94.9732 12.2651 94.785Z" fill="#DD821F"/>
<path d="M15.4466 93.7494L15.3556 91.6788C15.3556 91.4906 15.2647 91.3965 15.0829 91.3965H14.8103C14.6285 91.3965 14.5376 91.4906 14.5376 91.6788L14.6284 93.7494C14.6284 93.9377 14.7193 94.0318 14.9011 94.0318H15.1739C15.3557 94.1259 15.4466 93.9377 15.4466 93.7494Z" fill="#DD821F"/>
<path d="M18.6281 93.4673L18.5371 91.3026C18.5371 91.1144 18.4462 91.0203 18.2644 91.0203H17.9917C17.8099 91.0203 17.7191 91.1144 17.7191 91.3026L17.8099 93.4673C17.8099 93.6556 17.9008 93.7497 18.0826 93.7497H18.3554C18.5372 93.7497 18.6281 93.6556 18.6281 93.4673Z" fill="#DD821F"/>
<path d="M21.8095 93.5616L21.7186 91.5851C21.7186 91.3969 21.6277 91.3027 21.4459 91.3027H21.1732C20.9914 91.3027 20.9005 91.3969 20.9005 91.5851L20.9914 93.5616C20.9914 93.7498 21.0823 93.8439 21.2641 93.8439H21.5368C21.7186 93.8439 21.8095 93.6557 21.8095 93.5616Z" fill="#DD821F"/>
<path d="M25.0819 94.2202L24.991 92.2438C24.991 92.0555 24.9001 91.9614 24.7183 91.9614H24.4456C24.2638 91.9614 24.1729 92.0555 24.1729 92.2438L24.2638 94.2202C24.2638 94.4085 24.3547 94.5026 24.5365 94.5026H24.8092C24.991 94.5967 25.0819 94.4085 25.0819 94.2202Z" fill="#DD821F"/>
<path d="M28.2634 95.9142L28.1725 93.8436C28.1725 93.6554 28.0816 93.5613 27.8998 93.5613H27.6271C27.4453 93.5613 27.3544 93.6554 27.3544 93.8436L27.4453 95.9142C27.4453 96.1025 27.5362 96.1966 27.718 96.1966H27.9907C28.1725 96.1966 28.3543 96.1025 28.2634 95.9142Z" fill="#DD821F"/>
<defs>
<radialGradient id="paint0_radial" cx="0" cy="0" r="1" gradientUnits="userSpaceOnUse" gradientTransform="translate(81.887 111.543) rotate(148.513) scale(65.5846 58.4231)">
<stop stop-color="#42E8E0"/>
<stop offset="0.1539" stop-color="#33AEB9"/>
<stop offset="0.3113" stop-color="#267A95"/>
<stop offset="0.4663" stop-color="#1B5078"/>
<stop offset="0.6156" stop-color="#132E61"/>
<stop offset="0.7574" stop-color="#0D1651"/>
<stop offset="0.8889" stop-color="#090847"/>
<stop offset="1" stop-color="#080344"/>
</radialGradient>
<linearGradient id="paint1_linear" x1="78.2135" y1="64.9862" x2="86.6502" y2="65.4588" gradientUnits="userSpaceOnUse">
<stop stop-color="#5778FF"/>
<stop offset="0.0725764" stop-color="#5489FF"/>
<stop offset="0.2791" stop-color="#4EB3FF"/>
<stop offset="0.4801" stop-color="#49D4FF"/>
<stop offset="0.6715" stop-color="#45ECFF"/>
<stop offset="0.8493" stop-color="#43FAFF"/>
<stop offset="1" stop-color="#42FFFF"/>
</linearGradient>
<linearGradient id="paint2_linear" x1="89.9793" y1="68.5341" x2="107.63" y2="69.5228" gradientUnits="userSpaceOnUse">
<stop stop-color="#5778FF"/>
<stop offset="0.0725764" stop-color="#5489FF"/>
<stop offset="0.2791" stop-color="#4EB3FF"/>
<stop offset="0.4801" stop-color="#49D4FF"/>
<stop offset="0.6715" stop-color="#45ECFF"/>
<stop offset="0.8493" stop-color="#43FAFF"/>
<stop offset="1" stop-color="#42FFFF"/>
</linearGradient>
<linearGradient id="paint3_linear" x1="83.1679" y1="44.8808" x2="111.875" y2="46.4889" gradientUnits="userSpaceOnUse">
<stop stop-color="#5778FF"/>
<stop offset="0.0725764" stop-color="#5489FF"/>
<stop offset="0.2791" stop-color="#4EB3FF"/>
<stop offset="0.4801" stop-color="#49D4FF"/>
<stop offset="0.6715" stop-color="#45ECFF"/>
<stop offset="0.8493" stop-color="#43FAFF"/>
<stop offset="1" stop-color="#42FFFF"/>
</linearGradient>
</defs>
</svg>
