<svg width="146" height="160" viewBox="0 0 146 160" fill="none" xmlns="http://www.w3.org/2000/svg">
<path opacity="0.5" d="M40.47 148.625L125.832 100.718L119.668 89.4077L36.5168 139.785L40.47 148.625Z" fill="#242993"/>
<path d="M125.832 35.0005L105.597 23.6901L125.832 12.3147L146 23.6901L125.832 35.0005Z" fill="url(#paint0_linear)"/>
<path d="M125.832 34.5456L105.999 23.4302L105.597 23.6902L125.832 35.0006L146 23.6902L145.598 23.4302L125.832 34.5456Z" fill="white"/>
<path d="M146 89.4076L125.832 100.718V35.0006L146 23.6902V89.4076Z" fill="url(#paint1_linear)"/>
<path d="M125.832 100.718L105.597 89.4076V23.6902L125.832 35.0006V100.718Z" fill="url(#paint2_linear)"/>
<path d="M99.4328 68.9317L79.1979 57.6213L99.4328 46.2458L119.668 57.6213L99.4328 68.9317Z" fill="url(#paint3_linear)"/>
<path d="M99.4328 68.4767L79.5998 57.3613L79.1978 57.6213L99.4328 68.9318L119.668 57.6213L119.199 57.3613L99.4328 68.4767Z" fill="white"/>
<path d="M119.668 104.228L99.4327 115.538V68.9317L119.668 57.6213V104.228Z" fill="url(#paint4_linear)"/>
<path d="M99.4328 115.538L79.1978 104.228V57.6213L99.4328 68.9317V115.538Z" fill="url(#paint5_linear)"/>
<path d="M73.0335 89.4075L52.7986 78.0971L73.0335 66.7217L93.2685 78.0971L73.0335 89.4075Z" fill="url(#paint6_linear)"/>
<path opacity="0.2" d="M73.0336 82.5823C64.6581 82.5823 59.4319 78.0971 63.6531 74.587C65.5962 72.9619 69.2144 71.9219 73.1006 71.9219C81.476 71.9219 86.7022 76.407 82.481 79.9172C80.4709 81.6072 76.9197 82.5823 73.0336 82.5823Z" fill="#3045BC"/>
<path d="M73.0335 88.9526L53.2006 77.8372L52.7986 78.0972L73.0335 89.4076L93.2685 78.0972L92.7995 77.8372L73.0335 88.9526Z" fill="white"/>
<path d="M93.2684 119.049L73.0334 130.359V89.4076L93.2684 78.0972V119.049Z" fill="url(#paint7_linear)"/>
<path d="M73.0335 130.359L52.7986 119.049V78.0972L73.0335 89.4076V130.359Z" fill="url(#paint8_linear)"/>
<path d="M46.6343 122.494L26.3993 111.183L46.6343 99.8728L66.8693 111.183L46.6343 122.494Z" fill="url(#paint9_linear)"/>
<path d="M46.6343 122.039L26.8683 110.923L26.3993 111.183L46.6343 122.494L66.8693 111.183L66.4672 110.923L46.6343 122.039Z" fill="white"/>
<path d="M66.8692 133.804L46.6342 145.18V122.494L66.8692 111.183V133.804Z" fill="url(#paint10_linear)"/>
<path d="M46.6343 145.18L26.3993 133.804V111.183L46.6343 122.494V145.18Z" fill="url(#paint11_linear)"/>
<path d="M20.235 132.894L0 121.584L20.235 110.273L40.4699 121.584L20.235 132.894Z" fill="url(#paint12_linear)"/>
<path d="M20.235 132.439L0.469031 121.389L0 121.584L20.235 132.894L40.4699 121.584L40.0679 121.389L20.235 132.439Z" fill="white"/>
<path d="M40.4699 148.625L20.235 160V132.894L40.4699 121.584V148.625Z" fill="url(#paint13_linear)"/>
<path d="M20.235 160L0 148.625V121.584L20.235 132.894V160Z" fill="url(#paint14_linear)"/>
<path d="M78.3937 69.9719C78.3937 69.9719 78.7287 70.3619 79.1308 70.752C79.5328 71.207 80.5378 71.792 81.0068 72.052C81.4759 72.312 83.486 73.8071 83.888 75.3021C84.29 76.7972 82.8829 76.9922 81.4089 76.7322C79.9348 76.4722 78.5277 75.1721 78.1257 74.6521C77.7237 74.1971 76.3166 73.092 74.5075 72.182C72.6985 71.272 73.7705 70.0369 73.7705 70.0369L78.3937 69.9719Z" fill="#162184"/>
<path d="M64.9261 74.3269C64.9261 74.3269 64.6581 74.9769 64.5241 75.822C64.4571 76.667 64.3231 78.4871 64.2561 79.0721C64.1891 79.5921 64.1891 80.9571 65.1941 82.1922C66.1992 83.4272 66.6682 83.9473 67.9412 83.4272C69.2143 82.9072 69.2143 80.8271 68.9463 79.7221C68.7453 78.6171 68.4773 76.212 68.5443 75.952C68.5443 75.692 68.4773 75.5619 68.4773 75.5619L64.9261 74.3269Z" fill="#162184"/>
<path d="M82.883 45.076C82.883 45.076 82.615 54.7614 80.2699 59.8966C80.2699 59.8966 78.5948 64.4468 78.3938 69.7769C78.3938 69.7769 78.7958 70.687 78.2598 71.467C77.7238 72.247 74.3066 72.8971 73.7036 70.427C73.1676 67.9569 73.3686 63.3417 73.9716 61.3916C74.5746 59.4416 73.7706 54.1114 73.7706 54.1114C73.7706 54.1114 72.8325 54.6964 71.6265 58.5315C70.4204 62.3667 69.4824 63.7967 69.0804 64.9018C68.6783 65.9418 68.2763 72.442 68.5443 75.6272C68.5443 75.6272 65.7972 76.0172 64.9932 74.7171C64.1891 73.4171 63.9211 66.7868 64.1221 64.7068C64.3231 62.5617 65.2612 55.8014 65.1272 53.7214C64.9932 51.6413 64.5241 49.9512 65.0602 47.8061C65.5292 45.7261 80.1359 41.0459 80.1359 41.0459L82.883 45.076Z" fill="#242993"/>
<path d="M65.0602 53.6563C64.9262 51.5762 64.4571 49.8861 64.9932 47.741C65.1942 46.961 67.3383 45.791 70.0184 44.6859C74.5076 44.2959 80.1359 43.8409 80.5379 43.9059C80.8729 43.9709 81.811 44.2959 82.548 44.6209L82.883 45.0759C82.883 45.0759 82.883 45.661 82.816 46.636C81.744 46.961 79.8009 46.636 79.8009 46.636C79.5329 47.286 77.7908 49.7561 75.6467 50.7962C73.5026 51.8362 67.1373 51.5112 66.8023 51.9012C66.4672 52.2912 66.4002 57.6214 66.4002 58.2714C66.4672 58.9215 65.7972 63.2116 65.1942 66.9167C64.5912 70.6219 65.5292 75.107 65.5292 75.237C65.3282 75.107 65.1272 74.977 64.9932 74.782C64.1891 73.482 63.9211 66.8517 64.1221 64.7717C64.2561 62.5616 65.1942 55.8013 65.0602 53.6563Z" fill="#162184"/>
<path d="M77.9918 13.4197C77.9918 13.4197 81.2079 14.1347 82.347 14.3947C82.548 14.4597 82.682 14.5897 82.749 14.7197C83.084 15.4998 83.8211 17.9049 83.2851 21.415C82.548 25.7051 82.816 28.6302 82.816 28.6302L84.2901 36.1705C84.2901 36.1705 86.1662 43.3858 86.0322 43.5808C85.8982 43.7758 81.677 46.8309 80.4039 46.4409C79.1308 45.9859 79.5329 45.2709 79.5329 45.2709C79.5329 45.2709 78.4608 50.4711 73.7706 50.4711C69.0804 50.406 65.2612 50.406 64.4572 48.586C63.6531 46.7659 64.6582 39.0306 65.5292 35.9755C66.3332 32.9204 68.3433 26.8102 68.3433 26.8102L61.375 19.4649L67.2043 15.1098C67.2043 15.1098 68.6114 12.5747 69.1474 12.2497C69.7504 11.9246 70.0184 12.1846 70.0184 12.1846L77.9918 13.4197Z" fill="#4553C7"/>
<path d="M80.2029 44.6858C80.2029 44.9459 80.3369 45.3359 81.208 45.5959C82.146 45.9209 84.3571 44.5558 85.8312 43.5808C85.0941 44.1658 81.543 46.7009 80.3369 46.3109C80.0689 46.2459 79.8679 46.1159 79.7339 46.0509C79.9349 45.5309 80.1359 45.0109 80.2029 44.6858Z" fill="url(#paint15_linear)"/>
<path d="M64.3902 47.9359C65.2612 49.886 69.2814 49.886 74.1727 49.886C75.4457 49.886 76.4508 49.561 77.2548 49.0409C76.3838 49.821 75.2447 50.406 73.6366 50.406C68.9464 50.341 65.1272 50.341 64.3232 48.5209C64.0552 47.9359 63.9882 46.7009 64.0552 45.2058C64.1222 46.3759 64.1892 47.4159 64.3902 47.9359Z" fill="url(#paint16_linear)"/>
<path d="M69.3483 12.1846C69.3483 12.1846 68.1423 13.6147 69.8844 15.4997C70.9564 16.6698 72.7655 19.2049 74.3066 21.805C75.2446 23.43 76.1826 24.275 76.6517 25.7051C76.6517 25.7051 76.7187 24.015 76.7857 21.4799C76.8527 19.0749 76.8527 16.5398 76.7857 15.8897C76.5177 14.5897 70.6214 11.5346 69.3483 12.1846Z" fill="#F0FFFF"/>
<path d="M73.7705 16.4098C73.7705 16.4098 74.3735 16.7998 74.5746 16.7348C74.7756 16.7348 75.4456 16.0848 75.4456 16.0848C75.4456 16.0848 77.1207 16.0848 77.3217 15.3698C77.5227 14.6548 77.6567 13.9397 77.7907 13.6147C77.9917 13.2247 78.6617 11.4696 78.7287 10.7546C78.7287 10.0396 78.7287 8.73954 78.9968 8.08952C79.2648 7.43949 79.7338 0.679247 73.0335 0.874255C66.3332 1.06926 68.4103 7.82951 68.4103 7.82951C68.4103 7.82951 67.9412 8.02451 68.2093 8.93455C68.4773 9.77958 68.5443 9.90958 68.7453 10.2996C68.8793 10.7546 68.9463 11.0146 69.4153 11.3396L69.5493 12.1197C69.5493 12.1197 69.2143 13.3547 70.0853 14.5248C70.8894 15.7598 73.7705 16.4098 73.7705 16.4098Z" fill="#FCE8EE"/>
<path d="M82.4809 14.4597C82.4809 14.4597 83.2179 14.5897 85.4961 20.2449C86.7691 23.43 88.7792 26.6802 89.2482 29.0203C89.6503 31.3603 89.4493 33.8954 88.9802 34.0904C88.5112 34.2854 80.1358 37.2756 77.5227 38.2506C77.3887 38.3156 77.1877 38.1856 77.1877 38.0556L76.4506 34.1554L81.6099 32.2054C81.6099 32.2054 82.6149 31.0353 83.553 30.5803C83.553 30.5803 82.4809 28.6952 82.5479 28.2402C82.6149 27.7202 82.4809 22.455 83.0839 20.3099C83.754 18.1649 82.4809 14.4597 82.4809 14.4597Z" fill="#242993"/>
<path d="M79.4658 29.4754C79.4658 29.4754 80.2028 29.0203 80.3369 28.9553C80.5379 28.8903 81.4759 28.5653 81.6769 28.5003C81.8109 28.4353 82.347 28.5003 82.615 28.5003C82.749 28.5003 82.816 28.5653 82.883 28.6303C83.084 29.0203 83.687 30.1904 83.62 30.6454C83.62 30.6454 81.8779 31.6854 81.6769 32.2055L81.4089 32.2705C81.4089 32.2055 80.2699 29.8004 79.4658 29.4754Z" fill="#FCE8EE"/>
<path d="M65.3952 35.9104C65.5962 35.1954 65.8642 34.2853 66.1322 33.3103L76.6517 37.6655C76.6517 37.6655 73.5026 41.4356 68.0083 41.1756C66.4672 41.1106 65.3952 40.5906 64.5911 40.1356C64.8591 38.5105 65.1272 36.9504 65.3952 35.9104Z" fill="#242993"/>
<path d="M61.375 19.4648C61.375 19.4648 64.1221 19.8549 66.4002 23.3C68.6113 26.7451 70.2864 30.7103 70.2864 30.7103L70.3534 31.1653C70.5544 32.3353 71.8275 32.9853 72.9665 32.5303C75.3116 31.4903 78.8628 29.9302 79.4658 29.4752C79.4658 29.4752 81.5429 30.5802 82.146 33.2453C82.615 35.3904 82.481 35.3904 82.481 35.3904C82.481 35.3904 73.1675 39.6156 69.5494 39.5506C65.9312 39.4856 61.375 27.9802 60.8389 25.6401C60.3029 23.235 59.7669 20.1149 61.375 19.4648Z" fill="#242993"/>
<path d="M61.375 19.4648C61.375 19.4648 64.1221 19.8549 66.4002 23.3C68.6113 26.7451 70.2864 30.7103 70.2864 30.7103L70.3534 31.1653C70.5544 32.3353 71.8275 32.9853 72.9665 32.5303C75.3116 31.4903 78.8628 29.9302 79.4658 29.4752C79.4658 29.4752 81.5429 30.5802 82.146 33.2453C82.615 35.3904 82.481 35.3904 82.481 35.3904C82.481 35.3904 73.1675 39.6156 69.5494 39.5506C65.9312 39.4856 61.375 27.9802 60.8389 25.6401C60.3029 23.235 59.7669 20.1149 61.375 19.4648Z" fill="#485DCE"/>
<path d="M71.5595 33.0504C71.5595 33.0504 70.3534 34.0904 69.8844 33.5054C69.3484 32.9204 69.5494 32.8554 69.5494 32.8554C69.5494 32.8554 68.4773 32.8554 68.3433 32.2053C68.2093 31.5553 67.6733 31.8803 67.6733 31.1653C67.6733 30.4503 68.5443 30.5803 68.5443 30.5803L71.5595 33.0504Z" fill="#4553C7"/>
<path d="M73.0335 32.4654C73.0335 32.4654 72.6985 32.2054 72.2964 31.8154C71.8944 31.4904 71.2244 30.0603 71.0904 29.9303C70.9564 29.8003 69.5493 28.7603 68.8793 28.7603C68.2093 28.7603 68.6783 29.4753 68.8793 29.6053C69.0133 29.7353 69.6833 30.0603 69.6833 30.0603C69.6833 30.0603 70.3533 30.6453 70.4203 30.7103C70.4874 30.7753 68.5443 30.5803 68.2093 30.7753C67.8742 30.9703 67.9412 31.4254 68.2093 31.5554C68.4103 31.6854 68.6113 31.6854 68.6113 31.6854C68.6113 31.6854 68.4102 32.2704 69.0133 32.5304C69.6163 32.7904 69.7503 32.6604 69.7503 32.6604C69.7503 32.6604 69.8173 33.6354 70.7554 33.4404L73.0335 32.4654Z" fill="#FCE8EE"/>
<path d="M79.1978 4.57941C79.1978 4.57941 80.0688 7.30951 77.7907 6.52948C75.5126 5.74945 73.3685 4.44941 72.6315 4.96942C72.0954 5.35944 72.0954 6.46448 72.1624 7.0495C72.1624 7.24451 72.0954 7.37451 72.0284 7.56952L71.3584 8.54456C71.2914 8.67456 71.2244 8.80456 71.2244 8.93457L71.1574 9.58459C71.1574 9.7796 71.0234 9.90961 70.8224 9.90961H70.6884C70.4874 9.90961 70.3533 9.7796 70.3533 9.6496L70.1523 8.67456C70.1523 8.67456 69.6163 7.37451 68.4773 7.89453C68.4773 7.89453 67.7402 6.9195 67.9412 4.77442C68.2092 2.62934 69.2143 0.419259 73.5025 0.0292449C77.8577 -0.425772 79.1978 4.57941 79.1978 4.57941Z" fill="#AA9AAC"/>
<path d="M72.5645 18.8151L73.2345 18.2951C73.2345 18.2951 73.8376 18.7501 74.0386 19.2702C74.2396 19.7902 74.0386 21.4152 74.0386 21.4152L74.2396 21.7403L74.5076 21.2852L74.7086 19.3352C74.7086 19.3352 74.5076 17.9051 74.4406 17.9051C74.4406 17.8401 73.1675 18.0351 73.1675 18.0351C73.1675 18.0351 72.8325 18.4251 72.5645 18.8151Z" fill="#C4E3FF"/>
<path d="M75.7137 16.8647C75.7137 16.8647 76.3837 16.9297 76.7187 17.1898C76.7187 17.1898 75.9817 17.2548 75.8477 17.2548C75.7137 17.2548 75.7137 16.8647 75.7137 16.8647Z" fill="#C4E3FF"/>
<path d="M74.3736 17.0598L73.2346 18.0999C73.2346 18.0999 74.2396 18.5549 74.5746 19.4649C74.5746 19.4649 75.8477 19.7249 75.9817 19.2699C76.1157 18.8149 75.9817 17.7099 76.1157 17.1898C76.2497 16.6698 74.3736 17.0598 74.3736 17.0598Z" fill="#242993"/>
<path d="M75.8476 19.2049C75.8476 19.2049 76.0486 20.1149 76.3166 20.5049C76.5846 20.8949 76.7856 21.285 76.7856 21.285V26.6802C76.7856 26.6802 74.7085 22.585 74.3065 21.74C74.3065 21.74 74.3735 19.7899 74.5745 19.3999C74.7086 19.0749 75.8476 19.2049 75.8476 19.2049Z" fill="#242993"/>
<path d="M70.3534 11.2095C71.6934 14.9796 75.5126 16.0847 75.5126 16.0847C75.5126 16.0847 74.8426 16.7347 74.6416 16.7347C74.4406 16.7347 73.8376 16.4097 73.8376 16.4097C73.8376 16.4097 70.9564 15.7596 70.0854 14.5246C69.2813 13.3546 69.5494 12.1195 69.5494 12.1195L69.4153 11.3395C70.0184 11.5345 70.3534 11.2095 70.3534 11.2095Z" fill="#E2C8CF"/>
<path d="M67.2712 15.6296C67.2712 15.6296 67.8073 17.3847 67.8743 17.4497C67.9413 17.5147 69.2143 17.3847 69.2143 17.3847L68.6113 18.4897C68.6113 18.4897 74.9766 25.12 76.3167 28.6951C76.3167 28.6951 73.3015 24.145 68.0083 18.7498L68.7453 17.6447L67.4723 17.9047L67.2712 15.6296Z" fill="#242993"/>
<path d="M77.7908 14.0698L78.1258 14.4598L77.7238 14.8499L78.9298 15.8899C78.9298 15.8899 79.2648 23.1702 77.8578 27.9803C77.8578 27.9803 79.8009 23.5602 79.3988 15.6949L78.1258 14.8499L78.5278 14.4598L77.7908 14.0698Z" fill="#242993"/>
<path d="M73.7705 54.1761C73.7705 54.1761 73.7035 54.1761 73.7705 54.1761L75.3786 52.4861C74.6416 53.5261 75.5126 58.3363 75.5796 59.4413C75.6466 60.5464 74.7086 62.8215 74.3066 65.4216C73.9715 68.0867 74.7086 71.8568 74.7086 71.8568C74.2396 71.5968 73.8375 71.1418 73.7035 70.4917C73.1675 68.0217 73.3685 63.4065 73.9715 61.4564C74.5746 59.5063 73.7705 54.1761 73.7705 54.1761Z" fill="#162184"/>
<path d="M69.5494 39.5508C65.9312 39.4858 61.375 27.9804 60.839 25.6403C60.7719 25.2503 60.6379 24.7953 60.5709 24.4053C60.5709 24.4703 61.509 26.9404 62.447 29.1504C63.3851 31.3605 68.1423 38.0558 70.6214 38.5108C72.8325 38.9008 80.8059 35.2607 82.347 34.5456C82.481 35.3257 82.414 35.3907 82.414 35.3907C82.414 35.3907 73.1005 39.5508 69.5494 39.5508Z" fill="url(#paint17_linear)"/>
<path d="M70.6884 9.84454C70.4874 9.84454 70.3534 9.71453 70.3534 9.58453L70.1524 8.60949C70.1524 8.60949 69.6164 7.30944 68.4773 7.82946C68.4773 7.82946 67.7403 6.85443 67.9413 4.83936C69.2144 6.72442 72.0285 7.56945 72.0285 7.56945L71.3585 8.54449C71.2915 8.67449 71.2245 8.8045 71.2245 8.9345L71.1575 9.58453C71.1575 9.77953 71.0234 9.90954 70.8224 9.90954L70.6884 9.84454Z" fill="#938496"/>
<defs>
<linearGradient id="paint0_linear" x1="115.705" y1="18.0051" x2="125.307" y2="35.1464" gradientUnits="userSpaceOnUse">
<stop stop-color="#C0D6FF"/>
<stop offset="0.4983" stop-color="#D2E8FF"/>
<stop offset="1" stop-color="#E9FFFF"/>
</linearGradient>
<linearGradient id="paint1_linear" x1="125.814" y1="67.8533" x2="145.915" y2="67.8533" gradientUnits="userSpaceOnUse">
<stop stop-color="#C0D6FF"/>
<stop offset="0.2978" stop-color="#C5DBFF"/>
<stop offset="0.6488" stop-color="#D3E9FF"/>
<stop offset="1" stop-color="#E9FFFF"/>
</linearGradient>
<linearGradient id="paint2_linear" x1="92.3374" y1="49.1022" x2="122.535" y2="49.1022" gradientUnits="userSpaceOnUse">
<stop stop-color="#5778FF"/>
<stop offset="0.1779" stop-color="#5C7DFF"/>
<stop offset="0.3876" stop-color="#6A8AFF"/>
<stop offset="0.6134" stop-color="#82A0FF"/>
<stop offset="0.849" stop-color="#A3BEFF"/>
<stop offset="1" stop-color="#BCD5FF"/>
</linearGradient>
<linearGradient id="paint3_linear" x1="89.3138" y1="51.9342" x2="98.9156" y2="69.0754" gradientUnits="userSpaceOnUse">
<stop stop-color="#C0D6FF"/>
<stop offset="0.4983" stop-color="#D2E8FF"/>
<stop offset="1" stop-color="#E9FFFF"/>
</linearGradient>
<linearGradient id="paint4_linear" x1="99.4227" y1="92.2245" x2="119.524" y2="92.2245" gradientUnits="userSpaceOnUse">
<stop stop-color="#C0D6FF"/>
<stop offset="0.2978" stop-color="#C5DBFF"/>
<stop offset="0.6488" stop-color="#D3E9FF"/>
<stop offset="1" stop-color="#E9FFFF"/>
</linearGradient>
<linearGradient id="paint5_linear" x1="65.9461" y1="73.4734" x2="96.1433" y2="73.4734" gradientUnits="userSpaceOnUse">
<stop stop-color="#5778FF"/>
<stop offset="0.1779" stop-color="#5C7DFF"/>
<stop offset="0.3876" stop-color="#6A8AFF"/>
<stop offset="0.6134" stop-color="#82A0FF"/>
<stop offset="0.849" stop-color="#A3BEFF"/>
<stop offset="1" stop-color="#BCD5FF"/>
</linearGradient>
<linearGradient id="paint6_linear" x1="62.9231" y1="72.4069" x2="72.5249" y2="89.5482" gradientUnits="userSpaceOnUse">
<stop stop-color="#C0D6FF"/>
<stop offset="0.4983" stop-color="#D2E8FF"/>
<stop offset="1" stop-color="#E9FFFF"/>
</linearGradient>
<linearGradient id="paint7_linear" x1="73.032" y1="109.868" x2="93.1333" y2="109.868" gradientUnits="userSpaceOnUse">
<stop stop-color="#C0D6FF"/>
<stop offset="0.2978" stop-color="#C5DBFF"/>
<stop offset="0.6488" stop-color="#D3E9FF"/>
<stop offset="1" stop-color="#E9FFFF"/>
</linearGradient>
<linearGradient id="paint8_linear" x1="39.5555" y1="91.1166" x2="69.7525" y2="91.1166" gradientUnits="userSpaceOnUse">
<stop stop-color="#5778FF"/>
<stop offset="0.1779" stop-color="#5C7DFF"/>
<stop offset="0.3876" stop-color="#6A8AFF"/>
<stop offset="0.6134" stop-color="#82A0FF"/>
<stop offset="0.849" stop-color="#A3BEFF"/>
<stop offset="1" stop-color="#BCD5FF"/>
</linearGradient>
<linearGradient id="paint9_linear" x1="36.532" y1="105.524" x2="46.1339" y2="122.665" gradientUnits="userSpaceOnUse">
<stop stop-color="#C0D6FF"/>
<stop offset="0.4983" stop-color="#D2E8FF"/>
<stop offset="1" stop-color="#E9FFFF"/>
</linearGradient>
<linearGradient id="paint10_linear" x1="46.641" y1="133.833" x2="66.7423" y2="133.833" gradientUnits="userSpaceOnUse">
<stop stop-color="#C0D6FF"/>
<stop offset="0.2978" stop-color="#C5DBFF"/>
<stop offset="0.6488" stop-color="#D3E9FF"/>
<stop offset="1" stop-color="#E9FFFF"/>
</linearGradient>
<linearGradient id="paint11_linear" x1="13.1644" y1="115.082" x2="43.3616" y2="115.082" gradientUnits="userSpaceOnUse">
<stop stop-color="#5778FF"/>
<stop offset="0.1779" stop-color="#5C7DFF"/>
<stop offset="0.3876" stop-color="#6A8AFF"/>
<stop offset="0.6134" stop-color="#82A0FF"/>
<stop offset="0.849" stop-color="#A3BEFF"/>
<stop offset="1" stop-color="#BCD5FF"/>
</linearGradient>
<linearGradient id="paint12_linear" x1="10.1411" y1="115.94" x2="19.7429" y2="133.081" gradientUnits="userSpaceOnUse">
<stop stop-color="#C0D6FF"/>
<stop offset="0.4983" stop-color="#D2E8FF"/>
<stop offset="1" stop-color="#E9FFFF"/>
</linearGradient>
<linearGradient id="paint13_linear" x1="20.25" y1="146.448" x2="40.3513" y2="146.448" gradientUnits="userSpaceOnUse">
<stop stop-color="#C0D6FF"/>
<stop offset="0.2978" stop-color="#C5DBFF"/>
<stop offset="0.6488" stop-color="#D3E9FF"/>
<stop offset="1" stop-color="#E9FFFF"/>
</linearGradient>
<linearGradient id="paint14_linear" x1="-13.2265" y1="127.697" x2="16.9705" y2="127.697" gradientUnits="userSpaceOnUse">
<stop stop-color="#5778FF"/>
<stop offset="0.1779" stop-color="#5C7DFF"/>
<stop offset="0.3876" stop-color="#6A8AFF"/>
<stop offset="0.6134" stop-color="#82A0FF"/>
<stop offset="0.849" stop-color="#A3BEFF"/>
<stop offset="1" stop-color="#BCD5FF"/>
</linearGradient>
<linearGradient id="paint15_linear" x1="85.8642" y1="44.8827" x2="79.6481" y2="45.2544" gradientUnits="userSpaceOnUse">
<stop stop-color="#5778FF"/>
<stop offset="0.0725764" stop-color="#5489FF"/>
<stop offset="0.2791" stop-color="#4EB3FF"/>
<stop offset="0.4801" stop-color="#49D4FF"/>
<stop offset="0.6715" stop-color="#45ECFF"/>
<stop offset="0.8493" stop-color="#43FAFF"/>
<stop offset="1" stop-color="#42FFFF"/>
</linearGradient>
<linearGradient id="paint16_linear" x1="77.1915" y1="47.333" x2="64.1868" y2="48.1105" gradientUnits="userSpaceOnUse">
<stop stop-color="#5778FF"/>
<stop offset="0.0725764" stop-color="#5489FF"/>
<stop offset="0.2791" stop-color="#4EB3FF"/>
<stop offset="0.4801" stop-color="#49D4FF"/>
<stop offset="0.6715" stop-color="#45ECFF"/>
<stop offset="0.8493" stop-color="#43FAFF"/>
<stop offset="1" stop-color="#42FFFF"/>
</linearGradient>
<linearGradient id="paint17_linear" x1="82.2122" y1="30.9971" x2="61.0613" y2="32.2616" gradientUnits="userSpaceOnUse">
<stop stop-color="#5778FF"/>
<stop offset="0.0725764" stop-color="#5489FF"/>
<stop offset="0.2791" stop-color="#4EB3FF"/>
<stop offset="0.4801" stop-color="#49D4FF"/>
<stop offset="0.6715" stop-color="#45ECFF"/>
<stop offset="0.8493" stop-color="#43FAFF"/>
<stop offset="1" stop-color="#42FFFF"/>
</linearGradient>
</defs>
</svg>
