<svg width="187" height="161" viewBox="0 0 187 161" fill="none" xmlns="http://www.w3.org/2000/svg">
<path opacity="0.5" d="M93.5 160.293C145.139 160.293 187 136.274 187 106.646C187 77.0183 145.139 53 93.5 53C41.8614 53 0 77.0183 0 106.646C0 136.274 41.8614 160.293 93.5 160.293Z" fill="url(#paint0_radial)"/>
<path d="M113.82 93.7517C113.82 93.7517 113.338 95.2048 113.338 95.6199C113.407 95.9659 114.37 97.3498 114.439 97.419C114.507 97.4882 115.401 98.5953 116.364 99.0796C117.327 99.6332 117.396 99.8408 117.465 99.91C117.533 99.91 117.671 99.8408 117.671 99.8408C117.671 99.8408 117.809 98.8029 117.396 98.3185C116.983 97.8341 117.602 97.073 117.602 97.073L116.502 94.2361L113.82 93.7517Z" fill="#FCD1C5"/>
<path d="M124.342 125.511C124.342 125.511 122.623 125.927 120.972 125.996C119.322 126.065 114.782 126.895 114.92 128.556C114.989 130.217 117.327 132.5 120.216 132.915C123.173 133.261 126.956 132.431 128.813 132.5C130.739 132.569 132.045 130.701 131.358 128.833C130.67 126.965 124.342 125.511 124.342 125.511Z" fill="#160A5B"/>
<path d="M134.315 121.152C134.315 121.152 134.934 122.121 134.59 122.744C134.246 123.366 133.421 124.819 130.739 123.366C128.125 121.913 122.967 119.838 122.967 119.838C122.967 119.838 120.01 118.315 120.216 116.447C120.422 114.648 123.173 114.925 123.173 114.925L134.315 121.152Z" fill="#160A5B"/>
<path d="M104.81 55.9025C104.81 55.9025 103.09 55.9025 102.265 55.5565C101.508 55.2105 99.2388 54.4494 99.1013 54.3802C98.9637 54.311 97.7257 54.2418 97.1755 53.8267C97.1755 53.8267 96.5565 54.1034 97.0379 54.657C97.5194 55.1413 98.4823 55.3489 98.4823 55.3489L99.3764 55.9025C99.3764 55.9025 97.5882 56.802 97.4506 56.8712C97.313 56.9404 95.7999 58.1167 95.6624 58.1859C95.5248 58.2551 94.8371 58.8086 95.1122 59.2238C95.1122 59.2238 95.1122 59.3622 95.456 59.4314C95.456 59.4314 94.4932 59.8465 94.6995 60.3309C94.9058 60.8152 95.5248 60.6076 95.5248 60.6076C95.5248 60.6076 95.7312 61.438 96.9004 60.8152C96.9004 60.8152 97.0379 61.8531 99.5827 60.746C99.5827 60.746 100.614 60.4693 101.371 60.5385C102.127 60.6076 104.191 60.0541 105.291 59.293C106.529 58.5318 104.81 55.9025 104.81 55.9025Z" fill="#FCD1C5"/>
<path d="M101.44 60.5388C102.196 60.608 104.26 60.0544 105.36 59.2933C106.117 58.7397 105.566 57.425 105.154 56.5947C104.603 56.3179 104.191 56.1104 104.191 56.1104C104.191 56.1104 104.26 58.6705 104.191 59.0857C104.122 59.5008 101.852 59.916 100.339 60.1236C98.8949 60.3312 96.9004 60.8847 96.9004 60.8847C97.0379 61.0923 97.5194 61.6459 99.5827 60.7463C99.6515 60.8155 100.683 60.5388 101.44 60.5388Z" fill="#E2B1A6"/>
<path d="M125.03 50.9207C125.03 50.9207 121.385 51.5434 120.147 51.9586C118.978 52.3737 108.524 54.4495 104.672 55.3491C104.466 55.4183 104.259 55.6258 104.191 55.8334C104.122 56.041 104.122 56.2486 104.191 56.4562C104.328 56.8713 104.672 61.2305 106.804 60.5386C107.423 60.331 109.28 59.9159 110.793 59.7083C112.306 59.5007 118.634 59.0163 118.634 59.0163L129.432 52.7889L125.03 50.9207Z" fill="#4846A5"/>
<path d="M117.258 95.1356C117.258 95.1356 118.221 107.106 120.56 111.604C122.967 116.171 123.517 124.474 123.999 126.065C124.48 127.657 126.062 129.94 128.538 130.424C131.014 130.909 131.495 129.248 131.358 128.279C131.289 127.311 130.601 125.65 130.601 124.612C130.601 123.505 130.876 123.021 130.945 122.536C130.945 122.536 133.834 123.367 134.315 121.222C134.315 121.222 134.109 120.599 134.04 120.253C134.04 119.907 134.453 112.019 134.59 111.05C134.659 110.081 134.246 104.892 133.49 102.332C132.733 99.7716 133.146 94.3053 133.146 94.3053L124.893 93.0598L117.258 95.1356Z" fill="#24126A"/>
<path d="M130.67 95.1356C130.67 95.1356 130.601 97.0038 129.776 98.5953C129.776 98.5953 129.638 104.961 128.951 108.144C128.951 108.144 129.913 114.579 130.532 116.586C131.151 118.592 131.014 122.536 131.014 122.536C131.014 122.536 131.358 122.675 131.839 122.675C132.321 122.675 132.527 114.925 131.839 113.541C131.151 112.157 130.739 106.068 131.014 104.2C131.358 102.332 131.358 97.0038 131.702 96.0351C132.114 95.0664 131.289 94.582 131.289 94.582L130.67 95.1356Z" fill="#160A5B"/>
<path d="M124.48 51.0591C124.48 51.0591 122.004 52.7889 122.073 55.8334L123.93 55.4875C123.93 55.4875 123.448 52.097 124.48 51.0591Z" fill="#160A5B"/>
<path d="M124.618 97.6958C130.12 97.9034 133.146 95.5508 133.146 95.5508C133.146 94.7897 133.215 94.3053 133.215 94.3053L124.961 93.0598L117.327 95.0665C117.327 95.0665 117.534 97.419 117.946 100.464C119.322 100.602 120.697 97.3498 120.697 97.3498L124.48 97.6266C124.342 97.6958 119.115 97.4882 124.618 97.6958Z" fill="#160A5B"/>
<path d="M118.29 95.2739C118.29 95.2739 130.188 100.187 136.103 91.1223C136.241 90.8455 136.378 90.5687 136.378 90.2227V88.0777C136.378 87.801 136.447 87.5242 136.516 87.3166C136.722 86.7631 136.791 86.2095 136.654 85.5868C136.241 83.165 135.209 76.6608 134.934 74.8617C134.659 72.6475 136.035 63.7215 138.098 59.9159C140.161 56.1102 135.278 47.3918 135.278 47.3918C135.278 47.3918 134.04 45.316 131.633 46.0079C131.633 46.0079 133.971 47.6686 132.596 49.3984C131.289 51.1282 127.369 52.4429 127.369 52.4429C127.369 52.4429 120.216 56.041 117.671 60.4694C117.671 60.4694 116.777 62.7528 116.708 65.7281C116.571 68.7035 116.777 75.7612 116.639 76.73C116.502 77.6987 116.02 84.4105 116.089 84.6872C116.158 84.964 118.29 95.2739 118.29 95.2739Z" fill="#453C9E"/>
<path d="M121.935 96.3118C121.935 96.3118 129.363 77.5603 129.157 70.6409C128.95 63.8599 118.565 84.1337 118.565 84.1337L118.359 95.2739C118.29 95.2739 120.56 96.1734 121.935 96.3118Z" fill="#24126A"/>
<path d="M118.496 73.9621C118.771 72.4399 118.978 70.8484 118.978 69.2569C119.047 66.5584 119.872 61.9916 124.824 62.8911C131.77 64.0674 128.607 73.7545 127.85 75.4844C127.025 77.145 123.861 84.7564 123.723 85.1715C123.586 85.5867 118.634 94.997 116.846 97.2112C116.708 97.4188 116.433 97.4188 116.227 97.2804C115.539 96.7269 114.026 95.2738 113.82 94.4435C113.544 93.3364 114.645 89.2539 114.645 89.2539C114.645 89.2539 117.534 79.0133 117.74 78.5289C117.877 78.1829 118.015 76.5223 118.496 73.9621Z" fill="#4846A5"/>
<path d="M124.618 51.2667C124.618 51.2667 124.067 49.952 122.761 49.8136C121.454 49.6752 120.766 49.2601 120.629 48.7757C120.491 48.2914 120.491 47.7378 120.216 46.9767C119.941 46.2847 119.666 44.4857 119.666 44.4857C119.666 44.4165 118.703 44.1397 118.634 43.7246C118.565 43.3094 119.116 41.718 119.047 41.6488C118.978 41.5104 118.497 40.5417 118.565 39.8497C118.634 39.0886 118.772 38.0507 119.184 37.1512C119.597 36.2516 122.417 30.7853 129.57 33.7607C136.722 36.8052 131.083 42.7559 131.771 46.6999C131.771 46.6999 132.39 47.5302 131.22 48.9141C130.051 50.2288 126.612 50.5056 124.618 51.2667Z" fill="#FCD1C5"/>
<path d="M131.22 48.8447C132.389 47.4609 131.77 46.6305 131.77 46.6305C131.702 46.077 131.702 45.5234 131.839 44.9007L129.019 45.385C129.019 45.385 124.893 41.5794 125.168 43.586C125.443 45.5926 124.411 45.9386 124.411 45.9386L125.237 47.0457C125.443 47.3225 125.305 47.6684 125.099 47.9452C123.861 49.9518 120.972 49.3291 120.972 49.3291C121.316 49.5367 121.935 49.7442 122.761 49.8826C124.067 50.021 124.618 51.3357 124.618 51.3357C126.612 50.5054 130.051 50.2286 131.22 48.8447Z" fill="#E2B1A6"/>
<path d="M118.978 35.0061C118.978 35.0061 118.428 36.4592 119.253 37.082C120.078 37.7047 120.766 38.3274 120.766 38.3274L120.697 40.1957C120.697 40.4724 120.766 40.7492 120.904 40.9568L121.866 42.5483C122.073 42.825 122.142 43.2402 122.142 43.5862V44.3473C122.142 44.5549 122.279 44.7625 122.485 44.7625L122.761 44.8317C122.967 44.8317 123.242 44.6933 123.242 44.4165L123.379 43.3786C123.379 43.3786 123.93 42.5483 125.099 43.5862L126.131 44.0705C126.406 44.2089 126.681 44.4165 126.75 44.7625C127.025 45.5928 127.644 47.1842 128.125 47.461C128.744 47.807 131.22 46.6307 131.564 46.008C131.908 45.4544 132.802 41.7179 133.352 39.9189C133.902 38.1199 133.696 33.6915 128.4 32.446C123.173 31.2005 119.734 33.3455 118.978 35.0061Z" fill="#AA8383"/>
<path d="M131.633 46.0078C131.977 45.4543 132.871 41.7178 133.421 39.9188C133.421 39.9188 131.358 41.2334 128.675 41.6486C125.993 41.9946 120.766 38.8809 120.766 38.8809V40.2647C120.766 40.5415 120.835 40.8183 120.972 41.0259L121.935 42.6173C122.142 42.8941 122.21 43.3093 122.21 43.6552V44.4164C122.21 44.6239 122.348 44.8315 122.554 44.8315L122.829 44.9007C123.036 44.9007 123.311 44.7623 123.311 44.4856L123.448 43.4477C123.448 43.4477 123.999 42.6173 125.168 43.6552L126.681 44.278C126.681 44.278 127.575 47.1149 128.194 47.4609C128.813 47.8069 131.289 46.5614 131.633 46.0078Z" fill="#936D6D"/>
<path d="M131.77 46.2153C131.77 46.2153 133.834 47.53 132.733 49.3291C131.633 51.1281 124.136 54.2418 123.723 54.7262C123.723 54.7262 123.448 52.0276 124.48 51.1281C124.48 51.1281 130.257 50.0902 131.151 48.6371C132.114 47.1149 131.77 46.2153 131.77 46.2153Z" fill="#F0F6FF"/>
<path d="M131.77 46.2153C131.77 46.2153 132.114 47.184 131.151 48.6371C130.464 49.7442 127.025 50.5745 125.374 50.9205C125.374 50.9205 125.993 51.2665 126.956 52.9963C129.294 51.82 132.114 50.367 132.733 49.3291C133.765 47.4608 131.77 46.2153 131.77 46.2153Z" fill="#C4CCD6"/>
<path d="M127.919 64.5518C129.707 70.4332 124.686 79.4976 123.999 82.127C123.242 84.7563 115.677 96.9344 115.677 96.9344C115.883 97.142 116.089 97.2804 116.227 97.4188C116.433 97.5572 116.708 97.5572 116.846 97.3496C118.565 95.1354 123.586 85.6559 123.723 85.3099C123.861 84.8947 127.094 77.2834 127.85 75.6228C128.469 74.1697 130.67 67.6655 127.919 64.5518Z" fill="#24126A"/>
<path d="M133.008 51.9587C133.008 51.9587 129.638 53.827 127.988 54.6573C126.337 55.4876 124.549 56.5947 124.549 56.5947L123.93 55.972L123.173 57.6326C123.173 57.6326 120.56 59.1549 119.39 60.4004C118.152 61.6459 117.258 63.3065 117.121 63.7217C117.121 63.7217 120.353 59.6393 122.898 58.3938L123.586 58.0478L123.999 56.7331L124.618 57.4251C124.618 57.3559 131.977 53.0658 133.008 51.9587Z" fill="#24126A"/>
<path d="M79.0872 52.3738C79.0872 52.3738 80.3252 52.5814 80.8066 52.3738C81.2881 52.1662 82.4573 51.9586 83.8328 52.5122C85.2084 52.9965 85.1396 52.9273 85.621 52.9965C86.1712 53.0657 87.0654 53.1349 87.3405 53.2733C87.6156 53.4809 88.1658 53.8269 87.6843 54.5188C87.2029 55.2799 85.2771 54.588 84.9333 54.5188C84.5894 54.4496 84.3143 55.0032 84.4518 55.4875C84.5894 55.9719 87.478 59.1548 87.9594 59.5008C88.4409 59.8467 90.3667 61.0922 90.4354 61.6458C90.5042 62.1301 90.4354 62.2685 90.4354 62.2685C90.4354 62.2685 90.9856 62.7529 90.7793 63.2372C90.573 63.7216 89.6789 62.9604 89.5413 63.0988C89.5413 63.0988 89.6789 63.6524 89.4726 63.7216C89.2662 63.7908 88.0282 63.3064 87.8219 63.168C87.8219 63.168 87.6843 63.5832 86.9278 63.168C86.24 62.7529 83.4202 61.1614 83.1451 60.8846C82.8012 60.6079 81.7695 59.5699 81.2881 59.2932C80.8066 59.0164 80.0501 58.1169 79.7062 57.7709C79.2935 57.4249 77.6429 56.5254 76.9551 56.387C76.3361 56.1795 79.0872 52.3738 79.0872 52.3738Z" fill="#FCD1C5"/>
<path d="M81.2881 58.1169C80.6691 56.9406 78.537 56.0411 78.537 56.0411C78.6745 55.0723 80.0501 52.443 80.0501 52.443C79.5686 52.443 79.0872 52.3738 79.0872 52.3738C79.0872 52.3738 76.3361 56.1794 76.9551 56.3178C77.6429 56.4562 79.2935 57.2865 79.7062 57.7017C80.1189 58.0477 80.8754 59.0164 81.2881 59.224C81.7695 59.5007 82.8012 60.5386 83.1451 60.8154C83.4889 61.0922 86.24 62.6837 86.9278 63.0988C87.6156 63.514 87.8219 63.0988 87.8219 63.0988C87.9595 63.2372 89.2662 63.7216 89.4726 63.6524C89.6789 63.5832 89.5413 63.0296 89.5413 63.0296C89.5413 63.0296 88.6472 62.5453 87.7531 62.1993C86.859 61.8533 81.9071 59.2932 81.2881 58.1169Z" fill="#E2B1A6"/>
<path d="M77.0239 48.1531C77.0239 48.1531 77.299 49.6062 77.2302 50.7133C77.1615 51.8895 74.823 50.3673 74.8918 50.1597C74.9606 49.9521 75.9922 48.2223 75.9922 48.2223L77.0239 48.1531Z" fill="#FCD1C5"/>
<path d="M66.9136 13.2101C66.9136 13.2101 68.2203 13.141 69.7334 15.7011C71.2465 18.1921 73.8601 27.0489 75.2356 30.5086C75.3732 30.7854 75.4419 31.1313 75.5107 31.4773C75.9922 34.1067 78.0555 46.6307 78.193 48.153C78.193 48.153 76.6111 49.2601 75.5795 49.4677L73.3099 48.7066L71.0402 26.011L67.395 14.0405L66.9136 13.2101Z" fill="#24126A"/>
<path d="M59.692 87.8011C59.692 87.8011 59.2793 89.8769 59.4856 90.2921C59.692 90.7073 62.443 93.7518 62.7182 94.1669C62.9933 94.5821 64.3688 97.0731 66.9823 97.6958C69.5271 98.3186 71.3153 98.1802 71.6592 96.9347C72.0031 95.6892 70.49 93.6826 69.8022 93.0598C69.1144 92.4371 66.157 88.9082 65.6068 88.3547C65.0566 87.8703 64.3 87.7319 64.3 87.7319L60.93 88.2855L59.692 87.8011Z" fill="#160A5B"/>
<path d="M70.0774 81.5735C70.0774 81.5735 72.6221 82.5422 73.9977 82.8882C75.3732 83.2341 78.537 85.6559 78.4682 86.8322C78.3994 88.0085 76.8863 88.908 75.2357 88.7696C73.6538 88.6312 71.728 87.5933 71.4529 87.3166C71.1778 87.0398 70.0774 86.417 68.7706 86.0019C67.4638 85.5867 65.3317 85.3791 64.9879 84.6872C64.644 83.9953 64.5752 82.5422 64.5752 82.5422L70.0774 81.5735Z" fill="#160A5B"/>
<path d="M64.3001 81.0894C64.3001 80.951 64.4376 80.7434 64.4376 80.6742C64.5752 80.0515 64.4376 77.4221 64.4376 77.4221L63.8874 78.1833C63.8874 78.1833 64.3001 80.8126 65.0566 84.8259C65.263 85.8638 65.8132 86.9017 65.882 87.5244C66.0883 89.2543 65.0566 89.6002 65.0566 89.6002C62.9933 91.1917 61.2051 90.223 60.5861 89.7386C59.9671 89.2543 59.7608 88.4239 58.8667 85.5178C57.9726 82.6117 57.216 76.4534 57.4224 75.0004C57.5599 73.6857 58.0414 70.0876 58.0414 67.6658C58.0414 65.1748 56.1156 57.3559 56.1156 57.3559L63.8874 55.8337L69.1833 53.0659L73.2411 53.6887C73.2411 53.6887 73.7225 51.9588 74.2728 57.3559C74.823 62.753 71.5217 72.371 71.5217 72.371C70.6276 77.1454 70.4212 82.6117 69.9398 83.3728C69.4584 84.1339 67.5326 85.8638 65.7444 84.4799C65.4005 84.2031 65.0566 83.9955 64.8503 83.7188L64.3001 81.0894Z" fill="#24126A"/>
<path d="M63.8186 78.2525C63.8186 78.2525 66.3634 71.2639 67.6013 64.4829C68.7706 57.8403 70.8339 56.8716 71.728 55.6953C71.728 55.6953 73.0347 56.3181 73.7225 56.3873C73.7913 56.3873 73.8601 56.3873 73.9288 56.3873C74.4791 56.3873 71.0402 60.6773 70.49 61.7844C69.871 62.8915 66.3634 72.3018 66.0883 73.6165C65.8131 74.9312 65.6068 84.0648 65.8819 84.5491C66.157 85.1027 64.919 84.134 64.919 84.134C64.919 84.134 64.0249 82.1273 63.8186 78.2525Z" fill="#160A5B"/>
<path d="M70.49 53.2735L69.1145 53.0659L63.8186 55.8337L56.0468 57.3559C56.0468 57.3559 57.9038 65.244 57.9726 67.6658C57.9726 70.1568 57.5599 73.7549 57.3536 75.0004C57.1472 76.4534 57.9038 82.6117 58.7979 85.5178C59.2106 86.7633 59.4169 87.6628 59.692 88.2856C60.0359 89.9462 61.2739 90.223 61.2739 90.223C61.2739 90.223 58.2477 80.7434 58.5228 75.2079C58.7979 69.7416 59.5544 65.1748 59.4169 64.1369C59.4169 64.1369 68.2891 61.3692 69.9398 55.6261C70.1461 54.6574 70.3525 53.8962 70.49 53.2735Z" fill="#160A5B"/>
<path d="M55.1527 14.3865C55.1527 14.3865 54.5337 14.94 54.3961 15.4936C54.2586 16.0471 53.502 17.9846 53.502 17.9846C53.502 17.9846 49.7881 22.8973 49.1691 24.4196C48.4813 25.9418 48.275 27.0489 48.275 27.0489L58.0413 39.1579C58.0413 39.1579 54.6025 51.0592 55.5653 55.4184C56.5282 59.7776 57.7662 61.4383 59.3481 61.9226C60.8612 62.407 69.1144 59.0165 69.7334 54.6573C70.2836 50.3673 70.0773 49.8137 70.0773 49.8137C70.0773 49.8137 73.9288 50.8516 74.1352 49.8829C74.3415 48.9142 73.6537 41.7872 73.4474 40.8185C73.2411 39.7806 72.6909 28.6404 72.6909 28.6404C72.6909 28.6404 70.3524 18.3305 70.2149 17.777C70.0773 17.2926 68.633 13.4178 66.776 13.141C64.919 12.9334 62.5806 15.9087 62.5806 15.9087L55.1527 14.3865Z" fill="#453C9E"/>
<path d="M55.5654 14.0405C55.5654 14.0405 55.1528 14.3173 55.084 14.7325C55.0152 15.1476 54.6713 15.9779 55.3591 16.8775C56.0469 17.777 61.6866 22.413 63.9562 26.2878C66.2947 30.2319 69.1145 34.5911 69.3896 35.4906C69.3896 35.4906 70.4213 29.2632 69.4584 26.4262C68.4955 23.5893 65.5381 17.777 64.9191 17.3618C64.3001 16.9467 60.3798 16.5315 60.3798 16.5315L55.5654 14.0405Z" fill="#F0F6FF"/>
<path d="M61.4114 20.268C61.4114 20.268 61.1363 20.7523 60.9988 21.1675C60.9988 21.1675 59.3481 20.3372 58.6603 19.9912L61.2051 21.7211C61.2051 21.7211 61.3426 20.8215 61.4802 20.6831C61.4802 20.6831 62.9245 21.7903 63.1309 22.2746C63.3372 22.759 66.0195 29.4708 66.0195 29.4708L67.395 31.7542L67.7389 31.2006L65.4693 24.9732C65.4693 24.9732 64.1625 23.0357 64.1625 22.9665C64.1625 22.8974 63.2684 20.8215 63.2684 20.8215L61.4114 20.268Z" fill="#C4CCD6"/>
<path d="M61.4114 20.2681C61.4114 20.2681 62.2368 18.6767 63.8874 18.7458C63.8874 18.7458 64.3689 20.6833 64.5064 21.4444C64.5064 21.4444 63.4747 21.9288 63.0621 21.5136C62.5806 21.2368 61.4114 20.2681 61.4114 20.2681Z" fill="#160A5B"/>
<path d="M64.2313 21.0984C64.2313 21.0984 68.3579 26.2187 69.8022 32.4461L69.5271 35.6291L67.3263 31.685C67.3263 31.685 63.7498 22.6898 62.9245 21.0292C62.0992 19.4377 64.2313 21.0984 64.2313 21.0984Z" fill="#160A5B"/>
<path d="M57.3536 41.718C57.0785 42.8251 56.7346 44.209 56.4595 45.6621C56.4595 45.6621 62.5806 53.7577 68.633 57.0098C69.1832 56.2487 69.5959 55.4184 69.7335 54.5881C70.0086 52.3047 70.0773 51.1284 70.1461 50.4364L63.1996 45.1085L57.3536 41.718Z" fill="#24126A"/>
<path d="M56.9409 29.886C56.9409 29.886 58.7291 32.3078 59.2106 32.5154C59.692 32.7229 63.5435 39.5039 64.3001 40.8186C65.0566 42.1333 67.1199 43.8631 67.1199 43.8631L65.1942 44.0707L57.5599 33.7608L56.9409 29.886Z" fill="#24126A"/>
<path d="M57.9726 32.031C57.216 30.0936 55.9781 28.3637 54.465 27.049C52.6767 25.5268 50.4071 24.1429 49.1691 25.3884C47.037 27.6718 47.9311 32.031 50.9573 36.0442C53.9835 40.1266 58.7979 45.9389 59.8984 46.9076C60.9988 47.8764 70.2149 54.8649 75.5795 57.4943C75.9922 57.7019 76.4049 57.5635 76.68 57.1483C77.4365 55.9028 78.9496 53.4119 79.4998 52.3739C79.6374 52.1664 79.5686 51.8896 79.3623 51.7512C77.4365 50.5057 67.7389 44.2091 64.8503 42.2717C64.4376 41.9949 64.025 41.5797 63.8186 41.0954C62.9933 39.4347 60.7924 35.4215 58.9355 33.3457C58.454 32.9997 58.1789 32.5845 57.9726 32.031C58.0414 32.1002 57.9726 32.031 57.9726 32.031Z" fill="#4846A5"/>
<path d="M65.1254 15.3552L68.4955 18.8149L67.6013 19.0917L68.7018 19.7144C68.7018 19.7144 71.3841 26.1495 70.8339 33.484C70.8339 33.484 72.2094 27.7409 69.252 19.5761L68.3579 19.0917L68.9769 18.8841L65.1254 15.3552Z" fill="#24126A"/>
<path d="M55.4966 13.4178C55.5654 13.5562 55.5654 13.6946 55.5654 13.833C55.5654 14.1098 55.4966 14.6633 55.5654 14.8709C55.6342 15.2169 57.7663 18.8149 62.0993 18.8149C62.0993 18.8149 62.6495 18.0538 62.7182 17.8462C62.7182 17.8462 64.5065 17.777 65.1942 17.0851C65.9508 16.4624 65.4693 15.2861 65.4693 15.2861L65.6069 13.9022C65.6069 13.7638 65.6757 13.5562 65.8132 13.487C65.9508 13.3486 66.1571 13.1411 66.2259 12.9335C66.2947 12.7951 66.1571 12.5183 66.0883 12.3107C66.0196 12.1723 66.0195 12.034 66.0195 11.8956C66.0883 11.5496 66.0883 10.8577 65.882 9.88895C65.8132 9.61218 65.8132 9.33539 65.882 9.05862C66.0196 8.64345 66.1571 8.02071 66.1571 7.74394C66.1571 7.39797 65.6069 6.42926 65.5381 6.08329C65.5381 5.73732 64.9879 4.42264 64.9879 4.42264C64.9879 4.42264 61.7554 -1.59722 56.5283 1.03214C51.3012 3.66151 53.9835 9.3354 54.6713 10.9269C54.6713 10.9269 55.2903 12.2415 55.4279 12.5183C55.4279 13.0027 55.3591 13.1411 55.4966 13.4178Z" fill="#FCD1C5"/>
<path d="M65.4005 5.39131C65.4693 5.80648 65.263 6.22163 64.9879 6.49841C64.3689 7.05196 63.1309 7.95148 61.4114 8.22825C60.2422 8.36664 59.6232 8.43584 59.2793 8.43584C59.073 8.43584 58.8667 8.64342 58.8667 8.851C58.8667 9.26616 58.7979 9.9581 58.7291 10.3733C58.7291 10.5808 58.6603 10.7192 58.5916 10.8576L58.2477 11.6188C58.1789 11.8263 57.9726 11.9647 57.7662 11.8955H57.6975C57.4911 11.8955 57.2848 11.6879 57.216 11.4804C57.1473 10.8576 56.8034 10.3041 56.2532 10.0273C55.978 9.88891 55.6342 9.81971 55.359 9.9581C54.4649 10.3041 54.8088 11.2036 54.8088 11.2036C54.8088 11.2036 53.7084 9.88891 53.227 8.15906C52.7455 6.42922 52.8831 3.24631 55.1527 1.58565C57.4224 -0.0749962 60.3798 -0.697742 62.8558 1.0321C64.7815 2.62356 65.263 4.4226 65.4005 5.39131Z" fill="#AA8383"/>
<path d="M56.8034 12.795C56.6658 12.6566 56.8034 13.8329 55.6341 13.9021C55.6341 14.1789 55.5654 14.7324 55.6341 14.94C55.7029 15.286 57.835 18.8841 62.168 18.8841C62.168 18.8841 62.7182 18.1229 62.787 17.9153C62.787 17.9153 58.7979 15.9779 58.1101 15.0784C57.2848 14.2481 56.9409 12.9334 56.8034 12.795Z" fill="#E2B1A6"/>
<path d="M63.8875 18.8148C63.8875 18.8148 65.0567 18.9532 65.6069 19.23C65.6069 19.23 65.7444 18.6072 65.4693 17.9153C65.4693 17.9153 65.8132 18.1921 65.8132 19.6451C65.8132 19.6451 64.0938 19.0916 63.9562 19.0224L63.8875 18.8148Z" fill="#C4CCD6"/>
<path d="M77.0927 56.2485C77.0927 56.2485 67.0512 50.4363 63.6123 48.0837C60.2423 45.8003 50.6822 35.9747 48.7565 32.2383C49.2379 33.4838 49.9945 34.7985 50.9573 36.0439C53.9835 40.1264 58.7979 45.9387 59.8984 46.9074C60.9988 47.8761 70.2149 54.8647 75.5796 57.494C75.9922 57.7016 76.4049 57.5632 76.68 57.148C76.8175 56.9405 77.0239 56.5945 77.1614 56.3177C77.0927 56.3177 77.0927 56.2485 77.0927 56.2485Z" fill="#24126A"/>
<path d="M53.9147 18.2612L58.5228 24.8346L59.692 24.4195L59.7608 25.665C59.7608 25.665 65.263 29.8166 69.3896 38.3274C69.3896 38.3274 63.9562 29.4706 59.6232 26.5645L59.2106 25.319L58.3165 25.5266L53.9147 18.2612Z" fill="#24126A"/>
<path d="M53.5021 9.12784C53.4333 9.12784 53.4333 9.12784 53.3645 9.05865C53.9147 10.3733 54.6713 11.342 54.6713 11.342C54.6713 11.342 54.3274 10.4425 55.2215 10.0966C55.5654 9.95817 55.8405 10.0274 56.1156 10.1658C56.6658 10.4425 57.0097 10.9961 57.0785 11.6188C57.0785 11.8264 57.2848 12.034 57.5599 12.034H57.6287C57.835 12.034 58.0413 11.9648 58.1101 11.7572L58.454 10.9961C58.5228 10.8577 58.5916 10.6501 58.5916 10.5117C58.6603 10.0966 58.7291 9.40462 58.7291 8.98946C58.7979 8.85107 55.7717 9.88898 53.5021 9.12784Z" fill="#936D6D"/>
<defs>
<radialGradient id="paint0_radial" cx="0" cy="0" r="1" gradientUnits="userSpaceOnUse" gradientTransform="translate(93.5011 106.65) rotate(150.152) scale(76.2224 65.8076)">
<stop stop-color="#42E8E0"/>
<stop offset="0.1539" stop-color="#33AEB9"/>
<stop offset="0.3113" stop-color="#267A95"/>
<stop offset="0.4663" stop-color="#1B5078"/>
<stop offset="0.6156" stop-color="#132E61"/>
<stop offset="0.7574" stop-color="#0D1651"/>
<stop offset="0.8889" stop-color="#090847"/>
<stop offset="1" stop-color="#080344"/>
</radialGradient>
</defs>
</svg>
